<?xml version="1.0" encoding="utf-8"?>
<!-- Generator: Adobe Illustrator 24.1.0, SVG Export Plug-In . SVG Version: 6.00 Build 0)  -->
<svg version="1.1" id="图层_1" xmlns="http://www.w3.org/2000/svg" xmlns:xlink="http://www.w3.org/1999/xlink" x="0px" y="0px"
	 viewBox="0 0 1252.1 65.2" style="enable-background:new 0 0 1252.1 65.2;" xml:space="preserve">
<style type="text/css">
	.st0{fill:#FFFFFF;}
</style>
<rect class="st0" width="1252.1" height="65.2"/>
<path d="M102.1,22.9v3.4H91.2v7.6h8.5v3.4h-8.5v11.2H87V22.9H102.1z"/>
<path d="M105.2,24.8c-1.1-1-1.1-2.8,0-3.8c0.5-0.5,1.2-0.8,2-0.8c0.7,0,1.4,0.3,1.9,0.8c1,1.1,1,2.8,0,3.8c-0.5,0.5-1.2,0.8-1.9,0.8
	C106.4,25.5,105.7,25.3,105.2,24.8z M109.2,28.2v20.4H105V28.2H109.2z"/>
<path d="M132.3,40h-15.6c0.1,3.1,2.7,5.5,5.8,5.4c2,0.1,4-1,4.8-2.8h4.6c-0.6,1.9-1.8,3.5-3.4,4.6c-1.8,1.2-3.9,1.9-6,1.8
	c-1.8,0-3.6-0.4-5.2-1.3c-1.5-0.9-2.8-2.1-3.6-3.7c-0.9-1.7-1.4-3.6-1.3-5.5c0-1.9,0.4-3.8,1.3-5.5c0.8-1.5,2.1-2.8,3.6-3.7
	c1.6-0.9,3.5-1.3,5.3-1.3c1.8,0,3.6,0.4,5.2,1.3c1.5,0.8,2.7,2,3.5,3.5c0.9,1.6,1.3,3.4,1.3,5.2C132.4,38.6,132.4,39.3,132.3,40z
	 M128,36.6c0-1.4-0.6-2.8-1.7-3.7c-1.1-0.9-2.5-1.4-4-1.4c-1.4,0-2.7,0.5-3.7,1.4c-1.1,1-1.7,2.3-1.8,3.8H128z"/>
<path d="M139.8,21.2v27.4h-4.2V21.2H139.8z"/>
<path d="M144.1,32.9c1.6-3.1,4.9-5.1,8.4-5c1.4,0,2.7,0.3,3.9,0.9c1.2,0.5,2.3,1.3,3.1,2.3v-9.8h4.2v27.4h-4.2v-3.1
	c-0.7,1-1.7,1.9-2.9,2.5c-1.3,0.7-2.7,1-4.2,1c-1.7,0-3.4-0.5-4.9-1.3c-1.5-0.9-2.7-2.2-3.5-3.8c-0.9-1.7-1.3-3.6-1.3-5.5
	C142.8,36.5,143.3,34.6,144.1,32.9z M158.7,34.7c-0.5-1-1.3-1.8-2.3-2.4c-0.9-0.5-1.9-0.8-3-0.8c-1.1,0-2.1,0.3-3,0.8
	c-1,0.6-1.7,1.4-2.3,2.3c-0.6,1.1-0.9,2.4-0.9,3.6c0,1.3,0.3,2.6,0.9,3.7c0.5,1,1.3,1.8,2.3,2.4c0.9,0.5,1.9,0.8,3,0.8
	c1.1,0,2.1-0.3,3-0.8c1-0.6,1.8-1.4,2.3-2.4c0.6-1.1,0.9-2.4,0.9-3.7C159.6,37.1,159.3,35.9,158.7,34.7z"/>
<path d="M190.3,48.6l-5.9-10.3h-3.2v10.3h-4.2V22.9h8.9c1.7-0.1,3.4,0.3,5,1c1.3,0.6,2.3,1.6,3.1,2.8c1.5,2.7,1.3,6-0.4,8.5
	c-1.1,1.5-2.7,2.5-4.5,2.9l6.4,10.7L190.3,48.6z M181.1,35h4.7c1.3,0.1,2.6-0.3,3.6-1.2c0.8-0.8,1.3-2,1.2-3.2
	c0.1-1.2-0.4-2.3-1.2-3.1c-1-0.8-2.3-1.2-3.6-1.1h-4.7L181.1,35z"/>
<path d="M217.8,40h-15.6c0.1,1.5,0.7,2.9,1.8,3.9c1.1,1,2.5,1.5,4,1.5c2,0.1,4-1,4.8-2.8h4.6c-0.6,1.9-1.8,3.5-3.4,4.6
	c-1.7,1.2-3.9,1.9-6,1.8c-1.8,0-3.6-0.4-5.2-1.3c-1.5-0.9-2.8-2.2-3.6-3.7c-0.9-1.7-1.4-3.6-1.3-5.5c0-1.9,0.4-3.8,1.3-5.5
	c0.8-1.5,2.1-2.8,3.6-3.7c1.6-0.9,3.5-1.4,5.3-1.3c1.8,0,3.6,0.4,5.1,1.3c1.5,0.8,2.7,2,3.5,3.5c0.9,1.6,1.3,3.4,1.2,5.2
	C217.9,38.6,217.9,39.3,217.8,40z M213.5,36.6c0-1.4-0.6-2.8-1.7-3.7c-1.1-0.9-2.5-1.4-4-1.4c-1.4,0-2.7,0.5-3.7,1.4
	c-1.1,1-1.7,2.3-1.9,3.8H213.5z"/>
<path d="M224.1,48.1c-1.2-0.5-2.2-1.3-3-2.4c-0.7-1-1.1-2.1-1.2-3.3h4.4c0.1,0.9,0.5,1.7,1.2,2.2c0.8,0.6,1.8,0.9,2.8,0.9
	c1,0.1,1.9-0.2,2.8-0.7c0.6-0.4,1-1,1-1.8c0-0.7-0.4-1.4-1.1-1.7c-1.1-0.5-2.3-0.9-3.5-1.3c-1.3-0.3-2.5-0.7-3.7-1.2
	c-1-0.4-1.8-1-2.5-1.8c-0.7-0.9-1.1-2.1-1.1-3.2c0-1.1,0.4-2.1,1-3c0.7-0.9,1.7-1.6,2.7-2.1c1.3-0.5,2.7-0.8,4.1-0.8
	c2-0.1,4,0.5,5.6,1.8c1.4,1.2,2.3,2.9,2.3,4.8h-4.2c0-0.9-0.4-1.7-1.1-2.2c-0.8-0.6-1.7-0.9-2.7-0.8c-0.9-0.1-1.8,0.2-2.6,0.6
	c-0.6,0.4-0.9,1-0.9,1.7c0,0.5,0.2,1,0.6,1.4c0.4,0.4,0.9,0.7,1.4,0.9c0.6,0.2,1.4,0.5,2.5,0.8c1.2,0.3,2.5,0.7,3.6,1.2
	c0.9,0.4,1.8,1,2.5,1.8c0.7,0.9,1.1,2,1.1,3.1c0,1.1-0.3,2.2-1,3.1c-0.7,1-1.6,1.7-2.7,2.1c-1.3,0.5-2.7,0.8-4.1,0.8
	C226.9,49,225.5,48.7,224.1,48.1z"/>
<path d="M258.3,40h-15.6c0.1,3.1,2.7,5.5,5.8,5.4c2,0.1,4-1,4.8-2.8h4.5c-0.6,1.9-1.8,3.5-3.4,4.6c-1.8,1.2-3.9,1.9-6,1.8
	c-1.8,0-3.6-0.4-5.2-1.3c-1.5-0.9-2.8-2.1-3.6-3.7c-0.9-1.7-1.4-3.6-1.3-5.5c0-1.9,0.4-3.8,1.3-5.5c0.8-1.5,2.1-2.8,3.6-3.7
	c1.6-0.9,3.5-1.3,5.3-1.3c1.8,0,3.6,0.4,5.1,1.3c1.5,0.8,2.7,2,3.5,3.5c0.9,1.6,1.3,3.4,1.3,5.2C258.5,38.6,258.4,39.3,258.3,40z
	 M254,36.6c0-1.4-0.6-2.8-1.7-3.7c-1.1-0.9-2.5-1.4-4-1.4c-1.4,0-2.7,0.5-3.7,1.4c-1.1,1-1.7,2.3-1.9,3.8H254z"/>
<path d="M261.4,32.9c1.6-3.1,4.8-5,8.3-5c1.5,0,2.9,0.3,4.2,0.9c1.1,0.6,2.1,1.4,2.9,2.4v-3h4.2v20.4h-4.2v-3
	c-0.8,1-1.8,1.8-2.9,2.4c-2.9,1.4-6.3,1.3-9-0.4c-1.5-0.9-2.7-2.2-3.5-3.8c-0.9-1.7-1.3-3.6-1.3-5.5
	C260.1,36.4,260.6,34.6,261.4,32.9z M276,34.7c-0.5-1-1.3-1.8-2.3-2.4c-0.9-0.5-1.9-0.8-3-0.8c-1.1,0-2.1,0.3-3,0.8
	c-1,0.6-1.7,1.4-2.3,2.3c-0.6,1.1-0.9,2.4-0.9,3.6c0,1.3,0.3,2.6,0.9,3.7c0.5,1,1.3,1.8,2.3,2.4c1.9,1.1,4.2,1.1,6,0
	c0.9-0.6,1.7-1.4,2.2-2.4c0.6-1.1,0.9-2.4,0.9-3.7C276.9,37.1,276.6,35.9,276,34.7z"/>
<path d="M292.3,28.8c1.1-0.6,2.4-0.9,3.6-0.9v4.4h-1.1c-1.4-0.1-2.7,0.4-3.8,1.3c-0.9,0.8-1.3,2.3-1.3,4.4v10.7h-4.2V28.2h4.2v3
	C290.4,30.2,291.3,29.4,292.3,28.8z"/>
<path d="M298.6,32.9c0.8-1.5,2-2.8,3.5-3.7c1.6-0.9,3.4-1.3,5.2-1.3c2.2-0.1,4.3,0.5,6.1,1.8c1.7,1.2,2.8,3,3.3,5h-4.5
	c-0.3-1-1-1.8-1.8-2.4c-0.9-0.6-2-0.9-3.1-0.9c-1.6-0.1-3.1,0.6-4.1,1.8c-1.1,1.5-1.7,3.3-1.5,5.1c-0.1,1.8,0.4,3.7,1.5,5.1
	c1,1.2,2.5,1.9,4.1,1.8c2.2,0.2,4.2-1.1,4.9-3.2h4.5c-0.5,2-1.7,3.7-3.3,4.9c-1.8,1.3-3.9,1.9-6.1,1.9c-1.8,0-3.6-0.4-5.2-1.3
	c-1.5-0.9-2.7-2.2-3.5-3.7c-0.9-1.7-1.3-3.6-1.3-5.5C297.3,36.5,297.8,34.6,298.6,32.9z"/>
<path d="M334.6,28.9c1.2,0.7,2.2,1.7,2.9,3c0.7,1.5,1.1,3.1,1.1,4.7v12h-4.2V37.2c0.1-1.5-0.4-3-1.4-4.2c-2.1-1.9-5.4-1.9-7.5,0
	c-1,1.2-1.5,2.7-1.4,4.2v11.4h-4.2V21.2h4.2v9.4c0.7-0.9,1.7-1.6,2.7-2c1.1-0.5,2.4-0.7,3.6-0.7C331.9,27.9,333.4,28.2,334.6,28.9z"
	/>
<path d="M597.4,18.3v9.1h-1.2v-9.1H597.4z"/>
<path d="M602.2,21.8c0.3-0.5,0.7-1,1.2-1.3c0.5-0.3,1.2-0.5,1.8-0.5c0.8,0,1.5,0.2,2.2,0.6c0.6,0.4,1,1.1,1.1,1.8h-1.3
	c-0.1-0.4-0.4-0.8-0.7-1c-0.4-0.3-0.8-0.4-1.3-0.4c-0.6,0-1.2,0.2-1.6,0.7c-0.5,0.6-0.7,1.3-0.6,2c0,0.7,0.2,1.4,0.6,2
	c0.4,0.5,1,0.7,1.6,0.7c0.5,0,0.9-0.1,1.3-0.4c0.3-0.2,0.6-0.6,0.7-1h1.3c-0.2,0.7-0.6,1.3-1.1,1.8c-0.6,0.5-1.4,0.7-2.2,0.7
	c-0.6,0-1.3-0.2-1.8-0.5c-0.5-0.3-1-0.8-1.2-1.3c-0.6-1.2-0.6-2.7,0-3.9L602.2,21.8z"/>
<path d="M611,27c-0.5-0.3-1-0.7-1.3-1.3c-0.3-0.6-0.5-1.3-0.5-2c0-0.7,0.1-1.3,0.5-1.9c0.3-0.5,0.8-1,1.3-1.3
	c0.6-0.3,1.2-0.5,1.8-0.5c0.6,0,1.3,0.1,1.8,0.5c0.5,0.3,1,0.7,1.3,1.3c0.6,1.2,0.6,2.7,0,3.9c-0.3,0.5-0.8,1-1.3,1.3
	c-0.6,0.3-1.2,0.5-1.8,0.5C612.2,27.5,611.5,27.3,611,27z M614,26.1c0.4-0.2,0.7-0.5,0.9-0.9c0.2-0.5,0.4-1,0.3-1.5
	c0-0.5-0.1-1-0.3-1.5c-0.2-0.4-0.5-0.7-0.9-0.9c-0.4-0.2-0.8-0.3-1.2-0.3c-0.4,0-0.8,0.1-1.2,0.3c-0.4,0.2-0.7,0.5-0.9,0.9
	c-0.2,0.4-0.3,0.9-0.3,1.5c0,0.5,0.1,1,0.3,1.5c0.2,0.4,0.5,0.7,0.9,0.9c0.4,0.2,0.8,0.3,1.2,0.3C613.2,26.4,613.6,26.3,614,26.1
	L614,26.1z"/>
<path d="M623.2,20.9c0.6,0.6,0.9,1.4,0.8,2.3v4.2h-1.2v-4c0-0.6-0.2-1.2-0.5-1.6c-0.4-0.4-0.9-0.6-1.5-0.6c-0.6,0-1.1,0.2-1.5,0.6
	c-0.4,0.5-0.6,1.1-0.5,1.7v3.9h-1.2v-7.2h1.2v1c0.2-0.4,0.6-0.7,1-0.9c0.4-0.2,0.9-0.3,1.3-0.3C621.9,20.1,622.7,20.4,623.2,20.9z"
	/>
<path d="M625.6,21.8c0.3-0.5,0.7-1,1.2-1.3c0.5-0.3,1.1-0.5,1.7-0.5c0.5,0,1.1,0.1,1.5,0.4c0.4,0.2,0.8,0.6,1.1,1v-3.8h1.2v9.6h-1.2
	V26c-0.2,0.4-0.6,0.8-1,1c-0.5,0.3-1,0.4-1.6,0.4c-1.2,0-2.4-0.7-2.9-1.8c-0.3-0.6-0.4-1.3-0.4-1.9
	C625.2,23.1,625.3,22.4,625.6,21.8z M630.9,22.4c-0.2-0.4-0.5-0.7-0.9-0.9c-0.4-0.2-0.8-0.3-1.2-0.3c-0.4,0-0.8,0.1-1.2,0.3
	c-0.4,0.2-0.7,0.5-0.9,0.9c-0.2,0.4-0.3,0.9-0.3,1.4c0,0.5,0.1,1,0.3,1.4c0.2,0.4,0.5,0.7,0.9,0.9c0.4,0.2,0.8,0.3,1.2,0.3
	c0.4,0,0.8-0.1,1.2-0.3c0.4-0.2,0.7-0.5,0.9-0.9C631.3,24.3,631.3,23.3,630.9,22.4z"/>
<path d="M640.3,20.2v7.1h-1.2v-1c-0.2,0.4-0.6,0.7-0.9,0.9c-0.4,0.2-0.9,0.3-1.3,0.3c-0.5,0-1-0.1-1.5-0.3c-0.4-0.2-0.8-0.6-1-1
	c-0.3-0.5-0.4-1.1-0.4-1.7v-4.2h1.2v4c0,0.6,0.2,1.2,0.5,1.6c0.4,0.4,0.9,0.6,1.5,0.6c0.6,0,1.1-0.2,1.5-0.6
	c0.4-0.5,0.6-1.1,0.5-1.7v-3.9H640.3z"/>
<path d="M642,21.8c0.3-0.5,0.7-1,1.2-1.3c0.5-0.3,1.2-0.5,1.8-0.5c0.8,0,1.5,0.2,2.2,0.6c0.6,0.4,1,1.1,1.1,1.8H647
	c-0.1-0.4-0.4-0.8-0.7-1c-0.4-0.3-0.8-0.4-1.3-0.4c-0.6,0-1.2,0.2-1.6,0.7c-0.5,0.6-0.7,1.3-0.6,2c0,0.7,0.2,1.4,0.6,2
	c0.4,0.5,1,0.7,1.6,0.7c0.5,0,0.9-0.1,1.3-0.4c0.3-0.2,0.6-0.6,0.7-1h1.3c-0.2,0.7-0.6,1.3-1.2,1.8c-0.6,0.5-1.4,0.7-2.1,0.7
	c-0.6,0-1.3-0.1-1.8-0.5c-0.5-0.3-1-0.8-1.2-1.3c-0.6-1.2-0.6-2.7,0-3.9L642,21.8z"/>
<path d="M651,21.2v4.2c0,0.3,0.1,0.5,0.2,0.7c0.2,0.2,0.5,0.3,0.8,0.2h0.9v1h-1.1c-0.5,0-1.1-0.1-1.5-0.5c-0.4-0.4-0.5-1-0.5-1.5
	v-4.2h-1v-1h1v-1.8h1.2v1.8h1.8v1H651z"/>
<path d="M660.3,24.2h-5.7c0,0.6,0.3,1.2,0.7,1.6c0.4,0.4,1,0.6,1.6,0.6c0.5,0,0.9-0.1,1.3-0.4c0.3-0.2,0.6-0.6,0.7-1h1.3
	c-0.2,0.7-0.6,1.3-1.1,1.7c-0.6,0.4-1.4,0.7-2.1,0.6c-0.6,0-1.3-0.2-1.8-0.5c-0.5-0.3-1-0.7-1.2-1.3c-0.3-0.6-0.5-1.3-0.5-2
	c0-0.7,0.1-1.3,0.5-1.9c0.3-0.5,0.7-1,1.2-1.3c0.6-0.3,1.2-0.5,1.8-0.5c0.6,0,1.2,0.1,1.8,0.4c0.5,0.3,0.9,0.7,1.2,1.2
	c0.3,0.5,0.4,1.1,0.4,1.7C660.4,23.7,660.4,24,660.3,24.2z M658.8,22.1c-0.2-0.3-0.5-0.6-0.8-0.7c-0.4-0.2-0.7-0.3-1.1-0.2
	c-0.6,0-1.1,0.2-1.5,0.6c-0.4,0.4-0.7,1-0.7,1.6h4.5C659.1,22.9,659,22.5,658.8,22.1z"/>
<path d="M661.6,21.8c0.3-0.5,0.7-1,1.2-1.3c0.5-0.3,1.1-0.5,1.7-0.5c0.5,0,1.1,0.1,1.5,0.4c0.4,0.2,0.8,0.6,1.1,1v-3.8h1.2v9.6h-1.2
	V26c-0.2,0.4-0.6,0.8-1,1c-0.5,0.3-1,0.4-1.6,0.4c-1.2,0-2.4-0.7-2.9-1.8c-0.3-0.6-0.4-1.3-0.4-1.9
	C661.2,23.1,661.3,22.4,661.6,21.8z M666.8,22.4c-0.2-0.4-0.5-0.7-0.9-0.9c-0.8-0.4-1.7-0.4-2.4,0c-0.4,0.2-0.7,0.5-0.9,0.9
	c-0.2,0.4-0.3,0.9-0.3,1.4c0,0.5,0.1,1,0.3,1.4c0.2,0.4,0.5,0.7,0.9,0.9c0.8,0.4,1.7,0.4,2.4,0c0.4-0.2,0.7-0.5,0.9-0.9
	C667.3,24.3,667.3,23.3,666.8,22.4z"/>
<path d="M676,21.2h-1.5v6.1h-1.2v-6.1h-0.9v-1h0.9v-0.5c-0.1-0.6,0.2-1.3,0.6-1.8c0.6-0.4,1.3-0.6,2-0.5v1c-0.4,0-0.8,0.1-1.1,0.3
	c-0.2,0.3-0.3,0.6-0.3,1v0.5h1.5L676,21.2z"/>
<path d="M677.1,18.8c-0.2-0.2-0.2-0.4-0.2-0.6c0-0.2,0.1-0.4,0.2-0.6c0.2-0.2,0.4-0.2,0.6-0.2c0.2,0,0.4,0.1,0.5,0.2
	c0.1,0.2,0.2,0.4,0.2,0.6c0,0.2-0.1,0.4-0.2,0.6c-0.1,0.2-0.3,0.2-0.5,0.2C677.4,19.1,677.2,19,677.1,18.8z M678.2,20.2v7.1H677
	v-7.1H678.2z"/>
<path d="M686.3,24.2h-5.7c0,1.2,1,2.2,2.3,2.2c0,0,0,0,0.1,0c0.5,0,0.9-0.1,1.3-0.4c0.3-0.2,0.6-0.6,0.7-1h1.3
	c-0.2,0.7-0.6,1.3-1.2,1.7c-0.6,0.4-1.4,0.7-2.1,0.6c-0.6,0-1.3-0.1-1.8-0.4c-0.5-0.3-1-0.7-1.3-1.3c-0.3-0.6-0.5-1.3-0.5-2
	c0-0.7,0.1-1.3,0.4-1.9c0.3-0.5,0.7-1,1.2-1.3c0.6-0.3,1.2-0.5,1.8-0.5c0.6,0,1.2,0.1,1.8,0.4c0.5,0.3,0.9,0.7,1.2,1.2
	c0.3,0.5,0.4,1.1,0.4,1.7C686.3,23.7,686.3,24,686.3,24.2z M684.8,22.1c-0.2-0.3-0.5-0.6-0.8-0.7c-0.4-0.2-0.7-0.3-1.1-0.2
	c-0.6,0-1.1,0.2-1.5,0.6c-0.4,0.4-0.7,1-0.7,1.6h4.5C685.1,22.9,685,22.5,684.8,22.1z"/>
<path d="M688.7,17.7v9.6h-1.2v-9.6H688.7z"/>
<path d="M690.4,21.8c0.3-0.5,0.7-1,1.2-1.3c0.5-0.3,1.1-0.5,1.7-0.5c0.5,0,1.1,0.1,1.5,0.4c0.4,0.2,0.8,0.6,1.1,1v-3.8h1.2v9.6H696
	V26c-0.2,0.4-0.6,0.8-1,1c-0.5,0.3-1,0.4-1.6,0.4c-0.6,0-1.2-0.2-1.7-0.5c-0.5-0.3-0.9-0.8-1.2-1.3c-0.3-0.6-0.5-1.3-0.4-1.9
	C690,23.1,690.1,22.4,690.4,21.8z M695.6,22.4c-0.2-0.4-0.5-0.7-0.9-0.9c-0.4-0.2-0.8-0.3-1.2-0.3c-0.4,0-0.8,0.1-1.2,0.3
	c-0.4,0.2-0.7,0.5-0.9,0.9c-0.2,0.4-0.3,0.9-0.3,1.4c0,0.5,0.1,1,0.3,1.4c0.2,0.4,0.5,0.7,0.9,0.9c0.4,0.2,0.8,0.3,1.2,0.3
	c0.4,0,0.8-0.1,1.2-0.3c0.4-0.2,0.7-0.5,0.9-0.9C696.1,24.3,696.1,23.3,695.6,22.4z"/>
<path d="M704,20.4c0.4-0.2,0.9-0.3,1.4-0.3v1.2h-0.3c-1.3,0-2,0.7-2,2.2v3.9h-1.2v-7.1h1.2v1.1C703.3,21,703.6,20.7,704,20.4z"/>
<path d="M712.8,24.2h-5.7c0,1.2,1,2.2,2.3,2.2c0,0,0,0,0.1,0c0.5,0,0.9-0.1,1.3-0.4c0.3-0.2,0.6-0.6,0.7-1h1.3
	c-0.2,0.7-0.6,1.3-1.1,1.7c-0.6,0.4-1.4,0.7-2.1,0.6c-0.6,0-1.3-0.2-1.8-0.5c-0.5-0.3-1-0.7-1.2-1.3c-0.3-0.6-0.5-1.3-0.5-2
	c0-0.7,0.1-1.3,0.4-1.9c0.3-0.5,0.7-1,1.2-1.3c0.6-0.3,1.2-0.5,1.8-0.5c0.6,0,1.2,0.1,1.8,0.4c0.5,0.3,0.9,0.7,1.2,1.2
	c0.3,0.5,0.4,1.1,0.4,1.7C712.9,23.7,712.9,24,712.8,24.2z M711.3,22.1c-0.2-0.3-0.5-0.6-0.8-0.7c-0.4-0.2-0.7-0.3-1.1-0.2
	c-0.6,0-1.1,0.2-1.5,0.6c-0.4,0.4-0.7,1-0.7,1.6h4.5C711.7,22.9,711.6,22.5,711.3,22.1L711.3,22.1z"/>
<path d="M715.1,27.2c-0.4-0.2-0.7-0.4-1-0.8c-0.3-0.3-0.4-0.7-0.4-1.1h1.2c0,0.3,0.2,0.7,0.5,0.9c0.3,0.2,0.8,0.4,1.2,0.3
	c0.4,0,0.8-0.1,1.1-0.3c0.2-0.2,0.4-0.5,0.4-0.8c0-0.3-0.2-0.6-0.4-0.7c-0.4-0.2-0.8-0.3-1.3-0.5c-0.4-0.1-0.9-0.3-1.3-0.4
	c-0.3-0.1-0.6-0.4-0.9-0.6c-0.5-0.6-0.5-1.5,0-2.1c0.2-0.3,0.6-0.6,0.9-0.7c0.4-0.2,0.9-0.3,1.4-0.3c0.7,0,1.4,0.2,1.9,0.6
	c0.5,0.4,0.8,1,0.8,1.6H718c0-0.3-0.2-0.7-0.4-0.9c-0.3-0.2-0.7-0.4-1.1-0.3c-0.4,0-0.7,0.1-1,0.3c-0.2,0.2-0.4,0.4-0.4,0.7
	c0,0.2,0.1,0.4,0.2,0.6c0.1,0.1,0.3,0.2,0.5,0.3c0.2,0.1,0.5,0.2,1,0.3c0.4,0.1,0.8,0.2,1.2,0.4c0.3,0.1,0.6,0.3,0.8,0.6
	c0.2,0.3,0.4,0.7,0.3,1c0,0.4-0.1,0.7-0.3,1.1c-0.2,0.3-0.6,0.6-0.9,0.7c-0.4,0.2-0.9,0.3-1.4,0.3C716.1,27.5,715.6,27.4,715.1,27.2
	z"/>
<path d="M727,24.2h-5.7c0,1.2,1,2.2,2.3,2.2c0,0,0,0,0.1,0c0.5,0,0.9-0.1,1.3-0.4c0.3-0.2,0.6-0.6,0.7-1h1.3
	c-0.2,0.7-0.6,1.3-1.1,1.7c-0.6,0.4-1.4,0.7-2.1,0.6c-0.6,0-1.2-0.1-1.8-0.4c-0.5-0.3-1-0.7-1.2-1.3c-0.3-0.6-0.5-1.3-0.5-2
	c0-0.7,0.1-1.3,0.4-1.9c0.3-0.5,0.7-1,1.2-1.3c0.6-0.3,1.2-0.5,1.8-0.5c0.6,0,1.2,0.1,1.8,0.4c0.5,0.3,0.9,0.7,1.2,1.2
	c0.3,0.5,0.4,1.1,0.4,1.7C727,23.7,727,24,727,24.2z M725.5,22.1c-0.2-0.3-0.5-0.6-0.8-0.7c-0.4-0.2-0.7-0.3-1.1-0.2
	c-0.6,0-1.1,0.2-1.5,0.6c-0.4,0.4-0.7,1-0.7,1.6h4.5C725.8,22.9,725.7,22.5,725.5,22.1L725.5,22.1z"/>
<path d="M728.2,21.8c0.3-0.5,0.7-1,1.2-1.3c0.5-0.3,1.1-0.5,1.7-0.5c0.6,0,1.1,0.1,1.6,0.4c0.4,0.2,0.8,0.6,1,1v-1.3h1.2v7.1h-1.1
	V26c-0.3,0.4-0.6,0.8-1,1c-0.5,0.3-1.1,0.4-1.6,0.4c-1.2,0-2.4-0.7-2.9-1.8c-0.3-0.6-0.5-1.3-0.4-1.9
	C727.8,23.1,727.9,22.4,728.2,21.8z M733.5,22.4c-0.2-0.4-0.5-0.7-0.9-0.9c-0.4-0.2-0.8-0.3-1.2-0.3c-0.4,0-0.8,0.1-1.2,0.3
	c-0.4,0.2-0.7,0.5-0.9,0.9c-0.2,0.4-0.3,0.9-0.3,1.4c0,0.5,0.1,1,0.3,1.4c0.2,0.4,0.5,0.7,0.9,0.9c0.4,0.2,0.8,0.3,1.2,0.3
	c0.4,0,0.8-0.1,1.2-0.3c0.4-0.2,0.7-0.5,0.9-0.9C733.9,24.3,733.9,23.3,733.5,22.4z"/>
<path d="M738.7,20.4c0.4-0.2,0.9-0.3,1.4-0.3v1.2h-0.3c-1.3,0-2,0.7-2,2.2v3.9h-1.2v-7.1h1.2v1.1C738,21,738.3,20.7,738.7,20.4z"/>
<path d="M741.1,21.8c0.3-0.5,0.7-1,1.2-1.3c0.5-0.3,1.2-0.5,1.8-0.5c0.8,0,1.5,0.2,2.2,0.6c0.6,0.4,1,1.1,1.1,1.8h-1.3
	c-0.1-0.4-0.4-0.8-0.7-1c-0.4-0.3-0.8-0.4-1.3-0.4c-0.6,0-1.2,0.2-1.6,0.7c-0.5,0.6-0.7,1.3-0.6,2c-0.1,0.7,0.2,1.4,0.6,2
	c0.4,0.5,1,0.7,1.6,0.7c0.5,0,0.9-0.1,1.3-0.4c0.3-0.2,0.6-0.6,0.7-1h1.3c-0.2,0.7-0.6,1.3-1.2,1.8c-0.6,0.5-1.4,0.7-2.1,0.7
	c-0.6,0-1.3-0.1-1.8-0.5c-0.5-0.3-1-0.7-1.2-1.3c-0.6-1.2-0.6-2.7,0-3.9L741.1,21.8z"/>
<path d="M753.6,20.4c0.4,0.2,0.8,0.6,1,1c0.3,0.5,0.4,1.1,0.4,1.7v4.2h-1.2v-4c0-0.6-0.2-1.2-0.5-1.6c-0.4-0.4-0.9-0.6-1.5-0.6
	c-0.6,0-1.1,0.2-1.5,0.6c-0.4,0.5-0.6,1.1-0.5,1.7v3.9h-1.2v-9.6h1.2v3.5c0.2-0.4,0.6-0.7,1-0.9c0.4-0.2,0.9-0.3,1.4-0.3
	C752.7,20.1,753.2,20.2,753.6,20.4z"/>
<path d="M761.2,21.2v4.2c0,0.3,0.1,0.5,0.2,0.7c0.2,0.2,0.5,0.3,0.8,0.2h0.9v1h-1.1c-0.5,0-1.1-0.1-1.5-0.5
	c-0.4-0.4-0.5-0.9-0.5-1.5v-4.2H759v-1h0.9v-1.8h1.2v1.8h1.9v1H761.2z"/>
<path d="M765.4,27c-0.5-0.3-1-0.7-1.3-1.3c-0.3-0.6-0.5-1.3-0.5-2c0-0.7,0.2-1.3,0.5-1.9c0.3-0.5,0.7-1,1.3-1.3
	c1.2-0.6,2.5-0.6,3.7,0c0.5,0.3,1,0.7,1.3,1.3c0.3,0.6,0.5,1.3,0.5,1.9c0,0.7-0.2,1.4-0.5,2c-0.3,0.5-0.8,1-1.3,1.3
	c-0.6,0.3-1.2,0.5-1.8,0.5C766.6,27.5,765.9,27.3,765.4,27z M768.4,26.1c0.4-0.2,0.7-0.5,0.9-0.9c0.2-0.4,0.4-1,0.3-1.5
	c0-0.5-0.1-1-0.3-1.5c-0.2-0.4-0.5-0.7-0.9-0.9c-0.4-0.2-0.8-0.3-1.2-0.3c-0.4,0-0.8,0.1-1.2,0.3c-0.4,0.2-0.7,0.5-0.9,0.9
	c-0.2,0.4-0.3,0.9-0.3,1.5c0,0.5,0.1,1,0.3,1.5c0.2,0.4,0.5,0.7,0.8,0.9c0.4,0.2,0.8,0.3,1.2,0.3C767.6,26.4,768,26.3,768.4,26.1
	L768.4,26.1z"/>
<path d="M776.6,21.2v4.2c0,0.3,0.1,0.5,0.2,0.7c0.2,0.2,0.5,0.3,0.8,0.2h0.9v1h-1.1c-0.5,0-1.1-0.1-1.5-0.5
	c-0.4-0.4-0.5-0.9-0.5-1.5v-4.2h-0.9v-1h0.9v-1.8h1.2v1.8h1.9v1H776.6z"/>
<path d="M781.6,20.4c0.4-0.2,0.9-0.3,1.4-0.3v1.2h-0.3c-1.3,0-2,0.7-2,2.2v3.9h-1.2v-7.1h1.2v1.1C780.9,21,781.2,20.7,781.6,20.4z"
	/>
<path d="M784,21.8c0.3-0.5,0.7-1,1.2-1.3c0.5-0.3,1.1-0.5,1.7-0.5c0.6,0,1.1,0.1,1.6,0.4c0.4,0.2,0.8,0.6,1,1v-1.3h1.3v7.1h-1.2V26
	c-0.2,0.4-0.6,0.8-1,1c-0.5,0.3-1,0.4-1.6,0.4c-1.2,0-2.4-0.7-2.9-1.8c-0.3-0.6-0.4-1.3-0.4-1.9C783.6,23.1,783.7,22.4,784,21.8z
	 M789.3,22.4c-0.2-0.4-0.5-0.7-0.9-0.9c-0.8-0.4-1.7-0.4-2.4,0c-0.4,0.2-0.7,0.5-0.9,0.9c-0.2,0.4-0.3,0.9-0.3,1.4
	c0,0.5,0.1,1,0.3,1.4c0.2,0.4,0.5,0.7,0.9,0.9c0.8,0.4,1.7,0.4,2.4,0c0.4-0.2,0.7-0.5,0.9-0.9C789.7,24.3,789.7,23.3,789.3,22.4z"/>
<path d="M795.1,26.3l2.2-6h1.3l-2.8,7.1h-1.4l-2.8-7.1h1.2L795.1,26.3z"/>
<path d="M805.8,24.2h-5.7c0,1.2,1,2.2,2.3,2.2c0,0,0,0,0.1,0c0.5,0,0.9-0.1,1.3-0.4c0.3-0.2,0.6-0.6,0.7-1h1.3
	c-0.2,0.7-0.6,1.3-1.1,1.7c-0.6,0.4-1.4,0.7-2.1,0.6c-0.6,0-1.3-0.2-1.8-0.5c-0.5-0.3-1-0.7-1.2-1.3c-0.3-0.6-0.5-1.3-0.5-2
	c0-0.7,0.1-1.3,0.4-1.9c0.3-0.5,0.7-1,1.2-1.3c1.1-0.6,2.5-0.6,3.6,0c0.5,0.3,0.9,0.7,1.2,1.2c0.3,0.5,0.4,1.1,0.4,1.7
	C805.9,23.7,805.9,24,805.8,24.2z M804.3,22.1c-0.2-0.3-0.5-0.6-0.8-0.7c-0.4-0.2-0.7-0.3-1.1-0.2c-0.6,0-1.1,0.2-1.5,0.6
	c-0.4,0.4-0.7,1-0.7,1.6h4.5C804.6,22.9,804.5,22.5,804.3,22.1z"/>
<path d="M808.2,17.7v9.6H807v-9.6H808.2z"/>
<path d="M822.5,20.2l-2.2,7.1H819l-1.7-5.7l-1.7,5.7h-1.2l-2.2-7.1h1.2l1.6,6l1.8-6h1.2l1.7,6l1.6-6H822.5z"/>
<path d="M823.3,18.8c-0.2-0.1-0.2-0.4-0.2-0.6c0-0.2,0.1-0.4,0.2-0.6c0.1-0.2,0.4-0.2,0.6-0.2c0.2,0,0.4,0.1,0.5,0.2
	c0.1,0.2,0.2,0.4,0.2,0.6c0,0.2-0.1,0.4-0.2,0.6c-0.1,0.2-0.3,0.2-0.5,0.2C823.7,19.1,823.5,19,823.3,18.8z M824.5,20.2v7.1h-1.2
	v-7.1H824.5z"/>
<path d="M827.6,21.2v4.2c0,0.3,0.1,0.5,0.2,0.7c0.2,0.2,0.5,0.2,0.8,0.2h0.9v1h-1.1c-0.5,0-1.1-0.1-1.5-0.5
	c-0.4-0.4-0.5-0.9-0.5-1.5v-4.2h-0.9v-1h0.9v-1.8h1.2v1.8h1.9v1H827.6z"/>
<path d="M835.5,20.4c0.4,0.2,0.8,0.6,1,1c0.3,0.5,0.4,1.1,0.4,1.7v4.2h-1.2v-4c0-0.6-0.1-1.2-0.5-1.6c-0.4-0.4-0.9-0.6-1.5-0.6
	c-0.6,0-1.1,0.2-1.5,0.6c-0.4,0.5-0.6,1.1-0.5,1.7v3.9h-1.2v-9.6h1.2v3.5c0.2-0.4,0.6-0.7,1-0.9c0.4-0.2,0.9-0.3,1.4-0.3
	C834.5,20.1,835,20.2,835.5,20.4z"/>
<path d="M842.8,27c-0.5-0.3-1-0.7-1.3-1.3c-0.6-1.2-0.6-2.7,0-3.9c0.3-0.5,0.8-1,1.3-1.3c1.1-0.6,2.5-0.6,3.7,0
	c0.5,0.3,1,0.7,1.3,1.3c0.3,0.6,0.5,1.3,0.5,1.9c0,0.7-0.2,1.4-0.5,2c-0.3,0.5-0.8,1-1.3,1.3c-0.6,0.3-1.2,0.5-1.8,0.5
	C844,27.5,843.4,27.3,842.8,27z M845.8,26.1c0.4-0.2,0.7-0.5,0.9-0.9c0.5-0.9,0.5-2,0-2.9c-0.2-0.4-0.5-0.7-0.9-0.9
	c-0.7-0.4-1.6-0.4-2.4,0c-0.4,0.2-0.7,0.5-0.9,0.9c-0.2,0.5-0.3,0.9-0.3,1.5c0,0.5,0.1,1,0.3,1.5c0.2,0.4,0.5,0.7,0.8,0.9
	c0.4,0.2,0.8,0.3,1.2,0.3C845,26.4,845.5,26.3,845.8,26.1L845.8,26.1z"/>
<path d="M855.8,20.2v7.1h-1.2v-1c-0.2,0.4-0.6,0.7-0.9,0.9c-0.4,0.2-0.9,0.3-1.3,0.3c-0.5,0-1-0.1-1.5-0.3c-0.4-0.2-0.8-0.6-1-1
	c-0.3-0.5-0.4-1.1-0.4-1.7v-4.2h1.2v4c0,0.6,0.2,1.2,0.5,1.6c0.4,0.4,0.9,0.6,1.5,0.6c0.6,0,1.1-0.2,1.5-0.6
	c0.4-0.5,0.6-1.1,0.5-1.7v-3.9H855.8z"/>
<path d="M859.5,20.4c0.4-0.2,0.9-0.3,1.4-0.3v1.2h-0.3c-1.3,0-2,0.7-2,2.2v3.9h-1.2v-7.1h1.2v1.1C858.8,21,859.1,20.6,859.5,20.4z"
	/>
<path d="M865,21.8c0.3-0.5,0.7-1,1.2-1.3c0.6-0.3,1.2-0.5,1.8-0.5c0.8,0,1.5,0.2,2.2,0.6c0.6,0.4,1,1.1,1.1,1.8h-1.3
	c-0.1-0.4-0.4-0.8-0.7-1c-0.4-0.3-0.8-0.4-1.3-0.4c-0.6,0-1.2,0.2-1.6,0.7c-0.5,0.6-0.7,1.3-0.6,2c-0.1,0.7,0.2,1.4,0.6,2
	c0.4,0.5,1,0.7,1.6,0.7c0.5,0,0.9-0.1,1.3-0.4c0.3-0.2,0.6-0.6,0.7-1h1.3c-0.2,0.7-0.6,1.3-1.1,1.8c-0.6,0.5-1.4,0.7-2.2,0.7
	c-0.6,0-1.3-0.2-1.8-0.5c-0.5-0.3-1-0.8-1.2-1.3c-0.6-1.2-0.6-2.7,0-3.9L865,21.8z"/>
<path d="M873.8,17.7v9.6h-1.2v-9.6H873.8z"/>
<path d="M875.5,18.8c-0.2-0.1-0.2-0.4-0.2-0.6c0-0.2,0.1-0.4,0.2-0.6c0.1-0.2,0.4-0.2,0.6-0.2c0.2,0,0.4,0.1,0.5,0.2
	c0.1,0.2,0.2,0.4,0.2,0.6c0,0.2-0.1,0.4-0.2,0.6c-0.1,0.2-0.3,0.2-0.5,0.2C875.8,19.1,875.6,19,875.5,18.8z M876.6,20.2v7.1h-1.2
	v-7.1H876.6z"/>
<path d="M884.7,24.2H879c0,1.2,1,2.2,2.3,2.2c0,0,0,0,0.1,0c0.5,0,0.9-0.1,1.3-0.4c0.3-0.2,0.6-0.6,0.7-1h1.3
	c-0.2,0.7-0.6,1.3-1.2,1.7c-0.6,0.4-1.4,0.7-2.1,0.6c-0.6,0-1.3-0.2-1.8-0.5c-0.5-0.3-1-0.7-1.3-1.3c-0.6-1.2-0.6-2.7,0-3.9
	c0.3-0.5,0.7-1,1.2-1.3c0.6-0.3,1.2-0.5,1.8-0.5c0.6,0,1.2,0.1,1.8,0.4c0.5,0.3,0.9,0.7,1.2,1.2c0.3,0.5,0.4,1.1,0.4,1.7
	C884.8,23.7,884.7,24,884.7,24.2z M883.2,22.1c-0.2-0.3-0.5-0.6-0.8-0.7c-0.4-0.2-0.7-0.3-1.1-0.2c-0.6,0-1.1,0.2-1.5,0.6
	c-0.4,0.4-0.7,1-0.7,1.6h4.5C883.5,22.9,883.4,22.5,883.2,22.1z"/>
<path d="M891.5,20.9c0.6,0.6,0.9,1.4,0.8,2.3v4.2h-1.2v-4c0-0.6-0.2-1.2-0.5-1.6c-0.4-0.4-0.9-0.6-1.5-0.6c-0.6,0-1.1,0.2-1.5,0.6
	c-0.4,0.5-0.6,1.1-0.5,1.7v3.9h-1.2v-7.2h1.2v1c0.2-0.4,0.6-0.7,1-0.9c0.4-0.2,0.9-0.3,1.3-0.3C890.2,20.1,891,20.4,891.5,20.9z"/>
<path d="M895.3,21.2v4.2c0,0.3,0.1,0.5,0.2,0.7c0.2,0.2,0.5,0.3,0.8,0.2h0.9v1h-1.1c-0.5,0-1.1-0.1-1.5-0.5
	c-0.4-0.4-0.6-0.9-0.5-1.5v-4.2h-0.9v-1h0.9v-1.8h1.2v1.8h1.9v1H895.3z"/>
<path d="M899.3,27.2c-0.4-0.2-0.7-0.4-1-0.8c-0.2-0.3-0.4-0.7-0.4-1.1h1.2c0,0.3,0.2,0.7,0.5,0.9c0.3,0.2,0.8,0.4,1.2,0.3
	c0.4,0,0.8-0.1,1.1-0.3c0.2-0.2,0.4-0.5,0.4-0.8c0-0.3-0.1-0.6-0.4-0.7c-0.4-0.2-0.8-0.3-1.3-0.5c-0.4-0.1-0.9-0.3-1.3-0.4
	c-0.3-0.1-0.6-0.4-0.9-0.6c-0.5-0.6-0.5-1.5,0-2.1c0.2-0.3,0.6-0.6,0.9-0.7c0.4-0.2,0.9-0.3,1.4-0.3c0.7,0,1.4,0.2,1.9,0.6
	c0.5,0.4,0.8,1,0.8,1.6h-1.2c0-0.3-0.2-0.7-0.5-0.9c-0.3-0.2-0.7-0.4-1.1-0.3c-0.4,0-0.7,0.1-1,0.3c-0.2,0.2-0.4,0.4-0.4,0.7
	c0,0.2,0.1,0.4,0.2,0.6c0.2,0.2,0.4,0.3,0.6,0.4c0.2,0.1,0.5,0.2,1,0.3c0.4,0.1,0.8,0.2,1.2,0.4c0.3,0.1,0.6,0.3,0.8,0.6
	c0.2,0.3,0.4,0.7,0.4,1c0,0.4-0.1,0.7-0.3,1.1c-0.2,0.3-0.6,0.6-0.9,0.7c-0.4,0.2-0.9,0.3-1.4,0.3C900.4,27.5,899.8,27.4,899.3,27.2
	z"/>
<path d="M907.8,21.8c0.3-0.5,0.7-1,1.2-1.3c0.5-0.3,1.1-0.5,1.7-0.5c0.6,0,1.1,0.1,1.6,0.4c0.4,0.2,0.8,0.6,1,1v-1.3h1.2v7.1h-1.2
	V26c-0.2,0.4-0.6,0.8-1,1c-0.5,0.3-1.1,0.4-1.6,0.4c-1.2,0-2.4-0.6-2.9-1.7c-0.3-0.6-0.5-1.3-0.4-1.9
	C907.4,23.1,907.5,22.4,907.8,21.8z M913.1,22.4c-0.2-0.4-0.5-0.7-0.9-0.9c-0.4-0.2-0.8-0.3-1.2-0.3c-0.4,0-0.8,0.1-1.2,0.3
	c-0.4,0.2-0.7,0.5-0.9,0.9c-0.2,0.4-0.3,0.9-0.3,1.4c0,0.5,0.1,1,0.3,1.4c0.2,0.4,0.5,0.7,0.9,0.9c0.4,0.2,0.8,0.3,1.2,0.3
	c0.4,0,0.8-0.1,1.2-0.3c0.4-0.2,0.7-0.5,0.9-0.9C913.5,24.3,913.5,23.3,913.1,22.4z"/>
<path d="M921.8,20.9c0.6,0.6,0.9,1.4,0.8,2.3v4.2h-1.2v-4c0-0.6-0.2-1.2-0.5-1.6c-0.4-0.4-0.9-0.6-1.5-0.6c-0.6,0-1.1,0.2-1.5,0.6
	c-0.4,0.5-0.6,1.1-0.5,1.7v3.9h-1.2v-7.2h1.2v1c0.2-0.4,0.6-0.7,1-0.9c0.4-0.2,0.9-0.3,1.3-0.3C920.5,20.1,921.3,20.3,921.8,20.9z"
	/>
<path d="M924.2,21.8c0.3-0.5,0.7-1,1.2-1.3c0.5-0.3,1.1-0.5,1.7-0.5c0.5,0,1.1,0.1,1.5,0.4c0.4,0.2,0.8,0.6,1.1,1v-3.8h1.2v9.6h-1.2
	V26c-0.2,0.4-0.6,0.8-1,1c-0.5,0.3-1,0.4-1.6,0.4c-0.6,0-1.2-0.2-1.7-0.5c-0.5-0.3-0.9-0.8-1.2-1.3c-0.3-0.6-0.5-1.3-0.4-1.9
	C923.8,23.1,923.9,22.4,924.2,21.8z M929.4,22.4c-0.2-0.4-0.5-0.7-0.9-0.9c-0.4-0.2-0.8-0.3-1.2-0.3c-0.4,0-0.8,0.1-1.2,0.3
	c-0.4,0.2-0.7,0.5-0.9,0.9c-0.2,0.4-0.3,0.9-0.3,1.4c0,0.5,0.1,1,0.3,1.4c0.2,0.4,0.5,0.7,0.9,0.9c0.4,0.2,0.8,0.3,1.2,0.3
	c0.4,0,0.8-0.1,1.2-0.3c0.4-0.2,0.7-0.5,0.9-0.9C929.9,24.3,929.9,23.3,929.4,22.4z"/>
<path d="M935.7,18.8c-0.2-0.1-0.2-0.4-0.2-0.6c0-0.2,0.1-0.4,0.2-0.6c0.1-0.2,0.4-0.2,0.6-0.2c0.2,0,0.4,0.1,0.5,0.2
	c0.1,0.2,0.2,0.4,0.2,0.6c0,0.2-0.1,0.4-0.2,0.6c-0.1,0.2-0.3,0.2-0.5,0.2C936.1,19.1,935.9,19,935.7,18.8z M936.9,20.2v7.1h-1.2
	v-7.1H936.9z"/>
<path d="M944.1,20.9c0.6,0.6,0.9,1.4,0.8,2.3v4.2h-1.2v-4c0-0.6-0.2-1.2-0.5-1.6c-0.4-0.4-0.9-0.6-1.5-0.6c-0.6,0-1.1,0.2-1.5,0.6
	c-0.4,0.5-0.6,1.1-0.5,1.7v3.9h-1.2v-7.2h1.2v1c0.2-0.4,0.6-0.7,1-0.9c0.4-0.2,0.9-0.3,1.3-0.3C942.8,20.1,943.6,20.4,944.1,20.9z"
	/>
<path d="M947.9,21.2v4.2c0,0.3,0.1,0.5,0.2,0.7c0.2,0.2,0.5,0.2,0.8,0.2h0.9v1h-1.1c-0.5,0-1.1-0.1-1.5-0.5
	c-0.4-0.4-0.5-0.9-0.5-1.5v-4.2h-0.9v-1h0.9v-1.8h1.2v1.8h1.9v1H947.9z"/>
<path d="M957.3,24.2h-5.7c0,0.6,0.3,1.2,0.7,1.6c0.4,0.4,1,0.6,1.6,0.6c0.5,0,0.9-0.1,1.3-0.4c0.3-0.2,0.6-0.6,0.7-1h1.3
	c-0.2,0.7-0.6,1.3-1.1,1.7c-0.6,0.4-1.4,0.7-2.1,0.6c-0.6,0-1.3-0.2-1.8-0.5c-0.5-0.3-1-0.7-1.2-1.3c-0.3-0.6-0.5-1.3-0.5-2
	c0-0.7,0.1-1.3,0.5-1.9c0.3-0.5,0.7-1,1.2-1.3c0.6-0.3,1.2-0.5,1.8-0.5c0.6,0,1.2,0.1,1.8,0.4c0.5,0.3,0.9,0.7,1.2,1.2
	c0.3,0.5,0.4,1.1,0.4,1.7C957.4,23.7,957.3,24,957.3,24.2z M955.8,22.1c-0.2-0.3-0.5-0.6-0.8-0.7c-0.4-0.2-0.7-0.3-1.1-0.2
	c-0.6,0-1.1,0.2-1.5,0.6c-0.4,0.4-0.7,1-0.7,1.6h4.5C956.1,22.9,956,22.5,955.8,22.1z"/>
<path d="M960.6,20.4c0.4-0.2,0.9-0.3,1.4-0.3v1.2h-0.3c-1.3,0-2,0.7-2,2.2v3.9h-1.2v-7.1h1.2v1.1C959.9,21,960.2,20.6,960.6,20.4z"
	/>
<path d="M965.7,26.3l2.2-6h1.3l-2.8,7.1H965l-2.8-7.1h1.3L965.7,26.3z"/>
<path d="M970,18.8c-0.2-0.1-0.2-0.4-0.2-0.6c0-0.2,0.1-0.4,0.2-0.6c0.1-0.2,0.4-0.2,0.6-0.2c0.2,0,0.4,0.1,0.6,0.2
	c0.1,0.2,0.2,0.4,0.2,0.6c0,0.2-0.1,0.4-0.2,0.6c-0.1,0.2-0.3,0.2-0.6,0.2C970.4,19.1,970.2,19,970,18.8z M971.2,20.2v7.1H970v-7.1
	H971.2z"/>
<path d="M979.3,24.2h-5.7c0,1.2,1,2.2,2.3,2.2c0,0,0,0,0.1,0c0.5,0,0.9-0.1,1.3-0.4c0.3-0.2,0.6-0.6,0.7-1h1.3
	c-0.2,0.7-0.6,1.3-1.2,1.7c-0.6,0.4-1.4,0.7-2.1,0.6c-0.6,0-1.3-0.2-1.8-0.5c-0.5-0.3-1-0.7-1.3-1.3c-0.6-1.2-0.6-2.7,0-3.9
	c0.3-0.5,0.7-1,1.2-1.3c1.1-0.6,2.5-0.6,3.6,0c0.5,0.3,0.9,0.7,1.2,1.2c0.3,0.5,0.4,1.1,0.4,1.7C979.3,23.7,979.3,24,979.3,24.2z
	 M977.8,22.1c-0.2-0.3-0.5-0.6-0.8-0.7c-0.4-0.2-0.7-0.3-1.1-0.2c-0.6,0-1.1,0.2-1.5,0.6c-0.4,0.4-0.7,1-0.7,1.6h4.5
	C978.1,22.9,978,22.5,977.8,22.1z"/>
<path d="M990,20.2l-2.2,7.1h-1.2l-1.7-5.7l-1.7,5.7h-1.2l-2.2-7.1h1.2l1.6,6l1.8-6h1.2l1.7,6l1.6-6H990z"/>
<path d="M997.3,24.2h-5.7c0,1.2,1,2.2,2.3,2.2c0,0,0,0,0.1,0c0.5,0,0.9-0.1,1.3-0.4c0.3-0.2,0.6-0.6,0.7-1h1.3
	c-0.2,0.7-0.6,1.3-1.1,1.7c-0.6,0.4-1.4,0.7-2.1,0.6c-0.6,0-1.3-0.2-1.8-0.5c-0.5-0.3-1-0.7-1.2-1.3c-0.3-0.6-0.5-1.3-0.5-2
	c0-0.7,0.1-1.3,0.4-1.9c0.3-0.5,0.7-1,1.2-1.3c0.6-0.3,1.2-0.5,1.8-0.5c0.6,0,1.2,0.1,1.8,0.4c0.5,0.3,0.9,0.7,1.2,1.2
	c0.3,0.5,0.4,1.1,0.4,1.7C997.3,23.7,997.3,24,997.3,24.2z M995.8,22.1c-0.2-0.3-0.5-0.6-0.8-0.7c-0.4-0.2-0.7-0.3-1.1-0.2
	c-0.6,0-1.1,0.2-1.5,0.6c-0.4,0.4-0.7,1-0.7,1.6h4.5C996.1,22.9,996,22.5,995.8,22.1z"/>
<path d="M998.5,21.8c0.3-0.5,0.7-1,1.2-1.3c0.5-0.3,1.1-0.5,1.7-0.5c0.5,0,1.1,0.1,1.6,0.4c0.4,0.2,0.8,0.6,1.1,1v-3.8h1.2v9.6h-1.2
	V26c-0.2,0.4-0.6,0.8-1,1c-0.5,0.3-1,0.4-1.6,0.4c-0.6,0-1.2-0.2-1.7-0.5c-0.5-0.3-0.9-0.8-1.2-1.3c-0.3-0.6-0.5-1.3-0.4-1.9
	C998.1,23.1,998.2,22.4,998.5,21.8z M1003.8,22.4c-0.2-0.4-0.5-0.7-0.9-0.9c-0.4-0.2-0.8-0.3-1.2-0.3c-0.4,0-0.8,0.1-1.2,0.3
	c-0.4,0.2-0.7,0.5-0.9,0.9c-0.2,0.4-0.3,0.9-0.3,1.4c0,0.5,0.1,1,0.3,1.4c0.2,0.4,0.5,0.7,0.9,0.9c0.4,0.2,0.8,0.3,1.2,0.3
	c0.4,0,0.8-0.1,1.2-0.3c0.4-0.2,0.7-0.5,0.9-0.9C1004.2,24.3,1004.2,23.3,1003.8,22.4z"/>
<path d="M1011.5,21.2v4.2c0,0.3,0.1,0.5,0.2,0.7c0.2,0.2,0.5,0.2,0.8,0.2h0.9v1h-1.1c-0.5,0-1.1-0.1-1.5-0.5
	c-0.4-0.4-0.5-0.9-0.5-1.5v-4.2h-0.9v-1h0.9v-1.8h1.2v1.8h1.9v1H1011.5z"/>
<path d="M1019.4,20.4c0.4,0.2,0.8,0.6,1,1c0.3,0.5,0.4,1.1,0.4,1.7v4.2h-1.2v-4c0-0.6-0.1-1.2-0.5-1.6c-0.4-0.4-0.9-0.6-1.5-0.6
	c-0.6,0-1.1,0.2-1.5,0.6c-0.4,0.5-0.6,1.1-0.6,1.7v3.9h-1.2v-9.6h1.2v3.5c0.2-0.4,0.6-0.7,1-0.9c0.4-0.2,0.9-0.3,1.4-0.3
	C1018.4,20.1,1018.9,20.2,1019.4,20.4z"/>
<path d="M1028.8,24.2h-5.7c0,1.2,1,2.2,2.3,2.2c0,0,0,0,0.1,0c0.5,0,0.9-0.1,1.3-0.4c0.3-0.2,0.6-0.6,0.7-1h1.3
	c-0.2,0.7-0.6,1.3-1.1,1.7c-0.6,0.4-1.4,0.7-2.1,0.6c-0.6,0-1.3-0.2-1.8-0.5c-0.5-0.3-1-0.7-1.2-1.3c-0.3-0.6-0.5-1.3-0.5-2
	c0-0.7,0.1-1.3,0.4-1.9c0.3-0.5,0.7-1,1.2-1.3c0.6-0.3,1.2-0.5,1.8-0.5c0.6,0,1.2,0.1,1.8,0.4c0.5,0.3,0.9,0.7,1.2,1.2
	c0.3,0.5,0.4,1.1,0.4,1.7C1028.9,23.7,1028.9,24,1028.8,24.2z M1027.3,22.1c-0.2-0.3-0.5-0.6-0.8-0.7c-0.4-0.2-0.7-0.3-1.1-0.2
	c-0.6,0-1.1,0.2-1.5,0.6c-0.4,0.4-0.7,1-0.7,1.6h4.5C1027.6,22.9,1027.5,22.5,1027.3,22.1L1027.3,22.1z"/>
<path d="M1034.6,21.2v4.2c0,0.3,0.1,0.5,0.2,0.7c0.2,0.2,0.5,0.3,0.8,0.2h0.9v1h-1.1c-0.5,0-1.1-0.1-1.5-0.5
	c-0.4-0.4-0.5-0.9-0.5-1.5v-4.2h-0.9v-1h0.9v-1.8h1.2v1.8h1.9v1H1034.6z"/>
<path d="M1042.5,20.4c0.4,0.2,0.8,0.6,1,1c0.3,0.5,0.4,1.1,0.4,1.7v4.2h-1.2v-4c0-0.6-0.2-1.2-0.5-1.6c-0.4-0.4-0.9-0.6-1.4-0.6
	c-0.6,0-1.1,0.2-1.5,0.6c-0.4,0.5-0.6,1.1-0.6,1.7v3.9h-1.2v-9.6h1.2v3.5c0.2-0.4,0.6-0.7,1-0.9c0.4-0.2,0.9-0.3,1.4-0.3
	C1041.6,20.1,1042.1,20.2,1042.5,20.4z"/>
<path d="M1047.5,20.4c0.4-0.2,0.9-0.3,1.4-0.3v1.2h-0.3c-1.3,0-2,0.7-2,2.2v3.9h-1.2v-7.1h1.2v1.1
	C1046.9,21,1047.2,20.7,1047.5,20.4z"/>
<path d="M1056.4,24.2h-5.7c0,0.6,0.3,1.2,0.7,1.6c0.4,0.4,1,0.6,1.6,0.6c0.5,0,0.9-0.1,1.3-0.4c0.3-0.2,0.6-0.6,0.7-1h1.3
	c-0.2,0.7-0.6,1.3-1.1,1.7c-0.6,0.4-1.4,0.7-2.1,0.6c-0.6,0-1.3-0.2-1.8-0.5c-0.5-0.3-1-0.7-1.2-1.3c-0.3-0.6-0.5-1.3-0.5-2
	c0-0.7,0.1-1.3,0.4-1.9c0.3-0.5,0.7-1,1.2-1.3c1.1-0.6,2.5-0.6,3.6,0c0.5,0.3,0.9,0.7,1.2,1.2c0.3,0.5,0.4,1.1,0.4,1.7
	C1056.5,23.7,1056.4,24,1056.4,24.2z M1054.9,22.1c-0.2-0.3-0.5-0.6-0.8-0.7c-0.4-0.2-0.7-0.3-1.1-0.2c-0.6,0-1.1,0.2-1.5,0.6
	c-0.4,0.4-0.7,1-0.7,1.6h4.5C1055.2,22.9,1055.1,22.5,1054.9,22.1z"/>
<path d="M1064.1,24.2h-5.7c0,1.2,1,2.2,2.3,2.2c0,0,0,0,0.1,0c0.5,0,0.9-0.1,1.3-0.4c0.3-0.2,0.6-0.6,0.7-1h1.3
	c-0.2,0.7-0.6,1.3-1.2,1.7c-0.6,0.4-1.4,0.7-2.1,0.6c-0.6,0-1.3-0.2-1.8-0.5c-0.5-0.3-1-0.7-1.3-1.3c-0.6-1.2-0.6-2.7,0-3.9
	c0.3-0.5,0.7-1,1.2-1.3c0.6-0.3,1.2-0.5,1.8-0.5c0.6,0,1.2,0.1,1.8,0.4c0.5,0.3,0.9,0.7,1.2,1.2c0.3,0.5,0.4,1.1,0.4,1.7
	C1064.2,23.7,1064.1,24,1064.1,24.2z M1062.6,22.1c-0.2-0.3-0.5-0.6-0.8-0.7c-0.4-0.2-0.7-0.3-1.1-0.2c-0.6,0-1.1,0.2-1.5,0.6
	c-0.4,0.4-0.7,1-0.7,1.6h4.5C1062.9,22.9,1062.8,22.5,1062.6,22.1z"/>
<path d="M1073,20.5c0.4,0.2,0.8,0.6,1,1v-1.3h1.2v7.3c0,0.6-0.1,1.2-0.4,1.7c-0.3,0.5-0.7,0.9-1.2,1.2c-0.6,0.3-1.2,0.4-1.8,0.4
	c-0.8,0-1.6-0.2-2.3-0.7c-0.6-0.4-1-1.1-1.1-1.8h1.2c0.1,0.4,0.4,0.8,0.8,1c0.4,0.3,1,0.4,1.5,0.4c0.6,0,1.2-0.2,1.6-0.6
	c0.4-0.5,0.6-1.1,0.6-1.7V26c-0.2,0.4-0.6,0.8-1,1c-0.5,0.3-1,0.4-1.6,0.4c-1.2,0-2.4-0.7-2.9-1.8c-0.3-0.6-0.4-1.3-0.4-1.9
	c0-0.7,0.1-1.3,0.4-1.9c0.3-0.5,0.7-1,1.2-1.3c0.5-0.3,1.1-0.5,1.7-0.5C1072,20.1,1072.5,20.2,1073,20.5z M1073.7,22.4
	c-0.2-0.4-0.5-0.7-0.9-0.9c-0.4-0.2-0.8-0.3-1.2-0.3c-0.4,0-0.8,0.1-1.2,0.3c-0.4,0.2-0.7,0.5-0.9,0.9c-0.2,0.4-0.3,0.9-0.3,1.4
	c0,0.5,0.1,1,0.3,1.4c0.2,0.4,0.5,0.7,0.9,0.9c0.4,0.2,0.8,0.3,1.2,0.3c0.4,0,0.8-0.1,1.2-0.3c0.4-0.2,0.7-0.5,0.9-0.9
	C1074.2,24.3,1074.2,23.3,1073.7,22.4z"/>
<path d="M1079,20.4c0.4-0.2,0.9-0.3,1.4-0.3v1.2h-0.3c-1.3,0-2,0.7-2,2.2v3.9h-1.2v-7.1h1.2v1.1C1078.3,21,1078.6,20.7,1079,20.4z"
	/>
<path d="M1082.7,27c-0.5-0.3-1-0.7-1.3-1.3c-0.6-1.2-0.6-2.7,0-3.9c0.3-0.5,0.8-1,1.3-1.3c1.1-0.6,2.5-0.6,3.7,0
	c0.5,0.3,1,0.7,1.3,1.3c0.3,0.6,0.5,1.3,0.5,1.9c0,0.7-0.2,1.4-0.5,2c-0.3,0.5-0.8,1-1.3,1.3c-0.6,0.3-1.2,0.5-1.8,0.5
	C1083.8,27.5,1083.2,27.3,1082.7,27z M1085.7,26.1c0.4-0.2,0.7-0.5,0.9-0.9c0.5-0.9,0.5-2,0-2.9c-0.2-0.4-0.5-0.7-0.9-0.9
	c-0.7-0.4-1.6-0.4-2.4,0c-0.4,0.2-0.7,0.5-0.9,0.9c-0.4,0.9-0.4,2,0,2.9c0.2,0.4,0.5,0.7,0.8,0.9c0.4,0.2,0.8,0.3,1.2,0.3
	C1084.9,26.4,1085.3,26.3,1085.7,26.1L1085.7,26.1z"/>
<path d="M1095.6,20.2v7.1h-1.2v-1c-0.2,0.4-0.6,0.7-0.9,0.9c-0.4,0.2-0.9,0.3-1.3,0.3c-0.5,0-1-0.1-1.5-0.3c-0.4-0.2-0.8-0.6-1-1
	c-0.3-0.5-0.4-1.1-0.4-1.7v-4.2h1.2v4c0,0.6,0.2,1.2,0.5,1.6c0.4,0.4,0.9,0.6,1.4,0.6c0.6,0,1.1-0.2,1.5-0.6
	c0.4-0.5,0.6-1.1,0.5-1.7v-3.9H1095.6z"/>
<path d="M1099.5,20.5c0.5-0.3,1.1-0.4,1.6-0.4c0.6,0,1.2,0.1,1.7,0.5c0.5,0.3,0.9,0.7,1.2,1.3c0.3,0.6,0.5,1.3,0.4,1.9
	c0,0.7-0.1,1.3-0.4,1.9c-0.3,0.5-0.7,1-1.2,1.3c-0.5,0.3-1.1,0.5-1.7,0.5c-0.6,0-1.1-0.1-1.6-0.4c-0.4-0.2-0.8-0.6-1.1-1v4.7h-1.2
	V20.2h1.2v1.3C1098.7,21.1,1099.1,20.8,1099.5,20.5z M1103,22.4c-0.2-0.4-0.5-0.7-0.9-0.9c-0.8-0.4-1.7-0.4-2.4,0
	c-0.4,0.2-0.7,0.5-0.9,0.9c-0.4,0.9-0.4,1.9,0,2.8c0.2,0.4,0.5,0.7,0.9,0.9c0.8,0.4,1.7,0.4,2.4,0c0.4-0.2,0.7-0.5,0.9-0.9
	c0.2-0.4,0.3-0.9,0.3-1.4C1103.3,23.3,1103.2,22.8,1103,22.4z"/>
<path d="M1106.8,27.2c-0.4-0.2-0.7-0.4-1-0.8c-0.2-0.3-0.4-0.7-0.4-1.1h1.2c0,0.3,0.2,0.7,0.5,0.9c0.3,0.2,0.8,0.4,1.2,0.3
	c0.4,0,0.8-0.1,1.1-0.3c0.2-0.2,0.4-0.5,0.4-0.8c0-0.3-0.1-0.6-0.4-0.7c-0.4-0.2-0.8-0.3-1.3-0.5c-0.4-0.1-0.9-0.3-1.3-0.4
	c-0.3-0.1-0.6-0.4-0.9-0.6c-0.5-0.6-0.5-1.5,0-2.1c0.2-0.3,0.6-0.6,0.9-0.7c0.4-0.2,0.9-0.3,1.4-0.3c0.7,0,1.4,0.2,1.9,0.6
	c0.5,0.4,0.8,1,0.8,1.6h-1.2c0-0.3-0.2-0.7-0.4-0.9c-0.3-0.2-0.7-0.4-1.1-0.3c-0.4,0-0.7,0.1-1,0.3c-0.2,0.2-0.4,0.4-0.4,0.7
	c0,0.2,0.1,0.4,0.2,0.6c0.2,0.2,0.4,0.3,0.6,0.4c0.2,0.1,0.6,0.2,1,0.3c0.4,0.1,0.8,0.2,1.2,0.4c0.3,0.1,0.6,0.3,0.8,0.6
	c0.2,0.3,0.4,0.7,0.4,1c0,0.4-0.1,0.7-0.3,1.1c-0.2,0.3-0.5,0.6-0.9,0.7c-0.4,0.2-0.9,0.3-1.4,0.3
	C1107.8,27.5,1107.3,27.4,1106.8,27.2z"/>
<path d="M596.3,41.3c-0.2-0.1-0.2-0.4-0.2-0.6c0-0.4,0.3-0.8,0.8-0.8c0,0,0,0,0,0c0.2,0,0.4,0.1,0.5,0.2c0.2,0.1,0.2,0.4,0.2,0.6
	c0,0.2-0.1,0.4-0.2,0.6c-0.1,0.2-0.3,0.2-0.5,0.2C596.6,41.6,596.4,41.5,596.3,41.3z M597.4,42.7v7.1h-1.2v-7.1L597.4,42.7z"/>
<path d="M604.6,43.4c0.6,0.6,0.9,1.4,0.8,2.3v4.2h-1.2v-4c0-0.6-0.1-1.2-0.5-1.6c-0.4-0.4-0.9-0.6-1.5-0.6c-0.6,0-1.1,0.2-1.5,0.6
	c-0.4,0.5-0.6,1.1-0.5,1.7v3.9h-1.2v-7.2h1.2v1c0.2-0.4,0.6-0.7,1-0.8c0.4-0.2,0.9-0.3,1.3-0.3C603.3,42.6,604.1,42.9,604.6,43.4z"
	/>
<path d="M609.7,48.8l2.2-6h1.3l-2.8,7.1H609l-2.8-7.1h1.3L609.7,48.8z"/>
<path d="M615.2,49.5c-0.5-0.3-1-0.7-1.3-1.3c-0.6-1.2-0.6-2.7,0-3.9c0.3-0.5,0.8-1,1.3-1.3c1.1-0.6,2.5-0.6,3.7,0
	c0.5,0.3,1,0.7,1.3,1.3c0.3,0.6,0.5,1.3,0.5,1.9c0,0.7-0.2,1.4-0.5,2c-0.3,0.5-0.8,1-1.3,1.3c-0.6,0.3-1.2,0.5-1.8,0.5
	C616.4,50,615.8,49.8,615.2,49.5z M618.2,48.6c0.4-0.2,0.7-0.5,0.9-0.9c0.5-0.9,0.5-2,0-2.9c-0.2-0.4-0.5-0.7-0.9-0.9
	c-0.4-0.2-0.8-0.3-1.2-0.3c-0.4,0-0.8,0.1-1.2,0.3c-0.4,0.2-0.7,0.5-0.9,0.9c-0.2,0.5-0.3,0.9-0.3,1.5c0,0.5,0.1,1,0.3,1.5
	c0.2,0.4,0.5,0.7,0.8,0.9c0.4,0.2,0.8,0.3,1.2,0.3C617.5,48.9,617.9,48.8,618.2,48.6L618.2,48.6z"/>
<path d="M623.1,40.2v9.6h-1.2v-9.6H623.1z"/>
<path d="M627.4,48.8l2.2-6h1.2l-2.8,7.1h-1.4l-2.8-7.1h1.3L627.4,48.8z"/>
<path d="M638.1,46.7h-5.7c0,1.2,1,2.3,2.2,2.3c0,0,0.1,0,0.1,0c0.5,0,0.9-0.1,1.3-0.4c0.3-0.2,0.6-0.6,0.7-1h1.3
	c-0.2,0.7-0.6,1.3-1.2,1.7c-0.6,0.4-1.4,0.7-2.1,0.7c-0.6,0-1.3-0.2-1.8-0.5c-0.5-0.3-1-0.7-1.3-1.3c-0.3-0.6-0.5-1.3-0.5-2
	c0-0.7,0.1-1.3,0.4-1.9c0.3-0.5,0.7-1,1.2-1.3c0.6-0.3,1.2-0.5,1.8-0.5c0.6,0,1.2,0.1,1.8,0.4c0.5,0.3,0.9,0.7,1.2,1.2
	c0.3,0.5,0.4,1.1,0.4,1.7C638.2,46.2,638.2,46.5,638.1,46.7z M636.6,44.6c-0.2-0.3-0.5-0.6-0.8-0.7c-0.4-0.2-0.7-0.3-1.1-0.2
	c-0.6,0-1.1,0.2-1.5,0.6c-0.4,0.4-0.7,1-0.7,1.6h4.5C637,45.4,636.9,45,636.6,44.6z"/>
<path d="M639.4,44.3c0.3-0.5,0.7-1,1.2-1.3c0.5-0.3,1.1-0.5,1.7-0.5c0.5,0,1,0.1,1.5,0.4c0.4,0.2,0.8,0.6,1.1,1v-3.8h1.2v9.6h-1.2
	v-1.3c-0.2,0.4-0.6,0.8-1,1c-0.5,0.3-1,0.4-1.6,0.4c-1.2,0-2.4-0.7-2.9-1.8c-0.3-0.6-0.4-1.3-0.4-1.9
	C638.9,45.6,639.1,44.9,639.4,44.3z M644.6,44.9c-0.2-0.4-0.5-0.7-0.9-0.9c-0.4-0.2-0.8-0.3-1.2-0.3c-0.4,0-0.8,0.1-1.2,0.3
	c-0.4,0.2-0.7,0.5-0.9,0.9c-0.2,0.4-0.3,0.9-0.3,1.4c0,0.5,0.1,1,0.3,1.4c0.2,0.4,0.5,0.7,0.9,0.9c0.4,0.2,0.8,0.3,1.2,0.3
	c0.4,0,0.8-0.1,1.2-0.3c0.4-0.2,0.7-0.5,0.9-0.9C645.1,46.8,645.1,45.8,644.6,44.9z"/>
<path d="M647.6,44.1c-0.1-0.2-0.2-0.4-0.2-0.6c0-0.4,0.3-0.8,0.8-0.8c0,0,0,0,0,0c0.2,0,0.4,0.1,0.6,0.2c0.2,0.2,0.2,0.4,0.2,0.6
	c0,0.2-0.1,0.4-0.2,0.6c-0.1,0.2-0.3,0.2-0.6,0.2C647.9,44.4,647.7,44.3,647.6,44.1z M647.6,49.7c-0.2-0.2-0.2-0.4-0.2-0.6
	c0-0.2,0.1-0.4,0.2-0.6c0.1-0.2,0.4-0.2,0.6-0.2c0.2,0,0.4,0.1,0.6,0.2c0.1,0.2,0.2,0.4,0.2,0.6c0,0.2-0.1,0.4-0.2,0.6
	c-0.1,0.2-0.3,0.2-0.6,0.2C647.9,49.9,647.7,49.8,647.6,49.7z"/>
<path d="M658.6,45.3c-0.7,0.6-1.5,0.8-2.4,0.8h-1.7v3.8h-1.2v-9.1h2.9c0.8-0.1,1.7,0.2,2.3,0.7C659.6,42.6,659.6,44.3,658.6,45.3
	C658.6,45.3,658.6,45.3,658.6,45.3L658.6,45.3z M657.7,44.7c0.3-0.3,0.5-0.8,0.5-1.2c0-1.1-0.6-1.7-1.9-1.7h-1.7v3.3h1.7
	C656.7,45.1,657.3,45,657.7,44.7z"/>
<path d="M660.5,44.3c0.3-0.5,0.7-1,1.2-1.3c0.5-0.3,1.1-0.5,1.7-0.5c0.6,0,1.1,0.1,1.6,0.4c0.4,0.2,0.8,0.6,1,1v-1.3h1.2v7.1H666
	v-1.3c-0.2,0.4-0.6,0.8-1,1c-0.5,0.3-1.1,0.4-1.6,0.4c-0.6,0-1.2-0.2-1.7-0.5c-0.5-0.3-0.9-0.8-1.2-1.3c-0.3-0.6-0.4-1.3-0.4-1.9
	C660,45.6,660.2,44.9,660.5,44.3z M665.7,44.9c-0.2-0.4-0.5-0.7-0.9-0.9c-0.4-0.2-0.8-0.3-1.2-0.3c-0.4,0-0.8,0.1-1.2,0.3
	c-0.4,0.2-0.7,0.5-0.9,0.9c-0.2,0.4-0.3,0.9-0.3,1.4c0,0.5,0.1,1,0.3,1.4c0.2,0.4,0.5,0.7,0.9,0.9c0.4,0.2,0.8,0.3,1.2,0.3
	c0.4,0,0.8-0.1,1.2-0.3c0.4-0.2,0.7-0.5,0.9-0.9C666.1,46.8,666.1,45.8,665.7,44.9L665.7,44.9z"/>
<path d="M669.9,49.7c-0.4-0.2-0.7-0.4-1-0.8c-0.2-0.3-0.4-0.7-0.4-1.2h1.2c0,0.3,0.2,0.7,0.5,0.9c0.3,0.2,0.8,0.4,1.2,0.3
	c0.4,0,0.8-0.1,1.1-0.3c0.2-0.2,0.4-0.5,0.4-0.8c0-0.3-0.1-0.6-0.4-0.7c-0.4-0.2-0.8-0.3-1.3-0.5c-0.4-0.1-0.9-0.3-1.3-0.4
	c-0.3-0.1-0.6-0.4-0.9-0.6c-0.3-0.3-0.4-0.7-0.4-1.1c0-0.4,0.1-0.7,0.3-1c0.2-0.3,0.6-0.6,0.9-0.7c0.4-0.2,0.9-0.3,1.4-0.3
	c0.7,0,1.4,0.2,1.9,0.6c0.5,0.4,0.8,1,0.8,1.6h-1.2c0-0.3-0.2-0.7-0.5-0.9c-0.3-0.2-0.7-0.4-1.1-0.3c-0.4,0-0.7,0.1-1,0.3
	c-0.2,0.2-0.4,0.4-0.4,0.7c0,0.2,0.1,0.4,0.2,0.6c0.2,0.2,0.4,0.3,0.6,0.4c0.2,0.1,0.5,0.2,1,0.3c0.4,0.1,0.8,0.2,1.2,0.4
	c0.3,0.1,0.6,0.3,0.8,0.6c0.2,0.3,0.4,0.6,0.4,1c0,0.4-0.1,0.7-0.3,1.1c-0.2,0.3-0.5,0.6-0.9,0.7c-0.4,0.2-0.9,0.3-1.4,0.3
	C671,50,670.4,49.9,669.9,49.7z"/>
<path d="M676.4,49.7c-0.4-0.2-0.7-0.4-1-0.8c-0.2-0.3-0.4-0.7-0.4-1.2h1.2c0,0.3,0.2,0.7,0.5,0.9c0.3,0.2,0.7,0.4,1.2,0.4
	c0.4,0,0.8-0.1,1.1-0.3c0.2-0.2,0.4-0.5,0.4-0.8c0-0.3-0.1-0.6-0.4-0.7c-0.4-0.2-0.8-0.3-1.3-0.5c-0.4-0.1-0.9-0.3-1.3-0.4
	c-0.3-0.1-0.6-0.4-0.9-0.6c-0.5-0.6-0.5-1.5,0-2.1c0.2-0.3,0.6-0.6,0.9-0.7c0.4-0.2,0.9-0.3,1.4-0.3c0.7,0,1.4,0.2,1.9,0.6
	c0.5,0.4,0.8,1,0.8,1.6h-1.2c0-0.3-0.2-0.7-0.5-0.9c-0.3-0.2-0.7-0.4-1.1-0.3c-0.4,0-0.7,0.1-1,0.3c-0.2,0.2-0.4,0.4-0.4,0.7
	c0,0.2,0.1,0.4,0.2,0.6c0.2,0.2,0.4,0.3,0.6,0.4c0.2,0.1,0.5,0.2,1,0.3c0.4,0.1,0.8,0.2,1.2,0.4c0.3,0.1,0.6,0.3,0.8,0.6
	c0.2,0.3,0.4,0.6,0.4,1c0,0.4-0.1,0.7-0.3,1.1c-0.2,0.3-0.6,0.6-0.9,0.7c-0.5,0.2-1,0.3-1.5,0.3C677.3,50,676.8,49.9,676.4,49.7z"/>
<path d="M688.2,46.7h-5.7c0,1.2,1,2.3,2.2,2.3c0,0,0.1,0,0.1,0c0.5,0,0.9-0.1,1.3-0.4c0.3-0.2,0.6-0.6,0.7-1h1.3
	c-0.2,0.7-0.6,1.3-1.2,1.7c-0.6,0.5-1.4,0.7-2.1,0.7c-0.6,0-1.3-0.2-1.8-0.5c-0.5-0.3-1-0.7-1.3-1.3c-0.6-1.2-0.6-2.7,0-3.9
	c0.3-0.5,0.7-1,1.2-1.3c0.6-0.3,1.2-0.5,1.8-0.5c0.6,0,1.2,0.1,1.8,0.4c0.5,0.3,0.9,0.7,1.2,1.2c0.3,0.5,0.4,1.1,0.4,1.7
	C688.2,46.2,688.2,46.5,688.2,46.7z M686.7,44.6c-0.2-0.3-0.5-0.6-0.8-0.7c-0.4-0.2-0.7-0.3-1.1-0.2c-0.6,0-1.1,0.2-1.5,0.6
	c-0.4,0.4-0.7,1-0.7,1.6h4.5C687,45.4,686.9,45,686.7,44.6z"/>
<path d="M695,43.4c0.6,0.6,0.9,1.4,0.8,2.3v4.2h-1.2v-4c0-0.6-0.1-1.2-0.5-1.6c-0.4-0.4-0.9-0.6-1.5-0.6c-0.6,0-1.1,0.2-1.5,0.6
	c-0.4,0.5-0.6,1.1-0.5,1.7v3.9h-1.2v-7.2h1.2v1c0.2-0.4,0.6-0.7,1-0.8c0.4-0.2,0.9-0.3,1.3-0.3C693.7,42.6,694.4,42.9,695,43.4z"/>
<path d="M701.9,43c0.4,0.2,0.8,0.6,1,1v-1.3h1.2V50c0,0.6-0.1,1.2-0.4,1.7c-0.3,0.5-0.7,0.9-1.2,1.2c-0.6,0.3-1.2,0.4-1.8,0.4
	c-0.8,0-1.6-0.2-2.3-0.7c-0.6-0.4-1-1.1-1.1-1.8h1.2c0.1,0.4,0.4,0.8,0.8,1c0.4,0.3,1,0.4,1.5,0.4c0.6,0,1.2-0.2,1.6-0.6
	c0.4-0.5,0.6-1.1,0.6-1.7v-1.5c-0.2,0.4-0.6,0.8-1,1c-0.5,0.3-1,0.4-1.6,0.4c-1.2,0-2.4-0.7-2.9-1.8c-0.3-0.6-0.4-1.3-0.4-1.9
	c0-0.7,0.1-1.3,0.4-1.9c0.3-0.5,0.7-1,1.2-1.3c0.5-0.3,1.1-0.5,1.7-0.5C700.9,42.5,701.5,42.7,701.9,43z M702.6,44.9
	c-0.2-0.4-0.5-0.7-0.9-0.9c-0.4-0.2-0.8-0.3-1.2-0.3c-0.4,0-0.8,0.1-1.2,0.3c-0.4,0.2-0.7,0.5-0.9,0.9c-0.2,0.4-0.3,0.9-0.3,1.4
	c0,0.5,0.1,1,0.3,1.4c0.2,0.4,0.5,0.7,0.9,0.9c0.4,0.2,0.8,0.3,1.2,0.3c0.4,0,0.8-0.1,1.2-0.3c0.4-0.2,0.7-0.5,0.9-0.9
	C703.1,46.8,703.1,45.7,702.6,44.9z"/>
<path d="M712.3,46.7h-5.7c0,0.6,0.3,1.2,0.7,1.6c0.4,0.4,1,0.6,1.6,0.6c0.5,0,0.9-0.1,1.3-0.4c0.3-0.2,0.6-0.6,0.7-1h1.3
	c-0.2,0.7-0.6,1.3-1.1,1.7c-0.6,0.4-1.4,0.7-2.1,0.7c-0.6,0-1.3-0.2-1.8-0.5c-0.5-0.3-1-0.7-1.2-1.2c-0.3-0.6-0.5-1.3-0.5-2
	c0-0.7,0.1-1.3,0.4-1.9c0.3-0.5,0.7-1,1.2-1.3c0.6-0.3,1.2-0.5,1.8-0.5c0.6,0,1.2,0.1,1.8,0.4c0.5,0.3,0.9,0.7,1.2,1.2
	c0.3,0.5,0.4,1.1,0.4,1.7C712.3,46.2,712.3,46.5,712.3,46.7z M710.8,44.6c-0.2-0.3-0.5-0.6-0.8-0.7c-0.4-0.2-0.7-0.3-1.1-0.2
	c-0.6,0-1.1,0.2-1.5,0.6c-0.4,0.4-0.7,1-0.7,1.6h4.5C711.1,45.4,711,45,710.8,44.6z"/>
<path d="M715.6,42.9c0.4-0.2,0.9-0.3,1.4-0.3v1.2h-0.3c-1.3,0-2,0.7-2,2.2v3.9h-1.2v-7.1h1.2v1.2C714.9,43.5,715.2,43.1,715.6,42.9z
	"/>
<path d="M719,49.7c-0.4-0.2-0.7-0.4-1-0.8c-0.2-0.3-0.4-0.7-0.4-1.2h1.2c0,0.3,0.2,0.7,0.5,0.9c0.3,0.2,0.8,0.4,1.2,0.3
	c0.4,0,0.8-0.1,1.1-0.3c0.2-0.2,0.4-0.5,0.4-0.8c0-0.3-0.1-0.6-0.4-0.7c-0.4-0.2-0.8-0.3-1.3-0.5c-0.4-0.1-0.9-0.3-1.3-0.4
	c-0.3-0.1-0.6-0.4-0.9-0.6c-0.5-0.6-0.5-1.5,0-2.1c0.2-0.3,0.6-0.6,0.9-0.7c0.4-0.2,0.9-0.3,1.4-0.3c0.7,0,1.4,0.2,1.9,0.6
	c0.5,0.4,0.8,1,0.8,1.6h-1.3c0-0.3-0.2-0.7-0.5-0.9c-0.3-0.2-0.7-0.4-1.1-0.3c-0.4,0-0.7,0.1-1,0.3c-0.2,0.2-0.4,0.4-0.4,0.7
	c0,0.2,0.1,0.4,0.2,0.6c0.2,0.2,0.4,0.3,0.6,0.4c0.2,0.1,0.5,0.2,1,0.3c0.4,0.1,0.8,0.2,1.2,0.4c0.3,0.1,0.6,0.3,0.8,0.6
	c0.2,0.3,0.4,0.6,0.4,1c0,0.4-0.1,0.8-0.3,1.1c-0.2,0.3-0.5,0.6-0.9,0.7c-0.4,0.2-0.9,0.3-1.4,0.3C720,50,719.5,49.9,719,49.7z"/>
<path d="M725.6,48.2l-1.5,3.5h-0.8l1-3.5H725.6z"/>
<path d="M729.9,42.9c0.4-0.7,0.9-1.3,1.6-1.7c0.7-0.4,1.5-0.6,2.3-0.6c0.9,0,1.8,0.2,2.6,0.7c0.7,0.5,1.3,1.2,1.6,2h-1.4
	c-0.2-0.5-0.6-1-1.1-1.3c-0.5-0.3-1.1-0.5-1.7-0.4c-0.6,0-1.2,0.1-1.7,0.4c-0.5,0.3-0.9,0.7-1.2,1.3c-0.6,1.2-0.6,2.6,0,3.8
	c0.3,0.5,0.7,1,1.2,1.3c0.5,0.3,1.1,0.4,1.7,0.4c0.6,0,1.2-0.1,1.7-0.4c0.5-0.3,0.9-0.7,1.1-1.3h1.4c-0.3,0.8-0.9,1.5-1.6,2
	c-0.8,0.5-1.7,0.7-2.6,0.7c-0.8,0-1.6-0.2-2.3-0.6c-0.7-0.4-1.2-1-1.6-1.7C729.1,46.2,729.1,44.4,729.9,42.9L729.9,42.9z"/>
<path d="M741.5,42.9c0.4-0.2,0.9-0.3,1.4-0.3v1.2h-0.3c-1.3,0-2,0.7-2,2.2v3.9h-1.2v-7.1h1.2v1.2C740.8,43.5,741.1,43.2,741.5,42.9z
	"/>
<path d="M750.3,46.7h-5.7c0,1.2,1,2.3,2.2,2.3c0,0,0.1,0,0.1,0c0.5,0,0.9-0.1,1.3-0.4c0.3-0.2,0.6-0.6,0.7-1h1.3
	c-0.2,0.7-0.6,1.3-1.1,1.7c-0.6,0.4-1.4,0.7-2.1,0.7c-0.6,0-1.3-0.2-1.8-0.5c-0.5-0.3-1-0.7-1.2-1.3c-0.3-0.6-0.5-1.3-0.5-2
	c0-0.7,0.1-1.3,0.4-1.9c0.3-0.5,0.7-1,1.2-1.3c0.6-0.3,1.2-0.5,1.8-0.5c0.6,0,1.2,0.1,1.8,0.4c0.5,0.3,0.9,0.7,1.2,1.2
	c0.3,0.5,0.4,1.1,0.4,1.7C750.4,46.2,750.4,46.5,750.3,46.7z M748.8,44.6c-0.2-0.3-0.5-0.6-0.8-0.7c-0.4-0.2-0.7-0.3-1.1-0.2
	c-0.6,0-1.1,0.2-1.5,0.6c-0.4,0.4-0.7,1-0.7,1.6h4.5C749.1,45.4,749,45,748.8,44.6z"/>
<path d="M761.1,42.7l-2.2,7.1h-1.2l-1.7-5.7l-1.7,5.7h-1.2l-2.2-7.1h1.2l1.6,6l1.8-6h1.2l1.7,6l1.6-6H761.1z"/>
<path d="M763.1,48.2l-1.5,3.5h-0.8l1-3.5H763.1z"/>
<path d="M767.2,44.3c0.3-0.5,0.7-1,1.2-1.3c0.5-0.3,1.1-0.5,1.7-0.5c0.6,0,1.1,0.1,1.6,0.4c0.4,0.2,0.8,0.6,1,1v-1.3h1.2v7.1h-1.1
	v-1.3c-0.3,0.4-0.6,0.8-1,1c-0.5,0.3-1,0.4-1.6,0.4c-0.6,0-1.2-0.2-1.7-0.5c-0.5-0.3-0.9-0.8-1.2-1.3c-0.3-0.6-0.4-1.3-0.4-1.9
	C766.8,45.6,766.9,44.9,767.2,44.3z M772.5,44.9c-0.2-0.4-0.5-0.7-0.9-0.9c-0.8-0.4-1.7-0.4-2.4,0c-0.4,0.2-0.7,0.5-0.9,0.9
	c-0.2,0.4-0.3,0.9-0.3,1.4c0,0.5,0.1,1,0.3,1.4c0.2,0.4,0.5,0.7,0.9,0.9c0.8,0.4,1.7,0.4,2.4,0c0.4-0.2,0.7-0.5,0.9-0.9
	C772.9,46.8,772.9,45.8,772.5,44.9z"/>
<path d="M781.2,43.4c0.6,0.6,0.9,1.4,0.8,2.3v4.2h-1.2v-4c0-0.6-0.1-1.2-0.5-1.6c-0.4-0.4-0.9-0.6-1.5-0.6c-0.6,0-1.1,0.2-1.5,0.6
	c-0.4,0.5-0.6,1.1-0.5,1.7v3.9h-1.2v-7.2h1.2v1c0.2-0.4,0.6-0.7,1-0.8c0.4-0.2,0.9-0.3,1.3-0.3C779.9,42.6,780.6,42.9,781.2,43.4z"
	/>
<path d="M783.6,44.3c0.3-0.5,0.7-1,1.3-1.3c0.5-0.3,1.1-0.5,1.7-0.5c0.5,0,1.1,0.1,1.5,0.4c0.4,0.2,0.8,0.6,1.1,1v-3.8h1.2v9.6h-1.2
	v-1.3c-0.2,0.4-0.6,0.8-1,1c-0.5,0.3-1,0.4-1.6,0.4c-1.2,0-2.4-0.7-2.9-1.8c-0.3-0.6-0.4-1.3-0.4-1.9
	C783.2,45.6,783.3,44.9,783.6,44.3z M788.8,44.9c-0.2-0.4-0.5-0.7-0.9-0.9c-0.8-0.4-1.7-0.4-2.4,0c-0.4,0.2-0.7,0.5-0.9,0.9
	c-0.2,0.4-0.3,0.9-0.3,1.4c0,0.5,0.1,1,0.3,1.4c0.2,0.4,0.5,0.7,0.9,0.9c0.8,0.4,1.7,0.4,2.4,0c0.4-0.2,0.7-0.5,0.9-0.9
	C789.3,46.8,789.3,45.8,788.8,44.9z"/>
<path d="M796.5,43.7v4.2c0,0.3,0.1,0.5,0.2,0.7c0.2,0.2,0.5,0.3,0.8,0.2h0.9v1h-1.1c-0.5,0-1.1-0.1-1.5-0.5
	c-0.4-0.4-0.6-0.9-0.5-1.5v-4.2h-0.9v-1h0.9v-1.8h1.2v1.8h1.9v1H796.5z"/>
<path d="M804.5,42.9c0.4,0.2,0.8,0.6,1,1c0.3,0.5,0.4,1.1,0.4,1.7v4.2h-1.2v-4c0-0.6-0.1-1.2-0.5-1.6c-0.4-0.4-0.9-0.6-1.5-0.6
	c-0.6,0-1.1,0.2-1.5,0.6c-0.4,0.5-0.6,1.1-0.6,1.7v3.9h-1.2v-9.6h1.2v3.5c0.2-0.4,0.6-0.7,1-0.8c0.4-0.2,0.9-0.3,1.4-0.3
	C803.5,42.6,804,42.7,804.5,42.9z"/>
<path d="M813.9,46.7h-5.7c0,0.6,0.3,1.2,0.7,1.6c0.4,0.4,1,0.6,1.6,0.6c0.5,0,0.9-0.1,1.3-0.4c0.3-0.2,0.6-0.6,0.7-1h1.3
	c-0.2,0.7-0.6,1.3-1.1,1.7c-0.6,0.4-1.4,0.7-2.1,0.7c-0.6,0-1.3-0.2-1.8-0.5c-0.5-0.3-1-0.7-1.2-1.3c-0.3-0.6-0.5-1.3-0.5-2
	c0-0.7,0.1-1.3,0.5-1.9c0.3-0.5,0.7-1,1.2-1.3c0.6-0.3,1.2-0.5,1.8-0.5c0.6,0,1.2,0.1,1.8,0.4c0.5,0.3,0.9,0.7,1.2,1.2
	c0.3,0.5,0.4,1.2,0.4,1.8C813.9,46.2,813.9,46.5,813.9,46.7z M812.4,44.6c-0.2-0.3-0.5-0.6-0.8-0.7c-0.4-0.2-0.7-0.3-1.1-0.2
	c-0.6,0-1.1,0.2-1.5,0.6c-0.4,0.4-0.7,1-0.7,1.6h4.5C812.7,45.4,812.6,45,812.4,44.6z"/>
<path d="M819.5,49.5c-0.5-0.3-1-0.7-1.3-1.3c-0.6-1.2-0.6-2.7,0-3.9c0.3-0.5,0.8-1,1.3-1.3c1.1-0.6,2.5-0.6,3.7,0
	c0.5,0.3,1,0.7,1.3,1.3c0.3,0.6,0.5,1.3,0.5,1.9c0,0.7-0.2,1.4-0.5,2c-0.3,0.5-0.8,1-1.3,1.3c-0.6,0.3-1.2,0.5-1.8,0.5
	C820.7,50,820.1,49.8,819.5,49.5z M822.5,48.6c0.4-0.2,0.7-0.5,0.9-0.9c0.5-0.9,0.5-2,0-2.9c-0.2-0.4-0.5-0.7-0.9-0.9
	c-0.4-0.2-0.8-0.3-1.2-0.3c-0.4,0-0.8,0.1-1.2,0.3c-0.4,0.2-0.7,0.5-0.9,0.9c-0.4,0.9-0.4,2,0,2.9c0.2,0.4,0.5,0.7,0.9,0.9
	c0.4,0.2,0.8,0.3,1.2,0.3C821.8,48.9,822.2,48.8,822.5,48.6L822.5,48.6z"/>
<path d="M828.3,42.9c0.4-0.2,0.9-0.3,1.4-0.3v1.2h-0.3c-1.3,0-2,0.7-2,2.2v3.9h-1.2v-7.1h1.2v1.2C827.6,43.5,827.9,43.2,828.3,42.9z
	"/>
<path d="M834.6,49.8l-2.8-3.1v3.2h-1.2v-9.6h1.2v5.7l2.8-3.2h1.7l-3.4,3.5l3.4,3.6H834.6z"/>
<path d="M843.5,46.7h-5.7c0,1.2,1,2.3,2.2,2.3c0,0,0.1,0,0.1,0c0.5,0,0.9-0.1,1.3-0.4c0.3-0.2,0.6-0.6,0.7-1h1.3
	c-0.2,0.7-0.6,1.3-1.2,1.7c-0.6,0.4-1.4,0.7-2.1,0.7c-0.6,0-1.3-0.2-1.8-0.5c-0.5-0.3-1-0.8-1.3-1.3c-0.6-1.2-0.6-2.7,0-3.9
	c0.3-0.5,0.7-1,1.2-1.3c0.6-0.3,1.2-0.5,1.8-0.5c0.6,0,1.2,0.1,1.8,0.4c0.5,0.3,0.9,0.7,1.2,1.2c0.3,0.5,0.4,1.1,0.4,1.7
	C843.5,46.2,843.5,46.5,843.5,46.7z M842,44.6c-0.2-0.3-0.5-0.6-0.8-0.7c-0.4-0.2-0.7-0.3-1.1-0.2c-0.6,0-1.1,0.2-1.5,0.6
	c-0.4,0.4-0.7,1-0.7,1.6h4.5C842.3,45.4,842.2,45,842,44.6z"/>
<path d="M846.8,42.9c0.4-0.2,0.9-0.3,1.4-0.3v1.2h-0.3c-1.3,0-2,0.7-2,2.2v3.9h-1.2v-7.1h1.2v1.2C846,43.5,846.4,43.1,846.8,42.9z"
	/>
<path d="M850.2,49.7c-0.4-0.2-0.7-0.4-1-0.8c-0.2-0.3-0.4-0.7-0.4-1.2h1.2c0,0.3,0.2,0.7,0.5,0.9c0.3,0.2,0.8,0.4,1.2,0.3
	c0.4,0,0.8-0.1,1.1-0.3c0.2-0.2,0.4-0.5,0.4-0.8c0-0.3-0.2-0.6-0.4-0.7c-0.4-0.2-0.8-0.3-1.3-0.5c-0.4-0.1-0.9-0.3-1.3-0.4
	c-0.3-0.1-0.6-0.4-0.9-0.6c-0.5-0.6-0.5-1.5,0-2.1c0.2-0.3,0.6-0.6,0.9-0.7c0.4-0.2,0.9-0.3,1.4-0.3c0.7,0,1.4,0.2,1.9,0.6
	c0.5,0.4,0.8,1,0.8,1.6h-1.2c0-0.3-0.2-0.7-0.5-0.9c-0.3-0.2-0.7-0.4-1.1-0.3c-0.4,0-0.7,0.1-1,0.3c-0.2,0.2-0.4,0.4-0.4,0.7
	c0,0.2,0.1,0.4,0.2,0.6c0.2,0.2,0.4,0.3,0.6,0.4c0.2,0.1,0.5,0.2,1,0.3c0.4,0.1,0.8,0.2,1.2,0.4c0.3,0.1,0.6,0.3,0.8,0.6
	c0.2,0.3,0.3,0.6,0.3,1c0,0.4-0.1,0.7-0.3,1.1c-0.2,0.3-0.6,0.6-0.9,0.7c-0.4,0.2-0.9,0.3-1.4,0.3C851.2,49.9,850.7,49.9,850.2,49.7
	z"/>
<path d="M858.7,44.3c0.3-0.5,0.7-1,1.2-1.3c0.5-0.3,1.1-0.5,1.7-0.5c0.6,0,1.1,0.1,1.6,0.4c0.4,0.2,0.8,0.6,1,1v-1.3h1.2v7.1h-1.2
	v-1.3c-0.3,0.4-0.6,0.8-1,1c-0.5,0.3-1.1,0.4-1.6,0.4c-1.2,0-2.4-0.7-2.9-1.8c-0.3-0.6-0.4-1.3-0.4-1.9
	C858.2,45.6,858.4,44.9,858.7,44.3z M864,44.9c-0.2-0.4-0.5-0.7-0.9-0.9c-0.4-0.2-0.8-0.3-1.2-0.3c-0.4,0-0.8,0.1-1.2,0.3
	c-0.4,0.2-0.7,0.5-0.9,0.9c-0.2,0.4-0.3,0.9-0.3,1.4c0,0.5,0.1,1,0.3,1.4c0.2,0.4,0.5,0.7,0.9,0.9c0.4,0.2,0.8,0.3,1.2,0.3
	c0.4,0,0.8-0.1,1.2-0.3c0.4-0.2,0.7-0.5,0.9-0.9C864.4,46.8,864.4,45.8,864,44.9z"/>
<path d="M868.6,43.7v4.2c0,0.3,0.1,0.5,0.2,0.7c0.2,0.2,0.5,0.3,0.8,0.2h0.9v1h-1.1c-0.5,0-1.1-0.1-1.5-0.5
	c-0.4-0.4-0.6-0.9-0.5-1.5v-4.2h-0.9v-1h0.9v-1.8h1.2v1.8h1.9v1H868.6z"/>
<path d="M874.6,44.3c0.3-0.5,0.7-1,1.2-1.3c0.5-0.3,1.1-0.5,1.7-0.5c0.6,0,1.1,0.1,1.6,0.4c0.4,0.2,0.8,0.6,1,1v-1.3h1.2v7.1h-1.2
	v-1.3c-0.2,0.4-0.6,0.8-1,1c-0.5,0.3-1.1,0.4-1.6,0.4c-1.2,0-2.4-0.7-2.9-1.8c-0.3-0.6-0.5-1.3-0.4-1.9
	C874.2,45.6,874.3,44.9,874.6,44.3z M879.9,44.9c-0.2-0.4-0.5-0.7-0.9-0.9c-0.4-0.2-0.8-0.3-1.2-0.3c-0.4,0-0.8,0.1-1.2,0.3
	c-0.4,0.2-0.7,0.5-0.9,0.9c-0.2,0.4-0.3,0.9-0.3,1.4c0,0.5,0.1,1,0.3,1.4c0.2,0.4,0.5,0.7,0.9,0.9c0.4,0.2,0.8,0.3,1.2,0.3
	c0.4,0,0.8-0.1,1.2-0.3c0.4-0.2,0.7-0.5,0.9-0.9C880.3,46.8,880.3,45.8,879.9,44.9z"/>
<path d="M883.1,41.3c-0.2-0.2-0.2-0.4-0.2-0.6c0-0.2,0.1-0.4,0.2-0.6c0.1-0.2,0.4-0.2,0.6-0.2c0.2,0,0.4,0.1,0.6,0.2
	c0.1,0.2,0.2,0.4,0.2,0.6c0,0.2-0.1,0.4-0.2,0.6c-0.1,0.2-0.3,0.2-0.6,0.2C883.4,41.6,883.2,41.5,883.1,41.3z M884.2,42.7v7.1H883
	v-7.1L884.2,42.7z"/>
<path d="M887.9,42.9c0.4-0.2,0.9-0.3,1.4-0.3v1.2H889c-1.3,0-2,0.7-2,2.2v3.9h-1.2v-7.1h1.2v1.2C887.2,43.5,887.5,43.1,887.9,42.9z"
	/>
<path d="M892.6,43c0.5-0.3,1.1-0.4,1.6-0.4c0.6,0,1.2,0.1,1.7,0.5c0.5,0.3,0.9,0.7,1.2,1.3c0.3,0.6,0.5,1.3,0.4,1.9
	c0,0.7-0.1,1.3-0.4,1.9c-0.6,1.1-1.7,1.8-2.9,1.8c-0.6,0-1.1-0.1-1.6-0.4c-0.4-0.2-0.8-0.6-1-1v4.7h-1.2V42.7h1.2V44
	C891.8,43.6,892.2,43.2,892.6,43z M896,44.8c-0.2-0.4-0.5-0.7-0.9-0.9c-0.4-0.2-0.8-0.3-1.2-0.3c-0.4,0-0.8,0.1-1.2,0.3
	c-0.4,0.2-0.7,0.5-0.9,0.9c-0.4,0.9-0.4,1.9,0,2.8c0.2,0.4,0.5,0.7,0.9,0.9c0.4,0.2,0.8,0.3,1.2,0.3c0.4,0,0.8-0.1,1.2-0.3
	c0.4-0.2,0.7-0.5,0.9-0.9c0.2-0.4,0.3-0.9,0.3-1.4C896.4,45.8,896.3,45.3,896,44.8L896,44.8z"/>
<path d="M900.1,49.5c-0.5-0.3-1-0.8-1.2-1.3c-0.3-0.6-0.5-1.3-0.5-2c0-0.7,0.2-1.3,0.5-1.9c0.3-0.5,0.7-1,1.3-1.3
	c1.2-0.6,2.5-0.6,3.7,0c0.5,0.3,1,0.7,1.3,1.3c0.3,0.6,0.5,1.3,0.5,1.9c0,0.7-0.2,1.4-0.5,2c-0.3,0.5-0.8,1-1.3,1.3
	c-0.6,0.3-1.2,0.5-1.8,0.5C901.3,50,900.6,49.8,900.1,49.5z M903.1,48.6c0.4-0.2,0.7-0.5,0.9-0.9c0.2-0.4,0.4-1,0.3-1.5
	c0-0.5-0.1-1-0.3-1.5c-0.2-0.4-0.5-0.7-0.9-0.9c-0.4-0.2-0.8-0.3-1.2-0.3c-0.4,0-0.8,0.1-1.2,0.3c-0.4,0.2-0.7,0.5-0.9,0.9
	c-0.2,0.4-0.3,0.9-0.3,1.5c0,0.5,0.1,1,0.3,1.5c0.2,0.4,0.5,0.7,0.8,0.9c0.4,0.2,0.8,0.3,1.2,0.3C902.3,48.9,902.7,48.8,903.1,48.6
	L903.1,48.6z"/>
<path d="M908.8,42.9c0.4-0.2,0.9-0.3,1.4-0.3v1.2h-0.3c-1.3,0-2,0.7-2,2.2v3.9h-1.2v-7.1h1.2v1.2C908.1,43.5,908.4,43.2,908.8,42.9z
	"/>
<path d="M912.7,43.7v4.2c0,0.3,0.1,0.5,0.2,0.7c0.2,0.2,0.5,0.3,0.8,0.2h0.9v1h-1.1c-0.5,0-1.1-0.1-1.5-0.5
	c-0.4-0.4-0.5-0.9-0.5-1.5v-4.2h-0.9v-1h0.9v-1.8h1.2v1.8h1.9v1H912.7z"/>
</svg>
