<?xml version="1.0" encoding="utf-8"?>
<!-- Generator: Adobe Illustrator 24.1.0, SVG Export Plug-In . SVG Version: 6.00 Build 0)  -->
<svg version="1.1" id="图层_1" xmlns="http://www.w3.org/2000/svg" xmlns:xlink="http://www.w3.org/1999/xlink" x="0px" y="0px"
	 viewBox="0 0 1252.1 72.9" style="enable-background:new 0 0 1252.1 72.9;" xml:space="preserve">
<style type="text/css">
	.st0{fill:#FFFFFF;}
	.st1{font-family:'Poppins-Medium';}
	.st2{font-size:40px;}
	.st3{letter-spacing:-1;}
</style>
<g id="图层_2_1_">
	<g id="图层_1-2">
		<rect class="st0" width="1252.1" height="65.2"/>
		<text transform="matrix(1 0 0 1 84.22 49.62)" class="st1 st2 st3">Field Research</text>
		<path d="M651.6,18.3v9.1h-1.2v-9.1H651.6z"/>
		<path d="M656.3,21.8c0.3-0.5,0.7-1,1.2-1.3c0.5-0.3,1.2-0.5,1.8-0.5c0.8,0,1.5,0.2,2.2,0.6c0.6,0.4,1,1.1,1.1,1.8h-1.3
			c-0.1-0.4-0.4-0.8-0.7-1c-0.4-0.3-0.8-0.4-1.3-0.4c-0.6,0-1.2,0.2-1.6,0.7c-0.5,0.6-0.7,1.3-0.6,2c0,0.7,0.2,1.4,0.6,2
			c0.4,0.5,1,0.7,1.6,0.7c0.5,0,0.9-0.1,1.3-0.4c0.3-0.2,0.6-0.6,0.7-1h1.3c-0.2,0.7-0.6,1.3-1.1,1.8c-0.6,0.5-1.4,0.7-2.2,0.7
			c-0.6,0-1.3-0.2-1.8-0.5c-0.5-0.3-1-0.8-1.2-1.3c-0.6-1.2-0.6-2.7,0-3.9L656.3,21.8z"/>
		<path d="M665.2,27c-0.5-0.3-1-0.7-1.3-1.3c-0.3-0.6-0.5-1.3-0.5-2c0-0.7,0.1-1.3,0.5-1.9c0.3-0.5,0.8-1,1.3-1.3
			c0.6-0.3,1.2-0.5,1.8-0.5c0.6,0,1.3,0.1,1.8,0.5c0.5,0.3,1,0.7,1.3,1.3c0.6,1.2,0.6,2.7,0,3.9c-0.3,0.5-0.8,1-1.3,1.3
			c-0.6,0.3-1.2,0.5-1.8,0.5C666.3,27.5,665.7,27.3,665.2,27z M668.2,26.1c0.4-0.2,0.7-0.5,0.9-0.9c0.2-0.5,0.4-1,0.3-1.5
			c0-0.5-0.1-1-0.3-1.5c-0.2-0.4-0.5-0.7-0.9-0.9c-0.4-0.2-0.8-0.3-1.2-0.3c-0.4,0-0.8,0.1-1.2,0.3c-0.4,0.2-0.7,0.5-0.9,0.9
			c-0.2,0.4-0.3,0.9-0.3,1.5c0,0.5,0.1,1,0.3,1.5c0.2,0.4,0.5,0.7,0.9,0.9c0.4,0.2,0.8,0.3,1.2,0.3
			C667.4,26.4,667.8,26.3,668.2,26.1L668.2,26.1z"/>
		<path d="M677.4,20.9c0.6,0.6,0.9,1.4,0.8,2.3v4.2H677v-4c0-0.6-0.2-1.2-0.5-1.6c-0.4-0.4-0.9-0.6-1.5-0.6c-0.6,0-1.1,0.2-1.5,0.6
			c-0.4,0.5-0.6,1.1-0.5,1.7v3.9h-1.2v-7.2h1.2v1c0.2-0.4,0.6-0.7,1-0.9c0.4-0.2,0.9-0.3,1.3-0.3C676.1,20.1,676.8,20.4,677.4,20.9z
			"/>
		<path d="M679.8,21.8c0.3-0.5,0.7-1,1.2-1.3c0.5-0.3,1.1-0.5,1.7-0.5c0.5,0,1.1,0.1,1.5,0.4c0.4,0.2,0.8,0.6,1.1,1v-3.8h1.2v9.6
			h-1.2V26c-0.2,0.4-0.6,0.8-1,1c-0.5,0.3-1,0.4-1.6,0.4c-1.2,0-2.4-0.7-2.9-1.8c-0.3-0.6-0.4-1.3-0.4-1.9
			C679.4,23.1,679.5,22.4,679.8,21.8z M685.1,22.4c-0.2-0.4-0.5-0.7-0.9-0.9c-0.4-0.2-0.8-0.3-1.2-0.3c-0.4,0-0.8,0.1-1.2,0.3
			c-0.4,0.2-0.7,0.5-0.9,0.9c-0.2,0.4-0.3,0.9-0.3,1.4c0,0.5,0.1,1,0.3,1.4c0.2,0.4,0.5,0.7,0.9,0.9c0.4,0.2,0.8,0.3,1.2,0.3
			c0.4,0,0.8-0.1,1.2-0.3c0.4-0.2,0.7-0.5,0.9-0.9C685.5,24.3,685.5,23.3,685.1,22.4z"/>
		<path d="M694.5,20.2v7.1h-1.2v-1c-0.2,0.4-0.6,0.7-0.9,0.9c-0.4,0.2-0.9,0.3-1.3,0.3c-0.5,0-1-0.1-1.5-0.3c-0.4-0.2-0.8-0.6-1-1
			c-0.3-0.5-0.4-1.1-0.4-1.7v-4.2h1.2v4c0,0.6,0.2,1.2,0.5,1.6c0.4,0.4,0.9,0.6,1.5,0.6c0.6,0,1.1-0.2,1.5-0.6
			c0.4-0.5,0.6-1.1,0.5-1.7v-3.9H694.5z"/>
		<path d="M696.2,21.8c0.3-0.5,0.7-1,1.2-1.3c0.5-0.3,1.2-0.5,1.8-0.5c0.8,0,1.5,0.2,2.2,0.6c0.6,0.4,1,1.1,1.1,1.8h-1.3
			c-0.1-0.4-0.4-0.8-0.7-1c-0.4-0.3-0.8-0.4-1.3-0.4c-0.6,0-1.2,0.2-1.6,0.7c-0.5,0.6-0.7,1.3-0.6,2c0,0.7,0.2,1.4,0.6,2
			c0.4,0.5,1,0.7,1.6,0.7c0.5,0,0.9-0.1,1.3-0.4c0.3-0.2,0.6-0.6,0.7-1h1.3c-0.2,0.7-0.6,1.3-1.2,1.8c-0.6,0.5-1.4,0.7-2.1,0.7
			c-0.6,0-1.3-0.1-1.8-0.5c-0.5-0.3-1-0.8-1.2-1.3c-0.6-1.2-0.6-2.7,0-3.9L696.2,21.8z"/>
		<path d="M705.1,21.2v4.2c0,0.3,0.1,0.5,0.2,0.7c0.2,0.2,0.5,0.3,0.8,0.2h0.9v1h-1.1c-0.5,0-1.1-0.1-1.5-0.5
			c-0.4-0.4-0.5-1-0.5-1.5v-4.2h-1v-1h1v-1.8h1.2v1.8h1.8v1H705.1z"/>
		<path d="M714.5,24.2h-5.7c0,0.6,0.3,1.2,0.7,1.6c0.4,0.4,1,0.6,1.6,0.6c0.5,0,0.9-0.1,1.3-0.4c0.3-0.2,0.6-0.6,0.7-1h1.3
			c-0.2,0.7-0.6,1.3-1.1,1.7c-0.6,0.4-1.4,0.7-2.1,0.6c-0.6,0-1.3-0.2-1.8-0.5c-0.5-0.3-1-0.7-1.2-1.3c-0.3-0.6-0.5-1.3-0.5-2
			c0-0.7,0.1-1.3,0.5-1.9c0.3-0.5,0.7-1,1.2-1.3c0.6-0.3,1.2-0.5,1.8-0.5c0.6,0,1.2,0.1,1.8,0.4c0.5,0.3,0.9,0.7,1.2,1.2
			c0.3,0.5,0.4,1.1,0.4,1.7C714.6,23.7,714.5,24,714.5,24.2z M713,22.1c-0.2-0.3-0.5-0.6-0.8-0.7c-0.4-0.2-0.7-0.3-1.1-0.2
			c-0.6,0-1.1,0.2-1.5,0.6c-0.4,0.4-0.7,1-0.7,1.6h4.5C713.3,22.9,713.2,22.5,713,22.1z"/>
		<path d="M715.8,21.8c0.3-0.5,0.7-1,1.2-1.3c0.5-0.3,1.1-0.5,1.7-0.5c0.5,0,1.1,0.1,1.5,0.4c0.4,0.2,0.8,0.6,1.1,1v-3.8h1.2v9.6
			h-1.2V26c-0.2,0.4-0.6,0.8-1,1c-0.5,0.3-1,0.4-1.6,0.4c-1.2,0-2.4-0.7-2.9-1.8c-0.3-0.6-0.4-1.3-0.4-1.9
			C715.4,23.1,715.5,22.4,715.8,21.8z M721,22.4c-0.2-0.4-0.5-0.7-0.9-0.9c-0.8-0.4-1.7-0.4-2.4,0c-0.4,0.2-0.7,0.5-0.9,0.9
			c-0.2,0.4-0.3,0.9-0.3,1.4c0,0.5,0.1,1,0.3,1.4c0.2,0.4,0.5,0.7,0.9,0.9c0.8,0.4,1.7,0.4,2.4,0c0.4-0.2,0.7-0.5,0.9-0.9
			C721.4,24.3,721.4,23.3,721,22.4z"/>
		<path d="M730.2,21.2h-1.5v6.1h-1.2v-6.1h-0.9v-1h0.9v-0.5c-0.1-0.6,0.2-1.3,0.6-1.8c0.6-0.4,1.3-0.6,2-0.5v1
			c-0.4,0-0.8,0.1-1.1,0.3c-0.2,0.3-0.3,0.6-0.3,1v0.5h1.5L730.2,21.2z"/>
		<path d="M731.2,18.8c-0.2-0.2-0.2-0.4-0.2-0.6c0-0.2,0.1-0.4,0.2-0.6c0.2-0.2,0.4-0.2,0.6-0.2c0.2,0,0.4,0.1,0.5,0.2
			c0.1,0.2,0.2,0.4,0.2,0.6c0,0.2-0.1,0.4-0.2,0.6c-0.1,0.2-0.3,0.2-0.5,0.2C731.6,19.1,731.4,19,731.2,18.8z M732.4,20.2v7.1h-1.2
			v-7.1H732.4z"/>
		<path d="M740.5,24.2h-5.7c0,1.2,1,2.2,2.3,2.2c0,0,0,0,0.1,0c0.5,0,0.9-0.1,1.3-0.4c0.3-0.2,0.6-0.6,0.7-1h1.3
			c-0.2,0.7-0.6,1.3-1.2,1.7c-0.6,0.4-1.4,0.7-2.1,0.6c-0.6,0-1.3-0.1-1.8-0.4c-0.5-0.3-1-0.7-1.3-1.3c-0.3-0.6-0.5-1.3-0.5-2
			c0-0.7,0.1-1.3,0.4-1.9c0.3-0.5,0.7-1,1.2-1.3c0.6-0.3,1.2-0.5,1.8-0.5c0.6,0,1.2,0.1,1.8,0.4c0.5,0.3,0.9,0.7,1.2,1.2
			c0.3,0.5,0.4,1.1,0.4,1.7C740.5,23.7,740.5,24,740.5,24.2z M739,22.1c-0.2-0.3-0.5-0.6-0.8-0.7c-0.4-0.2-0.7-0.3-1.1-0.2
			c-0.6,0-1.1,0.2-1.5,0.6c-0.4,0.4-0.7,1-0.7,1.6h4.5C739.3,22.9,739.2,22.5,739,22.1z"/>
		<path d="M742.9,17.7v9.6h-1.2v-9.6H742.9z"/>
		<path d="M744.6,21.8c0.3-0.5,0.7-1,1.2-1.3c0.5-0.3,1.1-0.5,1.7-0.5c0.5,0,1.1,0.1,1.5,0.4c0.4,0.2,0.8,0.6,1.1,1v-3.8h1.2v9.6
			h-1.2V26c-0.2,0.4-0.6,0.8-1,1c-0.5,0.3-1,0.4-1.6,0.4c-0.6,0-1.2-0.2-1.7-0.5c-0.5-0.3-0.9-0.8-1.2-1.3c-0.3-0.6-0.5-1.3-0.4-1.9
			C744.1,23.1,744.3,22.4,744.6,21.8z M749.8,22.4c-0.2-0.4-0.5-0.7-0.9-0.9c-0.4-0.2-0.8-0.3-1.2-0.3c-0.4,0-0.8,0.1-1.2,0.3
			c-0.4,0.2-0.7,0.5-0.9,0.9c-0.2,0.4-0.3,0.9-0.3,1.4c0,0.5,0.1,1,0.3,1.4c0.2,0.4,0.5,0.7,0.9,0.9c0.4,0.2,0.8,0.3,1.2,0.3
			c0.4,0,0.8-0.1,1.2-0.3c0.4-0.2,0.7-0.5,0.9-0.9C750.3,24.3,750.3,23.3,749.8,22.4z"/>
		<path d="M758.2,20.4c0.4-0.2,0.9-0.3,1.4-0.3v1.2h-0.3c-1.3,0-2,0.7-2,2.2v3.9h-1.2v-7.1h1.2v1.1C757.5,21,757.8,20.7,758.2,20.4z
			"/>
		<path d="M767,24.2h-5.7c0,1.2,1,2.2,2.3,2.2c0,0,0,0,0.1,0c0.5,0,0.9-0.1,1.3-0.4c0.3-0.2,0.6-0.6,0.7-1h1.3
			c-0.2,0.7-0.6,1.3-1.1,1.7c-0.6,0.4-1.4,0.7-2.1,0.6c-0.6,0-1.3-0.2-1.8-0.5c-0.5-0.3-1-0.7-1.2-1.3c-0.3-0.6-0.5-1.3-0.5-2
			c0-0.7,0.1-1.3,0.4-1.9c0.3-0.5,0.7-1,1.2-1.3c0.6-0.3,1.2-0.5,1.8-0.5c0.6,0,1.2,0.1,1.8,0.4c0.5,0.3,0.9,0.7,1.2,1.2
			c0.3,0.5,0.4,1.1,0.4,1.7C767.1,23.7,767,24,767,24.2z M765.5,22.1c-0.2-0.3-0.5-0.6-0.8-0.7c-0.4-0.2-0.7-0.3-1.1-0.2
			c-0.6,0-1.1,0.2-1.5,0.6c-0.4,0.4-0.7,1-0.7,1.6h4.5C765.8,22.9,765.7,22.5,765.5,22.1L765.5,22.1z"/>
		<path d="M769.3,27.2c-0.4-0.2-0.7-0.4-1-0.8c-0.3-0.3-0.4-0.7-0.4-1.1h1.2c0,0.3,0.2,0.7,0.5,0.9c0.3,0.2,0.8,0.4,1.2,0.3
			c0.4,0,0.8-0.1,1.1-0.3c0.2-0.2,0.4-0.5,0.4-0.8c0-0.3-0.2-0.6-0.4-0.7c-0.4-0.2-0.8-0.3-1.3-0.5c-0.4-0.1-0.9-0.3-1.3-0.4
			c-0.3-0.1-0.6-0.4-0.9-0.6c-0.5-0.6-0.5-1.5,0-2.1c0.2-0.3,0.6-0.6,0.9-0.7c0.4-0.2,0.9-0.3,1.4-0.3c0.7,0,1.4,0.2,1.9,0.6
			c0.5,0.4,0.8,1,0.8,1.6h-1.2c0-0.3-0.2-0.7-0.4-0.9c-0.3-0.2-0.7-0.4-1.1-0.3c-0.4,0-0.7,0.1-1,0.3c-0.2,0.2-0.4,0.4-0.4,0.7
			c0,0.2,0.1,0.4,0.2,0.6c0.1,0.1,0.3,0.2,0.5,0.3c0.2,0.1,0.5,0.2,1,0.3c0.4,0.1,0.8,0.2,1.2,0.4c0.3,0.1,0.6,0.3,0.8,0.6
			c0.2,0.3,0.4,0.7,0.3,1c0,0.4-0.1,0.7-0.3,1.1c-0.2,0.3-0.6,0.6-0.9,0.7c-0.4,0.2-0.9,0.3-1.4,0.3
			C770.3,27.5,769.8,27.4,769.3,27.2z"/>
		<path d="M781.2,24.2h-5.7c0,1.2,1,2.2,2.3,2.2c0,0,0,0,0.1,0c0.5,0,0.9-0.1,1.3-0.4c0.3-0.2,0.6-0.6,0.7-1h1.3
			c-0.2,0.7-0.6,1.3-1.1,1.7c-0.6,0.4-1.4,0.7-2.1,0.6c-0.6,0-1.2-0.1-1.8-0.4c-0.5-0.3-1-0.7-1.2-1.3c-0.3-0.6-0.5-1.3-0.5-2
			c0-0.7,0.1-1.3,0.4-1.9c0.3-0.5,0.7-1,1.2-1.3c0.6-0.3,1.2-0.5,1.8-0.5c0.6,0,1.2,0.1,1.8,0.4c0.5,0.3,0.9,0.7,1.2,1.2
			c0.3,0.5,0.4,1.1,0.4,1.7C781.2,23.7,781.2,24,781.2,24.2z M779.7,22.1c-0.2-0.3-0.5-0.6-0.8-0.7c-0.4-0.2-0.7-0.3-1.1-0.2
			c-0.6,0-1.1,0.2-1.5,0.6c-0.4,0.4-0.7,1-0.7,1.6h4.5C780,22.9,779.9,22.5,779.7,22.1L779.7,22.1z"/>
		<path d="M782.4,21.8c0.3-0.5,0.7-1,1.2-1.3c0.5-0.3,1.1-0.5,1.7-0.5c0.6,0,1.1,0.1,1.6,0.4c0.4,0.2,0.8,0.6,1,1v-1.3h1.2v7.1H788
			V26c-0.3,0.4-0.6,0.8-1,1c-0.5,0.3-1.1,0.4-1.6,0.4c-1.2,0-2.4-0.7-2.9-1.8c-0.3-0.6-0.5-1.3-0.4-1.9
			C782,23.1,782.1,22.4,782.4,21.8z M787.7,22.4c-0.2-0.4-0.5-0.7-0.9-0.9c-0.4-0.2-0.8-0.3-1.2-0.3c-0.4,0-0.8,0.1-1.2,0.3
			c-0.4,0.2-0.7,0.5-0.9,0.9c-0.2,0.4-0.3,0.9-0.3,1.4c0,0.5,0.1,1,0.3,1.4c0.2,0.4,0.5,0.7,0.9,0.9c0.4,0.2,0.8,0.3,1.2,0.3
			c0.4,0,0.8-0.1,1.2-0.3c0.4-0.2,0.7-0.5,0.9-0.9C788.1,24.3,788.1,23.3,787.7,22.4z"/>
		<path d="M792.9,20.4c0.4-0.2,0.9-0.3,1.4-0.3v1.2H794c-1.3,0-2,0.7-2,2.2v3.9h-1.2v-7.1h1.2v1.1C792.2,21,792.5,20.7,792.9,20.4z"
			/>
		<path d="M795.3,21.8c0.3-0.5,0.7-1,1.2-1.3c0.5-0.3,1.2-0.5,1.8-0.5c0.8,0,1.5,0.2,2.2,0.6c0.6,0.4,1,1.1,1.1,1.8h-1.3
			c-0.1-0.4-0.4-0.8-0.7-1c-0.4-0.3-0.8-0.4-1.3-0.4c-0.6,0-1.2,0.2-1.6,0.7c-0.5,0.6-0.7,1.3-0.6,2c-0.1,0.7,0.2,1.4,0.6,2
			c0.4,0.5,1,0.7,1.6,0.7c0.5,0,0.9-0.1,1.3-0.4c0.3-0.2,0.6-0.6,0.7-1h1.3c-0.2,0.7-0.6,1.3-1.2,1.8c-0.6,0.5-1.4,0.7-2.1,0.7
			c-0.6,0-1.3-0.1-1.8-0.5c-0.5-0.3-1-0.7-1.2-1.3c-0.6-1.2-0.6-2.7,0-3.9L795.3,21.8z"/>
		<path d="M807.8,20.4c0.4,0.2,0.8,0.6,1,1c0.3,0.5,0.4,1.1,0.4,1.7v4.2H808v-4c0-0.6-0.2-1.2-0.5-1.6c-0.4-0.4-0.9-0.6-1.5-0.6
			c-0.6,0-1.1,0.2-1.5,0.6c-0.4,0.5-0.6,1.1-0.5,1.7v3.9h-1.2v-9.6h1.2v3.5c0.2-0.4,0.6-0.7,1-0.9c0.4-0.2,0.9-0.3,1.4-0.3
			C806.9,20.1,807.4,20.2,807.8,20.4z"/>
		<path d="M815.3,21.2v4.2c0,0.3,0.1,0.5,0.2,0.7c0.2,0.2,0.5,0.3,0.8,0.2h0.9v1h-1.1c-0.5,0-1.1-0.1-1.5-0.5
			c-0.4-0.4-0.5-0.9-0.5-1.5v-4.2h-0.9v-1h0.9v-1.8h1.2v1.8h1.9v1H815.3z"/>
		<path d="M819.5,27c-0.5-0.3-1-0.7-1.3-1.3c-0.3-0.6-0.5-1.3-0.5-2c0-0.7,0.2-1.3,0.5-1.9c0.3-0.5,0.7-1,1.3-1.3
			c1.2-0.6,2.5-0.6,3.7,0c0.5,0.3,1,0.7,1.3,1.3c0.3,0.6,0.5,1.3,0.5,1.9c0,0.7-0.2,1.4-0.5,2c-0.3,0.5-0.8,1-1.3,1.3
			c-0.6,0.3-1.2,0.5-1.8,0.5C820.7,27.5,820.1,27.3,819.5,27z M822.5,26.1c0.4-0.2,0.7-0.5,0.9-0.9c0.2-0.4,0.4-1,0.3-1.5
			c0-0.5-0.1-1-0.3-1.5c-0.2-0.4-0.5-0.7-0.9-0.9c-0.4-0.2-0.8-0.3-1.2-0.3c-0.4,0-0.8,0.1-1.2,0.3c-0.4,0.2-0.7,0.5-0.9,0.9
			c-0.2,0.4-0.3,0.9-0.3,1.5c0,0.5,0.1,1,0.3,1.5c0.2,0.4,0.5,0.7,0.8,0.9c0.4,0.2,0.8,0.3,1.2,0.3
			C821.8,26.4,822.2,26.3,822.5,26.1L822.5,26.1z"/>
		<path d="M830.8,21.2v4.2c0,0.3,0.1,0.5,0.2,0.7c0.2,0.2,0.5,0.3,0.8,0.2h0.9v1h-1.1c-0.5,0-1.1-0.1-1.5-0.5
			c-0.4-0.4-0.5-0.9-0.5-1.5v-4.2h-0.9v-1h0.9v-1.8h1.2v1.8h1.9v1H830.8z"/>
		<path d="M835.8,20.4c0.4-0.2,0.9-0.3,1.4-0.3v1.2h-0.3c-1.3,0-2,0.7-2,2.2v3.9h-1.2v-7.1h1.2v1.1C835.1,21,835.4,20.7,835.8,20.4z
			"/>
		<path d="M838.2,21.8c0.3-0.5,0.7-1,1.2-1.3c0.5-0.3,1.1-0.5,1.7-0.5c0.6,0,1.1,0.1,1.6,0.4c0.4,0.2,0.8,0.6,1,1v-1.3h1.3v7.1h-1.2
			V26c-0.2,0.4-0.6,0.8-1,1c-0.5,0.3-1,0.4-1.6,0.4c-1.2,0-2.4-0.7-2.9-1.8c-0.3-0.6-0.4-1.3-0.4-1.9
			C837.8,23.1,837.9,22.4,838.2,21.8z M843.4,22.4c-0.2-0.4-0.5-0.7-0.9-0.9c-0.8-0.4-1.7-0.4-2.4,0c-0.4,0.2-0.7,0.5-0.9,0.9
			c-0.2,0.4-0.3,0.9-0.3,1.4c0,0.5,0.1,1,0.3,1.4c0.2,0.4,0.5,0.7,0.9,0.9c0.8,0.4,1.7,0.4,2.4,0c0.4-0.2,0.7-0.5,0.9-0.9
			C843.9,24.3,843.9,23.3,843.4,22.4z"/>
		<path d="M849.2,26.3l2.2-6h1.3l-2.8,7.1h-1.4l-2.8-7.1h1.2L849.2,26.3z"/>
		<path d="M860,24.2h-5.7c0,1.2,1,2.2,2.3,2.2c0,0,0,0,0.1,0c0.5,0,0.9-0.1,1.3-0.4c0.3-0.2,0.6-0.6,0.7-1h1.3
			c-0.2,0.7-0.6,1.3-1.1,1.7c-0.6,0.4-1.4,0.7-2.1,0.6c-0.6,0-1.3-0.2-1.8-0.5c-0.5-0.3-1-0.7-1.2-1.3c-0.3-0.6-0.5-1.3-0.5-2
			c0-0.7,0.1-1.3,0.4-1.9c0.3-0.5,0.7-1,1.2-1.3c1.1-0.6,2.5-0.6,3.6,0c0.5,0.3,0.9,0.7,1.2,1.2c0.3,0.5,0.4,1.1,0.4,1.7
			C860,23.7,860,24,860,24.2z M858.5,22.1c-0.2-0.3-0.5-0.6-0.8-0.7c-0.4-0.2-0.7-0.3-1.1-0.2c-0.6,0-1.1,0.2-1.5,0.6
			c-0.4,0.4-0.7,1-0.7,1.6h4.5C858.8,22.9,858.7,22.5,858.5,22.1z"/>
		<path d="M862.4,17.7v9.6h-1.2v-9.6H862.4z"/>
		<path d="M876.7,20.2l-2.2,7.1h-1.2l-1.7-5.7l-1.7,5.7h-1.2l-2.2-7.1h1.2l1.6,6l1.8-6h1.2l1.7,6l1.6-6H876.7z"/>
		<path d="M877.5,18.8c-0.2-0.1-0.2-0.4-0.2-0.6c0-0.2,0.1-0.4,0.2-0.6c0.1-0.2,0.4-0.2,0.6-0.2c0.2,0,0.4,0.1,0.5,0.2
			c0.1,0.2,0.2,0.4,0.2,0.6c0,0.2-0.1,0.4-0.2,0.6c-0.1,0.2-0.3,0.2-0.5,0.2C877.9,19.1,877.6,19,877.5,18.8z M878.6,20.2v7.1h-1.2
			v-7.1H878.6z"/>
		<path d="M881.7,21.2v4.2c0,0.3,0.1,0.5,0.2,0.7c0.2,0.2,0.5,0.2,0.8,0.2h0.9v1h-1.1c-0.5,0-1.1-0.1-1.5-0.5
			c-0.4-0.4-0.5-0.9-0.5-1.5v-4.2h-0.9v-1h0.9v-1.8h1.2v1.8h1.9v1H881.7z"/>
		<path d="M889.7,20.4c0.4,0.2,0.8,0.6,1,1c0.3,0.5,0.4,1.1,0.4,1.7v4.2h-1.2v-4c0-0.6-0.1-1.2-0.5-1.6c-0.4-0.4-0.9-0.6-1.5-0.6
			c-0.6,0-1.1,0.2-1.5,0.6c-0.4,0.5-0.6,1.1-0.5,1.7v3.9h-1.2v-9.6h1.2v3.5c0.2-0.4,0.6-0.7,1-0.9c0.4-0.2,0.9-0.3,1.4-0.3
			C888.7,20.1,889.2,20.2,889.7,20.4z"/>
		<path d="M897,27c-0.5-0.3-1-0.7-1.3-1.3c-0.6-1.2-0.6-2.7,0-3.9c0.3-0.5,0.8-1,1.3-1.3c1.1-0.6,2.5-0.6,3.7,0
			c0.5,0.3,1,0.7,1.3,1.3c0.3,0.6,0.5,1.3,0.5,1.9c0,0.7-0.2,1.4-0.5,2c-0.3,0.5-0.8,1-1.3,1.3c-0.6,0.3-1.2,0.5-1.8,0.5
			C898.2,27.5,897.6,27.3,897,27z M900,26.1c0.4-0.2,0.7-0.5,0.9-0.9c0.5-0.9,0.5-2,0-2.9c-0.2-0.4-0.5-0.7-0.9-0.9
			c-0.7-0.4-1.6-0.4-2.4,0c-0.4,0.2-0.7,0.5-0.9,0.9c-0.2,0.5-0.3,0.9-0.3,1.5c0,0.5,0.1,1,0.3,1.5c0.2,0.4,0.5,0.7,0.8,0.9
			c0.4,0.2,0.8,0.3,1.2,0.3C899.2,26.4,899.6,26.3,900,26.1L900,26.1z"/>
		<path d="M910,20.2v7.1h-1.2v-1c-0.2,0.4-0.6,0.7-0.9,0.9c-0.4,0.2-0.9,0.3-1.3,0.3c-0.5,0-1-0.1-1.5-0.3c-0.4-0.2-0.8-0.6-1-1
			c-0.3-0.5-0.4-1.1-0.4-1.7v-4.2h1.2v4c0,0.6,0.2,1.2,0.5,1.6c0.4,0.4,0.9,0.6,1.5,0.6c0.6,0,1.1-0.2,1.5-0.6
			c0.4-0.5,0.6-1.1,0.5-1.7v-3.9H910z"/>
		<path d="M913.7,20.4c0.4-0.2,0.9-0.3,1.4-0.3v1.2h-0.3c-1.3,0-2,0.7-2,2.2v3.9h-1.2v-7.1h1.2v1.1C913,21,913.3,20.6,913.7,20.4z"
			/>
		<path d="M919.2,21.8c0.3-0.5,0.7-1,1.2-1.3c0.6-0.3,1.2-0.5,1.8-0.5c0.8,0,1.5,0.2,2.2,0.6c0.6,0.4,1,1.1,1.1,1.8h-1.3
			c-0.1-0.4-0.4-0.8-0.7-1c-0.4-0.3-0.8-0.4-1.3-0.4c-0.6,0-1.2,0.2-1.6,0.7c-0.5,0.6-0.7,1.3-0.6,2c-0.1,0.7,0.2,1.4,0.6,2
			c0.4,0.5,1,0.7,1.6,0.7c0.5,0,0.9-0.1,1.3-0.4c0.3-0.2,0.6-0.6,0.7-1h1.3c-0.2,0.7-0.6,1.3-1.1,1.8c-0.6,0.5-1.4,0.7-2.2,0.7
			c-0.6,0-1.3-0.2-1.8-0.5c-0.5-0.3-1-0.8-1.2-1.3c-0.6-1.2-0.6-2.7,0-3.9L919.2,21.8z"/>
		<path d="M927.9,17.7v9.6h-1.2v-9.6H927.9z"/>
		<path d="M929.6,18.8c-0.2-0.1-0.2-0.4-0.2-0.6c0-0.2,0.1-0.4,0.2-0.6c0.1-0.2,0.4-0.2,0.6-0.2c0.2,0,0.4,0.1,0.5,0.2
			c0.1,0.2,0.2,0.4,0.2,0.6c0,0.2-0.1,0.4-0.2,0.6c-0.1,0.2-0.3,0.2-0.5,0.2C930,19.1,929.8,19,929.6,18.8z M930.8,20.2v7.1h-1.2
			v-7.1H930.8z"/>
		<path d="M938.9,24.2h-5.7c0,1.2,1,2.2,2.3,2.2c0,0,0,0,0.1,0c0.5,0,0.9-0.1,1.3-0.4c0.3-0.2,0.6-0.6,0.7-1h1.3
			c-0.2,0.7-0.6,1.3-1.2,1.7c-0.6,0.4-1.4,0.7-2.1,0.6c-0.6,0-1.3-0.2-1.8-0.5c-0.5-0.3-1-0.7-1.3-1.3c-0.6-1.2-0.6-2.7,0-3.9
			c0.3-0.5,0.7-1,1.2-1.3c0.6-0.3,1.2-0.5,1.8-0.5c0.6,0,1.2,0.1,1.8,0.4c0.5,0.3,0.9,0.7,1.2,1.2c0.3,0.5,0.4,1.1,0.4,1.7
			C938.9,23.7,938.9,24,938.9,24.2z M937.4,22.1c-0.2-0.3-0.5-0.6-0.8-0.7c-0.4-0.2-0.7-0.3-1.1-0.2c-0.6,0-1.1,0.2-1.5,0.6
			c-0.4,0.4-0.7,1-0.7,1.6h4.5C937.7,22.9,937.6,22.5,937.4,22.1z"/>
		<path d="M945.7,20.9c0.6,0.6,0.9,1.4,0.8,2.3v4.2h-1.2v-4c0-0.6-0.2-1.2-0.5-1.6c-0.4-0.4-0.9-0.6-1.5-0.6c-0.6,0-1.1,0.2-1.5,0.6
			c-0.4,0.5-0.6,1.1-0.5,1.7v3.9h-1.2v-7.2h1.2v1c0.2-0.4,0.6-0.7,1-0.9c0.4-0.2,0.9-0.3,1.3-0.3C944.4,20.1,945.1,20.4,945.7,20.9z
			"/>
		<path d="M949.5,21.2v4.2c0,0.3,0.1,0.5,0.2,0.7c0.2,0.2,0.5,0.3,0.8,0.2h0.9v1h-1.1c-0.5,0-1.1-0.1-1.5-0.5
			c-0.4-0.4-0.6-0.9-0.5-1.5v-4.2h-0.9v-1h0.9v-1.8h1.2v1.8h1.9v1H949.5z"/>
		<path d="M953.5,27.2c-0.4-0.2-0.7-0.4-1-0.8c-0.2-0.3-0.4-0.7-0.4-1.1h1.2c0,0.3,0.2,0.7,0.5,0.9c0.3,0.2,0.8,0.4,1.2,0.3
			c0.4,0,0.8-0.1,1.1-0.3c0.2-0.2,0.4-0.5,0.4-0.8c0-0.3-0.1-0.6-0.4-0.7c-0.4-0.2-0.8-0.3-1.3-0.5c-0.4-0.1-0.9-0.3-1.3-0.4
			c-0.3-0.1-0.6-0.4-0.9-0.6c-0.5-0.6-0.5-1.5,0-2.1c0.2-0.3,0.6-0.6,0.9-0.7c0.4-0.2,0.9-0.3,1.4-0.3c0.7,0,1.4,0.2,1.9,0.6
			c0.5,0.4,0.8,1,0.8,1.6h-1.2c0-0.3-0.2-0.7-0.5-0.9c-0.3-0.2-0.7-0.4-1.1-0.3c-0.4,0-0.7,0.1-1,0.3c-0.2,0.2-0.4,0.4-0.4,0.7
			c0,0.2,0.1,0.4,0.2,0.6c0.2,0.2,0.4,0.3,0.6,0.4c0.2,0.1,0.5,0.2,1,0.3c0.4,0.1,0.8,0.2,1.2,0.4c0.3,0.1,0.6,0.3,0.8,0.6
			c0.2,0.3,0.4,0.7,0.4,1c0,0.4-0.1,0.7-0.3,1.1c-0.2,0.3-0.6,0.6-0.9,0.7c-0.4,0.2-0.9,0.3-1.4,0.3C954.5,27.5,954,27.4,953.5,27.2
			z"/>
		<path d="M962,21.8c0.3-0.5,0.7-1,1.2-1.3c0.5-0.3,1.1-0.5,1.7-0.5c0.6,0,1.1,0.1,1.6,0.4c0.4,0.2,0.8,0.6,1,1v-1.3h1.2v7.1h-1.2
			V26c-0.2,0.4-0.6,0.8-1,1c-0.5,0.3-1.1,0.4-1.6,0.4c-1.2,0-2.4-0.6-2.9-1.7c-0.3-0.6-0.5-1.3-0.4-1.9
			C961.5,23.1,961.7,22.4,962,21.8z M967.3,22.4c-0.2-0.4-0.5-0.7-0.9-0.9c-0.4-0.2-0.8-0.3-1.2-0.3c-0.4,0-0.8,0.1-1.2,0.3
			c-0.4,0.2-0.7,0.5-0.9,0.9c-0.2,0.4-0.3,0.9-0.3,1.4c0,0.5,0.1,1,0.3,1.4c0.2,0.4,0.5,0.7,0.9,0.9c0.4,0.2,0.8,0.3,1.2,0.3
			c0.4,0,0.8-0.1,1.2-0.3c0.4-0.2,0.7-0.5,0.9-0.9C967.7,24.3,967.7,23.3,967.3,22.4z"/>
		<path d="M976,20.9c0.6,0.6,0.9,1.4,0.8,2.3v4.2h-1.2v-4c0-0.6-0.2-1.2-0.5-1.6c-0.4-0.4-0.9-0.6-1.5-0.6c-0.6,0-1.1,0.2-1.5,0.6
			c-0.4,0.5-0.6,1.1-0.5,1.7v3.9h-1.2v-7.2h1.2v1c0.2-0.4,0.6-0.7,1-0.9c0.4-0.2,0.9-0.3,1.3-0.3C974.7,20.1,975.4,20.3,976,20.9z"
			/>
		<path d="M978.3,21.8c0.3-0.5,0.7-1,1.2-1.3c0.5-0.3,1.1-0.5,1.7-0.5c0.5,0,1.1,0.1,1.5,0.4c0.4,0.2,0.8,0.6,1.1,1v-3.8h1.2v9.6
			h-1.2V26c-0.2,0.4-0.6,0.8-1,1c-0.5,0.3-1,0.4-1.6,0.4c-0.6,0-1.2-0.2-1.7-0.5c-0.5-0.3-0.9-0.8-1.2-1.3c-0.3-0.6-0.5-1.3-0.4-1.9
			C977.9,23.1,978.1,22.4,978.3,21.8z M983.6,22.4c-0.2-0.4-0.5-0.7-0.9-0.9c-0.4-0.2-0.8-0.3-1.2-0.3c-0.4,0-0.8,0.1-1.2,0.3
			c-0.4,0.2-0.7,0.5-0.9,0.9c-0.2,0.4-0.3,0.9-0.3,1.4c0,0.5,0.1,1,0.3,1.4c0.2,0.4,0.5,0.7,0.9,0.9c0.4,0.2,0.8,0.3,1.2,0.3
			c0.4,0,0.8-0.1,1.2-0.3c0.4-0.2,0.7-0.5,0.9-0.9C984,24.3,984,23.3,983.6,22.4z"/>
		<path d="M989.9,18.8c-0.2-0.1-0.2-0.4-0.2-0.6c0-0.2,0.1-0.4,0.2-0.6c0.1-0.2,0.4-0.2,0.6-0.2c0.2,0,0.4,0.1,0.5,0.2
			c0.1,0.2,0.2,0.4,0.2,0.6c0,0.2-0.1,0.4-0.2,0.6c-0.1,0.2-0.3,0.2-0.5,0.2C990.3,19.1,990.1,19,989.9,18.8z M991.1,20.2v7.1h-1.2
			v-7.1H991.1z"/>
		<path d="M998.3,20.9c0.6,0.6,0.9,1.4,0.8,2.3v4.2h-1.2v-4c0-0.6-0.2-1.2-0.5-1.6c-0.4-0.4-0.9-0.6-1.5-0.6c-0.6,0-1.1,0.2-1.5,0.6
			c-0.4,0.5-0.6,1.1-0.5,1.7v3.9h-1.2v-7.2h1.2v1c0.2-0.4,0.6-0.7,1-0.9c0.4-0.2,0.9-0.3,1.3-0.3C997,20.1,997.7,20.4,998.3,20.9z"
			/>
		<path d="M1002.1,21.2v4.2c0,0.3,0.1,0.5,0.2,0.7c0.2,0.2,0.5,0.2,0.8,0.2h0.9v1h-1.1c-0.5,0-1.1-0.1-1.5-0.5
			c-0.4-0.4-0.5-0.9-0.5-1.5v-4.2h-0.9v-1h0.9v-1.8h1.2v1.8h1.9v1H1002.1z"/>
		<path d="M1011.5,24.2h-5.7c0,0.6,0.3,1.2,0.7,1.6c0.4,0.4,1,0.6,1.6,0.6c0.5,0,0.9-0.1,1.3-0.4c0.3-0.2,0.6-0.6,0.7-1h1.3
			c-0.2,0.7-0.6,1.3-1.1,1.7c-0.6,0.4-1.4,0.7-2.1,0.6c-0.6,0-1.3-0.2-1.8-0.5c-0.5-0.3-1-0.7-1.2-1.3c-0.3-0.6-0.5-1.3-0.5-2
			c0-0.7,0.1-1.3,0.5-1.9c0.3-0.5,0.7-1,1.2-1.3c0.6-0.3,1.2-0.5,1.8-0.5c0.6,0,1.2,0.1,1.8,0.4c0.5,0.3,0.9,0.7,1.2,1.2
			c0.3,0.5,0.4,1.1,0.4,1.7C1011.5,23.7,1011.5,24,1011.5,24.2z M1010,22.1c-0.2-0.3-0.5-0.6-0.8-0.7c-0.4-0.2-0.7-0.3-1.1-0.2
			c-0.6,0-1.1,0.2-1.5,0.6c-0.4,0.4-0.7,1-0.7,1.6h4.5C1010.3,22.9,1010.2,22.5,1010,22.1z"/>
		<path d="M1014.8,20.4c0.4-0.2,0.9-0.3,1.4-0.3v1.2h-0.3c-1.3,0-2,0.7-2,2.2v3.9h-1.2v-7.1h1.2v1.1
			C1014.1,21,1014.4,20.6,1014.8,20.4z"/>
		<path d="M1019.9,26.3l2.2-6h1.3l-2.8,7.1h-1.4l-2.8-7.1h1.3L1019.9,26.3z"/>
		<path d="M1024.2,18.8c-0.2-0.1-0.2-0.4-0.2-0.6c0-0.2,0.1-0.4,0.2-0.6c0.1-0.2,0.4-0.2,0.6-0.2c0.2,0,0.4,0.1,0.6,0.2
			c0.1,0.2,0.2,0.4,0.2,0.6c0,0.2-0.1,0.4-0.2,0.6c-0.1,0.2-0.3,0.2-0.6,0.2C1024.5,19.1,1024.3,19,1024.2,18.8z M1025.3,20.2v7.1
			h-1.2v-7.1H1025.3z"/>
		<path d="M1033.4,24.2h-5.7c0,1.2,1,2.2,2.3,2.2c0,0,0,0,0.1,0c0.5,0,0.9-0.1,1.3-0.4c0.3-0.2,0.6-0.6,0.7-1h1.3
			c-0.2,0.7-0.6,1.3-1.2,1.7c-0.6,0.4-1.4,0.7-2.1,0.6c-0.6,0-1.3-0.2-1.8-0.5c-0.5-0.3-1-0.7-1.3-1.3c-0.6-1.2-0.6-2.7,0-3.9
			c0.3-0.5,0.7-1,1.2-1.3c1.1-0.6,2.5-0.6,3.6,0c0.5,0.3,0.9,0.7,1.2,1.2c0.3,0.5,0.4,1.1,0.4,1.7
			C1033.5,23.7,1033.5,24,1033.4,24.2z M1032,22.1c-0.2-0.3-0.5-0.6-0.8-0.7c-0.4-0.2-0.7-0.3-1.1-0.2c-0.6,0-1.1,0.2-1.5,0.6
			c-0.4,0.4-0.7,1-0.7,1.6h4.5C1032.3,22.9,1032.2,22.5,1032,22.1z"/>
		<path d="M1044.2,20.2l-2.2,7.1h-1.2l-1.7-5.7l-1.7,5.7h-1.2l-2.2-7.1h1.2l1.6,6l1.8-6h1.2l1.7,6l1.6-6H1044.2z"/>
		<path d="M1051.4,24.2h-5.7c0,1.2,1,2.2,2.3,2.2c0,0,0,0,0.1,0c0.5,0,0.9-0.1,1.3-0.4c0.3-0.2,0.6-0.6,0.7-1h1.3
			c-0.2,0.7-0.6,1.3-1.1,1.7c-0.6,0.4-1.4,0.7-2.1,0.6c-0.6,0-1.3-0.2-1.8-0.5c-0.5-0.3-1-0.7-1.2-1.3c-0.3-0.6-0.5-1.3-0.5-2
			c0-0.7,0.1-1.3,0.4-1.9c0.3-0.5,0.7-1,1.2-1.3c0.6-0.3,1.2-0.5,1.8-0.5c0.6,0,1.2,0.1,1.8,0.4c0.5,0.3,0.9,0.7,1.2,1.2
			c0.3,0.5,0.4,1.1,0.4,1.7C1051.5,23.7,1051.5,24,1051.4,24.2z M1050,22.1c-0.2-0.3-0.5-0.6-0.8-0.7c-0.4-0.2-0.7-0.3-1.1-0.2
			c-0.6,0-1.1,0.2-1.5,0.6c-0.4,0.4-0.7,1-0.7,1.6h4.5C1050.3,22.9,1050.2,22.5,1050,22.1z"/>
		<path d="M1052.7,21.8c0.3-0.5,0.7-1,1.2-1.3c0.5-0.3,1.1-0.5,1.7-0.5c0.5,0,1.1,0.1,1.6,0.4c0.4,0.2,0.8,0.6,1.1,1v-3.8h1.2v9.6
			h-1.2V26c-0.2,0.4-0.6,0.8-1,1c-0.5,0.3-1,0.4-1.6,0.4c-0.6,0-1.2-0.2-1.7-0.5c-0.5-0.3-0.9-0.8-1.2-1.3c-0.3-0.6-0.5-1.3-0.4-1.9
			C1052.2,23.1,1052.4,22.4,1052.7,21.8z M1057.9,22.4c-0.2-0.4-0.5-0.7-0.9-0.9c-0.4-0.2-0.8-0.3-1.2-0.3c-0.4,0-0.8,0.1-1.2,0.3
			c-0.4,0.2-0.7,0.5-0.9,0.9c-0.2,0.4-0.3,0.9-0.3,1.4c0,0.5,0.1,1,0.3,1.4c0.2,0.4,0.5,0.7,0.9,0.9c0.4,0.2,0.8,0.3,1.2,0.3
			c0.4,0,0.8-0.1,1.2-0.3c0.4-0.2,0.7-0.5,0.9-0.9C1058.4,24.3,1058.4,23.3,1057.9,22.4z"/>
		<path d="M1065.6,21.2v4.2c0,0.3,0.1,0.5,0.2,0.7c0.2,0.2,0.5,0.2,0.8,0.2h0.9v1h-1.1c-0.5,0-1.1-0.1-1.5-0.5
			c-0.4-0.4-0.5-0.9-0.5-1.5v-4.2h-0.9v-1h0.9v-1.8h1.2v1.8h1.9v1H1065.6z"/>
		<path d="M1073.6,20.4c0.4,0.2,0.8,0.6,1,1c0.3,0.5,0.4,1.1,0.4,1.7v4.2h-1.2v-4c0-0.6-0.1-1.2-0.5-1.6c-0.4-0.4-0.9-0.6-1.5-0.6
			c-0.6,0-1.1,0.2-1.5,0.6c-0.4,0.5-0.6,1.1-0.6,1.7v3.9h-1.2v-9.6h1.2v3.5c0.2-0.4,0.6-0.7,1-0.9c0.4-0.2,0.9-0.3,1.4-0.3
			C1072.6,20.1,1073.1,20.2,1073.6,20.4z"/>
		<path d="M1083,24.2h-5.7c0,1.2,1,2.2,2.3,2.2c0,0,0,0,0.1,0c0.5,0,0.9-0.1,1.3-0.4c0.3-0.2,0.6-0.6,0.7-1h1.3
			c-0.2,0.7-0.6,1.3-1.1,1.7c-0.6,0.4-1.4,0.7-2.1,0.6c-0.6,0-1.3-0.2-1.8-0.5c-0.5-0.3-1-0.7-1.2-1.3c-0.3-0.6-0.5-1.3-0.5-2
			c0-0.7,0.1-1.3,0.4-1.9c0.3-0.5,0.7-1,1.2-1.3c0.6-0.3,1.2-0.5,1.8-0.5c0.6,0,1.2,0.1,1.8,0.4c0.5,0.3,0.9,0.7,1.2,1.2
			c0.3,0.5,0.4,1.1,0.4,1.7C1083,23.7,1083,24,1083,24.2z M1081.5,22.1c-0.2-0.3-0.5-0.6-0.8-0.7c-0.4-0.2-0.7-0.3-1.1-0.2
			c-0.6,0-1.1,0.2-1.5,0.6c-0.4,0.4-0.7,1-0.7,1.6h4.5C1081.8,22.9,1081.7,22.5,1081.5,22.1L1081.5,22.1z"/>
		<path d="M1088.8,21.2v4.2c0,0.3,0.1,0.5,0.2,0.7c0.2,0.2,0.5,0.3,0.8,0.2h0.9v1h-1.1c-0.5,0-1.1-0.1-1.5-0.5
			c-0.4-0.4-0.5-0.9-0.5-1.5v-4.2h-0.9v-1h0.9v-1.8h1.2v1.8h1.9v1H1088.8z"/>
		<path d="M1096.7,20.4c0.4,0.2,0.8,0.6,1,1c0.3,0.5,0.4,1.1,0.4,1.7v4.2h-1.2v-4c0-0.6-0.2-1.2-0.5-1.6c-0.4-0.4-0.9-0.6-1.4-0.6
			c-0.6,0-1.1,0.2-1.5,0.6c-0.4,0.5-0.6,1.1-0.6,1.7v3.9h-1.2v-9.6h1.2v3.5c0.2-0.4,0.6-0.7,1-0.9c0.4-0.2,0.9-0.3,1.4-0.3
			C1095.7,20.1,1096.2,20.2,1096.7,20.4z"/>
		<path d="M1101.7,20.4c0.4-0.2,0.9-0.3,1.4-0.3v1.2h-0.3c-1.3,0-2,0.7-2,2.2v3.9h-1.2v-7.1h1.2v1.1
			C1101,21,1101.3,20.7,1101.7,20.4z"/>
		<path d="M1110.6,24.2h-5.7c0,0.6,0.3,1.2,0.7,1.6c0.4,0.4,1,0.6,1.6,0.6c0.5,0,0.9-0.1,1.3-0.4c0.3-0.2,0.6-0.6,0.7-1h1.3
			c-0.2,0.7-0.6,1.3-1.1,1.7c-0.6,0.4-1.4,0.7-2.1,0.6c-0.6,0-1.3-0.2-1.8-0.5c-0.5-0.3-1-0.7-1.2-1.3c-0.3-0.6-0.5-1.3-0.5-2
			c0-0.7,0.1-1.3,0.4-1.9c0.3-0.5,0.7-1,1.2-1.3c1.1-0.6,2.5-0.6,3.6,0c0.5,0.3,0.9,0.7,1.2,1.2c0.3,0.5,0.4,1.1,0.4,1.7
			C1110.6,23.7,1110.6,24,1110.6,24.2z M1109.1,22.1c-0.2-0.3-0.5-0.6-0.8-0.7c-0.4-0.2-0.7-0.3-1.1-0.2c-0.6,0-1.1,0.2-1.5,0.6
			c-0.4,0.4-0.7,1-0.7,1.6h4.5C1109.4,22.9,1109.3,22.5,1109.1,22.1z"/>
		<path d="M1118.3,24.2h-5.7c0,1.2,1,2.2,2.3,2.2c0,0,0,0,0.1,0c0.5,0,0.9-0.1,1.3-0.4c0.3-0.2,0.6-0.6,0.7-1h1.3
			c-0.2,0.7-0.6,1.3-1.2,1.7c-0.6,0.4-1.4,0.7-2.1,0.6c-0.6,0-1.3-0.2-1.8-0.5c-0.5-0.3-1-0.7-1.3-1.3c-0.6-1.2-0.6-2.7,0-3.9
			c0.3-0.5,0.7-1,1.2-1.3c0.6-0.3,1.2-0.5,1.8-0.5c0.6,0,1.2,0.1,1.8,0.4c0.5,0.3,0.9,0.7,1.2,1.2c0.3,0.5,0.4,1.1,0.4,1.7
			C1118.3,23.7,1118.3,24,1118.3,24.2z M1116.8,22.1c-0.2-0.3-0.5-0.6-0.8-0.7c-0.4-0.2-0.7-0.3-1.1-0.2c-0.6,0-1.1,0.2-1.5,0.6
			c-0.4,0.4-0.7,1-0.7,1.6h4.5C1117.1,22.9,1117,22.5,1116.8,22.1z"/>
		<path d="M1127.2,20.5c0.4,0.2,0.8,0.6,1,1v-1.3h1.2v7.3c0,0.6-0.1,1.2-0.4,1.7c-0.3,0.5-0.7,0.9-1.2,1.2c-0.6,0.3-1.2,0.4-1.8,0.4
			c-0.8,0-1.6-0.2-2.3-0.7c-0.6-0.4-1-1.1-1.1-1.8h1.2c0.1,0.4,0.4,0.8,0.8,1c0.4,0.3,1,0.4,1.5,0.4c0.6,0,1.2-0.2,1.6-0.6
			c0.4-0.5,0.6-1.1,0.6-1.7V26c-0.2,0.4-0.6,0.8-1,1c-0.5,0.3-1,0.4-1.6,0.4c-1.2,0-2.4-0.7-2.9-1.8c-0.3-0.6-0.4-1.3-0.4-1.9
			c0-0.7,0.1-1.3,0.4-1.9c0.3-0.5,0.7-1,1.2-1.3c0.5-0.3,1.1-0.5,1.7-0.5C1126.1,20.1,1126.7,20.2,1127.2,20.5z M1127.9,22.4
			c-0.2-0.4-0.5-0.7-0.9-0.9c-0.4-0.2-0.8-0.3-1.2-0.3c-0.4,0-0.8,0.1-1.2,0.3c-0.4,0.2-0.7,0.5-0.9,0.9c-0.2,0.4-0.3,0.9-0.3,1.4
			c0,0.5,0.1,1,0.3,1.4c0.2,0.4,0.5,0.7,0.9,0.9c0.4,0.2,0.8,0.3,1.2,0.3c0.4,0,0.8-0.1,1.2-0.3c0.4-0.2,0.7-0.5,0.9-0.9
			C1128.3,24.3,1128.3,23.3,1127.9,22.4z"/>
		<path d="M1133.1,20.4c0.4-0.2,0.9-0.3,1.4-0.3v1.2h-0.3c-1.3,0-2,0.7-2,2.2v3.9h-1.2v-7.1h1.2v1.1
			C1132.4,21,1132.7,20.7,1133.1,20.4z"/>
		<path d="M1136.8,27c-0.5-0.3-1-0.7-1.3-1.3c-0.6-1.2-0.6-2.7,0-3.9c0.3-0.5,0.8-1,1.3-1.3c1.1-0.6,2.5-0.6,3.7,0
			c0.5,0.3,1,0.7,1.3,1.3c0.3,0.6,0.5,1.3,0.5,1.9c0,0.7-0.2,1.4-0.5,2c-0.3,0.5-0.8,1-1.3,1.3c-0.6,0.3-1.2,0.5-1.8,0.5
			C1138,27.5,1137.4,27.3,1136.8,27z M1139.8,26.1c0.4-0.2,0.7-0.5,0.9-0.9c0.5-0.9,0.5-2,0-2.9c-0.2-0.4-0.5-0.7-0.9-0.9
			c-0.7-0.4-1.6-0.4-2.4,0c-0.4,0.2-0.7,0.5-0.9,0.9c-0.4,0.9-0.4,2,0,2.9c0.2,0.4,0.5,0.7,0.8,0.9c0.4,0.2,0.8,0.3,1.2,0.3
			C1139.1,26.4,1139.5,26.3,1139.8,26.1L1139.8,26.1z"/>
		<path d="M1149.8,20.2v7.1h-1.2v-1c-0.2,0.4-0.6,0.7-0.9,0.9c-0.4,0.2-0.9,0.3-1.3,0.3c-0.5,0-1-0.1-1.5-0.3c-0.4-0.2-0.8-0.6-1-1
			c-0.3-0.5-0.4-1.1-0.4-1.7v-4.2h1.2v4c0,0.6,0.2,1.2,0.5,1.6c0.4,0.4,0.9,0.6,1.4,0.6c0.6,0,1.1-0.2,1.5-0.6
			c0.4-0.5,0.6-1.1,0.5-1.7v-3.9H1149.8z"/>
		<path d="M1153.7,20.5c0.5-0.3,1.1-0.4,1.6-0.4c0.6,0,1.2,0.1,1.7,0.5c0.5,0.3,0.9,0.7,1.2,1.3c0.3,0.6,0.5,1.3,0.4,1.9
			c0,0.7-0.1,1.3-0.4,1.9c-0.3,0.5-0.7,1-1.2,1.3c-0.5,0.3-1.1,0.5-1.7,0.5c-0.6,0-1.1-0.1-1.6-0.4c-0.4-0.2-0.8-0.6-1.1-1v4.7h-1.2
			V20.2h1.2v1.3C1152.9,21.1,1153.2,20.8,1153.7,20.5z M1157.2,22.4c-0.2-0.4-0.5-0.7-0.9-0.9c-0.8-0.4-1.7-0.4-2.4,0
			c-0.4,0.2-0.7,0.5-0.9,0.9c-0.4,0.9-0.4,1.9,0,2.8c0.2,0.4,0.5,0.7,0.9,0.9c0.8,0.4,1.7,0.4,2.4,0c0.4-0.2,0.7-0.5,0.9-0.9
			c0.2-0.4,0.3-0.9,0.3-1.4C1157.5,23.3,1157.4,22.8,1157.2,22.4z"/>
		<path d="M1160.9,27.2c-0.4-0.2-0.7-0.4-1-0.8c-0.2-0.3-0.4-0.7-0.4-1.1h1.2c0,0.3,0.2,0.7,0.5,0.9c0.3,0.2,0.8,0.4,1.2,0.3
			c0.4,0,0.8-0.1,1.1-0.3c0.2-0.2,0.4-0.5,0.4-0.8c0-0.3-0.1-0.6-0.4-0.7c-0.4-0.2-0.8-0.3-1.3-0.5c-0.4-0.1-0.9-0.3-1.3-0.4
			c-0.3-0.1-0.6-0.4-0.9-0.6c-0.5-0.6-0.5-1.5,0-2.1c0.2-0.3,0.6-0.6,0.9-0.7c0.4-0.2,0.9-0.3,1.4-0.3c0.7,0,1.4,0.2,1.9,0.6
			c0.5,0.4,0.8,1,0.8,1.6h-1.2c0-0.3-0.2-0.7-0.4-0.9c-0.3-0.2-0.7-0.4-1.1-0.3c-0.4,0-0.7,0.1-1,0.3c-0.2,0.2-0.4,0.4-0.4,0.7
			c0,0.2,0.1,0.4,0.2,0.6c0.2,0.2,0.4,0.3,0.6,0.4c0.2,0.1,0.6,0.2,1,0.3c0.4,0.1,0.8,0.2,1.2,0.4c0.3,0.1,0.6,0.3,0.8,0.6
			c0.2,0.3,0.4,0.7,0.4,1c0,0.4-0.1,0.7-0.3,1.1c-0.2,0.3-0.5,0.6-0.9,0.7c-0.4,0.2-0.9,0.3-1.4,0.3
			C1162,27.5,1161.4,27.4,1160.9,27.2z"/>
		<path d="M1169.4,18.8c-0.2-0.1-0.2-0.4-0.2-0.6c0-0.2,0.1-0.4,0.2-0.6c0.1-0.2,0.4-0.2,0.6-0.2c0.2,0,0.4,0.1,0.6,0.2
			c0.1,0.2,0.2,0.4,0.2,0.6c0,0.2-0.1,0.4-0.2,0.6c-0.1,0.2-0.3,0.2-0.6,0.2C1169.8,19.1,1169.6,19,1169.4,18.8z M1170.6,20.2v7.1
			h-1.2v-7.1H1170.6z"/>
		<path d="M1177.8,20.9c0.6,0.6,0.9,1.4,0.8,2.3v4.2h-1.2v-4c0-0.6-0.1-1.2-0.5-1.6c-0.4-0.4-0.9-0.6-1.5-0.6
			c-0.6,0-1.1,0.2-1.5,0.6c-0.4,0.5-0.6,1.1-0.6,1.7v3.9h-1.2v-7.2h1.2v1c0.3-0.4,0.6-0.7,1-0.9c0.4-0.2,0.9-0.3,1.3-0.3
			C1176.5,20.1,1177.3,20.4,1177.8,20.9z"/>
		<path d="M1182.8,26.3l2.2-6h1.3l-2.8,7.1h-1.4l-2.8-7.1h1.3L1182.8,26.3z"/>
		<path d="M1188.4,27c-0.5-0.3-1-0.7-1.3-1.3c-0.3-0.6-0.5-1.3-0.5-2c0-0.7,0.2-1.3,0.5-1.9c0.3-0.5,0.7-1,1.3-1.3
			c1.2-0.6,2.5-0.6,3.7,0c0.5,0.3,1,0.7,1.3,1.3c0.3,0.6,0.5,1.3,0.5,1.9c0,0.7-0.2,1.4-0.5,2c-0.3,0.5-0.8,1-1.3,1.3
			c-0.6,0.3-1.2,0.5-1.8,0.5C1189.6,27.5,1189,27.3,1188.4,27z M1191.4,26.1c0.4-0.2,0.7-0.5,0.9-0.9c0.2-0.4,0.4-1,0.3-1.5
			c0-0.5-0.1-1-0.3-1.5c-0.2-0.4-0.5-0.7-0.9-0.9c-0.4-0.2-0.8-0.3-1.2-0.3c-0.4,0-0.8,0.1-1.2,0.3c-0.4,0.2-0.7,0.5-0.9,0.9
			c-0.2,0.4-0.3,0.9-0.3,1.5c0,0.5,0.1,1,0.3,1.5c0.2,0.4,0.5,0.7,0.8,0.9c0.4,0.2,0.8,0.3,1.2,0.3
			C1190.6,26.4,1191.1,26.3,1191.4,26.1L1191.4,26.1z"/>
		<path d="M1196.3,17.7v9.6h-1.2v-9.6H1196.3z"/>
		<path d="M1200.6,26.3l2.2-6h1.2l-2.8,7.1h-1.4l-2.8-7.1h1.3L1200.6,26.3z"/>
		<path d="M1211.3,24.2h-5.7c0,0.6,0.3,1.2,0.7,1.6c0.4,0.4,1,0.6,1.6,0.6c0.5,0,0.9-0.1,1.3-0.4c0.3-0.2,0.6-0.6,0.7-1h1.3
			c-0.2,0.7-0.6,1.3-1.1,1.7c-0.6,0.4-1.4,0.7-2.1,0.6c-0.6,0-1.3-0.2-1.8-0.5c-0.5-0.3-1-0.7-1.2-1.3c-0.3-0.6-0.5-1.3-0.5-2
			c0-0.7,0.1-1.3,0.4-1.9c0.3-0.5,0.7-1,1.2-1.3c0.6-0.3,1.2-0.5,1.8-0.5c0.6,0,1.2,0.1,1.8,0.4c0.5,0.3,0.9,0.7,1.2,1.2
			c0.3,0.5,0.4,1.1,0.4,1.7C1211.3,23.7,1211.3,24,1211.3,24.2z M1209.8,22.1c-0.2-0.3-0.5-0.6-0.8-0.7c-0.4-0.2-0.7-0.3-1.1-0.2
			c-0.6,0-1.1,0.2-1.5,0.6c-0.4,0.4-0.7,1-0.7,1.6h4.5C1210.1,22.9,1210,22.5,1209.8,22.1L1209.8,22.1z"/>
		<path d="M1212.5,21.8c0.3-0.5,0.7-1,1.2-1.3c0.5-0.3,1.1-0.5,1.7-0.5c0.5,0,1.1,0.1,1.6,0.4c0.4,0.2,0.8,0.6,1.1,1v-3.8h1.2v9.6
			h-1.2V26c-0.2,0.4-0.6,0.8-1,1c-0.5,0.3-1,0.4-1.6,0.4c-1.2,0-2.4-0.7-2.9-1.8c-0.3-0.6-0.4-1.3-0.4-1.9
			C1212.1,23.1,1212.3,22.4,1212.5,21.8z M1217.8,22.4c-0.2-0.4-0.5-0.7-0.9-0.9c-0.4-0.2-0.8-0.3-1.2-0.3c-0.4,0-0.8,0.1-1.2,0.3
			c-0.4,0.2-0.7,0.5-0.9,0.9c-0.2,0.4-0.3,0.9-0.3,1.4c0,0.5,0.1,1,0.3,1.4c0.2,0.4,0.5,0.7,0.9,0.9c0.4,0.2,0.8,0.3,1.2,0.3
			c0.4,0,0.8-0.1,1.2-0.3c0.4-0.2,0.7-0.5,0.9-0.9C1218.2,24.3,1218.2,23.3,1217.8,22.4z"/>
		<path d="M655.7,45.3c-0.7,0.5-1.5,0.8-2.4,0.8h-1.8v3.8h-1.2v-9.1h2.9c0.8-0.1,1.7,0.2,2.3,0.7c0.5,0.5,0.8,1.2,0.8,1.9
			C656.5,44.1,656.2,44.8,655.7,45.3z M654.8,44.7c0.3-0.3,0.5-0.8,0.5-1.2c0-1.1-0.6-1.7-1.9-1.7h-1.8v3.3h1.8
			C653.9,45.1,654.4,45,654.8,44.7z"/>
		<path d="M657.6,44.3c0.3-0.5,0.7-1,1.2-1.3c0.5-0.3,1.1-0.5,1.7-0.5c0.6,0,1.1,0.1,1.6,0.4c0.4,0.2,0.8,0.6,1,1v-1.3h1.2v7.1h-1.2
			v-1.3c-0.2,0.4-0.6,0.8-1,1c-0.5,0.3-1.1,0.4-1.6,0.4c-0.6,0-1.2-0.2-1.7-0.5c-0.5-0.3-0.9-0.8-1.2-1.3c-0.3-0.6-0.4-1.3-0.4-1.9
			C657.1,45.6,657.3,44.9,657.6,44.3z M662.8,44.9c-0.2-0.4-0.5-0.7-0.8-0.9c-0.4-0.2-0.8-0.3-1.2-0.3c-0.4,0-0.8,0.1-1.2,0.3
			c-0.4,0.2-0.7,0.5-0.9,0.9c-0.2,0.4-0.3,0.9-0.3,1.4c0,0.5,0.1,1,0.3,1.4c0.2,0.4,0.5,0.7,0.9,0.9c0.4,0.2,0.8,0.3,1.2,0.3
			c0.4,0,0.8-0.1,1.2-0.3c0.4-0.2,0.7-0.5,0.9-0.9C663.3,46.8,663.3,45.8,662.8,44.9L662.8,44.9z"/>
		<path d="M667,49.7c-0.4-0.2-0.7-0.4-1-0.8c-0.2-0.3-0.4-0.7-0.4-1.2h1.2c0,0.3,0.2,0.7,0.5,0.9c0.3,0.2,0.8,0.4,1.2,0.3
			c0.4,0,0.8-0.1,1.1-0.3c0.2-0.2,0.4-0.5,0.4-0.8c0-0.3-0.1-0.6-0.4-0.7c-0.4-0.2-0.8-0.3-1.3-0.5c-0.4-0.1-0.9-0.3-1.3-0.4
			c-0.3-0.1-0.6-0.4-0.9-0.6c-0.5-0.6-0.5-1.5,0-2.1c0.2-0.3,0.6-0.6,0.9-0.7c0.4-0.2,0.9-0.3,1.4-0.3c0.7,0,1.4,0.2,1.9,0.6
			c0.5,0.4,0.8,1,0.8,1.6h-1.2c0-0.3-0.2-0.7-0.5-0.9c-0.3-0.2-0.7-0.4-1.1-0.3c-0.4,0-0.7,0.1-1,0.3c-0.2,0.2-0.4,0.4-0.4,0.7
			c0,0.2,0.1,0.4,0.2,0.6c0.2,0.2,0.4,0.3,0.6,0.4c0.2,0.1,0.5,0.2,1,0.3c0.4,0.1,0.8,0.2,1.2,0.4c0.3,0.1,0.6,0.3,0.8,0.6
			c0.2,0.3,0.4,0.6,0.4,1c0,0.4-0.1,0.7-0.3,1.1c-0.2,0.3-0.6,0.6-0.9,0.7c-0.4,0.2-0.9,0.3-1.4,0.3C668,50,667.5,49.9,667,49.7z"/>
		<path d="M673.5,49.7c-0.4-0.2-0.7-0.4-1-0.8c-0.3-0.3-0.4-0.7-0.4-1.2h1.2c0,0.3,0.2,0.7,0.5,0.9c0.3,0.2,0.8,0.4,1.2,0.3
			c0.4,0,0.8-0.1,1.1-0.3c0.2-0.2,0.4-0.5,0.4-0.8c0-0.3-0.2-0.6-0.4-0.7c-0.4-0.2-0.8-0.3-1.3-0.5c-0.4-0.1-0.9-0.3-1.3-0.4
			c-0.3-0.1-0.6-0.4-0.9-0.6c-0.5-0.6-0.5-1.5,0-2.1c0.2-0.3,0.6-0.6,0.9-0.7c0.4-0.2,0.9-0.3,1.4-0.3c0.7,0,1.4,0.2,1.9,0.6
			c0.5,0.4,0.8,1,0.8,1.6h-1.2c0-0.3-0.2-0.7-0.5-0.9c-0.3-0.2-0.7-0.4-1.1-0.3c-0.4,0-0.7,0.1-1,0.3c-0.2,0.2-0.4,0.4-0.4,0.7
			c0,0.2,0.1,0.4,0.2,0.6c0.2,0.2,0.4,0.3,0.6,0.4c0.2,0.1,0.5,0.2,1,0.3c0.4,0.1,0.8,0.2,1.2,0.4c0.3,0.1,0.6,0.3,0.8,0.6
			c0.2,0.3,0.4,0.6,0.4,1c0,0.4-0.1,0.7-0.3,1.1c-0.2,0.3-0.6,0.6-0.9,0.7c-0.4,0.2-0.9,0.3-1.4,0.3C674.5,50,674,49.9,673.5,49.7z"
			/>
		<path d="M685.3,46.7h-5.7c0,1.2,1,2.3,2.2,2.3c0,0,0.1,0,0.1,0c0.5,0,0.9-0.1,1.3-0.4c0.3-0.2,0.6-0.6,0.7-1h1.3
			c-0.2,0.7-0.6,1.3-1.2,1.7c-0.6,0.4-1.4,0.7-2.1,0.7c-0.6,0-1.3-0.2-1.8-0.5c-0.5-0.3-1-0.8-1.3-1.3c-0.6-1.2-0.6-2.7,0-3.9
			c0.3-0.5,0.7-1,1.2-1.3c0.6-0.3,1.2-0.5,1.8-0.5c0.6,0,1.2,0.1,1.8,0.4c0.5,0.3,0.9,0.7,1.2,1.2c0.3,0.5,0.4,1.1,0.4,1.7
			C685.3,46.2,685.3,46.5,685.3,46.7z M683.8,44.6c-0.2-0.3-0.5-0.6-0.8-0.7c-0.4-0.2-0.7-0.3-1.1-0.2c-0.6,0-1.1,0.2-1.5,0.6
			c-0.4,0.4-0.7,1-0.7,1.6h4.5C684.1,45.4,684,45,683.8,44.6z"/>
		<path d="M692.1,43.4c0.6,0.6,0.9,1.4,0.8,2.3v4.2h-1.2v-4c0-0.6-0.1-1.2-0.5-1.6c-0.4-0.4-0.9-0.6-1.5-0.6c-0.6,0-1.1,0.2-1.5,0.6
			c-0.4,0.5-0.6,1.1-0.5,1.7v3.9h-1.2v-7.2h1.2v1c0.2-0.4,0.6-0.7,1-0.8c0.4-0.2,0.8-0.3,1.3-0.3C690.8,42.6,691.5,42.8,692.1,43.4z
			"/>
		<path d="M699,43c0.4,0.2,0.8,0.6,1,1v-1.3h1.2V50c0,0.6-0.1,1.2-0.4,1.7c-0.3,0.5-0.7,0.9-1.2,1.2c-0.6,0.3-1.2,0.4-1.8,0.4
			c-0.8,0-1.6-0.2-2.3-0.7c-0.6-0.4-1-1.1-1.1-1.8h1.2c0.1,0.4,0.4,0.8,0.8,1c0.4,0.3,1,0.4,1.5,0.4c0.6,0,1.2-0.2,1.6-0.6
			c0.4-0.5,0.6-1.1,0.6-1.7v-1.5c-0.2,0.4-0.6,0.8-1,1c-0.5,0.3-1,0.4-1.6,0.4c-1.2,0-2.4-0.7-2.9-1.8c-0.3-0.6-0.4-1.3-0.4-1.9
			c0-0.7,0.1-1.3,0.4-1.9c0.3-0.5,0.7-1,1.2-1.3c0.5-0.3,1.1-0.5,1.7-0.5C698,42.5,698.5,42.7,699,43z M699.7,44.9
			c-0.2-0.4-0.5-0.7-0.9-0.9c-0.4-0.2-0.8-0.3-1.2-0.3c-0.4,0-0.8,0.1-1.2,0.3c-0.4,0.2-0.7,0.5-0.9,0.9c-0.2,0.4-0.3,0.9-0.3,1.4
			c0,0.5,0.1,1,0.3,1.4c0.2,0.4,0.5,0.7,0.9,0.9c0.4,0.2,0.8,0.3,1.2,0.3c0.4,0,0.8-0.1,1.2-0.3c0.4-0.2,0.7-0.5,0.9-0.9
			C700.1,46.8,700.1,45.7,699.7,44.9z"/>
		<path d="M709.4,46.7h-5.7c0,0.6,0.3,1.2,0.7,1.6c0.4,0.4,1,0.6,1.6,0.6c0.5,0,0.9-0.1,1.3-0.4c0.3-0.2,0.6-0.6,0.7-1h1.3
			c-0.2,0.7-0.6,1.3-1.1,1.7c-0.6,0.5-1.4,0.7-2.1,0.7c-0.6,0-1.3-0.2-1.8-0.5c-0.5-0.3-1-0.7-1.2-1.3c-0.3-0.6-0.5-1.3-0.5-2
			c0-0.7,0.1-1.3,0.5-1.9c0.3-0.5,0.7-1,1.2-1.3c0.6-0.3,1.2-0.5,1.8-0.5c0.6,0,1.2,0.1,1.8,0.4c0.5,0.3,0.9,0.7,1.2,1.2
			c0.3,0.5,0.4,1.1,0.4,1.7C709.4,46.2,709.4,46.5,709.4,46.7z M707.9,44.6c-0.2-0.3-0.5-0.6-0.8-0.7c-0.4-0.2-0.7-0.3-1.1-0.2
			c-0.6,0-1.1,0.2-1.5,0.6c-0.4,0.4-0.7,1-0.7,1.6h4.5C708.2,45.4,708.1,45,707.9,44.6z"/>
		<path d="M712.7,42.9c0.4-0.2,0.9-0.3,1.4-0.3v1.2h-0.3c-1.3,0-2,0.7-2,2.2v3.9h-1.2v-7.1h1.2v1.2C712,43.5,712.3,43.2,712.7,42.9z
			"/>
		<path d="M716.1,49.7c-0.4-0.2-0.7-0.4-1-0.8c-0.2-0.3-0.4-0.7-0.4-1.2h1.2c0,0.3,0.2,0.7,0.5,0.9c0.3,0.2,0.8,0.4,1.2,0.3
			c0.4,0,0.8-0.1,1.1-0.3c0.2-0.2,0.4-0.5,0.4-0.8c0-0.3-0.1-0.6-0.4-0.7c-0.4-0.2-0.8-0.3-1.3-0.5c-0.4-0.1-0.9-0.3-1.3-0.4
			c-0.3-0.1-0.6-0.4-0.9-0.6c-0.5-0.6-0.5-1.5,0-2.1c0.2-0.3,0.6-0.6,0.9-0.7c0.4-0.2,0.9-0.3,1.4-0.3c0.7,0,1.4,0.2,1.9,0.6
			c0.5,0.4,0.8,1,0.8,1.6H719c0-0.3-0.2-0.7-0.5-0.9c-0.3-0.2-0.7-0.4-1.1-0.3c-0.4,0-0.7,0.1-1,0.3c-0.2,0.2-0.4,0.4-0.4,0.7
			c0,0.2,0.1,0.4,0.2,0.6c0.2,0.2,0.4,0.3,0.6,0.4c0.2,0.1,0.5,0.2,1,0.3c0.4,0.1,0.8,0.2,1.2,0.4c0.3,0.1,0.6,0.3,0.8,0.6
			c0.2,0.3,0.4,0.6,0.4,1c0,0.4-0.1,0.7-0.3,1.1c-0.2,0.3-0.5,0.6-0.9,0.7c-0.4,0.2-0.9,0.3-1.4,0.3C717.2,50,716.6,49.9,716.1,49.7
			z"/>
		<path d="M722.7,48.2l-1.5,3.5h-0.8l1-3.5H722.7z"/>
		<path d="M727,42.9c0.4-0.7,0.9-1.3,1.6-1.7c0.7-0.4,1.5-0.6,2.3-0.6c0.9,0,1.8,0.2,2.6,0.7c0.7,0.5,1.3,1.2,1.6,2h-1.4
			c-0.2-0.5-0.6-1-1.1-1.3c-0.5-0.3-1.1-0.5-1.7-0.4c-0.6,0-1.2,0.1-1.7,0.4c-0.5,0.3-1,0.7-1.2,1.3c-0.6,1.2-0.6,2.6,0,3.8
			c0.3,0.5,0.7,1,1.2,1.3c0.5,0.3,1.1,0.4,1.7,0.4c0.6,0,1.2-0.1,1.7-0.4c0.5-0.3,0.9-0.7,1.1-1.3h1.4c-0.3,0.8-0.9,1.5-1.6,2
			c-0.8,0.5-1.7,0.7-2.6,0.7c-0.8,0-1.6-0.2-2.3-0.6c-0.7-0.4-1.2-1-1.6-1.6C726.2,46.2,726.2,44.4,727,42.9z"/>
		<path d="M738.6,42.9c0.4-0.2,0.9-0.3,1.4-0.3v1.2h-0.3c-1.3,0-2,0.7-2,2.2v3.9h-1.2v-7.1h1.2v1.2
			C737.9,43.5,738.2,43.2,738.6,42.9z"/>
		<path d="M747.4,46.7h-5.7c0,1.2,1,2.3,2.2,2.3c0,0,0.1,0,0.1,0c0.5,0,0.9-0.1,1.3-0.4c0.3-0.2,0.6-0.6,0.7-1h1.3
			c-0.2,0.7-0.6,1.3-1.1,1.7c-0.6,0.4-1.4,0.7-2.1,0.7c-0.6,0-1.3-0.2-1.8-0.5c-0.5-0.3-1-0.7-1.2-1.3c-0.3-0.6-0.5-1.3-0.5-2
			c0-0.7,0.1-1.3,0.4-1.9c0.3-0.5,0.7-1,1.2-1.3c0.6-0.3,1.2-0.5,1.8-0.5c0.6,0,1.2,0.1,1.8,0.4c0.5,0.3,0.9,0.7,1.2,1.2
			c0.3,0.5,0.4,1.1,0.4,1.7C747.5,46.3,747.5,46.5,747.4,46.7z M746,44.6c-0.2-0.3-0.5-0.6-0.8-0.7c-0.4-0.2-0.7-0.3-1.1-0.2
			c-0.6,0-1.1,0.2-1.5,0.6c-0.4,0.4-0.7,1-0.7,1.6h4.5C746.3,45.4,746.2,45,746,44.6z"/>
		<path d="M758.2,42.7l-2.2,7.1h-1.2l-1.8-5.7l-1.7,5.7h-1.2l-2.2-7.1h1.2l1.6,6l1.8-6h1.2l1.7,6l1.6-6H758.2z"/>
		<path d="M760.2,48.2l-1.5,3.5H758l1-3.5H760.2z"/>
		<path d="M764.3,44.3c0.3-0.5,0.7-1,1.2-1.3c0.5-0.3,1.1-0.5,1.7-0.5c0.6,0,1.1,0.1,1.6,0.4c0.4,0.2,0.8,0.6,1,1v-1.3h1.2v7.1h-1.2
			v-1.3c-0.2,0.4-0.6,0.8-1,1c-0.5,0.3-1.1,0.4-1.6,0.4c-0.6,0-1.2-0.2-1.7-0.5c-0.5-0.3-0.9-0.8-1.2-1.3c-0.3-0.6-0.4-1.3-0.4-1.9
			C763.9,45.6,764,44.9,764.3,44.3z M769.6,44.9c-0.2-0.4-0.5-0.7-0.9-0.9c-0.4-0.2-0.8-0.3-1.2-0.3c-0.4,0-0.8,0.1-1.2,0.3
			c-0.4,0.2-0.7,0.5-0.9,0.9c-0.2,0.4-0.3,0.9-0.3,1.4c0,0.5,0.1,1,0.3,1.4c0.2,0.4,0.5,0.7,0.9,0.9c0.4,0.2,0.8,0.3,1.2,0.3
			c0.4,0,0.8-0.1,1.2-0.3c0.4-0.2,0.7-0.5,0.9-0.9C770,46.8,770,45.8,769.6,44.9z"/>
		<path d="M778.3,43.4c0.6,0.6,0.9,1.4,0.8,2.3v4.2h-1.2v-4c0-0.6-0.1-1.2-0.5-1.6c-0.4-0.4-0.9-0.6-1.5-0.6c-0.6,0-1.1,0.2-1.5,0.6
			c-0.4,0.5-0.6,1.1-0.5,1.7v3.9h-1.2v-7.2h1.2v1c0.2-0.4,0.6-0.7,1-0.8c0.4-0.2,0.9-0.3,1.3-0.3C777,42.6,777.7,42.9,778.3,43.4z"
			/>
		<path d="M780.7,44.3c0.3-0.5,0.7-1,1.2-1.3c0.5-0.3,1.1-0.5,1.7-0.5c0.5,0,1.1,0.1,1.5,0.4c0.4,0.2,0.8,0.6,1.1,1v-3.8h1.2v9.6
			h-1.2v-1.3c-0.2,0.4-0.6,0.8-1,1c-0.5,0.3-1,0.4-1.6,0.4c-1.2,0-2.4-0.7-2.9-1.8c-0.3-0.6-0.4-1.3-0.4-1.9
			C780.2,45.6,780.4,44.9,780.7,44.3z M785.9,44.9c-0.2-0.4-0.5-0.7-0.9-0.9c-0.8-0.4-1.7-0.4-2.4,0c-0.4,0.2-0.7,0.5-0.9,0.9
			c-0.2,0.4-0.3,0.9-0.3,1.4c0,0.5,0.1,1,0.3,1.4c0.2,0.4,0.5,0.7,0.9,0.9c0.8,0.4,1.7,0.4,2.4,0c0.4-0.2,0.7-0.5,0.9-0.9
			C786.4,46.8,786.4,45.8,785.9,44.9z"/>
		<path d="M793.7,43.7v4.2c0,0.3,0.1,0.5,0.2,0.7c0.2,0.2,0.5,0.3,0.8,0.2h0.9v1h-1.1c-0.5,0-1.1-0.1-1.5-0.5
			c-0.4-0.4-0.6-0.9-0.5-1.5v-4.2h-0.9v-1h0.9v-1.8h1.2v1.8h1.9v1H793.7z"/>
		<path d="M801.6,42.9c0.4,0.2,0.8,0.6,1,1c0.3,0.5,0.4,1.1,0.4,1.7v4.2h-1.2v-4c0-0.6-0.1-1.2-0.5-1.6c-0.4-0.4-0.9-0.6-1.5-0.6
			c-0.6,0-1.1,0.2-1.5,0.6c-0.4,0.5-0.6,1.1-0.6,1.7v3.9h-1.2v-9.6h1.2v3.5c0.2-0.4,0.6-0.7,1-0.8c0.4-0.2,0.9-0.3,1.4-0.3
			C800.6,42.6,801.1,42.7,801.6,42.9z"/>
		<path d="M811,46.7h-5.7c0,0.6,0.3,1.2,0.7,1.6c0.4,0.4,1,0.6,1.6,0.6c0.5,0,0.9-0.1,1.3-0.4c0.3-0.2,0.6-0.6,0.7-1h1.3
			c-0.2,0.7-0.6,1.3-1.1,1.7c-0.6,0.4-1.4,0.7-2.1,0.7c-0.6,0-1.3-0.2-1.8-0.5c-0.5-0.3-1-0.7-1.2-1.3c-0.3-0.6-0.5-1.3-0.5-2
			c0-0.7,0.1-1.3,0.5-1.9c0.3-0.5,0.7-1,1.2-1.3c0.6-0.3,1.2-0.5,1.8-0.5c0.6,0,1.2,0.1,1.8,0.4c0.5,0.3,0.9,0.7,1.2,1.2
			c0.3,0.5,0.4,1.2,0.4,1.8C811,46.2,811,46.5,811,46.7z M809.5,44.6c-0.2-0.3-0.5-0.6-0.8-0.7c-0.4-0.2-0.7-0.3-1.1-0.2
			c-0.6,0-1.1,0.2-1.5,0.6c-0.4,0.4-0.7,1-0.7,1.6h4.5C809.8,45.4,809.7,45,809.5,44.6L809.5,44.6z"/>
		<path d="M826.7,40.8l-2.6,9.1h-1.3l-2.1-7.3l-2.2,7.3h-1.3l-2.5-9.1h1.3l2,7.7l2.2-7.7h1.3l2.1,7.7l2-7.7L826.7,40.8z"/>
		<path d="M829,49.5c-0.5-0.3-1-0.7-1.3-1.3c-0.3-0.6-0.5-1.3-0.5-2c0-0.7,0.2-1.3,0.5-1.9c0.3-0.5,0.7-1,1.3-1.3
			c1.2-0.6,2.5-0.6,3.7,0c0.5,0.3,1,0.7,1.3,1.3c0.3,0.6,0.5,1.3,0.5,1.9c0,0.7-0.2,1.4-0.5,2c-0.3,0.5-0.8,1-1.3,1.3
			c-0.6,0.3-1.2,0.5-1.8,0.5C830.2,50,829.5,49.8,829,49.5z M832,48.6c0.4-0.2,0.7-0.5,0.9-0.9c0.2-0.4,0.4-1,0.3-1.5
			c0-0.5-0.1-1-0.3-1.5c-0.2-0.4-0.5-0.7-0.9-0.9c-0.7-0.4-1.6-0.4-2.4,0c-0.4,0.2-0.7,0.5-0.9,0.9c-0.2,0.4-0.3,0.9-0.3,1.5
			c0,0.5,0.1,1,0.3,1.5c0.2,0.4,0.5,0.7,0.8,0.9c0.4,0.2,0.8,0.3,1.2,0.3C831.2,48.9,831.6,48.8,832,48.6z"/>
		<path d="M837.7,42.9c0.4-0.2,0.9-0.3,1.4-0.3v1.2h-0.3c-1.3,0-2,0.7-2,2.2v3.9h-1.2v-7.1h1.2v1.2C837,43.5,837.3,43.2,837.7,42.9z
			"/>
		<path d="M844.1,49.8l-2.8-3.2v3.2h-1.2v-9.6h1.2v5.7l2.7-3.2h1.7l-3.3,3.5l3.4,3.6H844.1z"/>
		<path d="M852.9,46.7h-5.7c0,0.6,0.3,1.2,0.7,1.6c0.4,0.4,1,0.6,1.6,0.6c0.5,0,0.9-0.1,1.3-0.4c0.3-0.2,0.6-0.6,0.7-1h1.3
			c-0.2,0.7-0.6,1.3-1.1,1.7c-0.6,0.4-1.4,0.7-2.1,0.7c-0.6,0-1.3-0.2-1.8-0.5c-0.5-0.3-1-0.7-1.2-1.3c-0.6-1.2-0.6-2.7,0-3.9
			c0.3-0.5,0.7-1,1.2-1.3c0.6-0.3,1.2-0.5,1.8-0.5c0.6,0,1.2,0.1,1.8,0.4c0.5,0.3,0.9,0.7,1.2,1.2c0.3,0.5,0.4,1.1,0.4,1.7
			C852.9,46.2,852.9,46.5,852.9,46.7z M851.4,44.6c-0.2-0.3-0.5-0.6-0.8-0.7c-0.4-0.2-0.7-0.3-1.1-0.2c-0.6,0-1.1,0.2-1.5,0.6
			c-0.4,0.4-0.7,1-0.7,1.6h4.5C851.7,45.4,851.6,45,851.4,44.6z"/>
		<path d="M856.2,42.9c0.4-0.2,0.9-0.3,1.4-0.3v1.2h-0.3c-1.3,0-2,0.7-2,2.2v3.9h-1.2v-7.1h1.2v1.2
			C855.5,43.5,855.8,43.2,856.2,42.9z"/>
		<path d="M859.7,49.7c-0.4-0.2-0.7-0.4-1-0.8c-0.2-0.3-0.4-0.7-0.4-1.2h1.2c0,0.3,0.2,0.7,0.5,0.9c0.3,0.2,0.8,0.4,1.2,0.3
			c0.4,0,0.8-0.1,1.1-0.3c0.2-0.2,0.4-0.5,0.4-0.8c0-0.3-0.1-0.6-0.4-0.7c-0.4-0.2-0.8-0.3-1.3-0.5c-0.4-0.1-0.9-0.3-1.3-0.4
			c-0.3-0.1-0.6-0.4-0.9-0.6c-0.3-0.3-0.4-0.7-0.4-1.1c0-0.4,0.1-0.7,0.3-1c0.2-0.3,0.6-0.6,0.9-0.7c0.4-0.2,0.9-0.3,1.4-0.3
			c0.7,0,1.4,0.2,1.9,0.6c0.5,0.4,0.8,1,0.8,1.6h-1.2c0-0.3-0.2-0.6-0.5-0.8c-0.3-0.2-0.7-0.4-1.1-0.3c-0.4,0-0.7,0.1-1,0.3
			c-0.2,0.2-0.4,0.4-0.4,0.7c0,0.2,0.1,0.4,0.2,0.6c0.2,0.2,0.4,0.3,0.6,0.4c0.2,0.1,0.5,0.2,1,0.3c0.4,0.1,0.8,0.2,1.2,0.4
			c0.3,0.1,0.6,0.3,0.8,0.6c0.2,0.3,0.4,0.6,0.4,1c0,0.4-0.1,0.8-0.3,1.1c-0.2,0.3-0.5,0.6-0.9,0.7c-0.4,0.2-0.9,0.3-1.4,0.3
			C860.6,50,860.1,49.9,859.7,49.7z"/>
		<path d="M868.1,44.3c0.3-0.5,0.7-1,1.2-1.3c0.5-0.3,1.1-0.5,1.7-0.5c0.6,0,1.1,0.1,1.6,0.4c0.4,0.2,0.8,0.6,1,1v-1.3h1.2v7.1h-1.2
			v-1.3c-0.2,0.4-0.6,0.8-1,1c-0.5,0.3-1.1,0.4-1.6,0.4c-0.6,0-1.2-0.2-1.7-0.5c-0.5-0.3-0.9-0.8-1.2-1.3c-0.3-0.6-0.4-1.3-0.4-1.9
			C867.7,45.6,867.8,44.9,868.1,44.3z M873.4,44.9c-0.2-0.4-0.5-0.7-0.9-0.9c-0.4-0.2-0.8-0.3-1.2-0.3c-0.4,0-0.8,0.1-1.2,0.3
			c-0.4,0.2-0.7,0.5-0.9,0.9c-0.2,0.4-0.3,0.9-0.3,1.4c0,0.5,0.1,1,0.3,1.4c0.2,0.4,0.5,0.7,0.9,0.9c0.4,0.2,0.8,0.3,1.2,0.3
			c0.4,0,0.8-0.1,1.2-0.3c0.4-0.2,0.7-0.5,0.9-0.9C873.8,46.8,873.8,45.8,873.4,44.9z"/>
		<path d="M878,43.7v4.2c0,0.3,0.1,0.5,0.2,0.7c0.2,0.2,0.5,0.2,0.8,0.2h0.9v1h-1.1c-0.5,0-1.1-0.1-1.5-0.5
			c-0.4-0.4-0.5-0.9-0.5-1.5v-4.2h-0.9v-1h0.9v-1.8h1.2v1.8h1.9v1H878z"/>
		<path d="M884,44.3c0.3-0.5,0.7-1,1.2-1.3c0.5-0.3,1.1-0.5,1.7-0.5c0.6,0,1.1,0.1,1.6,0.4c0.4,0.2,0.8,0.6,1,1v-1.3h1.2v7.1h-1.2
			v-1.3c-0.2,0.4-0.6,0.8-1,1c-0.5,0.3-1,0.5-1.6,0.5c-0.6,0-1.2-0.2-1.7-0.5c-0.5-0.3-1-0.8-1.3-1.3c-0.3-0.6-0.4-1.3-0.4-1.9
			C883.5,45.6,883.7,44.9,884,44.3z M889.3,44.9c-0.2-0.4-0.5-0.7-0.9-0.9c-0.4-0.2-0.8-0.3-1.2-0.3c-0.4,0-0.8,0.1-1.2,0.4
			c-0.4,0.2-0.7,0.5-0.9,0.9c-0.2,0.4-0.3,0.9-0.3,1.4c0,0.5,0.1,1,0.3,1.4c0.2,0.4,0.5,0.7,0.9,0.9c0.4,0.2,0.8,0.3,1.2,0.3
			c0.4,0,0.8-0.1,1.2-0.3c0.4-0.2,0.7-0.5,0.9-0.9C889.7,46.8,889.7,45.8,889.3,44.9L889.3,44.9z"/>
		<path d="M892.5,41.3c-0.2-0.1-0.2-0.4-0.2-0.6c0-0.2,0.1-0.4,0.2-0.6c0.1-0.2,0.4-0.2,0.6-0.2c0.2,0,0.4,0.1,0.5,0.2
			c0.1,0.2,0.2,0.4,0.2,0.6c0,0.2-0.1,0.4-0.2,0.6c-0.1,0.2-0.3,0.2-0.5,0.2C892.9,41.6,892.6,41.5,892.5,41.3z M893.6,42.7v7.1
			h-1.2v-7.1L893.6,42.7z"/>
		<path d="M897.4,42.9c0.4-0.2,0.9-0.3,1.4-0.3v1.2h-0.3c-1.3,0-2,0.7-2,2.2v3.9h-1.2v-7.1h1.2v1.2C896.7,43.5,897,43.2,897.4,42.9z
			"/>
		<path d="M902,43c0.5-0.3,1.1-0.4,1.6-0.4c0.6,0,1.2,0.1,1.7,0.5c0.5,0.3,0.9,0.8,1.2,1.3c0.3,0.6,0.5,1.3,0.4,1.9
			c0,0.7-0.1,1.3-0.4,1.9c-0.5,1.1-1.7,1.8-2.9,1.8c-0.6,0-1.1-0.1-1.6-0.4c-0.4-0.2-0.8-0.6-1.1-1v4.7h-1.2V42.7h1.2V44
			C901.2,43.6,901.6,43.2,902,43z M905.5,44.8c-0.2-0.4-0.5-0.7-0.9-0.9c-0.4-0.2-0.8-0.3-1.2-0.3c-0.9,0-1.7,0.5-2.1,1.2
			c-0.4,0.9-0.4,1.9,0,2.8c0.2,0.4,0.5,0.7,0.9,0.9c0.4,0.2,0.8,0.3,1.2,0.3c0.4,0,0.8-0.1,1.2-0.3c0.4-0.2,0.7-0.5,0.9-0.9
			c0.2-0.4,0.3-0.9,0.3-1.4C905.8,45.8,905.7,45.3,905.5,44.8L905.5,44.8z"/>
		<path d="M909.5,49.5c-0.5-0.3-1-0.7-1.3-1.3c-0.6-1.2-0.6-2.7,0-3.9c0.3-0.5,0.8-1,1.3-1.3c1.1-0.6,2.5-0.6,3.7,0
			c0.5,0.3,1,0.7,1.3,1.3c0.3,0.6,0.5,1.3,0.5,1.9c0,0.7-0.2,1.4-0.5,2c-0.3,0.5-0.8,1-1.3,1.3c-0.6,0.3-1.2,0.5-1.8,0.5
			C910.7,50,910,49.8,909.5,49.5z M912.5,48.6c0.4-0.2,0.7-0.5,0.9-0.9c0.5-0.9,0.5-2,0-2.9c-0.2-0.4-0.5-0.7-0.9-0.9
			c-0.7-0.4-1.6-0.4-2.4,0c-0.4,0.2-0.7,0.5-0.9,0.9c-0.2,0.5-0.3,0.9-0.3,1.5c0,0.5,0.1,1,0.3,1.5c0.2,0.4,0.5,0.7,0.8,0.9
			c0.4,0.2,0.8,0.3,1.2,0.3C911.7,48.9,912.1,48.8,912.5,48.6L912.5,48.6z"/>
		<path d="M918.2,42.9c0.4-0.2,0.9-0.3,1.4-0.3v1.2h-0.3c-1.3,0-2,0.7-2,2.2v3.9h-1.2v-7.1h1.2v1.2
			C917.5,43.5,917.8,43.2,918.2,42.9z"/>
		<path d="M922.1,43.7v4.2c0,0.3,0.1,0.5,0.2,0.7c0.2,0.2,0.5,0.3,0.8,0.2h0.9v1h-1.1c-0.5,0-1.1-0.1-1.5-0.5
			c-0.4-0.4-0.6-0.9-0.5-1.5v-4.2H920v-1h0.9v-1.8h1.2v1.8h1.9v1H922.1z"/>
	</g>
</g>
</svg>
