<?xml version="1.0" encoding="utf-8"?>
<!-- Generator: Adobe Illustrator 24.1.0, SVG Export Plug-In . SVG Version: 6.00 Build 0)  -->
<svg version="1.1" id="图层_1" xmlns="http://www.w3.org/2000/svg" xmlns:xlink="http://www.w3.org/1999/xlink" x="0px" y="0px"
	 viewBox="0 0 1251.7 178.7" style="enable-background:new 0 0 1251.7 178.7;" xml:space="preserve">
<style type="text/css">
	.st0{fill:#FFFFFF;}
</style>
<rect y="2.5" class="st0" width="1251.7" height="176.2"/>
<path d="M650.9,62c-0.3-0.3-0.5-0.7-0.5-1.1c0-0.4,0.2-0.8,0.5-1.1c0.3-0.3,0.7-0.5,1.1-0.5c0.9,0,1.6,0.7,1.6,1.6c0,0,0,0,0,0
	c0,0.4-0.2,0.8-0.5,1.1c-0.3,0.3-0.7,0.5-1.1,0.5C651.6,62.5,651.2,62.3,650.9,62z"/>
<path d="M655.5,58.3c0.4-0.7,0.9-1.3,1.6-1.7c0.7-0.4,1.5-0.6,2.3-0.6c0.9,0,1.8,0.2,2.6,0.7c0.7,0.5,1.3,1.2,1.6,2h-1.4
	c-0.2-0.5-0.6-1-1.1-1.3c-0.5-0.3-1.1-0.5-1.7-0.4c-0.6,0-1.2,0.1-1.7,0.4c-0.5,0.3-0.9,0.7-1.2,1.2c-0.3,0.6-0.4,1.2-0.4,1.9
	c0,0.7,0.1,1.3,0.4,1.9c0.3,0.5,0.7,1,1.2,1.2c0.5,0.3,1.1,0.5,1.7,0.4c0.6,0,1.2-0.1,1.7-0.4c0.5-0.3,0.9-0.7,1.1-1.2h1.4
	c-0.3,0.8-0.9,1.5-1.6,2c-0.8,0.5-1.7,0.7-2.6,0.7c-0.8,0-1.6-0.2-2.3-0.6c-0.7-0.4-1.2-1-1.6-1.6c-0.4-0.7-0.6-1.5-0.6-2.4
	C654.9,59.8,655.1,59,655.5,58.3z"/>
<path d="M667.1,58.3c0.4-0.2,0.9-0.4,1.4-0.3v1.2h-0.3c-1.3,0-2,0.7-2,2.2v3.9H665v-7.1h1.2v1.2C666.4,58.8,666.7,58.5,667.1,58.3z"
	/>
<path d="M676,62.1h-5.7c0,0.6,0.3,1.2,0.7,1.6c0.4,0.4,1,0.6,1.6,0.6c0.5,0,0.9-0.1,1.3-0.4c0.3-0.2,0.6-0.6,0.7-1h1.3
	c-0.2,0.7-0.6,1.3-1.2,1.7c-0.6,0.4-1.4,0.7-2.1,0.6c-0.6,0-1.3-0.1-1.8-0.4c-0.5-0.3-1-0.8-1.3-1.3c-0.3-0.6-0.5-1.3-0.5-1.9
	c0-0.7,0.1-1.3,0.4-1.9c0.3-0.5,0.7-1,1.2-1.3c0.6-0.3,1.2-0.4,1.8-0.4c0.6,0,1.3,0.1,1.8,0.5c0.5,0.3,0.9,0.7,1.2,1.2
	c0.3,0.5,0.4,1.1,0.4,1.8C676,61.6,676,61.9,676,62.1z M674.5,60c-0.2-0.3-0.5-0.6-0.8-0.7c-0.4-0.2-0.7-0.3-1.1-0.2
	c-0.6,0-1.1,0.2-1.5,0.6c-0.4,0.4-0.7,1-0.7,1.6h4.5C674.8,60.8,674.7,60.4,674.5,60z"/>
<path d="M677.2,59.7c0.3-0.5,0.7-1,1.2-1.3c0.5-0.3,1.1-0.5,1.7-0.5c0.6,0,1.1,0.1,1.6,0.4c0.4,0.2,0.8,0.6,1,1v-1.3h1.2v7.1h-1.2
	v-1.3c-0.2,0.4-0.6,0.8-1,1c-0.5,0.3-1.1,0.4-1.6,0.4c-1.2,0-2.4-0.7-2.9-1.8c-0.3-0.6-0.5-1.3-0.5-1.9
	C676.8,60.9,676.9,60.3,677.2,59.7z M682.5,60.2c-0.2-0.4-0.5-0.7-0.9-0.9c-0.4-0.2-0.8-0.3-1.2-0.3c-0.4,0-0.8,0.1-1.2,0.3
	c-0.4,0.2-0.7,0.5-0.9,0.9c-0.2,0.4-0.3,0.9-0.3,1.4c0,0.5,0.1,1,0.3,1.4c0.6,1.2,2,1.6,3.2,1c0.4-0.2,0.8-0.6,1-1
	c0.2-0.4,0.3-0.9,0.3-1.4C682.8,61.1,682.7,60.7,682.5,60.2z"/>
<path d="M687.1,59.1v4.2c0,0.3,0.1,0.5,0.2,0.7c0.2,0.2,0.5,0.2,0.8,0.2h0.9v1h-1.1c-0.5,0-1.1-0.1-1.5-0.5
	c-0.4-0.4-0.5-0.9-0.5-1.5v-4.2H685v-1h0.9v-1.8h1.2v1.8h1.9v1L687.1,59.1z"/>
<path d="M696.5,62.1h-5.7c0,1.2,1,2.2,2.2,2.2c0,0,0.1,0,0.1,0c0.5,0,0.9-0.1,1.3-0.4c0.3-0.2,0.6-0.6,0.7-1h1.3
	c-0.2,0.7-0.6,1.3-1.1,1.7c-0.6,0.4-1.4,0.7-2.1,0.6c-0.6,0-1.3-0.1-1.8-0.4c-0.5-0.3-1-0.8-1.3-1.3c-0.6-1.2-0.6-2.7,0-3.9
	c0.3-0.5,0.7-1,1.2-1.3c0.6-0.3,1.2-0.5,1.8-0.5c0.6,0,1.2,0.1,1.8,0.5c0.5,0.3,0.9,0.7,1.2,1.2c0.3,0.5,0.4,1.1,0.4,1.8
	C696.5,61.6,696.5,61.8,696.5,62.1z M695,60c-0.2-0.3-0.5-0.6-0.8-0.7c-0.4-0.2-0.8-0.3-1.2-0.3c-0.6,0-1.1,0.2-1.5,0.6
	c-0.4,0.4-0.7,1-0.7,1.6h4.5C695.3,60.8,695.2,60.4,695,60z"/>
<path d="M706.2,56.7c0.7,0.3,1.3,0.9,1.7,1.6c0.8,1.5,0.8,3.3,0,4.8c-0.4,0.7-1,1.2-1.7,1.6c-0.8,0.4-1.7,0.6-2.6,0.5h-2.8v-9.1h2.8
	C704.5,56.1,705.4,56.3,706.2,56.7z M706.3,63.3c0.7-0.7,1-1.7,0.9-2.6c0.1-1-0.3-1.9-0.9-2.6c-0.7-0.7-1.7-1.1-2.7-1H702v7.1h1.6
	C704.6,64.3,705.6,63.9,706.3,63.3z"/>
<path d="M716.1,62.1h-5.7c0,1.2,1,2.2,2.3,2.2c0,0,0,0,0.1,0c0.4,0,0.9-0.1,1.3-0.3c0.3-0.2,0.6-0.6,0.7-1h1.3
	c-0.2,0.7-0.6,1.3-1.1,1.7c-0.6,0.4-1.4,0.7-2.1,0.6c-0.6,0-1.3-0.1-1.8-0.4c-0.5-0.3-1-0.8-1.3-1.3c-0.6-1.2-0.6-2.7,0-3.9
	c0.3-0.5,0.7-1,1.2-1.3c0.6-0.3,1.2-0.5,1.8-0.5c0.6,0,1.2,0.1,1.8,0.5c0.5,0.3,0.9,0.7,1.2,1.2c0.3,0.5,0.4,1.1,0.4,1.8
	C716.1,61.6,716.1,61.8,716.1,62.1z M714.6,60c-0.2-0.3-0.5-0.6-0.8-0.7c-0.4-0.2-0.7-0.3-1.1-0.2c-0.6,0-1.1,0.2-1.5,0.6
	c-0.4,0.4-0.7,1-0.7,1.6h4.5C714.9,60.8,714.8,60.4,714.6,60z"/>
<path d="M718.5,55.6v9.6h-1.2v-9.6H718.5z"/>
<path d="M720.2,56.7c-0.2-0.1-0.2-0.4-0.2-0.6c0-0.4,0.4-0.8,0.8-0.8c0.2,0,0.4,0.1,0.5,0.2c0.2,0.2,0.2,0.4,0.2,0.6
	c0,0.2-0.1,0.4-0.2,0.6c-0.1,0.2-0.3,0.2-0.5,0.2C720.6,56.9,720.4,56.8,720.2,56.7z M721.4,58.1v7.1h-1.2v-7.1L721.4,58.1z"/>
<path d="M725.7,64.1l2.2-6h1.3l-2.8,7.1H725l-2.8-7.1h1.3L725.7,64.1z"/>
<path d="M736.4,62.1h-5.7c0,0.6,0.3,1.2,0.7,1.6c0.4,0.4,1,0.6,1.6,0.6c0.5,0,0.9-0.1,1.3-0.4c0.3-0.2,0.6-0.6,0.7-1h1.3
	c-0.2,0.7-0.6,1.3-1.2,1.7c-0.6,0.4-1.4,0.7-2.1,0.6c-0.6,0-1.3-0.1-1.8-0.4c-0.5-0.3-1-0.8-1.3-1.3c-0.3-0.6-0.5-1.3-0.5-1.9
	c0-0.7,0.1-1.3,0.4-1.9c0.3-0.5,0.7-1,1.2-1.3c0.6-0.3,1.2-0.4,1.8-0.4c0.6,0,1.3,0.1,1.8,0.5c0.5,0.3,0.9,0.7,1.2,1.2
	c0.3,0.5,0.4,1.1,0.4,1.8C736.4,61.6,736.4,61.9,736.4,62.1z M734.9,60c-0.2-0.3-0.5-0.6-0.8-0.7c-0.3-0.2-0.7-0.3-1.1-0.3
	c-0.6,0-1.1,0.2-1.5,0.6c-0.4,0.4-0.7,1-0.7,1.6h4.5C735.2,60.7,735.1,60.3,734.9,60z"/>
<path d="M739.7,58.3c0.4-0.2,0.9-0.4,1.4-0.3v1.2h-0.3c-1.3,0-2,0.7-2,2.2v3.9h-1.2v-7.1h1.2v1.2C739,58.8,739.3,58.5,739.7,58.3z"
	/>
<path d="M742.1,59.7c0.3-0.5,0.7-1,1.2-1.3c0.5-0.3,1.1-0.5,1.7-0.5c0.6,0,1.1,0.1,1.6,0.4c0.4,0.2,0.8,0.6,1,1v-1.3h1.2v7.1h-1.2
	v-1.3c-0.3,0.4-0.6,0.8-1,1c-0.5,0.3-1,0.4-1.6,0.4c-0.6,0-1.2-0.2-1.7-0.5c-0.5-0.3-0.9-0.8-1.2-1.3c-0.3-0.6-0.5-1.3-0.4-1.9
	C741.6,60.9,741.8,60.3,742.1,59.7z M747.4,60.2c-0.2-0.4-0.5-0.7-0.9-0.9c-0.4-0.2-0.8-0.3-1.2-0.3c-0.4,0-0.8,0.1-1.2,0.3
	c-0.4,0.2-0.7,0.5-0.9,0.9c-0.2,0.4-0.3,0.9-0.3,1.4c0,0.5,0.1,1,0.3,1.4c0.2,0.4,0.5,0.7,0.9,0.9c1.1,0.7,2.6,0.3,3.3-0.8
	c0,0,0-0.1,0-0.1c0.2-0.4,0.3-0.9,0.3-1.4C747.7,61.1,747.6,60.7,747.4,60.2z"/>
<path d="M752.8,58.4c0.5-0.3,1-0.4,1.6-0.4c0.6,0,1.2,0.2,1.7,0.5c0.5,0.3,0.9,0.7,1.2,1.3c0.3,0.6,0.5,1.3,0.4,1.9
	c0,0.7-0.1,1.3-0.4,1.9c-0.9,1.6-2.9,2.3-4.6,1.4c-0.4-0.2-0.8-0.6-1-1v1.3h-1.2v-9.6h1.2v3.8C752,59,752.4,58.6,752.8,58.4z
	 M756.2,60.2c-0.2-0.4-0.5-0.7-0.9-0.9c-0.4-0.2-0.8-0.3-1.2-0.3c-0.4,0-0.8,0.1-1.2,0.3c-0.4,0.2-0.7,0.5-0.9,0.9
	c-0.4,0.9-0.4,1.9,0,2.8c0.2,0.4,0.5,0.7,0.9,0.9c1.1,0.7,2.6,0.3,3.2-0.8c0,0,0-0.1,0.1-0.1c0.2-0.4,0.3-0.9,0.3-1.4
	C756.6,61.1,756.5,60.6,756.2,60.2L756.2,60.2z"/>
<path d="M760.1,55.6v9.6H759v-9.6H760.1z"/>
<path d="M768.2,62.1h-5.7c0,0.6,0.3,1.2,0.7,1.6c0.4,0.4,1,0.6,1.6,0.6c0.5,0,0.9-0.1,1.3-0.4c0.4-0.2,0.6-0.6,0.7-1h1.3
	c-0.2,0.7-0.6,1.3-1.2,1.7c-0.6,0.4-1.4,0.7-2.1,0.6c-0.6,0-1.3-0.1-1.8-0.4c-0.5-0.3-1-0.8-1.2-1.3c-0.3-0.6-0.5-1.3-0.5-1.9
	c0-0.7,0.1-1.3,0.4-1.9c0.3-0.5,0.7-1,1.2-1.3c0.6-0.3,1.2-0.5,1.8-0.5c0.6,0,1.3,0.1,1.8,0.5c0.5,0.3,0.9,0.7,1.2,1.2
	c0.3,0.5,0.4,1.1,0.4,1.8C768.3,61.6,768.3,61.9,768.2,62.1z M766.8,60c-0.2-0.3-0.5-0.6-0.8-0.7c-0.4-0.2-0.7-0.3-1.1-0.2
	c-0.6,0-1.1,0.2-1.5,0.6c-0.4,0.4-0.7,1-0.7,1.6h4.5C767.1,60.8,767,60.4,766.8,60z"/>
<path d="M770.5,65c-0.4-0.2-0.7-0.4-1-0.8c-0.3-0.3-0.4-0.7-0.4-1.2h1.2c0,0.3,0.2,0.7,0.5,0.9c0.3,0.2,0.8,0.4,1.2,0.3
	c0.4,0,0.8-0.1,1.1-0.3c0.2-0.2,0.4-0.5,0.4-0.8c0-0.3-0.1-0.6-0.4-0.7c-0.4-0.2-0.8-0.3-1.3-0.5c-0.4-0.1-0.9-0.2-1.3-0.4
	c-0.3-0.1-0.6-0.4-0.9-0.6c-0.5-0.6-0.5-1.5,0-2.1c0.2-0.3,0.6-0.6,0.9-0.7c0.4-0.2,0.9-0.3,1.4-0.3c0.7,0,1.4,0.2,1.9,0.6
	c0.5,0.4,0.8,1,0.8,1.6h-1.2c0-0.4-0.2-0.7-0.5-0.9c-0.3-0.2-0.7-0.4-1.1-0.3c-0.4,0-0.7,0.1-1,0.3c-0.2,0.2-0.4,0.4-0.4,0.7
	c0,0.2,0.1,0.4,0.2,0.6c0.2,0.2,0.4,0.3,0.6,0.4c0.3,0.1,0.7,0.2,1,0.3c0.4,0.1,0.8,0.2,1.2,0.4c0.3,0.1,0.6,0.3,0.8,0.6
	c0.2,0.3,0.4,0.7,0.4,1c0,0.4-0.1,0.7-0.3,1c-0.2,0.3-0.6,0.6-0.9,0.7c-0.4,0.2-0.9,0.3-1.4,0.3C771.6,65.3,771,65.2,770.5,65z"/>
<path d="M779,59.7c0.3-0.5,0.7-1,1.2-1.3c1.3-0.7,2.8-0.6,4,0.2c0.6,0.4,1,1.1,1.1,1.8h-1.3c-0.1-0.4-0.4-0.8-0.7-1
	c-0.4-0.3-0.8-0.4-1.3-0.4c-0.6,0-1.2,0.2-1.6,0.7c-0.5,0.6-0.7,1.3-0.6,2c0,0.7,0.2,1.4,0.6,2c0.4,0.5,1,0.7,1.6,0.7
	c0.5,0,0.9-0.1,1.3-0.4c0.3-0.2,0.6-0.6,0.7-1h1.3c-0.2,0.7-0.6,1.3-1.2,1.8c-0.6,0.4-1.4,0.7-2.1,0.7c-0.6,0-1.3-0.1-1.8-0.4
	c-0.6-0.3-1-0.8-1.3-1.4c-0.3-0.6-0.5-1.3-0.4-2C778.5,61,778.7,60.3,779,59.7z"/>
<path d="M787.8,64.9c-0.5-0.3-1-0.8-1.3-1.3c-0.3-0.6-0.5-1.3-0.5-1.9c0-0.7,0.2-1.3,0.5-1.9c0.3-0.5,0.7-1,1.3-1.3
	c1.2-0.6,2.5-0.6,3.7,0c0.5,0.3,1,0.7,1.3,1.3c0.6,1.2,0.6,2.7,0,3.9c-0.3,0.5-0.8,1-1.3,1.3c-0.6,0.3-1.2,0.5-1.8,0.4
	C789,65.3,788.4,65.2,787.8,64.9z M790.8,64c0.4-0.2,0.7-0.5,0.9-0.9c0.2-0.4,0.4-1,0.3-1.5c0-0.5-0.1-1-0.3-1.5
	c-0.2-0.4-0.5-0.7-0.9-0.9c-0.4-0.2-0.8-0.3-1.2-0.3c-0.4,0-0.8,0.1-1.2,0.3c-0.4,0.2-0.7,0.5-0.9,0.9c-0.2,0.4-0.3,0.9-0.3,1.5
	c0,0.5,0.1,1,0.3,1.5c0.2,0.4,0.5,0.7,0.8,0.9c0.4,0.2,0.8,0.3,1.2,0.3C790.1,64.3,790.5,64.2,790.8,64L790.8,64z"/>
<path d="M800.1,58.7c0.6,0.6,0.9,1.4,0.8,2.3v4.2h-1.2v-4c0-0.6-0.1-1.2-0.5-1.6c-0.4-0.4-0.9-0.6-1.5-0.6c-0.6,0-1.1,0.2-1.5,0.6
	c-0.4,0.5-0.6,1.1-0.6,1.7v3.9h-1.2v-7.2h1.2v1c0.2-0.4,0.6-0.7,1-0.8c0.4-0.2,0.9-0.3,1.3-0.2C798.8,58,799.5,58.2,800.1,58.7z"/>
<path d="M802.5,59.7c0.3-0.5,0.7-1,1.2-1.3c1.3-0.7,2.8-0.6,4,0.2c0.6,0.4,1,1.1,1.1,1.8h-1.3c-0.1-0.4-0.4-0.8-0.7-1
	c-0.4-0.3-0.8-0.4-1.3-0.4c-0.6,0-1.2,0.2-1.6,0.7c-0.5,0.6-0.7,1.3-0.6,2c0,0.7,0.2,1.4,0.6,2c0.4,0.5,1,0.7,1.6,0.7
	c0.5,0,0.9-0.1,1.3-0.4c0.3-0.2,0.6-0.6,0.7-1h1.3c-0.2,0.7-0.6,1.3-1.2,1.8c-0.6,0.4-1.4,0.7-2.1,0.7c-0.6,0-1.3-0.1-1.8-0.4
	c-0.5-0.3-1-0.7-1.2-1.3c-0.3-0.6-0.5-1.3-0.4-2C802,61,802.1,60.3,802.5,59.7z"/>
<path d="M816.5,62.1h-5.7c0,0.6,0.3,1.2,0.7,1.6c0.4,0.4,1,0.6,1.6,0.6c0.5,0,0.9-0.1,1.3-0.4c0.3-0.2,0.6-0.6,0.7-1h1.3
	c-0.2,0.7-0.6,1.3-1.1,1.7c-0.6,0.4-1.4,0.7-2.1,0.6c-0.6,0-1.3-0.1-1.8-0.4c-0.5-0.3-1-0.8-1.2-1.3c-0.3-0.6-0.5-1.3-0.5-1.9
	c0-0.7,0.1-1.3,0.4-1.9c0.3-0.5,0.7-1,1.2-1.3c0.6-0.3,1.2-0.5,1.8-0.5c0.6,0,1.2,0.1,1.8,0.5c0.5,0.3,0.9,0.7,1.2,1.2
	c0.3,0.5,0.4,1.1,0.4,1.8C816.5,61.6,816.5,61.8,816.5,62.1z M815,60c-0.2-0.3-0.5-0.6-0.8-0.7c-0.4-0.2-0.8-0.3-1.2-0.3
	c-0.6,0-1.1,0.2-1.5,0.6c-0.4,0.4-0.7,1-0.7,1.6h4.5C815.3,60.8,815.2,60.4,815,60z"/>
<path d="M819.8,58.3c0.4-0.2,0.9-0.4,1.4-0.3v1.2h-0.3c-1.3,0-2,0.7-2,2.2v3.9h-1.2v-7.1h1.2v1.2C819.1,58.8,819.4,58.5,819.8,58.3z
	"/>
<path d="M827.7,58.7c0.6,0.6,0.9,1.4,0.8,2.3v4.2h-1.2v-4c0-0.6-0.2-1.2-0.5-1.6c-0.4-0.4-0.9-0.6-1.5-0.6c-0.6,0-1.1,0.2-1.5,0.6
	c-0.4,0.5-0.6,1.1-0.5,1.7v3.9h-1.2v-7.2h1.2v1c0.2-0.4,0.6-0.7,1-0.8c0.4-0.2,0.9-0.3,1.3-0.3C826.4,57.9,827.2,58.2,827.7,58.7z"
	/>
<path d="M830.2,56.7c-0.2-0.1-0.2-0.4-0.2-0.6c0-0.2,0.1-0.4,0.2-0.6c0.1-0.2,0.4-0.2,0.6-0.2c0.2,0,0.4,0.1,0.5,0.2
	c0.2,0.1,0.2,0.4,0.2,0.6c0,0.2-0.1,0.4-0.2,0.6c-0.1,0.2-0.3,0.2-0.5,0.2C830.5,56.9,830.3,56.8,830.2,56.7z M831.3,58.1v7.1h-1.2
	v-7.1L831.3,58.1z"/>
<path d="M838.5,58.7c0.6,0.6,0.9,1.4,0.8,2.3v4.2h-1.2v-4c0-0.6-0.2-1.2-0.5-1.6c-0.4-0.4-0.9-0.6-1.5-0.6c-0.6,0-1.1,0.2-1.5,0.6
	c-0.4,0.5-0.6,1.1-0.5,1.7v3.9H833v-7.2h1.2v1c0.2-0.4,0.6-0.7,1-0.8c0.4-0.2,0.9-0.3,1.3-0.3C837.3,57.9,838,58.2,838.5,58.7z"/>
<path d="M845.5,58.4c0.4,0.2,0.8,0.6,1,1v-1.3h1.2v7.3c0,0.6-0.1,1.2-0.4,1.7c-0.3,0.5-0.7,0.9-1.2,1.2c-0.6,0.3-1.2,0.4-1.8,0.4
	c-0.8,0-1.7-0.2-2.3-0.7c-0.6-0.4-1-1.1-1.1-1.8h1.2c0.1,0.4,0.4,0.8,0.8,1c0.4,0.3,1,0.4,1.5,0.4c0.6,0,1.2-0.2,1.6-0.6
	c0.4-0.5,0.7-1.1,0.6-1.7v-1.4c-0.2,0.4-0.6,0.8-1,1c-0.5,0.3-1,0.4-1.6,0.4c-1.2,0-2.4-0.7-2.9-1.8c-0.3-0.6-0.5-1.3-0.4-1.9
	c0-0.7,0.1-1.3,0.4-1.9c0.3-0.5,0.7-1,1.2-1.3c0.5-0.3,1.1-0.5,1.7-0.5C844.4,57.9,845,58.1,845.5,58.4z M846.2,60.2
	c-0.2-0.4-0.5-0.7-0.9-0.9c-0.4-0.2-0.8-0.3-1.2-0.3c-0.4,0-0.8,0.1-1.2,0.3c-0.4,0.2-0.7,0.5-0.9,0.9c-0.2,0.4-0.3,0.9-0.3,1.4
	c0,0.5,0.1,1,0.3,1.4c0.2,0.4,0.5,0.7,0.9,0.9c0.4,0.2,0.8,0.3,1.2,0.3c0.4,0,0.8-0.1,1.2-0.2c0.4-0.2,0.7-0.5,0.9-0.9
	c0.2-0.4,0.3-0.9,0.3-1.4C846.5,61.2,846.4,60.7,846.2,60.2z"/>
<path d="M854.1,56.1v5.6c0,0.5,0.1,1,0.5,1.4c0.4,0.3,0.9,0.5,1.3,0.5c0.5,0,1-0.1,1.4-0.5c0.3-0.4,0.5-0.9,0.5-1.4v-5.6h1.8v5.6
	c0,0.7-0.1,1.4-0.5,2c-0.3,0.5-0.8,0.9-1.3,1.2c-0.6,0.3-1.2,0.4-1.9,0.4c-0.6,0-1.3-0.1-1.8-0.4c-0.5-0.3-1-0.7-1.3-1.2
	c-0.3-0.6-0.5-1.3-0.5-2v-5.6H854.1z"/>
<path d="M862.2,65c-0.4-0.2-0.8-0.5-1.1-0.9c-0.3-0.4-0.4-0.8-0.5-1.2h1.8c0,0.3,0.2,0.5,0.4,0.7c0.3,0.2,0.6,0.3,0.9,0.3
	c0.3,0,0.6-0.1,0.8-0.2c0.2-0.1,0.3-0.3,0.3-0.5c0-0.2-0.1-0.4-0.3-0.5c-0.4-0.2-0.7-0.3-1.1-0.4c-0.4-0.1-0.9-0.2-1.3-0.4
	c-0.3-0.1-0.6-0.4-0.9-0.6c-0.3-0.3-0.4-0.7-0.4-1.2c0-0.4,0.1-0.8,0.3-1.1c0.3-0.3,0.6-0.6,1-0.8c0.5-0.2,1-0.3,1.5-0.3
	c0.7,0,1.5,0.2,2,0.6c0.5,0.4,0.8,1.1,0.8,1.7h-1.7c0-0.3-0.2-0.5-0.4-0.7c-0.2-0.2-0.5-0.3-0.8-0.2c-0.3,0-0.5,0-0.8,0.2
	c-0.2,0.1-0.3,0.3-0.3,0.5c0,0.2,0.1,0.5,0.4,0.5c0.4,0.2,0.7,0.3,1.1,0.4c0.4,0.1,0.9,0.2,1.3,0.4c0.3,0.1,0.6,0.4,0.9,0.6
	c0.3,0.3,0.4,0.7,0.4,1.2c0,0.4-0.1,0.8-0.3,1.1c-0.3,0.3-0.6,0.6-1,0.8C864.3,65.4,863.2,65.4,862.2,65L862.2,65z"/>
<path d="M874.4,62.2h-5.3c0,0.5,0.2,0.9,0.5,1.2c0.3,0.3,0.7,0.5,1.2,0.4c0.6,0,1.2-0.3,1.5-0.9h2c-0.2,0.7-0.6,1.3-1.2,1.7
	c-0.6,0.5-1.4,0.7-2.2,0.7c-0.6,0-1.3-0.1-1.9-0.5c-0.5-0.3-1-0.8-1.3-1.3c-0.3-0.6-0.5-1.3-0.5-2c0-0.7,0.1-1.4,0.5-2
	c0.3-0.5,0.7-1,1.3-1.3c0.6-0.3,1.2-0.5,1.9-0.5c0.6,0,1.3,0.1,1.8,0.4c0.5,0.3,1,0.8,1.2,1.3c0.3,0.6,0.5,1.2,0.5,1.9
	C874.5,61.7,874.4,61.9,874.4,62.2z M872.6,60.9c0-0.4-0.2-0.8-0.5-1.1c-0.3-0.3-0.8-0.4-1.2-0.4c-0.4,0-0.8,0.1-1.1,0.4
	c-0.3,0.3-0.5,0.7-0.6,1.1H872.6z"/>
<path d="M878.2,58.2c0.4-0.2,0.8-0.3,1.3-0.3v1.9H879c-0.8-0.1-1.6,0.4-1.7,1.3c0,0.2,0,0.4,0,0.6v3.6h-1.8V58h1.8v1.1
	C877.5,58.8,877.8,58.4,878.2,58.2z"/>
<path d="M881.5,65c-0.4-0.2-0.8-0.5-1.1-0.9c-0.3-0.4-0.4-0.8-0.5-1.2h1.8c0,0.3,0.2,0.5,0.4,0.7c0.3,0.2,0.6,0.3,0.9,0.3
	c0.3,0,0.6-0.1,0.8-0.2c0.2-0.1,0.3-0.3,0.3-0.5c0-0.2-0.1-0.4-0.4-0.5c-0.4-0.2-0.7-0.3-1.1-0.4c-0.4-0.1-0.9-0.2-1.3-0.4
	c-0.3-0.1-0.6-0.4-0.9-0.6c-0.3-0.3-0.4-0.7-0.4-1.2c0-0.4,0.1-0.8,0.3-1.1c0.3-0.3,0.6-0.6,1-0.8c0.5-0.2,1-0.3,1.5-0.3
	c0.7,0,1.5,0.2,2,0.6c0.5,0.4,0.8,1.1,0.8,1.7h-1.7c0-0.3-0.1-0.5-0.3-0.7c-0.5-0.3-1.1-0.3-1.6-0.1c-0.3,0.2-0.3,0.6-0.2,0.8
	c0.1,0.1,0.2,0.2,0.3,0.2c0.4,0.2,0.7,0.3,1.1,0.4c0.4,0.1,0.9,0.2,1.3,0.4c0.3,0.1,0.6,0.4,0.9,0.6c0.3,0.3,0.4,0.7,0.4,1.2
	c0,0.4-0.1,0.8-0.3,1.1c-0.3,0.3-0.6,0.6-1,0.8C883.6,65.4,882.5,65.4,881.5,65L881.5,65z"/>
<path d="M888.2,54.8l-0.2,2.8h-1.2l-0.2-2.8H888.2z"/>
<path d="M894.7,58.2c0.4-0.2,0.9-0.3,1.4-0.3c0.6,0,1.2,0.1,1.7,0.5c0.5,0.3,0.9,0.8,1.2,1.3c0.3,0.6,0.5,1.3,0.4,1.9
	c0,0.7-0.1,1.4-0.4,2c-0.3,0.5-0.7,1-1.2,1.3c-0.5,0.3-1.1,0.5-1.7,0.5c-0.5,0-1-0.1-1.4-0.3c-0.4-0.2-0.7-0.5-1-0.8v1h-1.8v-9.6
	h1.8v3.5C894,58.7,894.3,58.4,894.7,58.2z M897.3,60.5c-0.2-0.3-0.4-0.5-0.7-0.7c-0.3-0.2-0.6-0.2-0.9-0.2c-0.3,0-0.6,0.1-0.9,0.2
	c-0.3,0.2-0.5,0.4-0.7,0.7c-0.4,0.7-0.4,1.6,0,2.3c0.2,0.3,0.4,0.6,0.7,0.7c0.3,0.2,0.6,0.3,0.9,0.2c0.3,0,0.7-0.1,0.9-0.3
	c0.3-0.2,0.5-0.4,0.7-0.7C897.6,62,897.6,61.2,897.3,60.5z"/>
<path d="M907,62.2h-5.3c0,0.5,0.2,0.9,0.5,1.2c0.3,0.3,0.7,0.5,1.2,0.4c0.6,0,1.2-0.3,1.4-0.9h2c-0.2,0.7-0.6,1.3-1.2,1.7
	c-0.6,0.5-1.4,0.7-2.2,0.7c-0.7,0-1.3-0.1-1.9-0.5c-0.5-0.3-1-0.8-1.3-1.3c-0.6-1.2-0.6-2.7,0-3.9c0.3-0.5,0.7-1,1.3-1.3
	c0.6-0.3,1.2-0.5,1.9-0.5c0.6,0,1.3,0.1,1.8,0.4c0.5,0.3,1,0.7,1.3,1.2c0.3,0.6,0.5,1.2,0.5,1.9C907.1,61.7,907.1,61.9,907,62.2z
	 M905.2,60.9c0-0.4-0.2-0.8-0.5-1.1c-0.3-0.3-0.8-0.4-1.2-0.4c-0.4,0-0.8,0.1-1.1,0.4c-0.3,0.3-0.5,0.7-0.6,1.1H905.2z"/>
<path d="M913.5,58.3c0.4,0.2,0.8,0.6,1,1c0.3,0.5,0.4,1.1,0.4,1.7v4.2h-1.8v-4c0-0.5-0.1-1-0.4-1.3c-0.3-0.3-0.7-0.5-1.2-0.5
	c-0.4,0-0.9,0.1-1.2,0.5c-0.3,0.4-0.5,0.8-0.4,1.3v4H908v-9.6h1.8v3.3c0.2-0.3,0.6-0.6,0.9-0.7c0.4-0.2,0.9-0.3,1.3-0.3
	C912.6,57.9,913.1,58,913.5,58.3z"/>
<path d="M916.2,59.6c0.3-0.5,0.7-1,1.2-1.3c0.5-0.3,1.1-0.5,1.7-0.5c0.9,0,1.8,0.4,2.4,1.1v-1h1.8v7.2h-1.8v-1.1
	c-0.3,0.4-0.6,0.6-1,0.8c-1,0.5-2.1,0.4-3.1-0.1c-0.5-0.3-0.9-0.8-1.2-1.3c-0.3-0.6-0.5-1.3-0.4-2C915.8,60.9,915.9,60.2,916.2,59.6
	z M921.2,60.5c-0.3-0.6-1-1-1.7-1c-0.3,0-0.7,0.1-0.9,0.2c-0.3,0.2-0.5,0.4-0.7,0.7c-0.2,0.3-0.3,0.7-0.3,1.1c0,0.4,0.1,0.8,0.3,1.1
	c0.2,0.3,0.4,0.6,0.7,0.7c0.3,0.2,0.6,0.3,0.9,0.3c0.7,0,1.3-0.4,1.7-1C921.6,62,921.6,61.1,921.2,60.5L921.2,60.5z"/>
<path d="M927.7,63.5l1.8-5.5h1.9l-2.7,7.2h-2.2l-2.7-7.2h2L927.7,63.5z"/>
<path d="M932.2,56.8c-0.4-0.4-0.4-1.1,0-1.5c0.2-0.2,0.5-0.3,0.8-0.3c0.3,0,0.6,0.1,0.8,0.3c0.4,0.4,0.4,1.1,0,1.5c0,0,0,0,0,0
	c-0.2,0.2-0.5,0.3-0.8,0.3C932.8,57.2,932.5,57,932.2,56.8z M934,58v7.2h-1.8V58H934z"/>
<path d="M936.7,64.9c-0.6-0.3-1-0.8-1.3-1.3c-0.3-0.6-0.5-1.3-0.5-2c0-0.7,0.2-1.3,0.5-1.9c0.3-0.6,0.8-1,1.3-1.3
	c0.6-0.3,1.2-0.5,1.9-0.5c0.7,0,1.3,0.1,1.9,0.5c0.6,0.3,1,0.8,1.3,1.3c0.3,0.6,0.5,1.3,0.5,1.9c0,0.7-0.2,1.4-0.5,2
	c-0.3,0.5-0.8,1-1.3,1.3c-0.6,0.3-1.2,0.5-1.9,0.5C937.9,65.3,937.3,65.2,936.7,64.9z M939.5,63.5c0.3-0.2,0.5-0.4,0.7-0.7
	c0.2-0.4,0.3-0.8,0.3-1.2c0-0.6-0.2-1.1-0.5-1.6c-0.3-0.4-0.8-0.6-1.3-0.6c-0.5,0-1,0.2-1.3,0.6c-0.4,0.4-0.6,1-0.5,1.6
	c0,0.6,0.1,1.1,0.5,1.6c0.3,0.4,0.8,0.6,1.3,0.6C938.9,63.7,939.2,63.7,939.5,63.5z"/>
<path d="M950.1,58v7.2h-1.8v-0.9c-0.2,0.3-0.6,0.6-0.9,0.7c-0.4,0.2-0.8,0.3-1.2,0.3c-0.5,0-1-0.1-1.5-0.4c-0.4-0.2-0.8-0.6-1-1
	c-0.3-0.5-0.4-1.1-0.4-1.7V58h1.8v4c0,0.5,0.1,0.9,0.4,1.3c0.3,0.3,0.7,0.5,1.2,0.5c0.4,0,0.9-0.1,1.2-0.5c0.3-0.4,0.5-0.8,0.4-1.3
	v-4H950.1z"/>
<path d="M954.3,58.2c0.4-0.2,0.8-0.3,1.3-0.3v1.9h-0.5c-0.5,0-0.9,0.1-1.3,0.4c-0.3,0.4-0.5,0.9-0.4,1.4v3.6h-1.8V58h1.8v1.1
	C953.6,58.7,953.9,58.4,954.3,58.2z"/>
<path d="M958.4,63.3l-1.5,3.7h-1.2l0.8-3.7L958.4,63.3z"/>
<path d="M963.9,56.1v5.6c0,0.5,0.1,1,0.5,1.4c0.4,0.3,0.9,0.5,1.3,0.5c0.5,0,1-0.1,1.4-0.5c0.3-0.4,0.5-0.9,0.5-1.4v-5.6h1.8v5.6
	c0,0.7-0.1,1.4-0.5,2c-0.3,0.5-0.8,0.9-1.3,1.2c-0.6,0.3-1.2,0.4-1.9,0.4c-0.6,0-1.3-0.1-1.8-0.4c-0.5-0.3-1-0.7-1.3-1.2
	c-0.3-0.6-0.5-1.3-0.5-2v-5.6H963.9z"/>
<path d="M972,65c-0.4-0.2-0.8-0.5-1.1-0.9c-0.3-0.4-0.4-0.8-0.5-1.2h1.8c0,0.3,0.2,0.5,0.4,0.7c0.3,0.2,0.6,0.3,0.9,0.3
	c0.3,0,0.6-0.1,0.8-0.2c0.2-0.1,0.3-0.3,0.3-0.5c0-0.2-0.1-0.4-0.4-0.5c-0.4-0.2-0.7-0.3-1.1-0.4c-0.4-0.1-0.9-0.2-1.3-0.4
	c-0.3-0.1-0.6-0.4-0.9-0.6c-0.3-0.3-0.4-0.7-0.4-1.2c0-0.4,0.1-0.8,0.3-1.1c0.3-0.3,0.6-0.6,1-0.8c0.5-0.2,1-0.3,1.5-0.3
	c0.7,0,1.5,0.2,2,0.6c0.5,0.4,0.8,1.1,0.8,1.7h-1.8c0-0.3-0.1-0.5-0.3-0.7c-0.5-0.3-1.1-0.3-1.6-0.1c-0.2,0.1-0.3,0.3-0.3,0.5
	c0,0.2,0.1,0.5,0.4,0.5c0.4,0.2,0.7,0.3,1.1,0.4c0.4,0.1,0.9,0.2,1.3,0.4c0.3,0.1,0.6,0.4,0.8,0.6c0.3,0.3,0.4,0.7,0.4,1.2
	c0,0.4-0.1,0.8-0.3,1.1c-0.3,0.3-0.6,0.6-1,0.8C974.1,65.4,973,65.4,972,65z"/>
<path d="M984.2,62.2h-5.3c0,0.5,0.2,0.9,0.5,1.2c0.3,0.3,0.7,0.5,1.2,0.4c0.6,0,1.2-0.3,1.4-0.9h2c-0.2,0.7-0.6,1.3-1.2,1.7
	c-0.6,0.5-1.4,0.7-2.2,0.7c-0.7,0-1.3-0.1-1.9-0.5c-0.5-0.3-1-0.8-1.3-1.3c-0.3-0.6-0.5-1.3-0.5-2c0-0.7,0.1-1.4,0.5-2
	c0.3-0.5,0.7-1,1.3-1.3c0.6-0.3,1.2-0.5,1.9-0.5c0.6,0,1.3,0.1,1.8,0.4c0.5,0.3,1,0.7,1.3,1.2c0.3,0.6,0.5,1.2,0.5,1.9
	C984.2,61.6,984.2,61.9,984.2,62.2z M982.3,60.9c0-0.4-0.2-0.8-0.5-1.1c-0.3-0.3-0.8-0.4-1.2-0.4c-0.4,0-0.8,0.1-1.1,0.4
	c-0.3,0.3-0.5,0.7-0.6,1.1H982.3z"/>
<path d="M987.9,58.2c0.4-0.2,0.8-0.3,1.3-0.3v1.9h-0.5c-0.5,0-0.9,0.1-1.3,0.4c-0.3,0.4-0.5,0.9-0.4,1.4v3.6h-1.8V58h1.8v1.1
	C987.2,58.7,987.5,58.4,987.9,58.2z"/>
<path d="M996.1,59.5h-1.3v5.7H993v-5.7h-0.8V58h0.8v-0.4c-0.1-0.7,0.2-1.5,0.8-2c0.7-0.4,1.5-0.6,2.2-0.5v1.5c-0.3,0-0.7,0-0.9,0.2
	c-0.2,0.2-0.3,0.5-0.3,0.8V58h1.3L996.1,59.5z"/>
<path d="M998.7,55.6v9.6h-1.8v-9.6H998.7z"/>
<path d="M1001.5,64.9c-0.5-0.3-1-0.8-1.3-1.3c-0.3-0.6-0.5-1.3-0.5-2c0-0.7,0.2-1.3,0.5-1.9c0.3-0.6,0.8-1,1.3-1.3
	c0.6-0.3,1.2-0.5,1.9-0.5c0.7,0,1.3,0.1,1.9,0.5c0.6,0.3,1,0.8,1.3,1.3c0.7,1.2,0.7,2.7,0,3.9c-0.3,0.5-0.8,1-1.3,1.3
	c-0.6,0.3-1.2,0.5-1.9,0.5C1002.7,65.3,1002.1,65.2,1001.5,64.9z M1004.3,63.5c0.3-0.2,0.5-0.4,0.7-0.7c0.2-0.4,0.3-0.8,0.3-1.2
	c0-0.6-0.2-1.1-0.5-1.6c-0.3-0.4-0.8-0.6-1.3-0.6c-0.5,0-1,0.2-1.3,0.6c-0.4,0.4-0.6,1-0.5,1.6c0,0.6,0.1,1.1,0.5,1.6
	c0.3,0.4,0.8,0.6,1.3,0.6C1003.7,63.7,1004,63.7,1004.3,63.5L1004.3,63.5z"/>
<path d="M1018.1,58l-2.1,7.2h-2l-1.3-5l-1.3,5h-2l-2.1-7.2h1.8l1.3,5.5l1.4-5.5h1.9l1.4,5.5l1.3-5.5H1018.1z"/>
<path d="M1024.8,59.1h-1.5v6.1h-1.2v-6.1h-0.9v-1h0.9v-0.5c-0.1-0.6,0.2-1.3,0.6-1.8c0.6-0.4,1.3-0.6,2-0.6v1
	c-0.4,0-0.8,0.1-1.1,0.3c-0.2,0.3-0.4,0.6-0.3,1v0.5h1.5L1024.8,59.1z"/>
<path d="M1027.1,64.9c-0.5-0.3-1-0.8-1.3-1.3c-0.3-0.6-0.5-1.3-0.5-1.9c0-0.7,0.1-1.3,0.5-1.9c0.3-0.5,0.8-1,1.3-1.3
	c1.1-0.6,2.5-0.6,3.7,0c0.5,0.3,1,0.7,1.3,1.3c0.3,0.6,0.5,1.3,0.5,1.9c0,0.7-0.2,1.4-0.5,1.9c-0.3,0.5-0.8,1-1.3,1.3
	c-0.6,0.3-1.2,0.5-1.8,0.4C1028.3,65.3,1027.7,65.2,1027.1,64.9z M1030.1,64c0.4-0.2,0.7-0.5,0.9-0.9c0.2-0.4,0.4-1,0.3-1.5
	c0-0.5-0.1-1-0.3-1.5c-0.2-0.4-0.5-0.7-0.9-0.9c-0.4-0.2-0.7-0.3-1.1-0.3c-0.4,0-0.8,0.1-1.2,0.3c-0.4,0.2-0.7,0.5-0.9,0.9
	c-0.2,0.4-0.3,0.9-0.3,1.5c0,0.5,0.1,1,0.3,1.5c0.2,0.4,0.5,0.7,0.9,0.9c0.4,0.2,0.8,0.3,1.2,0.3C1029.4,64.3,1029.8,64.2,1030.1,64
	L1030.1,64z"/>
<path d="M1035.8,58.3c0.4-0.2,0.9-0.4,1.4-0.3v1.2h-0.3c-1.3,0-2,0.7-2,2.2v3.9h-1.2v-7.1h1.2v1.2
	C1035.2,58.8,1035.5,58.5,1035.8,58.3z"/>
<path d="M660.2,78.6v9.1h-1.8v-5.9l-2.4,5.9h-1.4l-2.4-5.9v5.9h-1.8v-9.1h2.1l2.9,6.8l2.9-6.8H660.2z"/>
<path d="M661.6,82.1c0.5-1.1,1.6-1.8,2.8-1.8c0.5,0,1,0.1,1.4,0.3c0.4,0.2,0.7,0.5,1,0.8v-1h1.8v7.2h-1.8v-1.1
	c-0.3,0.4-0.6,0.6-1,0.8c-0.4,0.2-0.9,0.3-1.4,0.3c-0.6,0-1.2-0.2-1.7-0.5c-0.5-0.3-0.9-0.8-1.2-1.3c-0.3-0.6-0.5-1.3-0.4-2
	C661.1,83.4,661.3,82.7,661.6,82.1z M666.6,83c-0.2-0.3-0.4-0.6-0.7-0.7c-0.3-0.2-0.6-0.3-1-0.2c-0.3,0-0.7,0.1-0.9,0.2
	c-0.3,0.2-0.5,0.4-0.7,0.7c-0.2,0.3-0.3,0.7-0.3,1.1c0,0.4,0.1,0.8,0.3,1.1c0.2,0.3,0.4,0.6,0.7,0.7c0.3,0.2,0.6,0.3,0.9,0.3
	c0.4,0,0.7-0.1,1-0.2c0.3-0.2,0.5-0.4,0.7-0.7C666.9,84.5,666.9,83.7,666.6,83z"/>
<path d="M672.8,80.7c0.4-0.2,0.8-0.3,1.3-0.3v1.9h-0.5c-0.8-0.1-1.6,0.4-1.7,1.3c0,0.2,0,0.4,0,0.6v3.6H670v-7.2h1.8v1.1
	C672.1,81.2,672.4,80.9,672.8,80.7z"/>
<path d="M679.2,87.7l-2.4-3.1v3.1h-1.8v-9.6h1.8v5.5l2.4-3.1h2.4l-3.2,3.6l3.2,3.6H679.2z"/>
<path d="M688.8,84.7h-5.3c0,0.5,0.2,0.9,0.5,1.2c0.3,0.3,0.7,0.5,1.2,0.4c0.6,0,1.2-0.3,1.5-0.9h2c-0.2,0.7-0.6,1.3-1.2,1.7
	c-0.6,0.5-1.4,0.7-2.2,0.7c-0.6,0-1.3-0.1-1.9-0.5c-0.5-0.3-1-0.8-1.3-1.3c-0.3-0.6-0.5-1.3-0.5-2c0-0.7,0.1-1.4,0.5-2
	c0.3-0.5,0.7-1,1.3-1.3c0.6-0.3,1.2-0.5,1.9-0.4c0.6,0,1.3,0.1,1.8,0.4c0.5,0.3,1,0.7,1.3,1.2c0.3,0.6,0.5,1.2,0.5,1.9
	C688.9,84.1,688.9,84.4,688.8,84.7z M687,83.4c0-0.4-0.2-0.8-0.5-1.1c-0.3-0.3-0.8-0.4-1.2-0.4c-0.4,0-0.8,0.1-1.1,0.4
	c-0.3,0.3-0.5,0.7-0.6,1.1H687z"/>
<path d="M691.9,82v3.5c0,0.2,0,0.4,0.2,0.5c0.2,0.1,0.4,0.2,0.6,0.2h0.8v1.5h-1.1c-1.1,0.2-2.1-0.6-2.3-1.7c0-0.2,0-0.4,0-0.6V82
	h-0.9v-1.5h0.9v-1.8h1.8v1.8h1.6V82H691.9z"/>
<path d="M703.4,78.6v1.5H701v7.6h-1.8v-7.6h-2.4v-1.5H703.4z"/>
<path d="M711,84.7h-5.3c0,0.5,0.2,0.9,0.5,1.2c0.3,0.3,0.8,0.5,1.2,0.4c0.6,0,1.2-0.3,1.4-0.9h2c-0.2,0.7-0.6,1.3-1.2,1.7
	c-0.6,0.5-1.4,0.7-2.2,0.7c-0.7,0-1.3-0.1-1.9-0.5c-0.5-0.3-1-0.8-1.3-1.3c-0.3-0.6-0.5-1.3-0.5-2c0-0.7,0.1-1.4,0.5-2
	c0.3-0.5,0.7-1,1.3-1.3c0.6-0.3,1.2-0.5,1.9-0.4c0.6,0,1.3,0.1,1.8,0.4c0.5,0.3,1,0.7,1.3,1.2c0.3,0.6,0.4,1.2,0.4,1.9
	C711.1,84.1,711.1,84.4,711,84.7z M709.2,83.4c0-0.4-0.2-0.8-0.5-1.1c-0.3-0.3-0.8-0.4-1.2-0.4c-0.4,0-0.8,0.1-1.1,0.4
	c-0.3,0.3-0.5,0.7-0.6,1.1H709.2z"/>
<path d="M712,82.1c0.3-0.5,0.7-1,1.2-1.3c0.5-0.3,1.1-0.5,1.7-0.4c0.9,0,1.8,0.4,2.4,1.1v-1h1.8v7.2h-1.8v-1.1
	c-0.3,0.4-0.6,0.6-1,0.8c-1,0.5-2.1,0.4-3.1-0.1c-0.5-0.3-0.9-0.8-1.2-1.3c-0.3-0.6-0.5-1.3-0.4-2C711.6,83.4,711.7,82.7,712,82.1z
	 M717,83c-0.3-0.6-1-1-1.7-1c-0.3,0-0.7,0.1-0.9,0.2c-0.3,0.2-0.5,0.4-0.7,0.7c-0.2,0.3-0.3,0.7-0.3,1.1c0,0.4,0.1,0.8,0.3,1.1
	c0.2,0.3,0.4,0.6,0.7,0.7c0.3,0.2,0.6,0.3,0.9,0.3c0.7,0,1.3-0.4,1.7-1C717.3,84.5,717.3,83.7,717,83L717,83z"/>
<path d="M731.5,81.2c0.6,0.6,0.9,1.4,0.8,2.3v4.2h-1.8v-4c0-0.5-0.1-0.9-0.4-1.3c-0.3-0.3-0.7-0.5-1.2-0.4c-0.4,0-0.9,0.1-1.2,0.4
	c-0.3,0.4-0.5,0.8-0.4,1.3v4h-1.8v-4c0-0.5-0.1-0.9-0.4-1.3c-0.3-0.3-0.7-0.5-1.2-0.4c-0.4,0-0.9,0.1-1.2,0.4
	c-0.3,0.4-0.5,0.8-0.4,1.3v4h-1.8v-7.2h1.8v0.9c0.2-0.3,0.5-0.6,0.9-0.7c0.4-0.2,0.8-0.3,1.2-0.3c0.5,0,1,0.1,1.5,0.4
	c0.4,0.2,0.8,0.6,1,1c0.2-0.4,0.6-0.8,1-1c0.4-0.3,0.9-0.4,1.5-0.4C730.2,80.3,731,80.6,731.5,81.2z"/>
<path d="M738.4,81.6v4.2c0,0.3,0.1,0.5,0.2,0.7c0.2,0.2,0.5,0.2,0.8,0.2h0.9v1h-1.1c-0.5,0-1.1-0.1-1.5-0.5
	c-0.4-0.4-0.5-0.9-0.5-1.5v-4.2h-0.9v-1h0.9v-1.8h1.2v1.8h1.9v1L738.4,81.6z"/>
<path d="M742.6,87.4c-0.5-0.3-1-0.8-1.3-1.3c-0.3-0.6-0.5-1.3-0.5-1.9c0-0.7,0.2-1.3,0.5-1.9c0.3-0.5,0.7-1,1.3-1.3
	c1.2-0.6,2.5-0.6,3.7,0c0.5,0.3,1,0.7,1.3,1.3c0.6,1.2,0.6,2.7,0,3.9c-0.3,0.5-0.8,1-1.3,1.3c-0.6,0.3-1.2,0.5-1.8,0.4
	C743.8,87.8,743.2,87.7,742.6,87.4z M745.6,86.5c0.4-0.2,0.7-0.5,0.9-0.9c0.2-0.4,0.4-1,0.3-1.5c0-0.5-0.1-1-0.3-1.4
	c-0.2-0.4-0.5-0.7-0.9-0.9c-0.4-0.2-0.8-0.3-1.2-0.3c-0.4,0-0.8,0.1-1.2,0.3c-0.4,0.2-0.7,0.5-0.9,0.9c-0.2,0.4-0.3,0.9-0.3,1.4
	c0,0.5,0.1,1,0.3,1.5c0.2,0.4,0.5,0.7,0.8,0.9c0.4,0.2,0.8,0.3,1.2,0.3C744.8,86.8,745.2,86.7,745.6,86.5L745.6,86.5z"/>
<path d="M755.3,81.6h-1.5v6.2h-1.2v-6.2h-0.9v-1h0.9V80c-0.1-0.6,0.2-1.3,0.6-1.7c0.6-0.4,1.3-0.6,2-0.6v1c-0.4,0-0.8,0.1-1.1,0.3
	c-0.2,0.3-0.4,0.6-0.3,1v0.5h1.5L755.3,81.6z"/>
<path d="M762.6,80.6v7.1h-1.2v-1.1c-0.2,0.4-0.6,0.7-1,0.8c-0.4,0.2-0.9,0.3-1.3,0.3c-0.5,0-1-0.1-1.5-0.3c-0.4-0.2-0.8-0.6-1-1
	c-0.3-0.5-0.4-1.1-0.4-1.7v-4.2h1.2v4c0,0.6,0.2,1.2,0.5,1.6c0.8,0.8,2.2,0.8,3,0c0.4-0.5,0.6-1.1,0.5-1.7v-3.9H762.6z"/>
<path d="M766.3,80.8c0.4-0.2,0.9-0.4,1.4-0.3v1.2h-0.3c-1.3,0-2,0.7-2,2.2v3.9h-1.2v-7.1h1.2v1.2C765.6,81.3,765.9,81,766.3,80.8z"
	/>
<path d="M770.2,81.6v4.2c0,0.3,0.1,0.5,0.2,0.7c0.2,0.2,0.5,0.2,0.8,0.2h0.9v1h-1c-0.5,0-1.1-0.1-1.5-0.5c-0.4-0.4-0.6-0.9-0.5-1.5
	v-4.2h-0.9v-1h0.9v-1.8h1.2v1.8h1.8v1L770.2,81.6z"/>
<path d="M778.1,80.8c0.4,0.2,0.8,0.6,1,1c0.3,0.5,0.4,1.1,0.4,1.7v4.2h-1.2v-4c0-0.6-0.1-1.2-0.5-1.6c-0.8-0.8-2.1-0.8-2.9,0
	c-0.4,0.5-0.6,1.1-0.6,1.7v3.9h-1.2v-9.6h1.2v3.5c0.2-0.4,0.6-0.7,1-0.8c0.4-0.2,0.9-0.3,1.4-0.3C777.2,80.4,777.6,80.6,778.1,80.8z
	"/>
<path d="M787.5,84.6h-5.7c0,0.6,0.3,1.2,0.7,1.6c0.4,0.4,1,0.6,1.6,0.6c0.5,0,0.9-0.1,1.3-0.4c0.3-0.2,0.6-0.6,0.7-0.9h1.3
	c-0.2,0.7-0.6,1.3-1.1,1.7c-0.6,0.4-1.4,0.7-2.1,0.6c-0.6,0-1.3-0.1-1.8-0.4c-0.5-0.3-1-0.8-1.2-1.3c-0.6-1.2-0.6-2.7,0-3.9
	c0.3-0.5,0.7-1,1.2-1.3c0.6-0.3,1.2-0.5,1.8-0.4c0.6,0,1.2,0.1,1.8,0.4c0.5,0.3,0.9,0.7,1.2,1.2c0.3,0.5,0.4,1.1,0.4,1.8
	C787.5,84.1,787.5,84.3,787.5,84.6z M786,82.5c-0.2-0.3-0.5-0.6-0.8-0.7c-0.4-0.2-0.7-0.3-1.1-0.2c-0.6,0-1.1,0.2-1.5,0.6
	c-0.4,0.4-0.7,1-0.7,1.6h4.5C786.3,83.2,786.2,82.8,786,82.5z"/>
<path d="M790.8,80.8c0.4-0.2,0.9-0.4,1.4-0.3v1.2h-0.3c-1.3,0-2,0.7-2,2.2v3.9h-1.2v-7.1h1.2v1.2C790.1,81.3,790.4,81,790.8,80.8z"
	/>
<path d="M796.3,82.2c0.3-0.5,0.7-1,1.2-1.3c0.5-0.3,1.1-0.5,1.7-0.4c0.5,0,1.1,0.1,1.5,0.4c0.5,0.2,0.8,0.6,1.1,1v-3.8h1.2v9.6h-1.2
	v-1.3c-0.2,0.4-0.6,0.8-1,1c-0.5,0.3-1,0.4-1.6,0.4c-1.3,0-2.4-0.7-3-1.8c-0.3-0.6-0.5-1.3-0.4-1.9C795.9,83.4,796,82.8,796.3,82.2z
	 M801.6,82.7c-0.2-0.4-0.5-0.7-0.9-0.9c-0.4-0.2-0.8-0.3-1.2-0.3c-0.4,0-0.8,0.1-1.2,0.3c-0.4,0.2-0.7,0.5-0.9,0.9
	c-0.2,0.4-0.3,0.9-0.3,1.4c0,0.5,0.1,1,0.3,1.4c0.2,0.4,0.5,0.7,0.9,0.9c0.4,0.2,0.8,0.3,1.2,0.3c0.9,0,1.7-0.5,2.1-1.2
	c0.2-0.4,0.3-0.9,0.3-1.4C801.9,83.6,801.8,83.2,801.6,82.7L801.6,82.7z"/>
<path d="M811.2,84.6h-5.7c0,1.2,1,2.2,2.2,2.2c0,0,0.1,0,0.1,0c0.5,0,0.9-0.1,1.3-0.4c0.3-0.2,0.6-0.6,0.7-0.9h1.3
	c-0.2,0.7-0.6,1.3-1.1,1.7c-0.6,0.4-1.4,0.7-2.1,0.6c-0.6,0-1.3-0.1-1.8-0.4c-0.5-0.3-1-0.8-1.3-1.3c-0.6-1.2-0.6-2.7,0-3.9
	c0.3-0.5,0.7-1,1.2-1.3c0.6-0.3,1.2-0.5,1.8-0.4c0.6,0,1.2,0.1,1.8,0.4c0.5,0.3,0.9,0.7,1.2,1.2c0.3,0.5,0.4,1.1,0.4,1.8
	C811.3,84.1,811.2,84.3,811.2,84.6z M809.7,82.5c-0.2-0.3-0.5-0.6-0.8-0.7c-0.4-0.2-0.7-0.3-1.1-0.2c-0.6,0-1.1,0.2-1.5,0.6
	c-0.4,0.4-0.7,1-0.7,1.6h4.5C810,83.2,809.9,82.8,809.7,82.5z"/>
<path d="M815.1,86.6l2.2-6h1.3l-2.8,7.1h-1.4l-2.8-7.1h1.3L815.1,86.6z"/>
<path d="M825.8,84.6h-5.7c0,1.2,1,2.2,2.2,2.2c0,0,0.1,0,0.1,0c0.5,0,0.9-0.1,1.3-0.4c0.3-0.2,0.6-0.6,0.7-0.9h1.3
	c-0.2,0.7-0.6,1.3-1.1,1.7c-0.6,0.4-1.4,0.7-2.1,0.6c-0.6,0-1.3-0.1-1.8-0.4c-0.5-0.3-1-0.8-1.2-1.3c-0.3-0.6-0.5-1.3-0.5-1.9
	c0-0.7,0.1-1.3,0.4-1.9c0.3-0.5,0.7-1,1.2-1.3c0.6-0.3,1.2-0.5,1.8-0.4c0.6,0,1.2,0.1,1.8,0.4c0.5,0.3,0.9,0.7,1.2,1.2
	c0.3,0.5,0.4,1.1,0.4,1.8C825.9,84.1,825.9,84.4,825.8,84.6z M824.4,82.5c-0.2-0.3-0.5-0.6-0.8-0.7c-0.4-0.2-0.7-0.3-1.1-0.2
	c-0.6,0-1.1,0.2-1.5,0.6c-0.4,0.4-0.7,1-0.7,1.6h4.5C824.7,83.2,824.6,82.8,824.4,82.5L824.4,82.5z"/>
<path d="M828.3,78.1v9.6h-1.2v-9.6H828.3z"/>
<path d="M831.2,87.4c-0.5-0.3-1-0.8-1.3-1.3c-0.3-0.6-0.5-1.3-0.5-1.9c0-0.7,0.2-1.3,0.5-1.9c0.3-0.5,0.7-1,1.3-1.3
	c1.1-0.6,2.5-0.6,3.7,0c0.5,0.3,1,0.7,1.3,1.3c0.3,0.6,0.5,1.3,0.5,1.9c0,0.7-0.1,1.3-0.5,1.9c-0.3,0.5-0.8,1-1.3,1.3
	c-0.6,0.3-1.2,0.5-1.8,0.4C832.4,87.8,831.8,87.7,831.2,87.4z M834.2,86.5c0.4-0.2,0.7-0.5,0.9-0.9c0.2-0.4,0.4-1,0.3-1.5
	c0-0.5-0.1-1-0.3-1.4c-0.2-0.4-0.5-0.7-0.9-0.9c-0.7-0.4-1.6-0.4-2.4,0c-0.4,0.2-0.7,0.5-0.9,0.9c-0.2,0.4-0.3,0.9-0.3,1.4
	c0,0.5,0.1,1,0.3,1.5c0.2,0.4,0.5,0.7,0.8,0.9c0.4,0.2,0.8,0.3,1.2,0.3C833.4,86.8,833.9,86.7,834.2,86.5L834.2,86.5z"/>
<path d="M840.1,80.9c0.5-0.3,1.1-0.4,1.6-0.4c0.6,0,1.2,0.1,1.7,0.4c0.5,0.3,0.9,0.7,1.2,1.3c0.3,0.6,0.5,1.3,0.5,1.9
	c0,0.7-0.1,1.3-0.5,1.9c-0.6,1.1-1.7,1.8-2.9,1.8c-0.6,0-1.1-0.1-1.6-0.4c-0.4-0.2-0.8-0.6-1.1-1v4.7h-1.2V80.6h1.2v1.3
	C839.3,81.5,839.7,81.1,840.1,80.9z M843.6,82.7c-0.2-0.4-0.5-0.7-0.9-0.9c-0.4-0.2-0.8-0.3-1.2-0.3c-0.4,0-0.8,0.1-1.2,0.3
	c-0.4,0.2-0.7,0.5-0.9,0.9c-0.4,0.9-0.4,1.9,0,2.8c0.2,0.4,0.5,0.7,0.9,0.9c0.4,0.2,0.8,0.3,1.2,0.3c0.4,0,0.9-0.1,1.2-0.3
	c0.4-0.2,0.7-0.5,0.9-0.9c0.2-0.4,0.3-0.9,0.3-1.4C843.9,83.6,843.8,83.1,843.6,82.7z"/>
<path d="M859.2,78.6v9.1h-1.8v-5.9l-2.4,5.9h-1.4l-2.4-5.9v5.9h-1.8v-9.1h2.1l2.9,6.8l2.9-6.8H859.2z"/>
<path d="M860.6,82.1c0.5-1.1,1.6-1.8,2.8-1.8c0.5,0,1,0.1,1.4,0.3c0.4,0.2,0.7,0.5,1,0.8v-1h1.8v7.2h-1.8v-1.1
	c-0.3,0.4-0.6,0.6-1,0.8c-1,0.5-2.1,0.4-3.1-0.1c-0.5-0.3-0.9-0.8-1.2-1.3c-0.3-0.6-0.5-1.3-0.4-2C860.2,83.4,860.3,82.7,860.6,82.1
	z M865.6,83c-0.2-0.3-0.4-0.6-0.7-0.7c-0.3-0.2-0.6-0.3-1-0.2c-0.7,0-1.3,0.4-1.6,1c-0.2,0.3-0.3,0.7-0.3,1.1c0,0.4,0.1,0.8,0.3,1.1
	c0.2,0.3,0.4,0.6,0.7,0.7c0.3,0.2,0.6,0.3,0.9,0.3c0.4,0,0.7-0.1,1-0.2c0.3-0.2,0.5-0.4,0.7-0.7C865.9,84.6,865.9,83.7,865.6,83
	L865.6,83z"/>
<path d="M871.8,80.7c0.4-0.2,0.8-0.3,1.3-0.3v1.9h-0.5c-0.5,0-0.9,0.1-1.3,0.4c-0.3,0.4-0.5,0.9-0.4,1.4v3.6h-1.8v-7.2h1.8v1.1
	C871.1,81.2,871.4,80.9,871.8,80.7z"/>
<path d="M878.2,87.7l-2.4-3.1v3.1H874v-9.6h1.8v5.5l2.4-3.1h2.4l-3.2,3.6l3.2,3.6H878.2z"/>
<path d="M887.8,84.7h-5.3c0,0.5,0.2,0.9,0.5,1.2c0.3,0.3,0.7,0.5,1.2,0.4c0.6,0,1.2-0.3,1.5-0.9h2c-0.2,0.7-0.6,1.3-1.2,1.7
	c-0.6,0.5-1.4,0.7-2.2,0.7c-0.6,0-1.3-0.1-1.9-0.5c-0.5-0.3-1-0.8-1.3-1.3c-0.3-0.6-0.5-1.3-0.5-2c0-0.7,0.1-1.4,0.5-2
	c0.3-0.5,0.7-1,1.3-1.3c0.6-0.3,1.2-0.5,1.9-0.4c0.6,0,1.3,0.1,1.8,0.4c0.5,0.3,1,0.7,1.3,1.2c0.3,0.6,0.5,1.2,0.5,1.9
	C887.9,84.1,887.9,84.4,887.8,84.7z M886,83.4c0-0.4-0.2-0.8-0.5-1.1c-0.3-0.3-0.8-0.4-1.2-0.4c-0.4,0-0.8,0.1-1.1,0.4
	c-0.3,0.3-0.5,0.7-0.6,1.1H886z"/>
<path d="M891,82v3.5c0,0.2,0,0.4,0.2,0.5c0.2,0.1,0.4,0.2,0.6,0.2h0.8v1.5h-1.1c-1.1,0.2-2.1-0.6-2.3-1.7c0-0.2,0-0.4,0-0.6V82h-0.9
	v-1.5h0.9v-1.8h1.8v1.8h1.6V82H891z"/>
<path d="M893.7,79.3c-0.4-0.4-0.4-1.1,0-1.5c0,0,0,0,0,0c0.4-0.4,1.1-0.4,1.6,0c0.4,0.4,0.4,1.1,0,1.5c0,0,0,0,0,0
	C894.8,79.8,894.1,79.8,893.7,79.3z M895.3,80.5v7.2h-1.8v-7.2H895.3z"/>
<path d="M902.8,81.2c0.6,0.6,0.8,1.4,0.8,2.3v4.2h-1.8v-4c0-0.5-0.1-0.9-0.4-1.3c-0.3-0.3-0.7-0.5-1.2-0.5c-0.4,0-0.9,0.1-1.2,0.5
	c-0.3,0.4-0.5,0.8-0.4,1.3v4h-1.8v-7.2h1.8v0.9c0.2-0.3,0.6-0.6,0.9-0.7c0.4-0.2,0.8-0.3,1.2-0.3C901.5,80.4,902.3,80.7,902.8,81.2z
	"/>
<path d="M909.2,80.7c0.4,0.2,0.7,0.5,1,0.8v-1h1.8v7.3c0,0.6-0.1,1.2-0.4,1.8c-0.3,0.5-0.7,1-1.2,1.2c-0.6,0.3-1.3,0.5-2,0.5
	c-0.9,0-1.8-0.2-2.5-0.7c-0.7-0.5-1.1-1.2-1.1-2h1.8c0.1,0.3,0.3,0.6,0.6,0.8c0.3,0.2,0.7,0.3,1.2,0.3c0.5,0,0.9-0.2,1.3-0.5
	c0.4-0.4,0.5-0.9,0.5-1.4v-1.1c-0.3,0.4-0.6,0.6-1,0.8c-0.4,0.2-0.9,0.4-1.4,0.3c-0.6,0-1.2-0.2-1.7-0.5c-0.5-0.3-0.9-0.8-1.1-1.3
	c-0.3-0.6-0.5-1.3-0.4-2c0-0.7,0.1-1.3,0.4-1.9c0.5-1.1,1.6-1.8,2.8-1.8C908.3,80.3,908.8,80.5,909.2,80.7z M909.9,83
	c-0.2-0.3-0.4-0.6-0.7-0.7c-0.3-0.2-0.6-0.3-1-0.2c-0.3,0-0.7,0.1-0.9,0.2c-0.3,0.2-0.5,0.4-0.7,0.7c-0.2,0.3-0.3,0.7-0.3,1.1
	c0,0.4,0.1,0.8,0.3,1.1c0.2,0.3,0.4,0.6,0.7,0.7c0.3,0.2,0.6,0.3,0.9,0.3c0.4,0,0.7-0.1,1-0.2c0.3-0.2,0.5-0.4,0.7-0.7
	C910.3,84.5,910.3,83.7,909.9,83z"/>
<path d="M917.6,87.5c-0.5-0.2-0.9-0.5-1.2-0.9c-0.3-0.4-0.5-0.9-0.5-1.4h2c0,0.3,0.1,0.7,0.4,0.9c0.3,0.2,0.6,0.3,1,0.3
	c0.4,0,0.7-0.1,1-0.3c0.2-0.2,0.4-0.5,0.4-0.8c0-0.2-0.1-0.5-0.2-0.7c-0.2-0.2-0.4-0.3-0.6-0.4c-0.3-0.1-0.7-0.2-1-0.3
	c-0.5-0.1-1-0.3-1.4-0.5c-0.4-0.2-0.7-0.4-1-0.8c-0.3-0.4-0.4-0.9-0.4-1.4c0-0.5,0.1-1,0.4-1.4c0.3-0.4,0.7-0.7,1.1-0.9
	c0.5-0.2,1.1-0.3,1.7-0.3c0.8,0,1.6,0.2,2.3,0.7c0.6,0.5,1,1.2,1,1.9h-2c0-0.3-0.2-0.6-0.4-0.8c-0.3-0.2-0.6-0.3-1-0.3
	c-0.3,0-0.6,0.1-0.8,0.3c-0.2,0.2-0.3,0.5-0.3,0.8c0,0.2,0.1,0.4,0.2,0.6c0.2,0.2,0.4,0.3,0.6,0.4c0.3,0.1,0.7,0.2,1,0.3
	c0.5,0.1,1,0.3,1.4,0.5c0.4,0.2,0.7,0.5,1,0.8c0.3,0.4,0.4,0.9,0.4,1.4c0,0.5-0.1,0.9-0.4,1.3c-0.3,0.4-0.7,0.8-1.1,1
	c-0.5,0.3-1.1,0.4-1.7,0.4C918.7,87.8,918.2,87.7,917.6,87.5z"/>
<path d="M925.8,82v3.5c0,0.2,0,0.4,0.2,0.5c0.2,0.1,0.4,0.2,0.6,0.2h0.8v1.5h-1.1c-1.1,0.2-2.1-0.6-2.3-1.7c0-0.2,0-0.4,0-0.6V82
	h-0.9v-1.5h0.9v-1.8h1.8v1.8h1.6V82H925.8z"/>
<path d="M931.2,80.7c0.4-0.2,0.8-0.3,1.3-0.3v1.9H932c-0.8-0.1-1.6,0.4-1.7,1.3c0,0.2,0,0.4,0,0.6v3.6h-1.8v-7.2h1.8v1.1
	C930.5,81.3,930.8,80.9,931.2,80.7z"/>
<path d="M933.3,82.1c0.5-1.1,1.6-1.8,2.8-1.8c0.5,0,1,0.1,1.4,0.3c0.4,0.2,0.7,0.5,1,0.8v-1h1.8v7.2h-1.9v-1.1
	c-0.3,0.4-0.6,0.6-1,0.8c-0.4,0.2-0.9,0.3-1.4,0.3c-0.6,0-1.2-0.2-1.7-0.5c-0.5-0.3-0.9-0.8-1.2-1.3c-0.3-0.6-0.5-1.3-0.4-2
	C932.8,83.4,933,82.7,933.3,82.1z M938.3,83c-0.2-0.3-0.4-0.6-0.7-0.7c-0.3-0.2-0.6-0.3-1-0.2c-0.3,0-0.7,0.1-0.9,0.2
	c-0.3,0.2-0.5,0.5-0.7,0.8c-0.2,0.3-0.3,0.7-0.3,1.1c0,0.4,0.1,0.8,0.3,1.1c0.2,0.3,0.4,0.6,0.7,0.7c0.3,0.2,0.6,0.3,0.9,0.3
	c0.3,0,0.7-0.1,1-0.2c0.3-0.2,0.5-0.4,0.7-0.7C938.6,84.6,938.6,83.7,938.3,83L938.3,83z"/>
<path d="M943.9,82v3.5c0,0.2,0,0.4,0.2,0.5c0.2,0.1,0.4,0.2,0.6,0.2h0.8v1.5h-1.1c-1.1,0.2-2.1-0.6-2.3-1.7c0-0.2,0-0.4,0-0.6V82
	h-0.9v-1.5h0.8v-1.8h1.8v1.8h1.6V82H943.9z"/>
<path d="M953.1,84.7h-5.3c0,0.5,0.2,0.9,0.5,1.2c0.3,0.3,0.7,0.5,1.2,0.4c0.6,0,1.2-0.3,1.4-0.9h2c-0.2,0.7-0.6,1.3-1.2,1.7
	c-0.6,0.5-1.4,0.7-2.2,0.7c-0.7,0-1.3-0.1-1.9-0.5c-0.5-0.3-1-0.8-1.3-1.3c-0.3-0.6-0.5-1.3-0.5-2c0-0.7,0.1-1.4,0.5-2
	c0.3-0.5,0.7-1,1.3-1.3c0.6-0.3,1.2-0.5,1.9-0.4c0.6,0,1.3,0.1,1.8,0.4c0.5,0.3,1,0.7,1.3,1.2c0.3,0.6,0.5,1.2,0.5,1.9
	C953.2,84.1,953.1,84.4,953.1,84.7z M951.2,83.4c0-0.4-0.2-0.8-0.5-1.1c-0.3-0.3-0.8-0.4-1.2-0.4c-0.4,0-0.8,0.1-1.1,0.4
	c-0.3,0.3-0.5,0.7-0.6,1.1H951.2z"/>
<path d="M958.3,80.7c0.4,0.2,0.7,0.5,1,0.8v-1h1.8v7.3c0,0.6-0.1,1.2-0.4,1.8c-0.3,0.5-0.7,1-1.2,1.2c-0.6,0.3-1.3,0.5-2,0.5
	c-0.9,0-1.8-0.2-2.5-0.7c-0.6-0.5-1.1-1.2-1.1-2h1.8c0.1,0.3,0.3,0.6,0.6,0.8c0.3,0.2,0.7,0.3,1.2,0.3c0.5,0,0.9-0.2,1.3-0.5
	c0.4-0.4,0.5-0.9,0.5-1.4v-1.1c-0.3,0.4-0.6,0.6-1,0.8c-0.4,0.2-0.9,0.4-1.4,0.3c-0.6,0-1.2-0.2-1.7-0.5c-0.5-0.3-0.9-0.8-1.1-1.3
	c-0.3-0.6-0.5-1.3-0.4-2c0-0.7,0.1-1.3,0.4-1.9c0.5-1.1,1.6-1.8,2.8-1.8C957.4,80.3,957.9,80.5,958.3,80.7z M959,83
	c-0.5-0.9-1.7-1.3-2.6-0.7c0,0,0,0,0,0c-0.3,0.2-0.5,0.4-0.7,0.7c-0.2,0.3-0.3,0.7-0.3,1.1c0,0.4,0.1,0.8,0.3,1.1
	c0.2,0.3,0.4,0.6,0.7,0.7c0.3,0.2,0.6,0.3,0.9,0.3c0.7,0,1.3-0.4,1.7-1C959.3,84.5,959.3,83.7,959,83z"/>
<path d="M962.7,79.3c-0.4-0.4-0.4-1.1,0-1.5c0,0,0,0,0,0c0.5-0.4,1.1-0.4,1.6,0c0.4,0.4,0.4,1.1,0,1.5c0,0,0,0,0,0
	C963.8,79.8,963.1,79.8,962.7,79.3z M964.4,80.5v7.2h-1.8v-7.2H964.4z"/>
<path d="M972.4,84.7h-5.3c0,0.5,0.2,0.9,0.5,1.2c0.3,0.3,0.8,0.5,1.2,0.4c0.6,0,1.2-0.3,1.4-0.9h2c-0.2,0.7-0.6,1.3-1.2,1.7
	c-0.6,0.5-1.4,0.7-2.2,0.7c-0.6,0-1.3-0.1-1.9-0.5c-0.5-0.3-1-0.8-1.3-1.3c-0.6-1.2-0.6-2.7,0-3.9c0.3-0.5,0.7-1,1.3-1.3
	c0.6-0.3,1.2-0.5,1.9-0.4c0.6,0,1.3,0.1,1.8,0.4c0.5,0.3,0.9,0.7,1.2,1.2c0.3,0.6,0.5,1.2,0.5,1.9C972.5,84.2,972.5,84.4,972.4,84.7
	z M970.6,83.4c0-0.4-0.2-0.8-0.5-1.1c-0.3-0.3-0.8-0.4-1.2-0.4c-0.4,0-0.8,0.1-1.1,0.4c-0.3,0.3-0.5,0.7-0.6,1.1H970.6z"/>
<path d="M974.6,87.5c-0.4-0.2-0.8-0.5-1.1-0.9c-0.3-0.4-0.4-0.8-0.5-1.2h1.8c0,0.3,0.2,0.5,0.4,0.7c0.3,0.2,0.6,0.3,0.9,0.3
	c0.3,0,0.6-0.1,0.8-0.2c0.2-0.1,0.3-0.3,0.3-0.5c0-0.2-0.1-0.4-0.3-0.5c-0.4-0.2-0.7-0.3-1.1-0.4c-0.4-0.1-0.9-0.2-1.3-0.4
	c-0.3-0.1-0.6-0.4-0.9-0.6c-0.3-0.3-0.4-0.7-0.4-1.2c0-0.4,0.1-0.8,0.3-1.1c0.3-0.3,0.6-0.6,1-0.8c0.5-0.2,1-0.3,1.5-0.3
	c0.7,0,1.4,0.2,2,0.6c0.5,0.4,0.8,1.1,0.8,1.7h-1.7c0-0.3-0.2-0.5-0.4-0.7c-0.2-0.2-0.5-0.3-0.8-0.2c-0.3,0-0.5,0-0.8,0.2
	c-0.2,0.1-0.3,0.3-0.3,0.5c0,0.2,0.1,0.5,0.4,0.6c0.4,0.2,0.7,0.3,1.1,0.4c0.4,0.1,0.9,0.2,1.3,0.4c0.3,0.1,0.6,0.4,0.9,0.6
	c0.3,0.3,0.4,0.7,0.4,1.2c0,0.4-0.1,0.8-0.3,1.1c-0.3,0.3-0.6,0.6-1,0.8C976.7,87.9,975.6,87.9,974.6,87.5L974.6,87.5z"/>
<path d="M650.9,107c-0.3-0.3-0.5-0.7-0.5-1.1c0-0.4,0.2-0.8,0.5-1.1c0.3-0.3,0.7-0.5,1.1-0.5c0.9,0,1.6,0.7,1.6,1.6c0,0,0,0,0,0
	c0,0.4-0.2,0.8-0.5,1.1c-0.3,0.3-0.7,0.5-1.1,0.5C651.6,107.5,651.2,107.3,650.9,107z"/>
<path d="M656.5,101.1v9.1h-1.2v-9.1H656.5z"/>
<path d="M659.6,104.1v4.2c0,0.3,0.1,0.5,0.2,0.7c0.2,0.2,0.5,0.2,0.8,0.2h0.9v1h-1.1c-0.5,0-1.1-0.1-1.5-0.5
	c-0.4-0.4-0.5-0.9-0.5-1.5v-4.2h-0.9v-1h0.9v-1.8h1.2v1.8h1.9v1L659.6,104.1z"/>
<path d="M669,107.1h-5.7c0,0.6,0.3,1.2,0.7,1.6c0.4,0.4,1,0.6,1.6,0.6c0.5,0,0.9-0.1,1.3-0.4c0.3-0.2,0.6-0.6,0.7-0.9h1.3
	c-0.2,0.7-0.6,1.3-1.1,1.7c-0.6,0.4-1.4,0.7-2.1,0.6c-0.6,0-1.3-0.1-1.8-0.4c-0.5-0.3-1-0.8-1.2-1.3c-0.6-1.2-0.6-2.7,0-3.9
	c0.3-0.5,0.7-1,1.2-1.3c0.6-0.3,1.2-0.5,1.8-0.4c0.6,0,1.2,0.1,1.8,0.4c0.5,0.3,0.9,0.7,1.2,1.2c0.3,0.5,0.4,1.1,0.4,1.8
	C669.1,106.6,669,106.8,669,107.1z M667.5,105c-0.2-0.3-0.5-0.6-0.8-0.7c-0.4-0.2-0.7-0.3-1.1-0.2c-0.6,0-1.1,0.2-1.5,0.6
	c-0.4,0.4-0.7,1-0.7,1.6h4.5C667.9,105.8,667.7,105.4,667.5,105z"/>
<path d="M672.3,103.3c0.4-0.2,0.9-0.4,1.4-0.3v1.2h-0.3c-1.3,0-2,0.7-2,2.2v3.9h-1.2v-7.1h1.2v1.2
	C671.6,103.8,671.9,103.5,672.3,103.3z"/>
<path d="M674.8,104.7c0.3-0.5,0.7-1,1.2-1.3c0.5-0.3,1.1-0.5,1.7-0.4c0.6,0,1.1,0.1,1.6,0.4c0.4,0.2,0.8,0.6,1,1v-1.3h1.2v7.1h-1.2
	v-1.3c-0.3,0.4-0.6,0.8-1,1c-0.5,0.3-1.1,0.4-1.6,0.4c-1.2,0-2.4-0.7-2.9-1.8c-0.3-0.6-0.5-1.3-0.5-1.9
	C674.3,105.9,674.4,105.3,674.8,104.7z M680,105.2c-0.2-0.4-0.5-0.7-0.9-0.9c-0.4-0.2-0.8-0.3-1.2-0.3c-0.4,0-0.8,0.1-1.2,0.3
	c-0.4,0.2-0.7,0.5-0.9,0.9c-0.2,0.4-0.3,0.9-0.3,1.4c0,0.5,0.1,1,0.3,1.4c0.6,1.2,2,1.6,3.2,1c0.4-0.2,0.8-0.6,1-1
	c0.2-0.4,0.3-0.9,0.3-1.4C680.3,106.1,680.2,105.7,680,105.2L680,105.2z"/>
<path d="M684.6,104.1v4.2c0,0.3,0.1,0.5,0.2,0.7c0.2,0.2,0.5,0.2,0.8,0.2h0.9v1h-1.1c-0.5,0-1.1-0.1-1.5-0.5
	c-0.4-0.4-0.5-0.9-0.5-1.5v-4.2h-0.9v-1h0.9v-1.8h1.2v1.8h1.9v1L684.6,104.1z"/>
<path d="M687.6,101.7c-0.2-0.1-0.2-0.4-0.2-0.6c0-0.4,0.4-0.8,0.8-0.8c0.2,0,0.4,0.1,0.5,0.2c0.2,0.2,0.2,0.4,0.2,0.6
	c0,0.2-0.1,0.4-0.2,0.6c-0.1,0.2-0.3,0.2-0.5,0.2C687.9,101.9,687.7,101.8,687.6,101.7z M688.7,103.1v7.1h-1.2v-7.1H688.7z"/>
<path d="M691.7,109.9c-0.5-0.3-1-0.8-1.3-1.3c-0.6-1.2-0.6-2.7,0-3.9c0.3-0.5,0.8-1,1.3-1.3c1.1-0.6,2.5-0.6,3.7,0
	c0.5,0.3,1,0.7,1.3,1.3c0.3,0.6,0.5,1.3,0.5,1.9c0,0.7-0.2,1.4-0.5,1.9c-0.3,0.5-0.8,1-1.3,1.3c-0.6,0.3-1.2,0.5-1.8,0.4
	C692.8,110.3,692.2,110.2,691.7,109.9z M694.7,109c0.4-0.2,0.7-0.5,0.9-0.9c0.2-0.4,0.4-1,0.3-1.5c0-0.5-0.1-1-0.3-1.4
	c-0.2-0.4-0.5-0.7-0.9-0.9c-0.7-0.4-1.6-0.4-2.4,0c-0.4,0.2-0.7,0.5-0.9,0.9c-0.2,0.4-0.3,0.9-0.3,1.4c0,0.5,0.1,1,0.3,1.5
	c0.2,0.4,0.5,0.7,0.8,0.9c0.4,0.2,0.8,0.3,1.2,0.3C693.9,109.3,694.3,109.2,694.7,109L694.7,109z"/>
<path d="M703.9,103.7c0.6,0.6,0.9,1.4,0.8,2.3v4.2h-1.2v-4c0-0.6-0.2-1.2-0.5-1.6c-0.4-0.4-0.9-0.6-1.5-0.6c-0.6,0-1.1,0.2-1.5,0.6
	c-0.4,0.5-0.6,1.1-0.5,1.7v3.9h-1.2v-7.1h1.2v1c0.2-0.4,0.6-0.7,1-0.8c0.4-0.2,0.9-0.3,1.3-0.3C702.6,102.9,703.3,103.2,703.9,103.7
	z"/>
<path d="M710.7,109.9c-0.5-0.3-1-0.8-1.3-1.3c-0.6-1.2-0.6-2.7,0-3.9c0.3-0.5,0.8-1,1.3-1.3c1.1-0.6,2.5-0.6,3.7,0
	c0.5,0.3,1,0.7,1.3,1.3c0.3,0.6,0.5,1.3,0.5,1.9c0,0.7-0.2,1.4-0.5,1.9c-0.3,0.5-0.8,1-1.3,1.3c-0.6,0.3-1.2,0.5-1.8,0.4
	C711.9,110.3,711.2,110.2,710.7,109.9z M713.7,109c0.4-0.2,0.7-0.5,0.9-0.9c0.2-0.4,0.4-1,0.3-1.5c0-0.5-0.1-1-0.3-1.4
	c-0.2-0.4-0.5-0.7-0.9-0.9c-0.7-0.4-1.6-0.4-2.4,0c-0.4,0.2-0.7,0.5-0.9,0.9c-0.2,0.4-0.3,0.9-0.3,1.4c0,0.5,0.1,1,0.3,1.5
	c0.2,0.4,0.5,0.7,0.8,0.9c0.4,0.2,0.8,0.3,1.2,0.3C712.9,109.3,713.3,109.2,713.7,109L713.7,109z"/>
<path d="M722.9,103.7c0.6,0.6,0.9,1.4,0.8,2.3v4.2h-1.2v-4c0-0.6-0.2-1.2-0.5-1.6c-0.4-0.4-0.9-0.6-1.5-0.6c-0.6,0-1.1,0.2-1.5,0.6
	c-0.4,0.5-0.6,1.1-0.5,1.7v3.9h-1.2v-7.1h1.2v1c0.2-0.4,0.6-0.7,1-0.8c0.4-0.2,0.9-0.3,1.3-0.3C721.6,102.9,722.4,103.2,722.9,103.7
	z"/>
<path d="M733.9,108.5h-3.6l-0.6,1.7h-1.9l3.3-9.1h2.1l3.3,9.1h-1.9L733.9,108.5z M733.4,107l-1.3-3.8l-1.3,3.8H733.4z"/>
<path d="M743.5,105.3c-0.3,0.4-0.6,0.8-1.1,1c-0.6,0.3-1.2,0.4-1.8,0.4h-1.5v3.5h-1.8v-9.1h3.3c0.6,0,1.2,0.1,1.8,0.4
	c0.5,0.2,0.9,0.6,1.1,1C744,103.4,744,104.4,743.5,105.3L743.5,105.3z M741.6,104.9c0.3-0.3,0.4-0.6,0.4-1c0-0.9-0.5-1.3-1.5-1.3
	h-1.4v2.6h1.4C740.9,105.3,741.3,105.2,741.6,104.9z"/>
<path d="M751.1,105.3c-0.3,0.4-0.6,0.8-1.1,1c-0.6,0.3-1.2,0.4-1.8,0.4h-1.5v3.5h-1.8v-9.1h3.3c0.6,0,1.2,0.1,1.8,0.4
	c0.5,0.2,0.9,0.6,1.1,1c0.3,0.4,0.4,0.9,0.4,1.4C751.4,104.4,751.3,104.9,751.1,105.3z M749.2,104.9c0.3-0.3,0.4-0.6,0.4-1
	c0-0.9-0.5-1.3-1.5-1.3h-1.4v2.6h1.4C748.4,105.3,748.8,105.2,749.2,104.9z"/>
<path d="M758.4,104.1h-1.5v6.2h-1.2v-6.2h-0.9v-1h0.9v-0.5c-0.1-0.6,0.2-1.3,0.6-1.7c0.6-0.4,1.3-0.6,2-0.6v1
	c-0.4,0-0.8,0.1-1.1,0.3c-0.2,0.3-0.4,0.6-0.3,1v0.5h1.5L758.4,104.1z"/>
<path d="M760.8,109.9c-0.5-0.3-1-0.8-1.3-1.3c-0.3-0.6-0.5-1.3-0.5-1.9c0-0.7,0.2-1.3,0.5-1.9c0.3-0.5,0.7-1,1.3-1.3
	c0.6-0.3,1.2-0.5,1.8-0.4c0.6,0,1.3,0.1,1.8,0.4c0.5,0.3,1,0.7,1.3,1.3c0.3,0.6,0.5,1.3,0.5,1.9c0,0.7-0.1,1.3-0.5,1.9
	c-0.3,0.5-0.8,1-1.3,1.3c-0.6,0.3-1.2,0.5-1.8,0.4C761.9,110.3,761.3,110.2,760.8,109.9z M763.8,109c0.4-0.2,0.7-0.5,0.9-0.9
	c0.2-0.4,0.4-1,0.3-1.5c0-0.5-0.1-1-0.3-1.4c-0.2-0.4-0.5-0.7-0.9-0.9c-0.7-0.4-1.6-0.4-2.4,0c-0.4,0.2-0.7,0.5-0.9,0.9
	c-0.2,0.4-0.3,0.9-0.3,1.4c0,0.5,0.1,1,0.3,1.5c0.2,0.4,0.5,0.7,0.8,0.9c0.4,0.2,0.8,0.3,1.2,0.3C763,109.3,763.4,109.2,763.8,109
	L763.8,109z"/>
<path d="M769.5,103.3c0.4-0.2,0.9-0.4,1.4-0.3v1.2h-0.3c-1.3,0-2,0.7-2,2.2v3.9h-1.2v-7.1h1.2v1.2
	C768.8,103.8,769.1,103.5,769.5,103.3z"/>
<path d="M781.2,105.3c-0.3,0.4-0.6,0.8-1.1,1c-0.6,0.3-1.2,0.4-1.8,0.4h-1.5v3.5h-1.8v-9.1h3.3c0.6,0,1.2,0.1,1.8,0.4
	c0.5,0.2,0.9,0.6,1.1,1c0.3,0.4,0.4,0.9,0.4,1.4C781.5,104.4,781.4,104.9,781.2,105.3z M779.3,104.9c0.3-0.3,0.4-0.6,0.4-1
	c0-0.9-0.5-1.3-1.5-1.3h-1.4v2.6h1.4C778.6,105.3,779,105.2,779.3,104.9L779.3,104.9z"/>
<path d="M785.2,103.2c0.4-0.2,0.8-0.3,1.3-0.3v1.9H786c-0.8-0.1-1.6,0.4-1.7,1.2c0,0.2,0,0.4,0,0.6v3.6h-1.8V103h1.8v1.1
	C784.5,103.8,784.8,103.4,785.2,103.2z"/>
<path d="M787.5,101.8c-0.4-0.4-0.4-1.1,0-1.5c0,0,0,0,0,0c0.2-0.2,0.5-0.3,0.8-0.3c0.3,0,0.6,0.1,0.8,0.3c0.4,0.4,0.4,1.1,0,1.5
	c-0.2,0.2-0.5,0.3-0.8,0.3C788,102.2,787.7,102,787.5,101.8z M789.1,103v7.2h-1.8V103H789.1z"/>
<path d="M793.6,108.5l1.8-5.5h1.9l-2.7,7.2h-2.2l-2.7-7.2h2L793.6,108.5z"/>
<path d="M798,104.6c0.5-1.1,1.6-1.8,2.9-1.8c0.9,0,1.8,0.4,2.3,1.1v-1h1.8v7.2h-1.8v-1.1c-0.3,0.4-0.6,0.6-1,0.8
	c-1,0.5-2.1,0.4-3.1-0.1c-0.5-0.3-0.9-0.8-1.2-1.3c-0.3-0.6-0.5-1.3-0.4-2C797.5,105.9,797.7,105.2,798,104.6z M803,105.5
	c-0.5-0.9-1.7-1.3-2.6-0.7c0,0,0,0,0,0c-0.3,0.2-0.5,0.4-0.7,0.7c-0.2,0.3-0.3,0.7-0.3,1.1c0,0.4,0.1,0.8,0.3,1.1
	c0.2,0.3,0.4,0.6,0.7,0.7c0.3,0.2,0.6,0.3,0.9,0.3c0.7,0,1.3-0.4,1.7-1C803.3,107,803.3,106.2,803,105.5L803,105.5z"/>
<path d="M806.4,104.7c0.3-0.5,0.7-1,1.3-1.3c0.6-0.3,1.2-0.5,1.8-0.5c0.8,0,1.6,0.2,2.2,0.7c0.6,0.5,1,1.1,1.2,1.9h-2
	c-0.1-0.3-0.3-0.5-0.5-0.7c-0.3-0.2-0.6-0.3-0.9-0.3c-0.5,0-0.9,0.2-1.2,0.6c-0.6,1-0.6,2.2,0,3.2c0.3,0.4,0.8,0.6,1.2,0.6
	c0.7,0.1,1.3-0.4,1.4-1h2c-0.2,0.7-0.6,1.4-1.2,1.9c-0.6,0.5-1.4,0.7-2.2,0.7c-0.6,0-1.3-0.1-1.8-0.5c-0.5-0.3-1-0.8-1.3-1.3
	C805.8,107.3,805.8,105.9,806.4,104.7L806.4,104.7z"/>
<path d="M820.8,103l-4.5,10.6h-1.9l1.6-3.6l-2.9-7h2l1.9,5l1.9-5H820.8z"/>
<path d="M826.9,103.2c0.4-0.2,0.9-0.3,1.4-0.3c1.2,0,2.3,0.7,2.8,1.8c0.3,0.6,0.5,1.3,0.4,1.9c0,0.7-0.1,1.4-0.4,2
	c-0.3,0.5-0.7,1-1.2,1.3c-0.5,0.3-1.1,0.5-1.7,0.5c-0.5,0-1-0.1-1.4-0.3c-0.4-0.2-0.7-0.5-1-0.8v4.5h-1.8V103h1.9v1
	C826.2,103.7,826.6,103.4,826.9,103.2z M829.5,105.5c-0.2-0.3-0.4-0.5-0.7-0.7c-0.3-0.2-0.6-0.2-0.9-0.2c-0.3,0-0.6,0.1-0.9,0.2
	c-0.3,0.2-0.5,0.4-0.7,0.7c-0.4,0.7-0.4,1.6,0,2.3c0.2,0.3,0.4,0.6,0.7,0.7c0.3,0.2,0.6,0.3,0.9,0.2c0.3,0,0.7-0.1,0.9-0.3
	c0.3-0.2,0.5-0.4,0.7-0.7C829.9,107,829.9,106.2,829.5,105.5z"/>
<path d="M835.3,103.2c0.4-0.2,0.8-0.3,1.3-0.3v1.9h-0.5c-0.5,0-0.9,0.1-1.3,0.4c-0.3,0.4-0.5,0.9-0.4,1.4v3.6h-1.8V103h1.8v1.1
	C834.6,103.7,835,103.4,835.3,103.2z"/>
<path d="M838.8,109.9c-0.5-0.3-1-0.8-1.3-1.3c-0.3-0.6-0.5-1.3-0.5-2c0-0.7,0.2-1.4,0.5-1.9c0.3-0.5,0.8-1,1.3-1.3
	c1.2-0.6,2.6-0.6,3.8,0c0.6,0.3,1,0.7,1.3,1.3c0.3,0.6,0.5,1.3,0.5,1.9c0,0.7-0.1,1.4-0.5,2c-0.3,0.5-0.8,1-1.3,1.3
	c-0.6,0.3-1.2,0.5-1.9,0.5C840,110.3,839.4,110.2,838.8,109.9z M841.6,108.5c0.3-0.2,0.5-0.4,0.7-0.7c0.2-0.4,0.3-0.8,0.3-1.2
	c0-0.6-0.2-1.2-0.6-1.6c-0.3-0.4-0.8-0.6-1.3-0.6c-0.5,0-1,0.2-1.3,0.6c-0.4,0.4-0.6,1-0.5,1.6c0,0.6,0.1,1.1,0.5,1.6
	c0.3,0.4,0.8,0.6,1.3,0.6C841,108.7,841.3,108.7,841.6,108.5z"/>
<path d="M847.5,104.5v3.5c0,0.2,0,0.4,0.2,0.5c0.2,0.1,0.4,0.2,0.6,0.2h0.8v1.5H848c-1.1,0.2-2.1-0.6-2.3-1.7c0-0.2,0-0.4,0-0.6
	v-3.5h-0.8V103h0.8v-1.8h1.8v1.8h1.6v1.5H847.5z"/>
<path d="M856.7,107.2h-5.3c0,0.5,0.2,0.9,0.5,1.2c0.3,0.3,0.7,0.5,1.2,0.4c0.6,0,1.2-0.3,1.5-0.9h2c-0.2,0.7-0.6,1.3-1.2,1.7
	c-0.6,0.5-1.4,0.7-2.2,0.7c-0.6,0-1.3-0.1-1.9-0.5c-0.5-0.3-1-0.8-1.3-1.3c-0.3-0.6-0.5-1.3-0.5-2c0-0.7,0.1-1.4,0.5-2
	c0.3-0.5,0.7-1,1.3-1.3c0.6-0.3,1.2-0.5,1.9-0.4c0.6,0,1.3,0.1,1.8,0.4c0.5,0.3,1,0.7,1.3,1.2c0.3,0.6,0.5,1.2,0.5,1.9
	C856.8,106.6,856.8,106.9,856.7,107.2z M854.9,105.9c0-0.4-0.2-0.8-0.5-1.1c-0.3-0.3-0.8-0.4-1.2-0.4c-0.4,0-0.8,0.1-1.1,0.4
	c-0.3,0.3-0.5,0.7-0.6,1.1H854.9z"/>
<path d="M857.7,104.7c0.3-0.5,0.7-1,1.3-1.3c0.6-0.3,1.2-0.5,1.8-0.5c0.8,0,1.6,0.2,2.2,0.7c0.6,0.5,1,1.1,1.2,1.9h-2
	c-0.1-0.3-0.3-0.5-0.5-0.7c-0.3-0.2-0.6-0.3-0.9-0.3c-0.5,0-0.9,0.2-1.2,0.6c-0.6,1-0.6,2.2,0,3.2c0.3,0.4,0.8,0.6,1.2,0.6
	c0.7,0.1,1.3-0.4,1.5-1h2c-0.2,0.7-0.6,1.4-1.2,1.9c-0.6,0.5-1.4,0.7-2.2,0.7c-0.6,0-1.3-0.1-1.8-0.5c-0.5-0.3-1-0.8-1.3-1.3
	C857.1,107.3,857.1,105.9,857.7,104.7L857.7,104.7z"/>
<path d="M867.3,104.5v3.5c0,0.2,0,0.4,0.2,0.5c0.2,0.1,0.4,0.2,0.6,0.2h0.8v1.5h-1.2c-1.1,0.2-2.1-0.6-2.3-1.7c0-0.2,0-0.4,0-0.6
	v-3.5h-0.9V103h0.9v-1.8h1.8v1.8h1.6v1.5H867.3z"/>
<path d="M870,101.8c-0.4-0.4-0.4-1.1,0-1.5c0,0,0,0,0,0c0.5-0.4,1.1-0.4,1.6,0c0.4,0.4,0.4,1.1,0,1.5c0,0,0,0,0,0
	C871.1,102.3,870.5,102.3,870,101.8z M871.7,103v7.2h-1.8V103H871.7z"/>
<path d="M874.5,109.9c-0.5-0.3-1-0.8-1.3-1.3c-0.3-0.6-0.5-1.3-0.5-2c0-0.7,0.2-1.4,0.5-1.9c0.3-0.5,0.8-1,1.3-1.3
	c1.2-0.6,2.6-0.6,3.8,0c0.6,0.3,1,0.8,1.3,1.3c0.7,1.2,0.7,2.7,0,3.9c-0.3,0.5-0.8,1-1.3,1.3c-0.6,0.3-1.2,0.5-1.9,0.5
	C875.7,110.3,875,110.2,874.5,109.9z M877.3,108.5c0.3-0.2,0.5-0.4,0.7-0.7c0.2-0.4,0.3-0.8,0.3-1.2c0-0.6-0.2-1.1-0.5-1.6
	c-0.3-0.4-0.8-0.6-1.3-0.6c-0.5,0-1,0.2-1.3,0.6c-0.4,0.4-0.6,1-0.5,1.6c0,0.6,0.1,1.1,0.5,1.6c0.3,0.4,0.8,0.6,1.3,0.6
	C876.7,108.7,877,108.7,877.3,108.5z"/>
<path d="M887.1,103.7c0.6,0.6,0.8,1.4,0.8,2.3v4.2h-1.8v-4c0-0.5-0.1-1-0.4-1.3c-0.3-0.3-0.7-0.5-1.2-0.5c-0.4,0-0.9,0.1-1.2,0.5
	c-0.3,0.4-0.5,0.8-0.4,1.3v4h-1.8V103h1.8v0.9c0.2-0.3,0.6-0.6,0.9-0.7C884.9,102.7,886.2,102.9,887.1,103.7z"/>
<path d="M891.3,108.3l-1.5,3.7h-1.2l0.8-3.7L891.3,108.3z"/>
<path d="M901.2,105.3c-0.3,0.4-0.6,0.8-1.1,1c-0.6,0.3-1.2,0.4-1.8,0.4h-1.5v3.5H895v-9.1h3.3c0.6,0,1.2,0.1,1.8,0.4
	c0.5,0.2,0.8,0.6,1.1,1c0.3,0.4,0.4,0.9,0.4,1.4C901.6,104.4,901.5,104.9,901.2,105.3z M899.3,104.9c0.3-0.3,0.4-0.6,0.4-1
	c0-0.9-0.5-1.3-1.5-1.3h-1.5v2.6h1.5C898.6,105.3,899,105.2,899.3,104.9L899.3,104.9z"/>
<path d="M909.3,103v7.2h-1.8v-0.9c-0.2,0.3-0.6,0.6-0.9,0.7c-0.4,0.2-0.8,0.3-1.2,0.3c-0.5,0-1-0.1-1.5-0.4c-0.4-0.2-0.8-0.6-1-1
	c-0.3-0.5-0.4-1.1-0.4-1.7V103h1.8v4c0,0.5,0.1,1,0.4,1.3c0.3,0.3,0.7,0.5,1.2,0.5c0.4,0,0.9-0.1,1.2-0.5c0.3-0.4,0.5-0.8,0.4-1.3
	v-4H909.3z"/>
<path d="M913.5,103.2c0.4-0.2,0.8-0.3,1.3-0.3v1.9h-0.5c-0.8-0.1-1.6,0.4-1.7,1.3c0,0.2,0,0.4,0,0.6v3.6h-1.8V103h1.8v1.1
	C912.8,103.7,913.1,103.4,913.5,103.2z"/>
<path d="M915.6,104.7c0.3-0.5,0.7-1,1.3-1.3c0.6-0.3,1.2-0.5,1.8-0.5c0.8,0,1.6,0.2,2.2,0.7c0.6,0.5,1,1.1,1.2,1.9h-2
	c-0.1-0.3-0.3-0.5-0.5-0.7c-0.3-0.2-0.6-0.3-0.9-0.3c-0.5,0-0.9,0.2-1.2,0.6c-0.6,1-0.6,2.2,0,3.2c0.3,0.4,0.8,0.6,1.2,0.6
	c0.7,0.1,1.3-0.4,1.4-1h2c-0.2,0.7-0.6,1.4-1.2,1.9c-0.6,0.5-1.4,0.7-2.2,0.7c-0.6,0-1.3-0.1-1.8-0.5c-0.5-0.3-1-0.8-1.3-1.3
	C915,107.3,915,105.9,915.6,104.7L915.6,104.7z"/>
<path d="M928.6,103.3c0.4,0.2,0.8,0.6,1,1c0.2,0.5,0.4,1.1,0.3,1.7v4.2h-1.8v-4c0-0.5-0.1-0.9-0.4-1.3c-0.3-0.3-0.7-0.5-1.2-0.5
	c-0.4,0-0.9,0.1-1.2,0.5c-0.3,0.4-0.5,0.8-0.4,1.3v4h-1.8v-9.6h1.8v3.3c0.2-0.3,0.6-0.6,0.9-0.7c0.4-0.2,0.9-0.3,1.3-0.3
	C927.7,102.9,928.2,103,928.6,103.3z"/>
<path d="M931.3,104.6c0.5-1.1,1.6-1.8,2.8-1.8c0.5,0,1,0.1,1.4,0.3c0.4,0.2,0.7,0.5,1,0.8v-1h1.8v7.2h-1.8v-1.1
	c-0.3,0.4-0.6,0.6-1,0.8c-1,0.5-2.1,0.4-3.1-0.1c-0.5-0.3-0.9-0.8-1.2-1.3c-0.3-0.6-0.5-1.3-0.4-2
	C930.8,105.9,931,105.2,931.3,104.6z M936.3,105.5c-0.2-0.3-0.4-0.6-0.7-0.7c-0.3-0.2-0.6-0.3-1-0.2c-0.7,0-1.3,0.4-1.6,1
	c-0.2,0.3-0.3,0.7-0.3,1.1c0,0.4,0.1,0.8,0.3,1.1c0.2,0.3,0.4,0.6,0.7,0.7c0.3,0.2,0.6,0.3,0.9,0.3c0.3,0,0.7-0.1,1-0.2
	c0.3-0.2,0.5-0.4,0.7-0.7C936.6,107.1,936.6,106.2,936.3,105.5L936.3,105.5z"/>
<path d="M940.9,110c-0.4-0.2-0.8-0.5-1.1-0.9c-0.3-0.3-0.4-0.8-0.5-1.2h1.8c0,0.3,0.2,0.5,0.4,0.7c0.3,0.2,0.6,0.3,0.9,0.3
	c0.3,0,0.6-0.1,0.8-0.2c0.2-0.1,0.3-0.3,0.3-0.5c0-0.2-0.1-0.4-0.4-0.5c-0.4-0.2-0.7-0.3-1.1-0.4c-0.4-0.1-0.9-0.2-1.3-0.4
	c-0.3-0.1-0.6-0.4-0.9-0.6c-0.3-0.3-0.4-0.7-0.4-1.2c0-0.4,0.1-0.8,0.3-1.1c0.3-0.3,0.6-0.6,1-0.8c0.5-0.2,1-0.3,1.5-0.3
	c0.7,0,1.5,0.2,2.1,0.6c0.5,0.4,0.8,1.1,0.8,1.7h-1.7c0-0.3-0.1-0.5-0.4-0.7c-0.2-0.2-0.5-0.3-0.8-0.2c-0.3,0-0.5,0-0.8,0.2
	c-0.2,0.1-0.3,0.3-0.3,0.5c0,0.2,0.1,0.5,0.4,0.6c0.4,0.2,0.7,0.3,1.1,0.4c0.4,0.1,0.9,0.2,1.3,0.4c0.3,0.1,0.6,0.4,0.9,0.6
	c0.3,0.3,0.4,0.7,0.4,1.2c0,0.4-0.1,0.8-0.3,1.1c-0.3,0.3-0.6,0.6-1,0.8C943,110.4,941.9,110.4,940.9,110L940.9,110z"/>
<path d="M953.1,107.2h-5.3c0,0.5,0.2,0.9,0.5,1.2c0.3,0.3,0.8,0.5,1.2,0.4c0.6,0,1.2-0.3,1.4-0.9h2c-0.2,0.7-0.6,1.3-1.2,1.7
	c-0.6,0.5-1.4,0.7-2.2,0.7c-0.7,0-1.3-0.1-1.9-0.5c-0.5-0.3-1-0.8-1.3-1.3c-0.3-0.6-0.5-1.3-0.5-2c0-0.7,0.1-1.4,0.5-2
	c0.3-0.5,0.7-1,1.3-1.3c0.6-0.3,1.2-0.5,1.9-0.4c0.6,0,1.3,0.1,1.8,0.4c0.5,0.3,1,0.7,1.3,1.2c0.3,0.6,0.5,1.2,0.4,1.9
	C953.2,106.6,953.2,106.9,953.1,107.2z M951.3,105.9c0-0.4-0.2-0.8-0.5-1.1c-0.3-0.3-0.8-0.4-1.2-0.4c-0.4,0-0.8,0.1-1.1,0.4
	c-0.3,0.3-0.5,0.7-0.6,1.1H951.3z"/>
<path d="M958.2,109.9c-0.5-0.3-1-0.8-1.3-1.3c-0.3-0.6-0.5-1.3-0.5-2c0-0.7,0.2-1.4,0.5-1.9c0.3-0.5,0.8-1,1.3-1.3
	c1.2-0.6,2.6-0.6,3.8,0c0.6,0.3,1,0.8,1.3,1.3c0.7,1.2,0.7,2.7,0,3.9c-0.3,0.5-0.8,1-1.3,1.3c-0.6,0.3-1.2,0.5-1.9,0.5
	C959.4,110.3,958.8,110.2,958.2,109.9z M961,108.5c0.3-0.2,0.5-0.4,0.7-0.7c0.2-0.4,0.3-0.8,0.3-1.2c0-0.6-0.2-1.1-0.5-1.6
	c-0.3-0.4-0.8-0.6-1.3-0.6c-0.5,0-1,0.2-1.3,0.6c-0.4,0.4-0.6,1-0.5,1.6c0,0.6,0.1,1.1,0.5,1.6c0.3,0.4,0.8,0.6,1.3,0.6
	C960.4,108.7,960.7,108.7,961,108.5L961,108.5z"/>
<path d="M968.1,104.5h-1.3v5.7H965v-5.7h-0.8V103h0.8v-0.4c-0.1-0.7,0.2-1.5,0.8-2c0.7-0.5,1.5-0.7,2.3-0.6v1.5
	c-0.3,0-0.7,0-0.9,0.2c-0.2,0.2-0.3,0.5-0.3,0.8v0.3h1.3L968.1,104.5z"/>
<path d="M972.8,110c-0.4-0.2-0.8-0.5-1.1-0.9c-0.3-0.3-0.4-0.8-0.5-1.2h1.8c0,0.3,0.2,0.5,0.4,0.7c0.3,0.2,0.6,0.3,0.9,0.3
	c0.3,0,0.6-0.1,0.8-0.2c0.2-0.1,0.3-0.3,0.3-0.5c0-0.2-0.1-0.4-0.3-0.5c-0.4-0.2-0.7-0.3-1.1-0.4c-0.4-0.1-0.9-0.2-1.3-0.4
	c-0.3-0.1-0.6-0.4-0.9-0.6c-0.3-0.3-0.4-0.7-0.4-1.2c0-0.4,0.1-0.8,0.3-1.1c0.3-0.3,0.6-0.6,1-0.8c0.5-0.2,1-0.3,1.5-0.3
	c0.7,0,1.5,0.2,2.1,0.6c0.5,0.4,0.8,1.1,0.8,1.7h-1.7c0-0.3-0.2-0.5-0.4-0.7c-0.2-0.2-0.5-0.3-0.8-0.2c-0.3,0-0.5,0-0.8,0.2
	c-0.2,0.1-0.3,0.3-0.3,0.5c0,0.2,0.1,0.5,0.4,0.6c0.4,0.2,0.7,0.3,1.1,0.4c0.4,0.1,0.9,0.2,1.3,0.4c0.3,0.1,0.6,0.4,0.9,0.6
	c0.3,0.3,0.4,0.7,0.4,1.2c0,0.4-0.1,0.8-0.3,1.1c-0.3,0.3-0.6,0.6-1,0.8C974.9,110.4,973.8,110.4,972.8,110L972.8,110z"/>
<path d="M983.9,103.3c0.4,0.2,0.8,0.6,1,1c0.3,0.5,0.4,1.1,0.4,1.7v4.2h-1.8v-4c0-0.5-0.1-1-0.4-1.3c-0.3-0.3-0.7-0.5-1.2-0.5
	c-0.4,0-0.9,0.1-1.2,0.5c-0.3,0.4-0.5,0.8-0.4,1.3v4h-1.8v-9.6h1.8v3.3c0.2-0.3,0.6-0.6,0.9-0.7c0.4-0.2,0.9-0.3,1.3-0.3
	C982.9,102.9,983.4,103,983.9,103.3z"/>
<path d="M986.6,104.6c0.5-1.1,1.6-1.8,2.9-1.8c0.9,0,1.8,0.4,2.4,1.1v-1h1.8v7.2h-1.8v-1.1c-0.3,0.4-0.6,0.6-1,0.8
	c-1,0.5-2.1,0.4-3.1-0.1c-0.5-0.3-0.9-0.8-1.2-1.3c-0.3-0.6-0.5-1.3-0.4-2C986.1,105.9,986.3,105.2,986.6,104.6z M991.6,105.5
	c-0.3-0.6-1-1-1.7-1c-0.3,0-0.7,0.1-0.9,0.2c-0.3,0.2-0.5,0.4-0.7,0.7c-0.2,0.3-0.3,0.7-0.3,1.1c0,0.4,0.1,0.8,0.3,1.1
	c0.2,0.3,0.4,0.6,0.7,0.7c0.3,0.2,0.6,0.3,0.9,0.3c0.7,0,1.3-0.4,1.7-1C991.9,107,991.9,106.1,991.6,105.5L991.6,105.5z"/>
<path d="M997.8,103.2c0.4-0.2,0.8-0.3,1.3-0.3v1.9h-0.5c-0.8-0.1-1.6,0.4-1.7,1.2c0,0.2,0,0.4,0,0.6v3.6h-1.8V103h1.8v1.1
	C997.1,103.7,997.4,103.4,997.8,103.2z"/>
<path d="M1006.6,107.2h-5.3c0,0.5,0.2,0.9,0.5,1.2c0.3,0.3,0.7,0.5,1.2,0.4c0.6,0,1.2-0.3,1.4-0.9h2c-0.2,0.7-0.6,1.3-1.2,1.7
	c-0.6,0.5-1.4,0.7-2.2,0.7c-0.6,0-1.3-0.1-1.9-0.5c-0.5-0.3-1-0.8-1.3-1.3c-0.3-0.6-0.5-1.3-0.5-2c0-0.7,0.1-1.4,0.5-2
	c0.3-0.5,0.7-1,1.3-1.3c0.6-0.3,1.2-0.5,1.9-0.4c0.6,0,1.3,0.1,1.8,0.4c0.5,0.3,1,0.7,1.3,1.2c0.3,0.6,0.5,1.2,0.5,1.9
	C1006.7,106.6,1006.6,106.9,1006.6,107.2z M1004.7,105.9c0-0.4-0.2-0.8-0.5-1.1c-0.3-0.3-0.8-0.4-1.2-0.4c-0.4,0-0.8,0.1-1.1,0.4
	c-0.3,0.3-0.5,0.7-0.6,1.1H1004.7z"/>
<path d="M1007.6,104.6c0.5-1.1,1.7-1.8,2.9-1.8c0.5,0,0.9,0.1,1.3,0.3c0.4,0.2,0.7,0.5,1,0.8v-3.4h1.8v9.6h-1.8v-1.1
	c-0.2,0.4-0.6,0.7-1,0.9c-0.4,0.2-0.9,0.3-1.4,0.3c-0.6,0-1.2-0.2-1.7-0.5c-0.5-0.3-0.9-0.8-1.2-1.3c-0.3-0.6-0.5-1.3-0.4-2
	C1007.1,105.9,1007.3,105.2,1007.6,104.6z M1012.6,105.5c-0.2-0.3-0.4-0.6-0.7-0.7c-0.3-0.2-0.6-0.3-1-0.2c-0.3,0-0.6,0.1-0.9,0.2
	c-0.3,0.2-0.5,0.4-0.7,0.7c-0.2,0.3-0.3,0.7-0.3,1.1c0,0.4,0.1,0.8,0.3,1.1c0.2,0.3,0.4,0.6,0.7,0.7c0.3,0.2,0.6,0.3,0.9,0.3
	c0.4,0,0.7-0.1,1-0.2c0.3-0.2,0.5-0.4,0.7-0.7C1012.9,107,1012.9,106.2,1012.6,105.5z"/>
<path d="M1020.9,104.5v3.5c0,0.2,0,0.4,0.2,0.5c0.2,0.1,0.4,0.2,0.6,0.2h0.8v1.5h-1.1c-1.1,0.2-2.1-0.6-2.3-1.7c0-0.2,0-0.4,0-0.6
	v-3.5h-0.9V103h0.9v-1.8h1.8v1.8h1.6v1.5H1020.9z"/>
<path d="M1023.6,101.8c-0.4-0.4-0.4-1.1,0-1.5c0.2-0.2,0.5-0.3,0.8-0.3c0.3,0,0.6,0.1,0.8,0.3c0.4,0.4,0.4,1.1,0,1.5c0,0,0,0,0,0
	c-0.2,0.2-0.5,0.3-0.8,0.3C1024.1,102.2,1023.8,102,1023.6,101.8z M1025.3,103v7.2h-1.8V103H1025.3z"/>
<path d="M1026.7,104.7c0.3-0.5,0.7-1,1.3-1.3c0.6-0.3,1.2-0.5,1.8-0.5c0.8,0,1.6,0.2,2.2,0.7c0.6,0.5,1,1.1,1.2,1.9h-2
	c-0.1-0.3-0.3-0.5-0.5-0.7c-0.3-0.2-0.6-0.3-0.9-0.3c-0.5,0-0.9,0.2-1.2,0.6c-0.6,1-0.6,2.2,0,3.2c0.3,0.4,0.8,0.6,1.2,0.6
	c0.7,0.1,1.3-0.4,1.4-1h2c-0.2,0.7-0.6,1.4-1.2,1.9c-0.6,0.5-1.4,0.7-2.2,0.7c-0.6,0-1.3-0.1-1.8-0.5c-0.5-0.3-1-0.8-1.3-1.3
	C1026.1,107.3,1026.1,105.9,1026.7,104.7L1026.7,104.7z"/>
<path d="M1038.4,110.2l-2.4-3.1v3.1h-1.8v-9.6h1.8v5.5l2.4-3.1h2.4l-3.2,3.6l3.2,3.6H1038.4z"/>
<path d="M1048,107.2h-5.3c0,0.5,0.2,0.9,0.5,1.2c0.3,0.3,0.8,0.5,1.2,0.4c0.6,0,1.2-0.3,1.4-0.9h2c-0.2,0.7-0.6,1.3-1.2,1.7
	c-0.6,0.5-1.4,0.7-2.2,0.7c-0.7,0-1.3-0.1-1.9-0.5c-0.5-0.3-1-0.8-1.3-1.3c-0.3-0.6-0.5-1.3-0.5-2c0-0.7,0.1-1.4,0.5-2
	c0.3-0.5,0.7-1,1.3-1.3c0.6-0.3,1.2-0.5,1.9-0.4c0.6,0,1.3,0.1,1.8,0.4c0.5,0.3,1,0.7,1.3,1.2c0.3,0.6,0.5,1.2,0.4,1.9
	C1048.1,106.6,1048.1,106.9,1048,107.2z M1046.2,105.9c0-0.4-0.2-0.8-0.5-1.1c-0.3-0.3-0.8-0.4-1.2-0.4c-0.4,0-0.8,0.1-1.1,0.4
	c-0.3,0.3-0.5,0.7-0.6,1.1H1046.2z"/>
<path d="M1051.2,104.5v3.5c0,0.2,0,0.4,0.2,0.5c0.2,0.1,0.4,0.2,0.6,0.2h0.8v1.5h-1.2c-1.1,0.2-2.1-0.6-2.3-1.7c0-0.2,0-0.4,0-0.6
	v-3.5h-0.8V103h0.8v-1.8h1.8v1.8h1.6v1.5H1051.2z"/>
<path d="M1054.9,110c-0.4-0.2-0.8-0.5-1.1-0.9c-0.3-0.3-0.4-0.8-0.4-1.2h1.8c0,0.3,0.2,0.5,0.4,0.7c0.3,0.2,0.6,0.3,0.9,0.3
	c0.3,0,0.6-0.1,0.8-0.2c0.2-0.1,0.3-0.3,0.3-0.5c0-0.2-0.1-0.4-0.4-0.5c-0.4-0.2-0.7-0.3-1.1-0.4c-0.4-0.1-0.9-0.2-1.3-0.4
	c-0.3-0.1-0.6-0.4-0.9-0.6c-0.3-0.3-0.4-0.7-0.4-1.2c0-0.4,0.1-0.8,0.3-1.1c0.3-0.3,0.6-0.6,1-0.8c0.5-0.2,1-0.3,1.5-0.3
	c0.7,0,1.5,0.2,2.1,0.6c0.5,0.4,0.8,1.1,0.8,1.7h-1.7c0-0.3-0.2-0.5-0.4-0.7c-0.2-0.2-0.5-0.3-0.8-0.2c-0.3,0-0.5,0-0.8,0.2
	c-0.2,0.1-0.3,0.3-0.3,0.5c0,0.2,0.1,0.5,0.4,0.6c0.4,0.2,0.7,0.3,1.1,0.4c0.4,0.1,0.9,0.2,1.3,0.4c0.3,0.1,0.6,0.4,0.9,0.6
	c0.3,0.3,0.4,0.7,0.4,1.2c0,0.4-0.1,0.8-0.3,1.1c-0.3,0.3-0.6,0.6-1,0.8c-0.5,0.2-1,0.3-1.5,0.3
	C1055.9,110.3,1055.4,110.2,1054.9,110z"/>
<path d="M650.4,127.2c0.3-0.5,0.7-1,1.2-1.3c0.5-0.3,1.1-0.5,1.7-0.4c0.6,0,1.1,0.1,1.6,0.4c0.4,0.2,0.8,0.6,1,1v-1.3h1.2v7.1H656
	v-1.3c-0.3,0.4-0.6,0.8-1,1c-0.5,0.3-1,0.4-1.6,0.4c-0.6,0-1.2-0.2-1.7-0.5c-0.5-0.3-0.9-0.8-1.2-1.3c-0.3-0.6-0.5-1.3-0.4-1.9
	C650,128.4,650.1,127.8,650.4,127.2z M655.6,127.7c-0.2-0.4-0.5-0.7-0.9-0.9c-0.4-0.2-0.8-0.3-1.2-0.3c-0.4,0-0.8,0.1-1.2,0.3
	c-0.4,0.2-0.7,0.5-0.9,0.9c-0.2,0.4-0.3,0.9-0.3,1.4c0,0.5,0.1,1,0.3,1.4c0.2,0.4,0.5,0.7,0.9,0.9c1.1,0.7,2.6,0.3,3.3-0.8
	c0,0,0-0.1,0-0.1c0.2-0.4,0.3-0.9,0.3-1.4C656,128.6,655.9,128.2,655.6,127.7z"/>
<path d="M664.4,126.2c0.6,0.6,0.9,1.4,0.8,2.3v4.2H664v-4c0-0.6-0.2-1.2-0.5-1.6c-0.4-0.4-0.9-0.6-1.5-0.6c-0.6,0-1.1,0.2-1.5,0.6
	c-0.4,0.5-0.6,1.1-0.5,1.7v3.9h-1.2v-7.1h1.2v1c0.2-0.4,0.6-0.7,1-0.8c0.4-0.2,0.9-0.3,1.3-0.3C663.1,125.4,663.8,125.7,664.4,126.2
	z"/>
<path d="M666.8,127.2c0.3-0.5,0.7-1,1.2-1.3c0.5-0.3,1.1-0.5,1.7-0.4c0.5,0,1.1,0.1,1.5,0.4c0.5,0.2,0.8,0.6,1.1,1v-3.8h1.2v9.6
	h-1.2v-1.3c-0.2,0.4-0.6,0.8-1,1c-0.5,0.3-1,0.4-1.6,0.4c-0.6,0-1.2-0.2-1.7-0.5c-0.5-0.3-0.9-0.8-1.2-1.3c-0.3-0.6-0.5-1.3-0.4-1.9
	C666.3,128.4,666.5,127.8,666.8,127.2z M672,127.7c-0.2-0.4-0.5-0.7-0.9-0.9c-0.4-0.2-0.8-0.3-1.2-0.3c-0.4,0-0.8,0.1-1.2,0.3
	c-0.4,0.2-0.7,0.5-0.9,0.9c-0.2,0.4-0.3,0.9-0.3,1.4c0,0.5,0.1,1,0.3,1.4c0.2,0.4,0.5,0.7,0.9,0.9c1.1,0.7,2.6,0.3,3.3-0.8
	c0,0,0-0.1,0-0.1c0.2-0.4,0.3-0.9,0.3-1.4C672.3,128.6,672.2,128.2,672,127.7L672,127.7z"/>
<path d="M679.7,126.6v4.2c0,0.3,0.1,0.5,0.2,0.7c0.2,0.2,0.5,0.2,0.8,0.2h0.9v1h-1.1c-0.5,0-1.1-0.1-1.5-0.5
	c-0.4-0.4-0.6-0.9-0.5-1.5v-4.2h-0.9v-1h0.9v-1.8h1.2v1.8h1.8v1L679.7,126.6z"/>
<path d="M687.6,125.8c0.4,0.2,0.8,0.6,1,1c0.3,0.5,0.4,1.1,0.4,1.7v4.2h-1.2v-4c0-0.6-0.1-1.2-0.5-1.6c-0.8-0.8-2.1-0.8-2.9,0
	c-0.4,0.5-0.6,1.1-0.6,1.7v3.9h-1.2v-9.6h1.2v3.5c0.2-0.4,0.6-0.7,1-0.8c0.4-0.2,0.9-0.3,1.4-0.3
	C686.7,125.4,687.2,125.6,687.6,125.8z"/>
<path d="M697.1,129.6h-5.7c0,0.6,0.3,1.2,0.7,1.6c0.4,0.4,1,0.6,1.6,0.6c0.5,0,0.9-0.1,1.3-0.4c0.3-0.2,0.6-0.6,0.7-1h1.3
	c-0.2,0.7-0.6,1.3-1.1,1.7c-0.6,0.4-1.4,0.7-2.1,0.6c-0.6,0-1.3-0.1-1.8-0.4c-0.5-0.3-1-0.8-1.2-1.3c-0.6-1.2-0.6-2.7,0-3.9
	c0.3-0.5,0.7-1,1.2-1.3c0.6-0.3,1.2-0.5,1.8-0.4c0.6,0,1.2,0.1,1.8,0.4c0.5,0.3,0.9,0.7,1.2,1.2c0.3,0.5,0.4,1.1,0.4,1.8
	C697.1,129.1,697.1,129.3,697.1,129.6z M695.6,127.5c-0.2-0.3-0.5-0.6-0.8-0.7c-0.4-0.2-0.7-0.3-1.1-0.2c-0.6,0-1.1,0.2-1.5,0.6
	c-0.4,0.4-0.7,1-0.7,1.6h4.5C695.9,128.2,695.8,127.8,695.6,127.5z"/>
<path d="M704,125.7c0.4-0.2,0.8-0.3,1.3-0.3v1.9h-0.5c-0.8-0.1-1.6,0.4-1.7,1.2c0,0.2,0,0.4,0,0.6v3.6h-1.8v-7.2h1.8v1.1
	C703.3,126.2,703.6,125.9,704,125.7z"/>
<path d="M712.8,129.6h-5.3c0,0.5,0.2,0.9,0.5,1.2c0.3,0.3,0.7,0.5,1.2,0.4c0.6,0,1.2-0.3,1.4-0.9h2c-0.2,0.7-0.6,1.3-1.2,1.7
	c-0.6,0.5-1.4,0.7-2.2,0.7c-0.7,0-1.3-0.1-1.9-0.5c-0.5-0.3-1-0.8-1.3-1.3c-0.3-0.6-0.5-1.3-0.5-2c0-0.7,0.1-1.4,0.5-2
	c0.3-0.5,0.7-1,1.3-1.3c0.6-0.3,1.2-0.5,1.9-0.4c0.6,0,1.3,0.1,1.8,0.4c0.5,0.3,1,0.7,1.3,1.2c0.3,0.6,0.5,1.2,0.5,1.9
	C712.9,129.1,712.9,129.4,712.8,129.6z M711,128.4c0-0.4-0.2-0.8-0.5-1.1c-0.3-0.3-0.8-0.4-1.2-0.4c-0.4,0-0.8,0.1-1.1,0.4
	c-0.3,0.3-0.5,0.7-0.6,1.1H711z"/>
<path d="M717.2,127h-1.3v5.7H714V127h-0.8v-1.5h0.8v-0.4c-0.1-0.7,0.2-1.5,0.8-2c0.7-0.5,1.5-0.7,2.3-0.6v1.5c-0.3,0-0.7,0-0.9,0.2
	c-0.2,0.2-0.3,0.5-0.3,0.8v0.3h1.3V127z"/>
<path d="M718.1,124.3c-0.4-0.4-0.4-1.1,0-1.5c0,0,0,0,0,0c0.4-0.4,1.1-0.4,1.6,0c0.4,0.4,0.4,1.1,0,1.5c0,0,0,0,0,0
	C719.2,124.8,718.5,124.8,718.1,124.3z M719.8,125.5v7.2H718v-7.2H719.8z"/>
<path d="M727.3,126.2c0.6,0.6,0.8,1.4,0.8,2.3v4.2h-1.8v-4c0-0.5-0.1-0.9-0.4-1.3c-0.3-0.3-0.7-0.5-1.2-0.5c-0.4,0-0.9,0.1-1.2,0.5
	c-0.3,0.4-0.5,0.8-0.4,1.3v4h-1.8v-7.2h1.8v0.9c0.2-0.3,0.6-0.6,0.9-0.7c0.4-0.2,0.8-0.3,1.2-0.3C726,125.4,726.7,125.7,727.3,126.2
	z"/>
<path d="M736.1,129.6h-5.3c0,0.5,0.2,0.9,0.5,1.2c0.3,0.3,0.8,0.5,1.2,0.4c0.6,0,1.2-0.3,1.4-0.9h2c-0.2,0.7-0.6,1.3-1.2,1.7
	c-0.6,0.5-1.4,0.7-2.2,0.7c-0.7,0-1.3-0.1-1.9-0.5c-0.5-0.3-1-0.8-1.3-1.3c-0.3-0.6-0.5-1.3-0.5-2c0-0.7,0.1-1.4,0.5-2
	c0.3-0.5,0.7-1,1.3-1.3c0.6-0.3,1.2-0.5,1.9-0.4c0.6,0,1.3,0.1,1.8,0.4c0.5,0.3,1,0.7,1.3,1.2c0.3,0.6,0.5,1.2,0.5,1.9
	C736.2,129.1,736.2,129.4,736.1,129.6z M734.3,128.4c0-0.4-0.2-0.8-0.5-1.1c-0.3-0.3-0.8-0.4-1.2-0.4c-0.4,0-0.8,0.1-1.1,0.4
	c-0.3,0.3-0.5,0.7-0.6,1.1H734.3z"/>
<path d="M748.2,126.2c0.6,0.6,0.9,1.4,0.8,2.3v4.2h-1.8v-4c0-0.5-0.1-0.9-0.4-1.3c-0.3-0.3-0.7-0.5-1.2-0.4c-0.4,0-0.9,0.1-1.2,0.4
	c-0.3,0.4-0.5,0.8-0.4,1.3v4h-1.8v-4c0-0.5-0.1-0.9-0.4-1.3c-0.3-0.3-0.7-0.5-1.2-0.4c-0.4,0-0.9,0.1-1.2,0.4
	c-0.3,0.4-0.5,0.8-0.4,1.3v4h-1.8v-7.2h1.8v0.9c0.2-0.3,0.5-0.6,0.9-0.7c0.4-0.2,0.8-0.3,1.2-0.3c0.5,0,1,0.1,1.5,0.4
	c0.4,0.2,0.8,0.6,1,1c0.2-0.4,0.6-0.8,1-1c0.4-0.3,0.9-0.4,1.5-0.4C746.8,125.3,747.6,125.6,748.2,126.2z"/>
<path d="M757,129.6h-5.3c0,0.5,0.2,0.9,0.5,1.2c0.3,0.3,0.7,0.5,1.2,0.4c0.6,0,1.2-0.3,1.5-0.9h2c-0.2,0.7-0.6,1.3-1.2,1.7
	c-0.6,0.5-1.4,0.7-2.2,0.7c-0.6,0-1.3-0.1-1.9-0.5c-0.5-0.3-1-0.8-1.3-1.3c-0.3-0.6-0.5-1.3-0.5-2c0-0.7,0.1-1.4,0.5-2
	c0.3-0.5,0.7-1,1.3-1.3c0.6-0.3,1.2-0.5,1.9-0.4c0.6,0,1.3,0.1,1.8,0.4c0.5,0.3,1,0.7,1.3,1.2c0.3,0.6,0.5,1.2,0.5,1.9
	C757.1,129.1,757.1,129.4,757,129.6z M755.2,128.4c0-0.4-0.2-0.8-0.5-1.1c-0.3-0.3-0.8-0.4-1.2-0.4c-0.4,0-0.8,0.1-1.1,0.4
	c-0.3,0.3-0.5,0.7-0.6,1.1H755.2z"/>
<path d="M764.1,126.2c0.6,0.6,0.8,1.4,0.8,2.3v4.2h-1.8v-4c0-0.5-0.1-0.9-0.4-1.3c-0.3-0.3-0.7-0.5-1.2-0.5c-0.4,0-0.9,0.1-1.2,0.5
	c-0.3,0.4-0.5,0.8-0.4,1.3v4H758v-7.2h1.8v0.9c0.2-0.3,0.6-0.6,0.9-0.7c0.4-0.2,0.8-0.3,1.2-0.3
	C762.8,125.4,763.5,125.7,764.1,126.2z"/>
<path d="M768.4,127v3.5c0,0.2,0,0.4,0.2,0.5c0.2,0.1,0.4,0.2,0.6,0.2h0.9v1.5h-1.1c-1.1,0.2-2.1-0.6-2.3-1.7c0-0.2,0-0.4,0-0.6V127
	h-0.9v-1.5h0.9v-1.8h1.8v1.8h1.6v1.5H768.4z"/>
<path d="M775,132.4c-0.6-0.3-1-0.8-1.3-1.3c-0.3-0.6-0.5-1.3-0.5-2c0-0.7,0.2-1.4,0.5-1.9c0.3-0.6,0.8-1,1.3-1.3
	c0.6-0.3,1.2-0.5,1.9-0.5c0.7,0,1.3,0.1,1.9,0.5c0.6,0.3,1,0.8,1.3,1.3c0.3,0.6,0.5,1.3,0.5,1.9c0,0.7-0.2,1.4-0.5,2
	c-0.3,0.5-0.8,1-1.3,1.3c-0.6,0.3-1.2,0.5-1.9,0.5C776.2,132.8,775.6,132.7,775,132.4z M777.8,131c0.3-0.2,0.5-0.4,0.7-0.7
	c0.2-0.4,0.3-0.8,0.3-1.2c0-0.6-0.2-1.1-0.5-1.6c-0.3-0.4-0.8-0.6-1.3-0.6c-0.5,0-1,0.2-1.3,0.6c-0.7,0.9-0.7,2.2,0,3.2
	c0.3,0.4,0.8,0.6,1.3,0.6C777.2,131.2,777.5,131.2,777.8,131L777.8,131z"/>
<path d="M784.9,127h-1.3v5.7h-1.8V127H781v-1.5h0.8v-0.4c-0.1-0.7,0.2-1.5,0.8-2c0.7-0.5,1.5-0.7,2.3-0.6v1.5c-0.3,0-0.7,0-0.9,0.2
	c-0.2,0.2-0.3,0.5-0.3,0.8v0.3h1.3L784.9,127z"/>
<path d="M790.6,127v3.5c0,0.2,0,0.4,0.2,0.5c0.2,0.1,0.4,0.2,0.6,0.2h0.8v1.5H791c-1.1,0.2-2.1-0.6-2.3-1.7c0-0.2,0-0.4,0-0.6V127
	h-0.9v-1.5h0.9v-1.8h1.8v1.8h1.6v1.5H790.6z"/>
<path d="M798.6,125.8c0.4,0.2,0.8,0.6,1,1c0.3,0.5,0.4,1.1,0.4,1.7v4.2h-1.8v-4c0-0.5-0.1-0.9-0.4-1.3c-0.3-0.3-0.7-0.5-1.2-0.5
	c-0.4,0-0.9,0.1-1.2,0.5c-0.3,0.4-0.5,0.8-0.4,1.3v4h-1.8V123h1.8v3.3c0.2-0.3,0.6-0.6,0.9-0.7c0.4-0.2,0.9-0.3,1.3-0.3
	C797.7,125.4,798.2,125.5,798.6,125.8z"/>
<path d="M808,129.6h-5.3c0,0.5,0.2,0.9,0.5,1.2c0.3,0.3,0.7,0.5,1.2,0.4c0.6,0,1.2-0.3,1.4-0.9h2c-0.2,0.7-0.6,1.3-1.2,1.7
	c-0.6,0.5-1.4,0.7-2.2,0.7c-0.7,0-1.3-0.1-1.9-0.5c-0.5-0.3-1-0.8-1.3-1.3c-0.6-1.2-0.6-2.7,0-3.9c0.3-0.5,0.7-1,1.3-1.3
	c0.6-0.3,1.2-0.5,1.9-0.4c0.6,0,1.3,0.1,1.8,0.4c0.5,0.3,1,0.7,1.3,1.2c0.3,0.6,0.5,1.2,0.5,1.9C808.1,129.2,808.1,129.4,808,129.6z
	 M806.2,128.4c0-0.4-0.2-0.8-0.5-1.1c-0.3-0.3-0.8-0.4-1.2-0.4c-0.4,0-0.8,0.1-1.1,0.4c-0.3,0.3-0.5,0.7-0.6,1.1H806.2z"/>
<path d="M811.7,127.2c0.3-0.5,0.7-1,1.3-1.3c0.6-0.3,1.2-0.5,1.8-0.5c0.8,0,1.6,0.2,2.2,0.7c0.6,0.5,1,1.1,1.2,1.9h-2
	c-0.1-0.3-0.3-0.5-0.5-0.7c-0.3-0.2-0.6-0.3-0.9-0.3c-0.5,0-0.9,0.2-1.2,0.6c-0.6,1-0.6,2.2,0,3.2c0.3,0.4,0.8,0.6,1.2,0.6
	c0.7,0.1,1.3-0.4,1.4-1h2c-0.2,0.7-0.6,1.4-1.2,1.9c-0.6,0.5-1.4,0.7-2.2,0.7c-0.6,0-1.3-0.1-1.8-0.5c-0.5-0.3-1-0.8-1.3-1.3
	C811.1,129.8,811.1,128.4,811.7,127.2L811.7,127.2z"/>
<path d="M826,125.5v7.2h-1.8v-0.9c-0.2,0.3-0.6,0.6-0.9,0.7c-0.4,0.2-0.8,0.3-1.2,0.3c-0.5,0-1-0.1-1.5-0.4c-0.4-0.2-0.8-0.6-1-1.1
	c-0.3-0.5-0.4-1.1-0.4-1.7v-4.2h1.8v4c0,0.5,0.1,0.9,0.4,1.3c0.3,0.3,0.7,0.5,1.2,0.5c0.4,0,0.9-0.1,1.2-0.5
	c0.3-0.4,0.5-0.8,0.4-1.3v-4H826z"/>
<path d="M830.2,125.7c0.4-0.2,0.8-0.3,1.3-0.3v1.9H831c-0.5,0-0.9,0.1-1.3,0.4c-0.3,0.4-0.5,0.9-0.4,1.4v3.6h-1.8v-7.2h1.8v1.1
	C829.5,126.2,829.8,125.9,830.2,125.7z"/>
<path d="M835,125.7c0.4-0.2,0.8-0.3,1.3-0.3v1.9h-0.5c-0.8-0.1-1.6,0.4-1.7,1.2c0,0.2,0,0.4,0,0.6v3.6h-1.8v-7.2h1.8v1.1
	C834.4,126.2,834.7,125.9,835,125.7z"/>
<path d="M843.8,129.6h-5.3c0,0.5,0.2,0.9,0.5,1.2c0.3,0.3,0.7,0.5,1.2,0.4c0.6,0,1.2-0.3,1.4-0.9h2c-0.2,0.7-0.6,1.3-1.2,1.7
	c-0.6,0.5-1.4,0.7-2.2,0.7c-0.6,0-1.3-0.1-1.9-0.5c-0.5-0.3-1-0.8-1.3-1.3c-0.3-0.6-0.5-1.3-0.5-2c0-0.7,0.1-1.4,0.5-2
	c0.3-0.5,0.7-1,1.3-1.3c0.6-0.3,1.2-0.5,1.9-0.4c0.6,0,1.3,0.1,1.8,0.4c0.5,0.3,1,0.7,1.3,1.2c0.3,0.6,0.5,1.2,0.5,1.9
	C843.9,129.1,843.9,129.4,843.8,129.6z M842,128.4c0-0.4-0.2-0.8-0.5-1.1c-0.3-0.3-0.8-0.4-1.2-0.4c-0.4,0-0.8,0.1-1.1,0.4
	c-0.3,0.3-0.5,0.7-0.6,1.1H842z"/>
<path d="M850.9,126.2c0.6,0.6,0.8,1.4,0.8,2.3v4.2h-1.8v-4c0-0.5-0.1-0.9-0.4-1.3c-0.3-0.3-0.7-0.5-1.2-0.5c-0.4,0-0.9,0.1-1.2,0.5
	c-0.3,0.4-0.5,0.8-0.4,1.3v4h-1.8v-7.2h1.8v0.9c0.2-0.3,0.6-0.6,0.9-0.7c0.4-0.2,0.8-0.3,1.2-0.3
	C849.6,125.4,850.4,125.7,850.9,126.2z"/>
<path d="M855.2,127v3.5c0,0.2,0,0.4,0.2,0.5c0.2,0.1,0.4,0.2,0.6,0.2h0.8v1.5h-1.1c-1.1,0.2-2.1-0.6-2.3-1.7c0-0.2,0-0.4,0-0.6V127
	h-0.9v-1.5h0.9v-1.8h1.8v1.8h1.6v1.5H855.2z"/>
<path d="M860.6,124.3c-0.4-0.4-0.4-1.1,0-1.5c0.2-0.2,0.5-0.3,0.8-0.3c0.3,0,0.6,0.1,0.8,0.3c0.4,0.4,0.4,1.1,0,1.5c0,0,0,0,0,0
	c-0.2,0.2-0.5,0.3-0.8,0.3C861.1,124.7,860.8,124.5,860.6,124.3z M862.3,125.5v7.2h-1.8v-7.2H862.3z"/>
<path d="M869.8,126.2c0.6,0.6,0.8,1.4,0.8,2.3v4.2h-1.8v-4c0-0.5-0.1-1-0.4-1.3c-0.3-0.3-0.7-0.5-1.2-0.5c-0.4,0-0.9,0.1-1.2,0.5
	c-0.3,0.4-0.5,0.8-0.4,1.3v4h-1.8v-7.2h1.8v0.9c0.2-0.3,0.6-0.6,0.9-0.7c0.4-0.2,0.8-0.3,1.2-0.3
	C868.5,125.4,869.3,125.7,869.8,126.2z"/>
<path d="M874.1,127v3.5c0,0.2,0,0.4,0.2,0.5c0.2,0.1,0.4,0.2,0.6,0.2h0.8v1.5h-1.1c-1.1,0.2-2.1-0.6-2.3-1.7c0-0.2,0-0.4,0-0.6V127
	h-0.9v-1.5h0.9v-1.8h1.8v1.8h1.6v1.5H874.1z"/>
<path d="M883.3,129.6H878c0,0.5,0.2,0.9,0.5,1.2c0.3,0.3,0.8,0.5,1.2,0.4c0.6,0,1.2-0.3,1.4-0.9h2c-0.2,0.7-0.6,1.3-1.2,1.7
	c-0.6,0.5-1.4,0.7-2.2,0.7c-0.6,0-1.3-0.1-1.9-0.5c-0.5-0.3-1-0.8-1.3-1.3c-0.6-1.2-0.6-2.7,0-3.9c0.3-0.5,0.7-1,1.3-1.3
	c0.6-0.3,1.2-0.5,1.9-0.4c0.6,0,1.3,0.1,1.8,0.4c0.5,0.3,1,0.7,1.3,1.2c0.3,0.6,0.5,1.2,0.5,1.9
	C883.4,129.2,883.3,129.4,883.3,129.6z M881.5,128.4c0-0.4-0.2-0.8-0.5-1.1c-0.3-0.3-0.8-0.4-1.2-0.4c-0.4,0-0.8,0.1-1.1,0.4
	c-0.3,0.3-0.5,0.7-0.6,1.1H881.5z"/>
<path d="M887,125.7c0.4-0.2,0.8-0.3,1.3-0.3v1.9h-0.5c-0.8-0.1-1.6,0.4-1.7,1.2c0,0.2,0,0.4,0,0.6v3.6h-1.8v-7.2h1.8v1.1
	C886.4,126.2,886.7,125.9,887,125.7z"/>
<path d="M892.5,127h-1.3v5.7h-1.8V127h-0.8v-1.5h0.8v-0.4c-0.1-0.7,0.2-1.5,0.8-2c0.7-0.5,1.5-0.7,2.3-0.6v1.5c-0.3,0-0.7,0-0.9,0.2
	c-0.2,0.2-0.3,0.5-0.3,0.8v0.3h1.3L892.5,127z"/>
<path d="M893.3,127.1c0.3-0.5,0.7-1,1.2-1.3c0.5-0.3,1.1-0.5,1.7-0.4c0.5,0,1,0.1,1.4,0.3c0.4,0.2,0.7,0.5,1,0.8v-1h1.8v7.2h-1.8
	v-1.1c-0.3,0.4-0.6,0.6-1,0.8c-0.4,0.2-0.9,0.3-1.4,0.3c-0.6,0-1.2-0.2-1.7-0.5c-0.5-0.3-0.9-0.8-1.2-1.3c-0.3-0.6-0.5-1.3-0.4-2
	C892.8,128.4,893,127.7,893.3,127.1z M898.3,128c-0.2-0.3-0.4-0.6-0.7-0.7c-0.3-0.2-0.6-0.3-1-0.2c-0.3,0-0.6,0.1-0.9,0.2
	c-0.3,0.2-0.5,0.4-0.7,0.7c-0.2,0.3-0.3,0.7-0.3,1.1c0,0.4,0.1,0.8,0.3,1.1c0.2,0.3,0.4,0.6,0.7,0.7c0.3,0.2,0.6,0.3,0.9,0.3
	c0.3,0,0.7-0.1,1-0.2c0.3-0.2,0.5-0.4,0.7-0.7C898.7,129.5,898.7,128.7,898.3,128z"/>
<path d="M901.8,127.2c0.3-0.5,0.7-1,1.3-1.3c0.6-0.3,1.2-0.5,1.8-0.5c0.8,0,1.6,0.2,2.2,0.7c0.6,0.5,1,1.1,1.2,1.9h-2
	c-0.1-0.3-0.3-0.5-0.5-0.7c-0.7-0.5-1.6-0.3-2.2,0.3c-0.6,1-0.6,2.2,0,3.2c0.3,0.4,0.8,0.6,1.2,0.6c0.7,0,1.3-0.4,1.4-1h2
	c-0.2,0.7-0.6,1.4-1.2,1.9c-0.6,0.5-1.4,0.7-2.2,0.7c-0.6,0-1.3-0.1-1.8-0.5c-0.5-0.3-1-0.8-1.3-1.3
	C901.2,129.8,901.2,128.4,901.8,127.2L901.8,127.2z"/>
<path d="M915.9,129.6h-5.3c0,0.5,0.2,0.9,0.5,1.2c0.3,0.3,0.7,0.5,1.2,0.4c0.6,0,1.2-0.3,1.5-0.9h2c-0.2,0.7-0.6,1.3-1.2,1.7
	c-0.6,0.5-1.4,0.7-2.2,0.7c-0.6,0-1.3-0.1-1.9-0.5c-0.5-0.3-1-0.8-1.3-1.3c-0.3-0.6-0.5-1.3-0.5-2c0-0.7,0.1-1.4,0.5-2
	c0.3-0.5,0.7-1,1.3-1.3c0.6-0.3,1.2-0.5,1.9-0.4c0.6,0,1.3,0.1,1.8,0.4c0.5,0.3,1,0.7,1.3,1.2c0.3,0.6,0.5,1.2,0.5,1.9
	C916,129.1,915.9,129.4,915.9,129.6z M914,128.4c0-0.4-0.2-0.8-0.5-1.1c-0.3-0.3-0.8-0.4-1.2-0.4c-0.4,0-0.8,0.1-1.1,0.4
	c-0.3,0.3-0.5,0.7-0.6,1.1H914z"/>
<path d="M650.9,152c-0.3-0.3-0.5-0.7-0.5-1.1c0-0.4,0.2-0.8,0.5-1.1c0.3-0.3,0.7-0.5,1.1-0.5c0.9,0,1.6,0.7,1.6,1.6c0,0,0,0,0,0
	c0,0.4-0.2,0.8-0.5,1.1c-0.3,0.3-0.7,0.5-1.1,0.5C651.6,152.5,651.2,152.3,650.9,152z"/>
<path d="M656.5,146.1v9.1h-1.2v-9.1L656.5,146.1z"/>
<path d="M659.6,149.1v4.2c0,0.3,0.1,0.5,0.2,0.7c0.2,0.2,0.5,0.2,0.8,0.2h0.9v1h-1.1c-0.5,0-1.1-0.1-1.5-0.5
	c-0.4-0.4-0.5-0.9-0.5-1.5v-4.2h-0.9v-1h0.9v-1.8h1.2v1.8h1.9v1L659.6,149.1z"/>
<path d="M669,152.1h-5.7c0,0.6,0.3,1.2,0.7,1.6c0.4,0.4,1,0.6,1.6,0.6c0.5,0,0.9-0.1,1.3-0.4c0.3-0.2,0.6-0.6,0.7-1h1.3
	c-0.2,0.7-0.6,1.3-1.1,1.7c-0.6,0.4-1.4,0.7-2.1,0.6c-0.6,0-1.3-0.1-1.8-0.4c-0.5-0.3-1-0.8-1.2-1.3c-0.6-1.2-0.6-2.7,0-3.9
	c0.3-0.5,0.7-1,1.2-1.3c0.6-0.3,1.2-0.5,1.8-0.4c0.6,0,1.2,0.1,1.8,0.4c0.5,0.3,0.9,0.7,1.2,1.2c0.3,0.5,0.4,1.1,0.4,1.8
	C669.1,151.6,669,151.8,669,152.1z M667.5,150c-0.2-0.3-0.5-0.6-0.8-0.7c-0.4-0.2-0.7-0.3-1.1-0.2c-0.6,0-1.1,0.2-1.5,0.6
	c-0.4,0.4-0.7,1-0.7,1.6h4.5C667.9,150.8,667.7,150.4,667.5,150z"/>
<path d="M672.3,148.3c0.4-0.2,0.9-0.4,1.4-0.3v1.2h-0.3c-1.3,0-2,0.7-2,2.2v3.9h-1.2v-7.1h1.2v1.2
	C671.6,148.8,671.9,148.5,672.3,148.3z"/>
<path d="M674.8,149.7c0.3-0.5,0.7-1,1.2-1.3c0.5-0.3,1.1-0.5,1.7-0.4c0.6,0,1.1,0.1,1.6,0.4c0.4,0.2,0.8,0.6,1,1v-1.3h1.2v7.1h-1.2
	v-1.3c-0.3,0.4-0.6,0.8-1,1c-0.5,0.3-1.1,0.4-1.6,0.4c-1.2,0-2.4-0.7-2.9-1.8c-0.3-0.6-0.5-1.3-0.5-1.9
	C674.3,150.9,674.4,150.3,674.8,149.7z M680,150.2c-0.2-0.4-0.5-0.7-0.9-0.9c-0.4-0.2-0.8-0.3-1.2-0.3c-0.4,0-0.8,0.1-1.2,0.3
	c-0.4,0.2-0.7,0.5-0.9,0.9c-0.2,0.4-0.3,0.9-0.3,1.4c0,0.5,0.1,1,0.3,1.4c0.6,1.2,2,1.6,3.2,1c0.4-0.2,0.8-0.6,1-1
	c0.2-0.4,0.3-0.9,0.3-1.4C680.3,151.1,680.2,150.7,680,150.2L680,150.2z"/>
<path d="M684.6,149.1v4.2c0,0.3,0.1,0.5,0.2,0.7c0.2,0.2,0.5,0.2,0.8,0.2h0.9v1h-1.1c-0.5,0-1.1-0.1-1.5-0.5
	c-0.4-0.4-0.5-0.9-0.5-1.5v-4.2h-0.9v-1h0.9v-1.8h1.2v1.8h1.9v1L684.6,149.1z"/>
<path d="M687.6,146.7c-0.2-0.1-0.2-0.4-0.2-0.6c0-0.4,0.4-0.8,0.8-0.8c0.2,0,0.4,0.1,0.5,0.2c0.2,0.2,0.2,0.4,0.2,0.6
	c0,0.2-0.1,0.4-0.2,0.6c-0.1,0.2-0.3,0.2-0.5,0.2C687.9,146.9,687.7,146.8,687.6,146.7z M688.7,148.1v7.1h-1.2v-7.1H688.7z"/>
<path d="M691.7,154.9c-0.5-0.3-1-0.8-1.3-1.3c-0.6-1.2-0.6-2.7,0-3.9c0.3-0.5,0.8-1,1.3-1.3c1.1-0.6,2.5-0.6,3.7,0
	c0.5,0.3,1,0.7,1.3,1.3c0.3,0.6,0.5,1.3,0.5,1.9c0,0.7-0.2,1.4-0.5,1.9c-0.3,0.5-0.8,1-1.3,1.3c-0.6,0.3-1.2,0.5-1.8,0.4
	C692.8,155.3,692.2,155.2,691.7,154.9z M694.7,154c0.4-0.2,0.7-0.5,0.9-0.9c0.2-0.4,0.4-1,0.3-1.5c0-0.5-0.1-1-0.3-1.4
	c-0.2-0.4-0.5-0.7-0.9-0.9c-0.7-0.4-1.6-0.4-2.4,0c-0.4,0.2-0.7,0.5-0.9,0.9c-0.2,0.4-0.3,0.9-0.3,1.4c0,0.5,0.1,1,0.3,1.5
	c0.2,0.4,0.5,0.7,0.8,0.9c0.4,0.2,0.8,0.3,1.2,0.3C693.9,154.3,694.3,154.2,694.7,154L694.7,154z"/>
<path d="M703.9,148.7c0.6,0.6,0.9,1.4,0.8,2.3v4.2h-1.2v-4c0-0.6-0.2-1.2-0.5-1.6c-0.4-0.4-0.9-0.6-1.5-0.6c-0.6,0-1.1,0.2-1.5,0.6
	c-0.4,0.5-0.6,1.1-0.5,1.7v3.9h-1.2v-7.1h1.2v1c0.2-0.4,0.6-0.7,1-0.9c0.4-0.2,0.9-0.3,1.3-0.3C702.6,147.9,703.3,148.2,703.9,148.7
	z"/>
<path d="M710.7,154.9c-0.5-0.3-1-0.8-1.3-1.3c-0.6-1.2-0.6-2.7,0-3.9c0.3-0.5,0.8-1,1.3-1.3c1.1-0.6,2.5-0.6,3.7,0
	c0.5,0.3,1,0.7,1.3,1.3c0.3,0.6,0.5,1.3,0.5,1.9c0,0.7-0.2,1.4-0.5,1.9c-0.3,0.5-0.8,1-1.3,1.3c-0.6,0.3-1.2,0.5-1.8,0.4
	C711.9,155.3,711.2,155.2,710.7,154.9z M713.7,154c0.4-0.2,0.7-0.5,0.9-0.9c0.2-0.4,0.4-1,0.3-1.5c0-0.5-0.1-1-0.3-1.4
	c-0.2-0.4-0.5-0.7-0.9-0.9c-0.7-0.4-1.6-0.4-2.4,0c-0.4,0.2-0.7,0.5-0.9,0.9c-0.2,0.4-0.3,0.9-0.3,1.4c0,0.5,0.1,1,0.3,1.5
	c0.2,0.4,0.5,0.7,0.8,0.9c0.4,0.2,0.8,0.3,1.2,0.3C712.9,154.3,713.3,154.2,713.7,154L713.7,154z"/>
<path d="M722.9,148.7c0.6,0.6,0.9,1.4,0.8,2.3v4.2h-1.2v-4c0-0.6-0.2-1.2-0.5-1.6c-0.4-0.4-0.9-0.6-1.5-0.6c-0.6,0-1.1,0.2-1.5,0.6
	c-0.4,0.5-0.6,1.1-0.5,1.7v3.9h-1.2v-7.1h1.2v1c0.2-0.4,0.6-0.7,1-0.9c0.4-0.2,0.9-0.3,1.3-0.3C721.6,147.9,722.4,148.2,722.9,148.7
	z"/>
<path d="M740.4,146.1l-2.5,9.1h-2.2l-1.7-6.5l-1.8,6.5h-2.1l-2.5-9.1h2l1.6,7.1l1.8-7.1h2l1.7,7l1.6-7L740.4,146.1z"/>
<path d="M747.9,152.1h-5.3c0,0.5,0.2,0.9,0.5,1.2c0.3,0.3,0.7,0.5,1.2,0.4c0.6,0,1.2-0.3,1.4-0.9h2c-0.2,0.7-0.6,1.3-1.2,1.7
	c-0.6,0.5-1.4,0.7-2.2,0.7c-0.7,0-1.3-0.1-1.9-0.5c-0.5-0.3-1-0.8-1.3-1.3c-0.3-0.6-0.5-1.3-0.5-2c0-0.7,0.1-1.4,0.5-2
	c0.3-0.5,0.7-1,1.3-1.3c0.6-0.3,1.2-0.5,1.9-0.4c0.6,0,1.3,0.1,1.8,0.4c0.5,0.3,1,0.7,1.3,1.2c0.3,0.6,0.5,1.2,0.5,1.9
	C748,151.6,747.9,151.9,747.9,152.1z M746.1,150.9c0-0.4-0.2-0.8-0.5-1.1c-0.3-0.3-0.8-0.4-1.2-0.4c-0.4,0-0.8,0.1-1.1,0.4
	c-0.3,0.3-0.5,0.7-0.6,1.1L746.1,150.9z"/>
<path d="M751.7,148.2c0.4-0.2,0.9-0.3,1.4-0.3c1.2,0,2.3,0.7,2.8,1.8c0.3,0.6,0.5,1.3,0.4,1.9c0,0.7-0.1,1.4-0.4,2
	c-0.3,0.5-0.7,1-1.2,1.3c-0.5,0.3-1.1,0.5-1.7,0.5c-0.5,0-1-0.1-1.4-0.3c-0.4-0.2-0.7-0.5-1-0.8v1h-1.8v-9.6h1.8v3.5
	C751,148.7,751.3,148.4,751.7,148.2z M754.3,150.5c-0.2-0.3-0.4-0.5-0.7-0.7c-0.3-0.2-0.6-0.2-0.9-0.2c-0.3,0-0.6,0.1-0.9,0.2
	c-0.3,0.2-0.5,0.4-0.7,0.7c-0.4,0.7-0.4,1.6,0,2.3c0.2,0.3,0.4,0.6,0.7,0.7c0.3,0.2,0.6,0.3,0.9,0.2c0.3,0,0.7-0.1,0.9-0.3
	c0.3-0.2,0.5-0.4,0.7-0.7C754.6,152,754.6,151.2,754.3,150.5L754.3,150.5z"/>
<path d="M758.5,155c-0.4-0.2-0.8-0.5-1.1-0.9c-0.3-0.4-0.4-0.8-0.5-1.2h1.8c0,0.3,0.2,0.5,0.4,0.7c0.3,0.2,0.6,0.3,0.9,0.3
	c0.3,0,0.6-0.1,0.8-0.2c0.2-0.1,0.3-0.3,0.3-0.5c0-0.2-0.1-0.4-0.4-0.5c-0.4-0.2-0.7-0.3-1.1-0.4c-0.4-0.1-0.9-0.2-1.3-0.4
	c-0.3-0.1-0.6-0.4-0.9-0.6c-0.3-0.3-0.4-0.7-0.4-1.1c0-0.4,0.1-0.8,0.3-1.1c0.3-0.3,0.6-0.6,1-0.8c0.5-0.2,1-0.3,1.5-0.3
	c0.7,0,1.4,0.2,2,0.6c0.5,0.4,0.8,1.1,0.8,1.7h-1.8c0-0.3-0.1-0.5-0.3-0.7c-0.2-0.2-0.6-0.3-0.9-0.2c-0.3,0-0.5,0-0.8,0.2
	c-0.3,0.2-0.3,0.6-0.2,0.8c0.1,0.1,0.2,0.2,0.3,0.2c0.4,0.2,0.7,0.3,1.1,0.4c0.4,0.1,0.9,0.2,1.3,0.4c0.3,0.1,0.6,0.4,0.9,0.6
	c0.3,0.3,0.4,0.7,0.4,1.1c0,0.4-0.1,0.8-0.3,1.1c-0.3,0.3-0.6,0.6-1,0.8C760.6,155.4,759.5,155.4,758.5,155L758.5,155z"/>
<path d="M764.2,146.8c-0.4-0.4-0.4-1.1,0-1.5c0.2-0.2,0.5-0.3,0.8-0.3c0.3,0,0.6,0.1,0.8,0.3c0.4,0.4,0.4,1.1,0,1.5c0,0,0,0,0,0
	c-0.2,0.2-0.5,0.3-0.8,0.3C764.7,147.2,764.4,147,764.2,146.8z M765.9,148v7.2h-1.8V148H765.9z"/>
<path d="M769.5,149.5v3.5c0,0.2,0,0.4,0.2,0.5c0.2,0.1,0.4,0.2,0.6,0.2h0.8v1.5h-1.1c-1.1,0.2-2.1-0.6-2.3-1.7c0-0.2,0-0.4,0-0.6
	v-3.5h-0.9V148h0.9v-1.8h1.8v1.8h1.6v1.5H769.5z"/>
<path d="M778.7,152.1h-5.3c0,0.5,0.2,0.9,0.5,1.2c0.3,0.3,0.8,0.5,1.2,0.4c0.6,0,1.2-0.3,1.4-0.9h2c-0.2,0.7-0.6,1.3-1.2,1.7
	c-0.6,0.5-1.4,0.7-2.2,0.7c-0.7,0-1.3-0.1-1.9-0.5c-0.5-0.3-1-0.8-1.3-1.3c-0.3-0.6-0.5-1.3-0.5-2c0-0.7,0.1-1.4,0.5-2
	c0.3-0.5,0.7-1,1.3-1.3c0.6-0.3,1.2-0.5,1.9-0.4c0.6,0,1.3,0.1,1.8,0.4c0.5,0.3,1,0.7,1.3,1.2c0.3,0.6,0.5,1.2,0.5,1.9
	C778.7,151.6,778.7,151.9,778.7,152.1z M776.8,150.9c0-0.4-0.2-0.8-0.5-1.1c-0.3-0.3-0.8-0.4-1.2-0.4c-0.4,0-0.8,0.1-1.1,0.4
	c-0.3,0.3-0.5,0.7-0.6,1.1L776.8,150.9z"/>
<path d="M784.1,146.1v9.1h-1.2v-9.1L784.1,146.1z"/>
<path d="M791.3,148.7c0.6,0.6,0.9,1.4,0.8,2.3v4.2h-1.2v-4c0-0.6-0.2-1.2-0.5-1.6c-0.4-0.4-0.9-0.6-1.5-0.6c-0.6,0-1.1,0.2-1.5,0.6
	c-0.4,0.5-0.6,1.1-0.5,1.7v3.9h-1.2v-7.1h1.2v1c0.2-0.4,0.6-0.7,1-0.9c0.4-0.2,0.9-0.3,1.3-0.3C790,147.9,790.7,148.2,791.3,148.7z"
	/>
<path d="M795.1,149.1v4.2c0,0.3,0.1,0.5,0.2,0.7c0.2,0.2,0.5,0.2,0.8,0.2h0.9v1h-1.1c-0.5,0-1.1-0.1-1.5-0.5
	c-0.4-0.4-0.5-0.9-0.5-1.5v-4.2H793v-1h0.9v-1.8h1.2v1.8h1.9v1L795.1,149.1z"/>
<path d="M804.5,152.1h-5.7c0,0.6,0.3,1.2,0.7,1.6c0.4,0.4,1,0.6,1.6,0.6c0.5,0,0.9-0.1,1.3-0.4c0.3-0.2,0.6-0.6,0.7-1h1.3
	c-0.2,0.7-0.6,1.3-1.1,1.7c-0.6,0.4-1.4,0.7-2.1,0.6c-0.6,0-1.3-0.1-1.8-0.4c-0.5-0.3-1-0.8-1.2-1.3c-0.6-1.2-0.6-2.7,0-3.9
	c0.3-0.5,0.7-1,1.2-1.3c0.6-0.3,1.2-0.5,1.8-0.4c0.6,0,1.2,0.1,1.8,0.4c0.5,0.3,0.9,0.7,1.2,1.2c0.3,0.5,0.4,1.1,0.4,1.8
	C804.5,151.6,804.5,151.8,804.5,152.1z M803,150c-0.2-0.3-0.5-0.6-0.8-0.7c-0.4-0.2-0.7-0.3-1.1-0.2c-0.6,0-1.1,0.2-1.5,0.6
	c-0.4,0.4-0.7,1-0.7,1.6h4.5C803.3,150.8,803.2,150.4,803,150z"/>
<path d="M807.8,148.3c0.4-0.2,0.9-0.4,1.4-0.3v1.2h-0.3c-1.3,0-2,0.7-2,2.2v3.9h-1.2v-7.1h1.2v1.2
	C807.1,148.8,807.4,148.5,807.8,148.3z"/>
<path d="M813.1,149.1h-1.5v6.1h-1.2v-6.1h-0.9v-1h0.9v-0.5c-0.1-0.6,0.2-1.3,0.6-1.7c0.6-0.4,1.3-0.6,2-0.6v1
	c-0.4,0-0.8,0.1-1.1,0.3c-0.2,0.3-0.4,0.6-0.3,1v0.5h1.5L813.1,149.1z"/>
<path d="M814.1,149.7c0.3-0.5,0.7-1,1.2-1.3c0.5-0.3,1.1-0.5,1.7-0.4c0.6,0,1.1,0.1,1.6,0.4c0.4,0.2,0.8,0.6,1,1v-1.3h1.2v7.1h-1.2
	v-1.3c-0.3,0.4-0.6,0.8-1,1c-0.5,0.3-1,0.4-1.6,0.4c-0.6,0-1.2-0.2-1.7-0.5c-0.5-0.3-0.9-0.8-1.2-1.3c-0.3-0.6-0.5-1.3-0.4-1.9
	C813.7,150.9,813.8,150.3,814.1,149.7z M819.4,150.2c-0.2-0.4-0.5-0.7-0.9-0.9c-0.4-0.2-0.8-0.3-1.2-0.3c-0.4,0-0.8,0.1-1.2,0.3
	c-0.4,0.2-0.7,0.5-0.9,0.9c-0.2,0.4-0.3,0.9-0.3,1.4c0,0.5,0.1,1,0.3,1.4c0.2,0.4,0.5,0.7,0.9,0.9c0.4,0.2,0.8,0.3,1.2,0.3
	c0.4,0,0.9-0.1,1.2-0.3c0.4-0.2,0.7-0.5,0.9-0.9c0.2-0.4,0.3-0.9,0.3-1.4C819.7,151.1,819.6,150.7,819.4,150.2z"/>
<path d="M822.5,149.7c0.3-0.5,0.7-1,1.2-1.3c1.3-0.7,2.8-0.6,4,0.2c0.6,0.4,1,1.1,1.1,1.8h-1.3c-0.1-0.4-0.4-0.8-0.7-1
	c-0.4-0.3-0.8-0.4-1.3-0.4c-0.6,0-1.2,0.2-1.6,0.7c-0.5,0.6-0.7,1.3-0.6,2c0,0.7,0.2,1.4,0.6,2c0.4,0.5,1,0.7,1.6,0.7
	c0.5,0,0.9-0.1,1.3-0.4c0.3-0.2,0.6-0.6,0.7-1h1.3c-0.2,0.7-0.6,1.3-1.1,1.8c-0.6,0.4-1.4,0.7-2.2,0.6c-0.6,0-1.2-0.1-1.8-0.4
	c-0.5-0.3-0.9-0.8-1.2-1.3c-0.3-0.6-0.5-1.3-0.4-2C822.1,151,822.2,150.3,822.5,149.7z"/>
<path d="M836.5,152.1h-5.7c0,1.2,1,2.2,2.2,2.2c0,0,0.1,0,0.1,0c0.5,0,0.9-0.1,1.3-0.4c0.4-0.2,0.6-0.6,0.7-1h1.3
	c-0.2,0.7-0.6,1.3-1.2,1.7c-0.6,0.4-1.4,0.7-2.1,0.6c-0.6,0-1.3-0.1-1.8-0.4c-0.5-0.3-1-0.8-1.3-1.3c-0.3-0.6-0.5-1.3-0.5-1.9
	c0-0.7,0.1-1.3,0.4-1.9c0.3-0.5,0.7-1,1.2-1.3c0.6-0.3,1.2-0.5,1.8-0.4c0.6,0,1.2,0.1,1.8,0.4c0.5,0.3,0.9,0.7,1.2,1.2
	c0.3,0.5,0.4,1.1,0.4,1.8C836.6,151.6,836.6,151.8,836.5,152.1z M835.1,150c-0.2-0.3-0.5-0.6-0.8-0.7c-0.4-0.2-0.7-0.3-1.1-0.2
	c-0.6,0-1.1,0.2-1.5,0.6c-0.4,0.4-0.7,1-0.7,1.6h4.5C835.4,150.8,835.3,150.4,835.1,150z"/>
<path d="M843.8,149.1h-1.5v6.1h-1.2v-6.1h-0.9v-1h0.9v-0.5c-0.1-0.6,0.2-1.3,0.6-1.7c0.6-0.4,1.3-0.6,2-0.6v1
	c-0.4,0-0.8,0.1-1.1,0.3c-0.2,0.3-0.4,0.6-0.3,1v0.5h1.5L843.8,149.1z"/>
<path d="M846.1,154.9c-0.5-0.3-1-0.8-1.3-1.3c-0.3-0.6-0.5-1.3-0.5-1.9c0-0.7,0.1-1.3,0.5-1.9c0.3-0.5,0.7-1,1.3-1.3
	c1.2-0.6,2.5-0.6,3.7,0c0.5,0.3,1,0.7,1.3,1.3c0.3,0.6,0.5,1.3,0.5,1.9c0,0.7-0.2,1.4-0.5,1.9c-0.3,0.5-0.8,1-1.3,1.3
	c-0.6,0.3-1.2,0.5-1.8,0.4C847.3,155.3,846.6,155.2,846.1,154.9z M849.1,154c0.4-0.2,0.7-0.5,0.9-0.9c0.2-0.4,0.4-1,0.3-1.5
	c0-0.5-0.1-1-0.3-1.4c-0.2-0.4-0.5-0.7-0.9-0.9c-0.4-0.2-0.8-0.3-1.2-0.3c-0.4,0-0.8,0.1-1.2,0.3c-0.4,0.2-0.7,0.5-0.9,0.9
	c-0.2,0.4-0.3,0.9-0.3,1.4c0,0.5,0.1,1,0.3,1.5c0.2,0.4,0.5,0.7,0.8,0.9c0.4,0.2,0.8,0.3,1.2,0.3C848.3,154.3,848.7,154.2,849.1,154
	L849.1,154z"/>
<path d="M854.8,148.3c0.4-0.2,0.9-0.4,1.4-0.3v1.2h-0.3c-1.3,0-2,0.7-2,2.2v3.9h-1.2v-7.1h1.2v1.2
	C854.1,148.8,854.4,148.5,854.8,148.3z"/>
<path d="M863,154.1l2.2-6h1.3l-2.8,7.1h-1.4l-2.8-7.1h1.3L863,154.1z"/>
<path d="M867.3,146.7c-0.2-0.2-0.2-0.4-0.2-0.6c0-0.4,0.3-0.8,0.8-0.8c0,0,0,0,0,0c0.2,0,0.4,0.1,0.6,0.2c0.1,0.2,0.2,0.4,0.2,0.6
	c0,0.2-0.1,0.4-0.2,0.6c-0.1,0.2-0.3,0.2-0.6,0.2C867.7,146.9,867.5,146.8,867.3,146.7z M868.5,148.1v7.1h-1.2v-7.1H868.5z"/>
<path d="M876.6,152.1h-5.7c0,0.6,0.3,1.2,0.7,1.6c0.4,0.4,1,0.6,1.6,0.6c0.5,0,0.9-0.1,1.3-0.4c0.3-0.2,0.6-0.6,0.7-1h1.3
	c-0.2,0.7-0.6,1.3-1.1,1.7c-0.6,0.4-1.4,0.7-2.1,0.6c-0.6,0-1.3-0.1-1.8-0.4c-0.5-0.3-1-0.8-1.3-1.3c-0.6-1.2-0.6-2.7,0-3.9
	c0.3-0.5,0.7-1,1.2-1.3c0.6-0.3,1.2-0.5,1.8-0.4c0.6,0,1.2,0.1,1.8,0.4c0.5,0.3,0.9,0.7,1.2,1.2c0.3,0.5,0.4,1.1,0.4,1.8
	C876.6,151.6,876.6,151.8,876.6,152.1z M875.1,150c-0.2-0.3-0.5-0.6-0.8-0.7c-0.4-0.2-0.7-0.3-1.1-0.2c-0.6,0-1.1,0.2-1.5,0.6
	c-0.4,0.4-0.7,1-0.7,1.6h4.5C875.4,150.8,875.3,150.4,875.1,150z"/>
<path d="M887.3,148.1l-2.2,7.1h-1.2l-1.7-5.7l-1.7,5.7h-1.2l-2.2-7.1h1.2l1.6,6l1.8-6h1.2l1.7,6l1.6-6H887.3z"/>
<path d="M894.6,152.1h-5.7c0,1.2,1,2.2,2.2,2.2c0,0,0.1,0,0.1,0c0.5,0,0.9-0.1,1.3-0.4c0.3-0.2,0.6-0.6,0.7-1h1.3
	c-0.2,0.7-0.6,1.3-1.2,1.7c-0.6,0.4-1.4,0.7-2.1,0.6c-0.6,0-1.3-0.1-1.8-0.4c-0.5-0.3-1-0.8-1.3-1.3c-0.6-1.2-0.6-2.7,0-3.9
	c0.3-0.5,0.7-1,1.2-1.3c0.6-0.3,1.2-0.5,1.8-0.4c0.6,0,1.2,0.1,1.8,0.4c0.5,0.3,0.9,0.7,1.2,1.2c0.3,0.5,0.4,1.1,0.4,1.8
	C894.6,151.6,894.6,151.8,894.6,152.1z M893.1,150c-0.2-0.3-0.5-0.6-0.8-0.7c-0.4-0.2-0.7-0.3-1.1-0.2c-0.6,0-1.1,0.2-1.5,0.6
	c-0.4,0.4-0.7,1-0.7,1.6h4.5C893.4,150.8,893.3,150.4,893.1,150z"/>
<path d="M897.9,148.3c0.4-0.2,0.9-0.4,1.4-0.3v1.2H899c-1.3,0-2,0.7-2,2.2v3.9h-1.2v-7.1h1.2v1.2
	C897.2,148.8,897.5,148.5,897.9,148.3z"/>
<path d="M901.3,155c-0.4-0.2-0.7-0.4-1-0.8c-0.3-0.3-0.4-0.7-0.4-1.1h1.2c0,0.3,0.2,0.7,0.5,0.9c0.3,0.2,0.8,0.4,1.2,0.3
	c0.4,0,0.8-0.1,1.1-0.3c0.2-0.2,0.4-0.5,0.4-0.8c0-0.3-0.1-0.6-0.4-0.7c-0.4-0.2-0.8-0.3-1.3-0.4c-0.4-0.1-0.9-0.3-1.3-0.4
	c-0.3-0.1-0.6-0.4-0.9-0.6c-0.2-0.3-0.4-0.6-0.4-1c0-0.4,0.1-0.7,0.3-1c0.2-0.3,0.6-0.6,0.9-0.7c0.4-0.2,0.9-0.3,1.4-0.3
	c0.7,0,1.4,0.2,1.9,0.6c0.5,0.4,0.8,1,0.8,1.6h-1.2c0-0.3-0.2-0.7-0.4-0.9c-0.6-0.4-1.5-0.4-2.1-0.1c-0.2,0.2-0.4,0.4-0.4,0.7
	c0,0.2,0.1,0.4,0.2,0.6c0.2,0.2,0.4,0.3,0.6,0.4c0.3,0.1,0.7,0.2,1,0.3c0.4,0.1,0.8,0.2,1.2,0.4c0.3,0.1,0.6,0.3,0.8,0.6
	c0.2,0.3,0.4,0.7,0.4,1.1c0,0.4-0.1,0.7-0.3,1c-0.2,0.3-0.6,0.6-0.9,0.7c-0.4,0.2-0.9,0.3-1.4,0.3
	C902.3,155.3,901.8,155.2,901.3,155z"/>
<path d="M911.2,149.1v4.2c0,0.3,0.1,0.5,0.2,0.7c0.2,0.2,0.5,0.2,0.8,0.2h0.9v1H912c-0.5,0-1.1-0.1-1.5-0.5
	c-0.4-0.4-0.5-0.9-0.5-1.5v-4.2h-0.9v-1h0.9v-1.8h1.2v1.8h1.9v1L911.2,149.1z"/>
<path d="M915.5,154.9c-0.5-0.3-1-0.8-1.3-1.3c-0.3-0.6-0.5-1.3-0.5-1.9c0-0.7,0.1-1.3,0.5-1.9c0.3-0.5,0.7-1,1.3-1.3
	c1.2-0.6,2.5-0.6,3.7,0c0.5,0.3,1,0.7,1.3,1.3c0.3,0.6,0.5,1.3,0.5,1.9c0,0.7-0.2,1.4-0.5,1.9c-0.3,0.5-0.8,1-1.3,1.3
	c-0.6,0.3-1.2,0.5-1.8,0.4C916.6,155.3,916,155.2,915.5,154.9z M918.5,154c0.4-0.2,0.7-0.5,0.9-0.9c0.2-0.4,0.4-1,0.3-1.5
	c0-0.5-0.1-1-0.3-1.4c-0.2-0.4-0.5-0.7-0.9-0.9c-0.4-0.2-0.8-0.3-1.2-0.3c-0.4,0-0.8,0.1-1.2,0.3c-0.4,0.2-0.7,0.5-0.9,0.9
	c-0.2,0.4-0.3,0.9-0.3,1.4c0,0.5,0.1,1,0.3,1.5c0.2,0.4,0.5,0.7,0.8,0.9c0.4,0.2,0.8,0.3,1.2,0.3C917.7,154.3,918.1,154.2,918.5,154
	L918.5,154z"/>
<path d="M927.9,148.2c0.4-0.2,0.9-0.3,1.4-0.3c0.6,0,1.2,0.1,1.7,0.4c0.5,0.3,0.9,0.8,1.2,1.3c0.3,0.6,0.4,1.3,0.4,1.9
	c0,0.7-0.1,1.4-0.4,2c-0.3,0.5-0.7,1-1.2,1.3c-0.5,0.3-1.1,0.5-1.7,0.5c-0.5,0-1-0.1-1.4-0.3c-0.4-0.2-0.7-0.5-1-0.8v1h-1.8v-9.6
	h1.9v3.5C927.2,148.7,927.5,148.4,927.9,148.2z M930.5,150.5c-0.3-0.6-1-1-1.7-1c-0.3,0-0.6,0.1-0.9,0.2c-0.3,0.2-0.5,0.4-0.7,0.7
	c-0.3,0.7-0.3,1.6,0,2.3c0.2,0.3,0.4,0.6,0.7,0.7c0.3,0.2,0.6,0.3,0.9,0.2c0.3,0,0.7-0.1,1-0.3c0.3-0.2,0.5-0.4,0.7-0.7
	C930.9,152,930.9,151.1,930.5,150.5L930.5,150.5z"/>
<path d="M940.2,152.1H935c0,0.5,0.2,0.9,0.5,1.2c0.3,0.3,0.7,0.5,1.2,0.4c0.6,0,1.2-0.3,1.5-0.9h2c-0.2,0.7-0.6,1.3-1.2,1.7
	c-0.6,0.5-1.4,0.7-2.2,0.7c-0.6,0-1.3-0.1-1.9-0.5c-0.5-0.3-1-0.8-1.3-1.3c-0.3-0.6-0.5-1.3-0.5-2c0-0.7,0.1-1.4,0.5-2
	c0.3-0.5,0.7-1,1.3-1.3c0.6-0.3,1.2-0.5,1.9-0.4c0.6,0,1.3,0.1,1.8,0.4c0.5,0.3,1,0.7,1.3,1.2c0.3,0.6,0.5,1.2,0.5,1.9
	C940.3,151.6,940.3,151.9,940.2,152.1z M938.4,150.9c0-0.4-0.2-0.8-0.5-1.1c-0.3-0.3-0.8-0.4-1.2-0.4c-0.4,0-0.8,0.1-1.1,0.4
	c-0.3,0.3-0.5,0.7-0.6,1.1L938.4,150.9z"/>
<path d="M943.4,149.5v3.5c0,0.2,0,0.4,0.2,0.5c0.2,0.1,0.4,0.2,0.6,0.2h0.9v1.5h-1.1c-1.1,0.2-2.1-0.6-2.3-1.7c0-0.2,0-0.4,0-0.6
	v-3.5h-0.9V148h0.9v-1.8h1.8v1.8h1.6v1.5H943.4z"/>
<path d="M948,149.5v3.5c0,0.2,0,0.4,0.2,0.5c0.2,0.1,0.4,0.2,0.6,0.2h0.8v1.5h-1.1c-1.1,0.2-2.1-0.6-2.3-1.7c0-0.2,0-0.4,0-0.6v-3.5
	h-0.9V148h0.9v-1.8h1.8v1.8h1.6v1.5H948z"/>
<path d="M957.2,152.1H952c0,0.5,0.2,0.9,0.5,1.2c0.3,0.3,0.7,0.5,1.2,0.4c0.6,0,1.2-0.3,1.4-0.9h2c-0.2,0.7-0.6,1.3-1.2,1.7
	c-0.6,0.5-1.4,0.7-2.2,0.7c-0.7,0-1.3-0.1-1.9-0.5c-0.5-0.3-1-0.8-1.3-1.3c-0.3-0.6-0.5-1.3-0.5-2c0-0.7,0.1-1.4,0.5-2
	c0.3-0.5,0.7-1,1.3-1.3c0.6-0.3,1.2-0.5,1.9-0.4c0.6,0,1.3,0.1,1.8,0.4c0.5,0.3,1,0.7,1.3,1.2c0.3,0.6,0.5,1.2,0.5,1.9
	C957.3,151.6,957.3,151.9,957.2,152.1z M955.4,150.9c0-0.4-0.2-0.8-0.5-1.1c-0.3-0.3-0.8-0.4-1.2-0.4c-0.4,0-0.8,0.1-1.1,0.4
	c-0.3,0.3-0.5,0.7-0.6,1.1L955.4,150.9z"/>
<path d="M961,148.2c0.4-0.2,0.8-0.3,1.3-0.3v1.9h-0.5c-0.8-0.1-1.6,0.4-1.7,1.3c0,0.2,0,0.4,0,0.6v3.6h-1.8V148h1.8v1.1
	C960.3,148.7,960.6,148.4,961,148.2z"/>
<path d="M965.9,149.6c0.3-0.5,0.7-1,1.3-1.3c0.6-0.3,1.2-0.5,1.8-0.5c0.8,0,1.6,0.2,2.2,0.7c0.6,0.5,1,1.1,1.2,1.9h-2
	c-0.1-0.3-0.3-0.5-0.5-0.7c-0.3-0.2-0.6-0.3-0.9-0.3c-0.5,0-0.9,0.2-1.2,0.6c-0.6,1-0.6,2.2,0,3.2c0.3,0.4,0.8,0.6,1.2,0.6
	c0.7,0.1,1.3-0.4,1.4-1h2c-0.2,0.7-0.6,1.4-1.2,1.9c-0.6,0.5-1.4,0.7-2.2,0.7c-0.6,0-1.3-0.1-1.8-0.5c-0.5-0.3-1-0.8-1.3-1.3
	C965.3,152.3,965.3,150.9,965.9,149.6L965.9,149.6z"/>
<path d="M973.3,149.6c0.5-1.1,1.6-1.8,2.8-1.8c0.5,0,1,0.1,1.4,0.3c0.4,0.2,0.7,0.5,1,0.8v-1h1.8v7.2h-1.8v-1.1
	c-0.3,0.4-0.6,0.6-1,0.8c-1,0.5-2.1,0.4-3.1-0.1c-0.5-0.3-0.9-0.8-1.2-1.3c-0.3-0.6-0.5-1.3-0.4-2
	C972.9,150.9,973,150.2,973.3,149.6z M978.3,150.5c-0.2-0.3-0.4-0.6-0.7-0.7c-0.3-0.2-0.6-0.3-1-0.2c-0.7,0-1.3,0.4-1.6,1
	c-0.2,0.3-0.3,0.7-0.3,1.1c0,0.4,0.1,0.8,0.3,1.1c0.2,0.3,0.4,0.6,0.7,0.7c0.3,0.2,0.6,0.3,0.9,0.3c0.4,0,0.7-0.1,1-0.2
	c0.3-0.2,0.5-0.4,0.7-0.7C978.7,152.1,978.7,151.2,978.3,150.5L978.3,150.5z"/>
<path d="M984.6,148.2c0.4-0.2,0.9-0.3,1.4-0.3c1.2,0,2.3,0.7,2.8,1.8c0.3,0.6,0.5,1.3,0.4,1.9c0,0.7-0.1,1.4-0.4,2
	c-0.3,0.5-0.7,1-1.2,1.3c-0.5,0.3-1.1,0.5-1.7,0.5c-0.5,0-1-0.1-1.4-0.3c-0.4-0.2-0.7-0.5-1-0.8v4.5h-1.8V148h1.8v1
	C983.9,148.7,984.2,148.4,984.6,148.2z M987.2,150.4c-0.2-0.3-0.4-0.5-0.7-0.7c-0.3-0.2-0.6-0.2-0.9-0.2c-0.3,0-0.6,0.1-0.9,0.2
	c-0.3,0.2-0.5,0.4-0.7,0.7c-0.4,0.7-0.4,1.6,0,2.3c0.2,0.3,0.4,0.6,0.7,0.7c0.3,0.2,0.6,0.3,0.9,0.2c0.3,0,0.7-0.1,0.9-0.3
	c0.3-0.2,0.5-0.4,0.7-0.7C987.5,152,987.5,151.2,987.2,150.4L987.2,150.4z"/>
<path d="M992.4,149.5v3.5c0,0.2,0,0.4,0.2,0.5c0.2,0.1,0.4,0.2,0.6,0.2h0.9v1.5h-1.1c-1.1,0.2-2.1-0.6-2.3-1.7c0-0.2,0-0.4,0-0.6
	v-3.5h-0.9V148h0.9v-1.8h1.8v1.8h1.6v1.5H992.4z"/>
<path d="M1001.7,148v7.2h-1.8v-0.9c-0.2,0.3-0.6,0.6-0.9,0.7c-0.4,0.2-0.8,0.3-1.2,0.3c-0.5,0-1-0.1-1.5-0.4c-0.4-0.2-0.8-0.6-1-1.1
	c-0.3-0.5-0.4-1.1-0.4-1.7V148h1.8v4c0,0.5,0.1,0.9,0.4,1.3c0.3,0.3,0.7,0.5,1.2,0.5c0.4,0,0.9-0.1,1.2-0.5c0.3-0.4,0.5-0.8,0.4-1.3
	v-4H1001.7z"/>
<path d="M1005.9,148.2c0.4-0.2,0.8-0.3,1.3-0.3v1.9h-0.5c-0.8-0.1-1.6,0.4-1.7,1.2c0,0.2,0,0.4,0,0.6v3.6h-1.8V148h1.8v1.1
	C1005.2,148.8,1005.5,148.4,1005.9,148.2z"/>
<path d="M1014.7,152.1h-5.3c0,0.5,0.2,0.9,0.5,1.2c0.3,0.3,0.7,0.5,1.2,0.4c0.6,0,1.2-0.3,1.5-0.9h2c-0.2,0.7-0.6,1.3-1.2,1.7
	c-0.6,0.5-1.4,0.7-2.2,0.7c-0.6,0-1.3-0.1-1.9-0.5c-0.5-0.3-1-0.8-1.3-1.3c-0.3-0.6-0.5-1.3-0.5-2c0-0.7,0.1-1.4,0.5-2
	c0.3-0.5,0.7-1,1.3-1.3c0.6-0.3,1.2-0.5,1.9-0.4c0.6,0,1.3,0.1,1.8,0.4c0.5,0.3,1,0.7,1.3,1.2c0.3,0.6,0.5,1.2,0.5,1.9
	C1014.8,151.6,1014.7,151.9,1014.7,152.1z M1012.8,150.9c0-0.4-0.2-0.8-0.5-1.1c-0.3-0.3-0.8-0.4-1.2-0.4c-0.4,0-0.8,0.1-1.1,0.4
	c-0.3,0.3-0.5,0.7-0.6,1.1L1012.8,150.9z"/>
<path d="M1018.5,146.8c-0.4-0.4-0.4-1.1,0-1.5c0,0,0,0,0,0c0.2-0.2,0.5-0.3,0.8-0.3c0.3,0,0.6,0.1,0.8,0.3c0.4,0.4,0.4,1.1,0,1.5
	c-0.2,0.2-0.5,0.3-0.8,0.3C1019.1,147.2,1018.8,147,1018.5,146.8z M1020.2,148v7.2h-1.8V148H1020.2z"/>
<path d="M1027.7,148.7c0.6,0.6,0.8,1.4,0.8,2.3v4.2h-1.8v-4c0-0.5-0.1-0.9-0.4-1.3c-0.3-0.3-0.7-0.5-1.2-0.5c-0.4,0-0.9,0.1-1.2,0.5
	c-0.3,0.4-0.5,0.8-0.4,1.3v4h-1.8V148h1.8v0.9c0.2-0.3,0.6-0.6,0.9-0.7c0.4-0.2,0.8-0.3,1.2-0.3
	C1026.4,147.9,1027.2,148.2,1027.7,148.7z"/>
<path d="M1033.2,149.5h-1.3v5.7h-1.8v-5.7h-0.8V148h0.8v-0.4c-0.1-0.7,0.2-1.4,0.8-1.9c0.7-0.5,1.5-0.7,2.3-0.6v1.5
	c-0.3,0-0.7,0-0.9,0.2c-0.2,0.2-0.3,0.5-0.3,0.9v0.3h1.3V149.5z"/>
<path d="M1035.3,154.9c-0.6-0.3-1-0.8-1.3-1.3c-0.3-0.6-0.5-1.3-0.5-2c0-0.7,0.2-1.4,0.5-1.9c0.3-0.6,0.8-1,1.3-1.3
	c0.6-0.3,1.2-0.5,1.9-0.5c0.7,0,1.3,0.1,1.9,0.5c0.6,0.3,1,0.8,1.3,1.3c0.7,1.2,0.7,2.7,0,3.9c-0.3,0.5-0.8,1-1.4,1.3
	c-0.6,0.3-1.2,0.5-1.9,0.5C1036.6,155.3,1035.9,155.2,1035.3,154.9z M1038.2,153.5c0.3-0.2,0.5-0.4,0.7-0.7c0.2-0.4,0.3-0.8,0.3-1.2
	c0-0.6-0.2-1.1-0.5-1.6c-0.3-0.4-0.8-0.6-1.3-0.6c-0.5,0-1,0.2-1.3,0.6c-0.7,0.9-0.7,2.2,0,3.1c0.3,0.4,0.8,0.6,1.3,0.6
	C1037.6,153.7,1037.9,153.7,1038.2,153.5z"/>
<g>
	<path d="M91.7,59.9v25.7h-4.2V59.9H91.7z"/>
	<path d="M110.8,65.9c1.3,0.7,2.3,1.7,3,3c0.7,1.3,1.1,2.9,1.1,4.7v12h-4.2V74.2c0-1.8-0.5-3.2-1.4-4.2c-0.9-1-2.2-1.5-3.7-1.5
		c-1.6,0-2.8,0.5-3.8,1.5c-0.9,1-1.4,2.4-1.4,4.2v11.4h-4.2V65.2h4.2v2.3c0.7-0.8,1.6-1.5,2.6-2c1.1-0.5,2.2-0.7,3.4-0.7
		C108.1,64.9,109.5,65.2,110.8,65.9z"/>
	<path d="M122.3,85.1c-1.3-0.6-2.3-1.4-3-2.4c-0.7-1-1.1-2.1-1.2-3.3h4.4c0.1,0.9,0.5,1.6,1.2,2.2c0.8,0.6,1.7,0.9,2.8,0.9
		c1.2,0,2.1-0.2,2.8-0.7c0.7-0.5,1-1,1-1.8c0-0.8-0.4-1.3-1.1-1.7c-0.7-0.4-1.9-0.8-3.5-1.2c-1.5-0.4-2.8-0.8-3.7-1.2
		c-1-0.4-1.8-1-2.5-1.8c-0.7-0.8-1.1-1.9-1.1-3.2c0-1.1,0.3-2.1,1-3c0.6-0.9,1.6-1.6,2.8-2.1s2.6-0.8,4.1-0.8c2.3,0,4.2,0.6,5.6,1.8
		c1.4,1.2,2.2,2.8,2.3,4.8h-4.2c-0.1-0.9-0.4-1.6-1.1-2.2c-0.7-0.5-1.6-0.8-2.7-0.8c-1.1,0-2,0.2-2.6,0.6c-0.6,0.4-0.9,1-0.9,1.7
		c0,0.5,0.2,1,0.6,1.4c0.4,0.4,0.9,0.7,1.4,0.9c0.6,0.2,1.4,0.5,2.5,0.8c1.5,0.4,2.7,0.8,3.6,1.2c0.9,0.4,1.8,1,2.5,1.8
		c0.7,0.8,1,1.8,1.1,3.1c0,1.2-0.3,2.2-1,3.1c-0.6,0.9-1.5,1.6-2.7,2.1c-1.2,0.5-2.5,0.8-4.1,0.8C125,85.9,123.6,85.7,122.3,85.1z"
		/>
	<path d="M138.1,61.7c-0.5-0.5-0.8-1.2-0.8-1.9c0-0.8,0.3-1.4,0.8-1.9s1.2-0.8,1.9-0.8c0.7,0,1.4,0.3,1.9,0.8s0.8,1.2,0.8,1.9
		c0,0.8-0.3,1.4-0.8,1.9c-0.5,0.5-1.1,0.8-1.9,0.8C139.3,62.5,138.7,62.3,138.1,61.7z M142.1,65.2v20.4h-4.2V65.2H142.1z"/>
	<path d="M159.1,65.8c1.2,0.6,2.2,1.4,2.9,2.3v-3h4.3v20.7c0,1.9-0.4,3.5-1.2,5c-0.8,1.5-1.9,2.6-3.4,3.5c-1.5,0.8-3.3,1.3-5.3,1.3
		c-2.8,0-5.1-0.6-6.9-1.9c-1.8-1.3-2.9-3.1-3.1-5.3h4.2c0.3,1.1,1,1.9,2.1,2.6c1,0.7,2.3,1,3.8,1c1.7,0,3.1-0.5,4.1-1.6
		c1-1,1.6-2.5,1.6-4.5v-3.4c-0.7,1-1.7,1.8-2.9,2.4c-1.2,0.7-2.6,1-4.2,1c-1.8,0-3.4-0.4-4.9-1.4c-1.5-0.9-2.6-2.2-3.5-3.8
		c-0.9-1.6-1.3-3.4-1.3-5.5c0-2,0.4-3.9,1.3-5.4c0.9-1.6,2-2.8,3.5-3.7c1.5-0.9,3.1-1.3,4.9-1.3C156.4,64.9,157.8,65.2,159.1,65.8z
		 M161.1,71.7c-0.6-1-1.3-1.8-2.3-2.4c-0.9-0.5-1.9-0.8-3-0.8c-1.1,0-2.1,0.3-3,0.8c-0.9,0.5-1.7,1.3-2.3,2.3
		c-0.6,1-0.9,2.2-0.9,3.6c0,1.4,0.3,2.6,0.9,3.7c0.6,1.1,1.3,1.9,2.3,2.4c0.9,0.6,2,0.8,3,0.8c1.1,0,2.1-0.3,3-0.8
		c0.9-0.5,1.7-1.3,2.3-2.4c0.6-1,0.9-2.3,0.9-3.7C161.9,74,161.6,72.8,161.1,71.7z"/>
	<path d="M185.4,65.9c1.2,0.7,2.2,1.7,2.9,3c0.7,1.3,1.1,2.9,1.1,4.7v12h-4.2V74.2c0-1.8-0.5-3.2-1.4-4.2c-0.9-1-2.2-1.5-3.7-1.5
		c-1.6,0-2.8,0.5-3.8,1.5c-0.9,1-1.4,2.4-1.4,4.2v11.4h-4.2V58.2h4.2v9.4c0.7-0.9,1.6-1.5,2.7-2c1.1-0.5,2.3-0.7,3.6-0.7
		C182.8,64.9,184.2,65.2,185.4,65.9z"/>
	<path d="M198.6,68.7v11.3c0,0.8,0.2,1.3,0.5,1.6c0.4,0.3,1,0.5,1.8,0.5h2.6v3.5h-3.3c-1.9,0-3.4-0.4-4.4-1.3
		c-1-0.9-1.5-2.3-1.5-4.3V68.7h-2.4v-3.4h2.4v-5.1h4.3v5.1h5v3.4H198.6z"/>
	<path d="M234.9,85.6l-3.2-3.2c-1.2,1.2-2.6,2.2-4,2.8c-1.5,0.6-3.1,0.9-4.9,0.9c-1.8,0-3.4-0.3-4.8-1c-1.4-0.6-2.5-1.6-3.3-2.8
		c-0.8-1.2-1.1-2.6-1.1-4.2c0-1.8,0.5-3.4,1.5-4.8c1-1.4,2.5-2.5,4.5-3.3c-0.7-0.9-1.2-1.7-1.5-2.4c-0.3-0.8-0.4-1.6-0.4-2.5
		c0-1.1,0.3-2.1,0.9-3c0.6-0.9,1.4-1.6,2.5-2.1c1.1-0.5,2.3-0.8,3.8-0.8c1.5,0,2.7,0.3,3.7,0.8c1,0.6,1.8,1.3,2.3,2.3
		c0.5,1,0.7,2,0.6,3.2h-4.2c0-0.9-0.2-1.6-0.7-2.1c-0.5-0.5-1.1-0.8-1.9-0.8s-1.5,0.2-2,0.7c-0.5,0.5-0.8,1.1-0.8,1.8
		c0,0.7,0.2,1.3,0.6,2c0.4,0.7,1.1,1.5,2,2.5l6.8,6.8l2.6-4.3h4.6l-3.3,5.7l-0.9,1.5l6.3,6.2H234.9z M228.9,79.7l-6.8-6.8
		c-2.9,1.2-4.4,2.9-4.4,5.3c0,1.3,0.5,2.3,1.4,3.2c0.9,0.9,2.1,1.3,3.6,1.3C225.1,82.5,227.1,81.6,228.9,79.7z"/>
	<path d="M267.7,71.3c-0.6,1.2-1.6,2.1-3,2.8c-1.4,0.7-3.1,1.1-5.2,1.1h-4.7v10.4h-4.2V59.9h8.9c2,0,3.6,0.3,5,1
		c1.4,0.7,2.4,1.6,3.1,2.8c0.7,1.2,1,2.5,1,3.9C268.7,68.9,268.4,70.1,267.7,71.3z M263.2,70.6c0.8-0.7,1.2-1.8,1.2-3.1
		c0-2.8-1.6-4.2-4.8-4.2h-4.7v8.4h4.7C261.2,71.7,262.4,71.4,263.2,70.6z"/>
	<path d="M275.9,58.2v27.4h-4.2V58.2H275.9z"/>
	<path d="M280.3,69.9c0.9-1.6,2-2.8,3.5-3.7c1.5-0.9,3.1-1.3,4.9-1.3c1.6,0,3,0.3,4.2,0.9c1.2,0.6,2.2,1.4,2.9,2.3v-3h4.3v20.4h-4.3
		v-3c-0.7,1-1.7,1.8-2.9,2.4s-2.6,1-4.2,1c-1.8,0-3.4-0.4-4.8-1.4c-1.5-0.9-2.6-2.2-3.5-3.8c-0.9-1.6-1.3-3.4-1.3-5.5
		C279,73.3,279.4,71.5,280.3,69.9z M294.8,71.7c-0.6-1-1.3-1.8-2.3-2.4c-0.9-0.5-1.9-0.8-3-0.8c-1.1,0-2.1,0.3-3,0.8
		c-0.9,0.5-1.7,1.3-2.3,2.3c-0.6,1-0.9,2.2-0.9,3.6c0,1.4,0.3,2.6,0.9,3.7c0.6,1.1,1.3,1.9,2.3,2.4c0.9,0.6,2,0.8,3,0.8
		c1.1,0,2.1-0.3,3-0.8c0.9-0.5,1.7-1.3,2.3-2.4c0.6-1,0.9-2.3,0.9-3.7C295.7,74,295.4,72.8,294.8,71.7z"/>
	<path d="M319,65.9c1.3,0.7,2.3,1.7,3,3c0.7,1.3,1.1,2.9,1.1,4.7v12h-4.2V74.2c0-1.8-0.5-3.2-1.4-4.2c-0.9-1-2.2-1.5-3.7-1.5
		c-1.6,0-2.8,0.5-3.8,1.5c-0.9,1-1.4,2.4-1.4,4.2v11.4h-4.2V65.2h4.2v2.3c0.7-0.8,1.6-1.5,2.6-2c1.1-0.5,2.2-0.7,3.4-0.7
		C316.3,64.9,317.8,65.2,319,65.9z"/>
</g>
</svg>
