<?xml version="1.0" encoding="utf-8"?>
<!-- Generator: Adobe Illustrator 24.1.0, SVG Export Plug-In . SVG Version: 6.00 Build 0)  -->
<svg version="1.1" id="图层_1" xmlns="http://www.w3.org/2000/svg" xmlns:xlink="http://www.w3.org/1999/xlink" x="0px" y="0px"
	 viewBox="0 0 1251.7 168.5" style="enable-background:new 0 0 1251.7 168.5;" xml:space="preserve">
<style type="text/css">
	.st0{fill:#FFFFFF;}
</style>
<rect class="st0" width="1251.7" height="168.5"/>
<path d="M90.8,85c-1.3-0.5-2.4-1.4-3.2-2.6c-0.8-1.1-1.2-2.5-1.2-3.9h4.5c0.1,1,0.5,2,1.3,2.7c0.9,0.8,2.1,1.1,3.3,1.1
	c1.2,0.1,2.4-0.3,3.4-1c0.8-0.7,1.2-1.7,1.2-2.7c0-0.8-0.2-1.5-0.8-2.1c-0.5-0.6-1.2-1-1.9-1.3c-1-0.4-2.1-0.7-3.1-1
	c-1.4-0.3-2.8-0.8-4.1-1.3c-1.1-0.5-2-1.2-2.7-2.1c-0.8-1.1-1.2-2.5-1.1-3.8c0-1.4,0.3-2.8,1.1-3.9c0.8-1.1,1.8-2,3.1-2.5
	c1.5-0.6,3-0.9,4.6-0.9c2.2-0.1,4.4,0.6,6.1,1.9c1.6,1.2,2.5,3.1,2.6,5.1h-4.6c-0.1-1-0.6-1.8-1.4-2.4c-0.9-0.7-2.1-1.1-3.2-1
	c-1.1-0.1-2.1,0.3-3,0.9c-0.8,0.7-1.2,1.6-1.2,2.7c0,0.7,0.2,1.4,0.7,1.9s1.1,0.9,1.8,1.2c1,0.4,2,0.7,3,1c1.4,0.4,2.8,0.8,4.2,1.4
	c1.1,0.5,2,1.2,2.7,2.2c0.8,1.1,1.2,2.5,1.1,3.9c0,1.3-0.4,2.6-1.1,3.7c-0.7,1.2-1.8,2.2-3.1,2.8c-1.5,0.7-3.1,1.1-4.8,1
	C93.8,85.9,92.2,85.6,90.8,85z"/>
<path d="M126.7,65.2v20.4h-4.2v-2.4c-0.7,0.9-1.6,1.6-2.6,2c-1.1,0.5-2.2,0.7-3.4,0.7c-1.5,0-3-0.3-4.3-1s-2.3-1.7-3-3
	c-0.8-1.5-1.1-3.1-1.1-4.7v-12h4.2v11.4c-0.1,1.5,0.4,3,1.4,4.2c2.1,1.9,5.4,1.9,7.5,0c1-1.2,1.5-2.7,1.4-4.2V65.2H126.7z"/>
<path d="M137.9,65.8c1.1-0.6,2.4-0.9,3.6-0.9v4.4h-1.1c-1.4-0.1-2.7,0.4-3.8,1.3c-0.9,0.8-1.3,2.3-1.3,4.4v10.7h-4.2V65.2h4.2v3
	C136.1,67.2,136.9,66.3,137.9,65.8z"/>
<path d="M152.3,81.8l5.8-16.6h4.5l-7.8,20.4h-5L142,65.2h4.5L152.3,81.8z"/>
<path d="M183.2,77h-15.6c0.1,1.5,0.7,2.9,1.8,3.9s2.5,1.5,4,1.5c2,0.1,4-1,4.8-2.8h4.6c-0.6,1.9-1.8,3.5-3.4,4.6
	c-1.7,1.2-3.9,1.9-6,1.8c-1.8,0-3.6-0.4-5.2-1.3c-1.5-0.9-2.8-2.2-3.6-3.7c-0.9-1.7-1.4-3.6-1.3-5.5c0-1.9,0.4-3.8,1.3-5.5
	c0.8-1.5,2.1-2.8,3.6-3.7c1.6-0.9,3.5-1.3,5.3-1.3s3.6,0.4,5.1,1.2c1.5,0.8,2.7,2,3.5,3.5c0.9,1.6,1.3,3.4,1.2,5.2
	C183.4,75.6,183.3,76.3,183.2,77z M179,73.6c0-1.4-0.6-2.8-1.7-3.7c-1.1-0.9-2.5-1.4-4-1.4c-1.4,0-2.7,0.5-3.7,1.4
	c-1.1,1-1.7,2.3-1.9,3.8H179V73.6z"/>
<path d="M204.8,65.2l-12.5,30H188l4.1-9.9l-8-20h4.7l5.7,15.5l6-15.5L204.8,65.2z"/>
<path d="M603.4,56.1v1h-2.5v8.1h-1.2v-8.1h-2.5v-1H603.4z"/>
<path d="M605.7,64.9c-0.5-0.3-1-0.8-1.3-1.3c-0.6-1.2-0.6-2.7,0-3.9c0.3-0.5,0.8-1,1.3-1.3c1.1-0.6,2.5-0.6,3.7,0
	c0.5,0.3,1,0.7,1.3,1.3c0.3,0.6,0.5,1.3,0.5,1.9c0,0.7-0.2,1.4-0.5,1.9c-0.3,0.5-0.8,1-1.3,1.3c-0.6,0.3-1.2,0.5-1.8,0.4
	C606.9,65.3,606.3,65.2,605.7,64.9z M608.7,64c0.4-0.2,0.7-0.5,0.9-0.9c0.2-0.4,0.4-1,0.3-1.5c0-0.5-0.1-1-0.3-1.5
	c-0.2-0.4-0.5-0.7-0.9-0.9c-0.7-0.4-1.6-0.4-2.4,0c-0.4,0.2-0.7,0.5-0.9,0.9c-0.2,0.4-0.3,0.9-0.3,1.5c0,0.5,0.1,1,0.3,1.5
	c0.2,0.4,0.5,0.7,0.9,0.9c0.4,0.2,0.8,0.3,1.2,0.3C608,64.3,608.4,64.2,608.7,64L608.7,64z"/>
<path d="M615.5,59.7c0.3-0.5,0.7-1,1.2-1.3s1.2-0.5,1.8-0.5c0.8,0,1.5,0.2,2.2,0.6c0.6,0.4,1,1.1,1.1,1.8h-1.3
	c-0.1-0.4-0.4-0.8-0.7-1c-0.4-0.3-0.8-0.4-1.3-0.4c-0.6,0-1.2,0.2-1.6,0.7c-0.5,0.6-0.7,1.3-0.6,2c0,0.7,0.2,1.4,0.6,2
	c0.4,0.5,1,0.7,1.6,0.7c0.5,0,0.9-0.1,1.3-0.4c0.3-0.2,0.6-0.6,0.7-1h1.3c-0.2,0.7-0.6,1.3-1.1,1.8c-0.6,0.4-1.4,0.7-2.2,0.7
	c-0.6,0-1.2-0.1-1.8-0.4c-0.5-0.3-0.9-0.8-1.2-1.3c-0.3-0.6-0.5-1.3-0.4-2C615,61,615.2,60.3,615.5,59.7z"/>
<path d="M624.3,64.9c-0.5-0.3-1-0.8-1.3-1.3c-0.6-1.2-0.6-2.7,0-3.9c0.3-0.5,0.8-1,1.3-1.3c1.1-0.6,2.5-0.6,3.7,0
	c0.5,0.3,1,0.7,1.3,1.3c0.3,0.6,0.5,1.3,0.5,1.9c0,0.7-0.2,1.4-0.5,1.9c-0.3,0.5-0.8,1-1.3,1.3c-0.6,0.3-1.2,0.5-1.8,0.4
	C625.5,65.3,624.9,65.2,624.3,64.9z M627.3,64c0.4-0.2,0.7-0.5,0.9-0.9c0.2-0.4,0.4-1,0.3-1.5c0-0.5-0.1-1-0.3-1.5
	c-0.2-0.4-0.5-0.7-0.9-0.9c-0.7-0.4-1.6-0.4-2.4,0c-0.4,0.2-0.7,0.5-0.9,0.9c-0.2,0.4-0.3,0.9-0.3,1.5c0,0.5,0.1,1,0.3,1.5
	c0.2,0.4,0.5,0.7,0.8,0.9c0.4,0.2,0.8,0.3,1.2,0.3C626.5,64.3,627,64.2,627.3,64L627.3,64z"/>
<path d="M632.2,55.6v9.6H631v-9.6H632.2z"/>
<path d="M635,55.6v9.6h-1.2v-9.6H635z"/>
<path d="M643.1,62.1h-5.7c0,0.6,0.3,1.2,0.7,1.6c0.4,0.4,1,0.6,1.6,0.6c0.5,0,0.9-0.1,1.3-0.4c0.3-0.2,0.6-0.6,0.7-1h1.3
	c-0.2,0.7-0.6,1.3-1.1,1.7c-0.6,0.4-1.4,0.7-2.1,0.6c-0.6,0-1.3-0.1-1.8-0.4s-1-0.8-1.2-1.3c-0.3-0.6-0.5-1.3-0.5-1.9
	c0-0.7,0.1-1.3,0.4-1.9c0.3-0.5,0.7-1,1.2-1.3c0.6-0.3,1.2-0.5,1.8-0.5s1.3,0.1,1.8,0.5c0.5,0.3,0.9,0.7,1.2,1.2
	c0.3,0.5,0.4,1.1,0.4,1.8C643.1,61.6,643.1,61.8,643.1,62.1z M641.6,60c-0.2-0.3-0.5-0.6-0.8-0.7c-0.4-0.2-0.7-0.3-1.1-0.2
	c-0.6,0-1.1,0.2-1.5,0.6c-0.4,0.4-0.7,1-0.7,1.6h4.5C641.9,60.8,641.8,60.4,641.6,60z"/>
<path d="M644.4,59.7c0.3-0.5,0.7-1,1.2-1.3c1.3-0.7,2.8-0.6,4,0.2c0.6,0.4,1,1.1,1.1,1.8h-1.3c-0.1-0.4-0.4-0.8-0.7-1
	c-0.4-0.3-0.8-0.4-1.3-0.4c-0.6,0-1.2,0.2-1.6,0.7c-0.5,0.6-0.7,1.3-0.6,2c-0.1,0.7,0.2,1.4,0.6,2c0.4,0.5,1,0.7,1.6,0.7
	c0.5,0,0.9-0.1,1.3-0.4c0.3-0.2,0.6-0.6,0.7-1h1.3c-0.2,0.7-0.6,1.3-1.2,1.8c-0.6,0.4-1.4,0.7-2.1,0.7c-0.6,0-1.3-0.1-1.8-0.4
	s-1-0.8-1.2-1.4c-0.3-0.6-0.5-1.3-0.4-2C643.9,61,644.1,60.3,644.4,59.7z"/>
<path d="M653.3,59.1v4.2c0,0.3,0.1,0.5,0.2,0.7c0.2,0.2,0.5,0.2,0.8,0.2h0.9v1h-1.1c-0.5,0-1.1-0.1-1.5-0.5s-0.5-0.9-0.5-1.5V59
	h-0.9v-1h0.9v-1.8h1.2V58h1.9v1L653.3,59.1z"/>
<path d="M659.4,59.7c0.3-0.5,0.7-1,1.2-1.3s1.1-0.4,1.7-0.4s1.1,0.1,1.6,0.4c0.4,0.2,0.8,0.6,1,1v-1.3h1.2v10.5h-1.2v-4.7
	c-0.2,0.4-0.6,0.8-1,1c-0.5,0.3-1.1,0.4-1.6,0.4c-0.6,0-1.2-0.2-1.7-0.5s-0.9-0.8-1.2-1.3c-0.3-0.6-0.5-1.3-0.4-1.9
	C658.9,61,659.1,60.3,659.4,59.7z M664.7,60.2c-0.2-0.4-0.5-0.7-0.9-0.9c-0.8-0.4-1.7-0.4-2.4,0c-0.4,0.2-0.7,0.5-0.9,0.9
	c-0.2,0.4-0.3,0.9-0.3,1.4s0,0.9,0.2,1.4c0.2,0.4,0.5,0.7,0.9,0.9s0.8,0.3,1.2,0.3c0.9,0,1.7-0.5,2.1-1.2c0.2-0.4,0.3-0.9,0.3-1.4
	C664.9,61.1,664.8,60.7,664.7,60.2L664.7,60.2z"/>
<path d="M674.1,58.1v7.1h-1.2v-1.1c-0.2,0.4-0.6,0.7-0.9,0.8c-0.4,0.2-0.9,0.3-1.3,0.3c-0.5,0-1-0.1-1.5-0.3c-0.4-0.2-0.8-0.6-1-1
	c-0.3-0.5-0.4-1.1-0.4-1.7V58h1.2v4c0,0.6,0.2,1.2,0.5,1.6c0.8,0.8,2.2,0.8,3,0c0.4-0.5,0.6-1.1,0.5-1.7V58h1.1V58.1z"/>
<path d="M675.7,59.7c0.3-0.5,0.7-1,1.2-1.3s1.1-0.5,1.7-0.5c0.6,0,1.1,0.1,1.6,0.4c0.4,0.2,0.8,0.6,1,1V58h1.2v7.1h-1.2v-1.3
	c-0.2,0.4-0.6,0.8-1,1c-0.5,0.3-1.1,0.4-1.6,0.4c-0.6,0-1.2-0.2-1.7-0.5s-0.9-0.8-1.2-1.3c-0.3-0.6-0.5-1.3-0.4-1.9
	C675.3,60.9,675.4,60.3,675.7,59.7z M681,60.2c-0.2-0.4-0.5-0.7-0.9-0.9s-0.8-0.3-1.2-0.3s-0.8,0.1-1.2,0.3s-0.7,0.5-0.9,0.9
	c-0.2,0.4-0.3,0.9-0.3,1.4s0.1,1,0.3,1.4c0.2,0.4,0.5,0.7,0.9,0.9c1.1,0.7,2.6,0.3,3.3-0.9c0,0,0-0.1,0.1-0.1
	c0.2-0.4,0.3-0.9,0.3-1.4C681.3,61.1,681.2,60.7,681,60.2L681,60.2z"/>
<path d="M689.7,58.7c0.6,0.6,0.9,1.4,0.8,2.3v4.2h-1.1v-4c0-0.6-0.2-1.2-0.5-1.6c-0.4-0.4-0.9-0.6-1.5-0.6s-1.1,0.2-1.5,0.6
	c-0.4,0.5-0.6,1.1-0.5,1.7v3.9h-1.2V58h1.2v1c0.2-0.4,0.6-0.7,1-0.8c0.4-0.2,0.9-0.3,1.3-0.3C688.4,57.9,689.2,58.2,689.7,58.7z"/>
<path d="M693.6,59.1v4.2c0,0.3,0.1,0.5,0.2,0.7c0.2,0.2,0.5,0.2,0.8,0.2h0.9v1h-1c-0.5,0-1.1-0.1-1.5-0.5s-0.6-0.9-0.5-1.5V59h-0.9
	v-1h0.9v-1.8h1.2V58h1.8v1L693.6,59.1z"/>
<path d="M696.5,56.7c-0.2-0.1-0.2-0.4-0.2-0.6c0-0.2,0.1-0.4,0.2-0.6c0.1-0.2,0.4-0.2,0.6-0.2c0.2,0,0.4,0.1,0.5,0.2
	c0.2,0.2,0.2,0.4,0.2,0.6c0,0.2-0.1,0.4-0.2,0.6c-0.1,0.2-0.3,0.2-0.5,0.2C696.9,56.9,696.7,56.8,696.5,56.7z M697.7,58.1v7.1h-1.2
	v-7.1H697.7z"/>
<path d="M700.8,59.1v4.2c0,0.3,0.1,0.5,0.2,0.7c0.2,0.2,0.5,0.2,0.8,0.2h0.9v1h-1.1c-0.5,0-1.1-0.1-1.5-0.5s-0.6-0.9-0.5-1.5V59
	h-0.9v-1h0.9v-1.8h1.2V58h1.9v1L700.8,59.1z"/>
<path d="M703.7,59.7c0.3-0.5,0.7-1,1.2-1.3s1.1-0.5,1.7-0.5c0.6,0,1.1,0.1,1.6,0.4c0.4,0.2,0.8,0.6,1,1V58h1.2v7.1h-1.2v-1.3
	c-0.2,0.4-0.6,0.8-1,1c-0.5,0.3-1.1,0.4-1.6,0.4c-0.6,0-1.2-0.2-1.7-0.5s-0.9-0.8-1.2-1.3c-0.3-0.6-0.5-1.3-0.4-1.9
	C703.2,60.9,703.4,60.3,703.7,59.7z M709,60.2c-0.2-0.4-0.5-0.7-0.9-0.9s-0.8-0.3-1.2-0.3s-0.8,0.1-1.2,0.3s-0.7,0.5-0.9,0.9
	c-0.2,0.4-0.3,0.9-0.3,1.4s0.1,1,0.3,1.4c0.2,0.4,0.5,0.7,0.9,0.9c1.1,0.7,2.6,0.3,3.3-0.8V63c0.2-0.4,0.3-0.9,0.3-1.4
	C709.3,61.1,709.2,60.7,709,60.2L709,60.2z"/>
<path d="M713.6,59.1v4.2c0,0.3,0.1,0.5,0.2,0.7c0.2,0.2,0.5,0.2,0.8,0.2h0.9v1h-1.1c-0.5,0-1.1-0.1-1.5-0.5s-0.5-0.9-0.5-1.5V59h-1
	v-1h1v-1.8h1.2V58h1.8v1L713.6,59.1z"/>
<path d="M716.5,56.7c-0.2-0.2-0.2-0.4-0.2-0.6c0-0.4,0.3-0.8,0.8-0.8l0,0c0.2,0,0.4,0.1,0.6,0.2c0.1,0.2,0.2,0.4,0.2,0.6
	c0,0.2-0.1,0.4-0.2,0.6c-0.1,0.2-0.3,0.2-0.6,0.2C716.9,56.9,716.7,56.8,716.5,56.7z M717.7,58.1v7.1h-1.2v-7.1H717.7z"/>
<path d="M722,64.1l2.2-6h1.2l-2.8,7.1h-1.4l-2.8-7.1h1.3L722,64.1z"/>
<path d="M732.7,62.1H727c0,1.2,1,2.2,2.2,2.2h0.1c0.4,0,0.9-0.1,1.3-0.3c0.3-0.2,0.6-0.6,0.7-1h1.3c-0.2,0.7-0.6,1.3-1.1,1.7
	c-0.6,0.4-1.4,0.7-2.1,0.6c-0.6,0-1.3-0.1-1.8-0.4s-1-0.8-1.2-1.3c-0.6-1.2-0.6-2.7,0-3.9c0.3-0.5,0.7-1,1.2-1.3
	c0.6-0.3,1.2-0.5,1.8-0.5s1.2,0.1,1.8,0.5c0.5,0.3,0.9,0.7,1.2,1.2c0.3,0.5,0.4,1.1,0.4,1.8C732.7,61.6,732.7,61.8,732.7,62.1z
	 M731.2,60c-0.2-0.3-0.5-0.6-0.8-0.7c-0.4-0.2-0.7-0.3-1.1-0.2c-0.6,0-1.1,0.2-1.5,0.6c-0.4,0.4-0.7,1-0.7,1.6h4.5
	C731.5,60.8,731.4,60.4,731.2,60z"/>
<path d="M737,59.7c0.3-0.5,0.7-1,1.2-1.3s1.1-0.5,1.7-0.5c0.5,0,1.1,0.1,1.5,0.4c0.4,0.2,0.8,0.6,1.1,1v-3.8h1.2v9.6h-1.2v-1.3
	c-0.2,0.4-0.6,0.8-1,1c-0.5,0.3-1,0.4-1.6,0.4c-1.2,0-2.4-0.7-2.9-1.8c-0.3-0.6-0.5-1.3-0.4-1.9C736.6,60.9,736.8,60.3,737,59.7z
	 M742.3,60.2c-0.2-0.4-0.5-0.7-0.9-0.9s-0.8-0.3-1.2-0.3s-0.8,0.1-1.2,0.3s-0.7,0.5-0.9,0.9c-0.2,0.4-0.3,0.9-0.3,1.4s0.1,1,0.3,1.4
	c0.2,0.4,0.5,0.7,0.9,0.9s0.8,0.3,1.2,0.3s0.8-0.1,1.2-0.3s0.7-0.5,0.9-0.9c0.2-0.4,0.3-0.9,0.3-1.4
	C742.6,61.2,742.5,60.7,742.3,60.2z"/>
<path d="M745.5,59.7c0.3-0.5,0.7-1,1.2-1.3s1.1-0.4,1.7-0.4s1.1,0.1,1.6,0.4c0.4,0.2,0.8,0.6,1,1v-1.3h1.2v7.1H751v-1.4
	c-0.2,0.4-0.6,0.8-1,1c-0.5,0.3-1.1,0.4-1.6,0.4c-0.6,0-1.2-0.2-1.7-0.5s-0.9-0.8-1.2-1.3c-0.3-0.6-0.5-1.3-0.4-1.9
	C745,60.9,745.2,60.3,745.5,59.7z M750.7,60.2c-0.2-0.4-0.5-0.7-0.9-0.9S749,59,748.6,59s-0.8,0.1-1.2,0.3s-0.7,0.5-0.9,0.9
	c-0.2,0.4-0.3,0.9-0.3,1.4s0.1,1,0.3,1.4c0.2,0.4,0.5,0.7,0.8,1c0.4,0.2,0.8,0.3,1.2,0.3c0.9,0,1.7-0.5,2.1-1.3
	c0.2-0.4,0.3-0.9,0.3-1.4C751.1,61.1,750.9,60.7,750.7,60.2z"/>
<path d="M755.3,59.1v4.2c0,0.3,0.1,0.5,0.2,0.7c0.2,0.2,0.5,0.2,0.8,0.2h0.9v1h-1.1c-0.5,0-1.1-0.1-1.5-0.5s-0.5-0.9-0.5-1.5V59
	h-0.9v-1h0.9v-1.8h1.2V58h1.9v1L755.3,59.1z"/>
<path d="M758.3,59.7c0.3-0.5,0.7-1,1.2-1.3s1.1-0.5,1.7-0.5s1.1,0.1,1.6,0.4c0.4,0.2,0.8,0.6,1,1V58h1.2v7.1h-1.2v-1.3
	c-0.3,0.4-0.6,0.8-1,1c-0.5,0.3-1.1,0.4-1.6,0.4c-1.2,0-2.4-0.7-2.9-1.8c-0.3-0.6-0.5-1.3-0.5-1.9S757.9,60.3,758.3,59.7z
	 M763.5,60.2c-0.2-0.4-0.5-0.7-0.9-0.9s-0.8-0.3-1.2-0.3s-0.8,0.1-1.2,0.3s-0.7,0.5-0.9,0.9c-0.2,0.4-0.3,0.9-0.3,1.4s0.2,1,0.4,1.4
	c0.2,0.4,0.5,0.7,0.9,0.9s0.8,0.3,1.2,0.3c0.9,0,1.6-0.5,2-1.2c0.2-0.4,0.3-0.9,0.3-1.4C763.9,61.1,763.7,60.6,763.5,60.2z"/>
<path d="M767.9,63.6l-1.5,3.5h-0.8l1-3.5H767.9z"/>
<path d="M773.2,56.1v9.1H772v-9.1H773.2z"/>
<path d="M777.9,59.7c0.3-0.5,0.7-1,1.2-1.3s1.1-0.5,1.7-0.5s1.1,0.1,1.6,0.4c0.4,0.2,0.8,0.6,1,1V58h1.2v7.1h-1.2v-1.3
	c-0.2,0.4-0.6,0.8-1,1c-0.5,0.3-1.1,0.4-1.6,0.4c-1.2,0-2.4-0.7-2.9-1.8c-0.3-0.6-0.5-1.3-0.5-1.9C777.5,60.9,777.6,60.3,777.9,59.7
	z M783.2,60.2c-0.2-0.4-0.5-0.7-0.9-0.9s-0.8-0.3-1.2-0.3s-0.8,0.1-1.2,0.3s-0.7,0.5-0.9,0.9c-0.2,0.4-0.3,0.9-0.3,1.4
	s0.1,1,0.3,1.4c0.2,0.4,0.5,0.7,0.9,0.9c1.1,0.7,2.6,0.3,3.2-0.8c0,0,0-0.1,0.1-0.1c0.2-0.4,0.3-0.9,0.3-1.4
	C783.5,61.1,783.4,60.7,783.2,60.2z"/>
<path d="M787.5,55.6v9.6h-1.1v-9.6H787.5z"/>
<path d="M790.2,65c-0.4-0.2-0.7-0.4-1-0.8c-0.3-0.3-0.4-0.7-0.4-1.2h1.2c0,0.4,0.2,0.7,0.5,0.9c0.3,0.2,0.8,0.4,1.2,0.3
	c0.4,0,0.8-0.1,1.1-0.3c0.2-0.2,0.4-0.5,0.4-0.8s-0.2-0.6-0.4-0.7c-0.4-0.2-0.8-0.4-1.3-0.5c-0.4-0.1-0.9-0.2-1.3-0.4
	c-0.3-0.1-0.6-0.4-0.8-0.6c-0.3-0.3-0.4-0.7-0.4-1.1c0-0.4,0.1-0.7,0.3-1c0.2-0.3,0.6-0.6,0.9-0.7c0.4-0.2,0.9-0.3,1.4-0.3
	c0.7,0,1.4,0.2,1.9,0.6c0.5,0.4,0.8,1,0.8,1.6h-1.2c0-0.3-0.2-0.7-0.5-0.9c-0.6-0.4-1.5-0.4-2.1-0.1c-0.2,0.2-0.4,0.4-0.4,0.7
	c0,0.2,0.1,0.4,0.2,0.6c0.2,0.2,0.4,0.3,0.6,0.4c0.3,0.1,0.7,0.2,1,0.3c0.4,0.1,0.8,0.2,1.2,0.4c0.3,0.1,0.6,0.3,0.8,0.6
	c0.2,0.3,0.4,0.7,0.4,1c0,0.4-0.1,0.7-0.3,1c-0.2,0.3-0.6,0.6-0.9,0.7c-0.4,0.2-0.9,0.3-1.3,0.3C791.3,65.3,790.7,65.2,790.2,65z"/>
<path d="M796.9,64.9c-0.5-0.3-1-0.8-1.3-1.3c-0.3-0.6-0.5-1.3-0.5-1.9c0-0.7,0.2-1.3,0.5-1.9c0.3-0.5,0.7-1,1.3-1.3
	c1.2-0.6,2.5-0.6,3.7,0c0.5,0.3,1,0.7,1.3,1.3c0.6,1.2,0.6,2.7,0,3.9c-0.3,0.5-0.8,1-1.3,1.3c-0.6,0.3-1.2,0.5-1.8,0.4
	C798.1,65.3,797.5,65.2,796.9,64.9z M799.9,64c0.4-0.2,0.7-0.5,0.9-0.9c0.2-0.4,0.4-1,0.3-1.5c0-0.5-0.1-1-0.3-1.5
	c-0.2-0.4-0.5-0.7-0.9-0.9s-0.8-0.3-1.2-0.3s-0.8,0.1-1.2,0.3s-0.7,0.5-0.9,0.9c-0.2,0.4-0.3,0.9-0.3,1.5c0,0.5,0.1,1,0.3,1.5
	c0.2,0.4,0.5,0.7,0.8,0.9c0.4,0.2,0.8,0.3,1.2,0.3C799.1,64.3,799.5,64.2,799.9,64L799.9,64z"/>
<path d="M806.7,59.7c0.3-0.5,0.7-1,1.2-1.3c1.3-0.7,2.8-0.6,4,0.2c0.6,0.4,1,1.1,1.1,1.8h-1.3c-0.1-0.4-0.4-0.8-0.7-1
	c-0.4-0.3-0.8-0.4-1.3-0.4c-0.6,0-1.2,0.2-1.6,0.7c-0.5,0.6-0.7,1.3-0.6,2c-0.1,0.7,0.2,1.4,0.6,2c0.4,0.5,1,0.7,1.6,0.7
	c0.5,0,0.9-0.1,1.3-0.4c0.3-0.2,0.6-0.6,0.7-1h1.3c-0.2,0.7-0.6,1.3-1.2,1.8c-0.6,0.4-1.4,0.7-2.1,0.7c-0.6,0-1.3-0.1-1.8-0.4
	s-1-0.7-1.2-1.3c-0.3-0.6-0.5-1.3-0.4-2C806.2,61,806.4,60.3,806.7,59.7z"/>
<path d="M815.5,64.9c-0.5-0.3-1-0.8-1.3-1.3c-0.3-0.6-0.5-1.3-0.5-1.9c0-0.7,0.2-1.3,0.5-1.9c0.3-0.5,0.7-1,1.3-1.3
	c1.2-0.6,2.5-0.6,3.7,0c0.5,0.3,1,0.7,1.3,1.3c0.6,1.2,0.6,2.7,0,3.9c-0.3,0.5-0.8,1-1.3,1.3c-0.6,0.3-1.2,0.5-1.8,0.4
	C816.7,65.3,816.1,65.2,815.5,64.9z M818.5,64c0.4-0.2,0.7-0.5,0.9-0.9c0.2-0.4,0.4-1,0.3-1.5c0-0.5-0.1-1-0.3-1.5
	c-0.2-0.4-0.5-0.7-0.9-0.9s-0.7-0.3-1.1-0.3s-0.8,0.1-1.2,0.3s-0.7,0.5-0.9,0.9c-0.2,0.4-0.3,0.9-0.3,1.5c0,0.5,0.1,1,0.3,1.5
	c0.2,0.4,0.5,0.7,0.8,0.9c0.4,0.2,0.8,0.3,1.2,0.3C817.8,64.3,818.2,64.2,818.5,64L818.5,64z"/>
<path d="M827.7,58.7c0.6,0.6,0.9,1.4,0.8,2.3v4.2h-1.1v-4c0-0.6-0.2-1.2-0.5-1.6c-0.4-0.4-0.9-0.6-1.5-0.6s-1.1,0.2-1.5,0.6
	c-0.4,0.5-0.6,1.1-0.5,1.7v3.9h-1.2V58h1.2v1c0.2-0.4,0.6-0.7,1-0.8c0.4-0.2,0.9-0.3,1.3-0.3C826.4,57.9,827.2,58.2,827.7,58.7z"/>
<path d="M830.1,59.7c0.3-0.5,0.7-1,1.2-1.3s1.1-0.5,1.7-0.5c0.5,0,1.1,0.1,1.5,0.4c0.4,0.2,0.8,0.6,1.1,1v-3.8h1.2v9.6h-1.2v-1.3
	c-0.2,0.4-0.6,0.8-1,1c-0.5,0.3-1,0.4-1.6,0.4c-1.2,0-2.4-0.7-2.9-1.8c-0.3-0.6-0.5-1.3-0.4-1.9C829.7,60.9,829.8,60.3,830.1,59.7z
	 M835.4,60.2c-0.2-0.4-0.5-0.7-0.9-0.9s-0.8-0.3-1.2-0.3s-0.8,0.1-1.2,0.3s-0.7,0.5-0.9,0.9c-0.2,0.4-0.3,0.9-0.3,1.4s0.1,1,0.3,1.4
	c0.2,0.4,0.5,0.7,0.9,0.9s0.8,0.3,1.2,0.3s0.9-0.1,1.2-0.3c0.4-0.2,0.7-0.6,0.9-1c0.2-0.4,0.3-0.9,0.3-1.4
	C835.7,61.1,835.6,60.6,835.4,60.2L835.4,60.2z"/>
<path d="M844.9,58.1v7.1h-1.2v-1.1c-0.2,0.4-0.6,0.7-1,0.8c-0.4,0.2-0.9,0.3-1.3,0.3c-0.5,0-1-0.1-1.5-0.3c-0.4-0.2-0.8-0.6-1-1
	c-0.3-0.5-0.4-1.1-0.4-1.7V58h1.2v4c0,0.6,0.1,1.2,0.5,1.6c0.8,0.8,2.2,0.8,3,0c0.4-0.5,0.6-1.1,0.5-1.7V58h1.2V58.1z"/>
<path d="M846.5,59.7c0.3-0.5,0.7-1,1.2-1.3c1.3-0.7,2.8-0.6,4,0.2c0.6,0.4,1,1.1,1.1,1.8h-1.3c-0.1-0.4-0.4-0.8-0.7-1
	c-0.4-0.3-0.8-0.4-1.3-0.4c-0.6,0-1.2,0.2-1.6,0.7c-0.5,0.6-0.7,1.3-0.6,2c-0.1,0.7,0.2,1.4,0.6,2c0.4,0.5,1,0.7,1.6,0.7
	c0.5,0,0.9-0.1,1.3-0.4c0.3-0.2,0.6-0.6,0.7-1h1.3c-0.2,0.7-0.6,1.3-1.2,1.8c-0.6,0.4-1.4,0.7-2.1,0.7c-0.6,0-1.3-0.1-1.8-0.4
	s-1-0.7-1.2-1.3c-0.3-0.6-0.5-1.3-0.4-2C846.1,61,846.2,60.3,846.5,59.7z"/>
<path d="M855.5,59.1v4.2c0,0.3,0.1,0.5,0.2,0.7c0.2,0.2,0.5,0.2,0.8,0.2h0.9v1h-1.1c-0.5,0-1.1-0.1-1.5-0.5s-0.5-0.9-0.5-1.5V59
	h-0.9v-1h0.9v-1.8h1.2V58h1.9v1L855.5,59.1z"/>
<path d="M864.9,62.1h-5.7c0,0.6,0.3,1.2,0.7,1.6c0.4,0.4,1,0.6,1.6,0.6c0.5,0,0.9-0.1,1.3-0.4c0.4-0.2,0.6-0.6,0.7-1h1.3
	c-0.2,0.7-0.6,1.3-1.1,1.7c-0.6,0.4-1.4,0.7-2.1,0.6c-0.6,0-1.3-0.1-1.8-0.4s-1-0.8-1.2-1.3c-0.3-0.6-0.5-1.3-0.5-1.9
	c0-0.7,0.1-1.3,0.4-1.9c0.3-0.5,0.7-1,1.2-1.3c0.6-0.3,1.2-0.5,1.8-0.5s1.3,0.1,1.8,0.5c0.5,0.3,0.9,0.7,1.2,1.2
	c0.3,0.5,0.4,1.1,0.4,1.8C864.9,61.6,864.9,61.8,864.9,62.1z M863.4,60c-0.2-0.3-0.5-0.6-0.8-0.7c-0.4-0.2-0.8-0.3-1.2-0.3
	c-0.6,0-1.1,0.2-1.5,0.6c-0.4,0.4-0.7,1-0.7,1.6h4.5C863.7,60.8,863.6,60.4,863.4,60z"/>
<path d="M866.1,59.7c0.3-0.5,0.7-1,1.2-1.3s1.1-0.5,1.7-0.5c0.5,0,1.1,0.1,1.5,0.4c0.4,0.2,0.8,0.6,1.1,1v-3.8h1.2v9.6h-1.2v-1.3
	c-0.2,0.4-0.6,0.8-1,1c-0.5,0.3-1,0.4-1.6,0.4c-1.2,0-2.4-0.7-2.9-1.8c-0.3-0.6-0.5-1.3-0.4-1.9C865.7,60.9,865.8,60.3,866.1,59.7z
	 M871.4,60.2c-0.2-0.4-0.5-0.7-0.9-0.9s-0.8-0.3-1.2-0.3s-0.8,0.1-1.2,0.3s-0.7,0.5-0.9,0.9c-0.2,0.4-0.3,0.9-0.3,1.4s0.1,1,0.3,1.4
	c0.2,0.4,0.5,0.7,0.9,0.9s0.8,0.3,1.2,0.3s0.9-0.1,1.2-0.3c0.4-0.2,0.7-0.6,0.9-1c0.2-0.4,0.3-0.9,0.3-1.4
	C871.7,61.1,871.6,60.6,871.4,60.2L871.4,60.2z"/>
<path d="M879.9,62.1c0.6-0.5,1.1-1.1,1.6-1.8c0.4-0.5,0.6-1.2,0.6-1.8c0-0.5-0.1-1-0.4-1.3c-0.3-0.4-0.8-0.5-1.3-0.5s-1,0.2-1.4,0.5
	c-0.3,0.4-0.5,0.9-0.5,1.5h-1.2c0-0.8,0.3-1.6,0.9-2.2c1.2-1,3-1,4.3,0c0.5,0.5,0.8,1.3,0.8,2s-0.2,1.5-0.6,2.1
	c-0.4,0.7-0.9,1.3-1.5,1.8c-0.5,0.5-1.2,1.1-2.1,1.8h4.5v1h-6.2v-0.8C878.4,63.4,879.2,62.7,879.9,62.1z"/>
<path d="M885.3,56.9c1.1-1.4,3.1-1.7,4.5-0.6c0.2,0.2,0.4,0.4,0.6,0.6c0.5,1.1,0.8,2.3,0.7,3.5c0.1,1.2-0.2,2.4-0.7,3.5
	c-1.1,1.4-3.1,1.7-4.5,0.6c-0.2-0.2-0.4-0.4-0.6-0.6c-0.5-1.1-0.8-2.3-0.7-3.5C884.5,59.2,884.7,58,885.3,56.9z M889.8,58.5
	c-0.1-0.5-0.3-0.9-0.6-1.3c-0.8-0.6-1.9-0.6-2.7,0c-0.3,0.4-0.5,0.8-0.6,1.3c-0.1,0.6-0.2,1.3-0.2,1.9c0,0.7,0,1.3,0.2,2
	c0.1,0.5,0.3,0.9,0.6,1.3c0.8,0.6,1.9,0.6,2.7,0c0.3-0.4,0.5-0.8,0.6-1.3c0.1-0.7,0.2-1.3,0.1-2C889.9,59.8,889.9,59.1,889.8,58.5z"
	/>
<path d="M893.1,56.9c1.1-1.4,3.1-1.7,4.5-0.6c0.2,0.2,0.4,0.4,0.6,0.6c0.5,1.1,0.8,2.3,0.7,3.5c0.1,1.2-0.2,2.4-0.7,3.5
	c-1.1,1.4-3.1,1.7-4.5,0.6c-0.2-0.2-0.4-0.4-0.6-0.6c-0.5-1.1-0.8-2.3-0.7-3.5C892.3,59.2,892.5,58,893.1,56.9z M897.6,58.5
	c-0.1-0.5-0.3-0.9-0.6-1.3c-0.8-0.6-1.9-0.6-2.7,0c-0.3,0.4-0.5,0.8-0.6,1.3c-0.1,0.6-0.1,1.3-0.1,1.9c0,0.7,0,1.3,0.1,2
	c0.1,0.5,0.3,0.9,0.6,1.3c0.8,0.6,1.9,0.6,2.7,0c0.3-0.4,0.5-0.8,0.6-1.3c0.1-0.7,0.1-1.3,0.1-2C897.7,59.8,897.7,59.1,897.6,58.5z"
	/>
<path d="M904.5,65c-0.4-0.2-0.7-0.4-1-0.8c-0.3-0.3-0.4-0.7-0.4-1.2h1.2c0,0.4,0.2,0.7,0.5,0.9c0.3,0.2,0.8,0.4,1.2,0.3
	c0.4,0,0.8-0.1,1.1-0.3c0.2-0.2,0.4-0.5,0.4-0.8s-0.2-0.6-0.4-0.7c-0.4-0.2-0.8-0.3-1.3-0.5c-0.5-0.1-0.9-0.2-1.3-0.4
	c-0.3-0.1-0.6-0.4-0.9-0.6c-0.5-0.6-0.5-1.5,0-2.1c0.2-0.3,0.6-0.6,0.9-0.7c0.4-0.2,0.9-0.2,1.3-0.2c0.7,0,1.4,0.2,1.9,0.6
	c0.5,0.4,0.8,1,0.8,1.6h-1.2c0-0.4-0.2-0.7-0.5-0.9c-0.3-0.2-0.7-0.3-1.1-0.3c-0.4,0-0.7,0.1-1,0.3c-0.2,0.2-0.4,0.4-0.4,0.7
	c0,0.2,0.1,0.4,0.2,0.6c0.2,0.2,0.4,0.3,0.6,0.4c0.3,0.1,0.7,0.2,1,0.3c0.4,0.1,0.8,0.2,1.2,0.4c0.3,0.1,0.6,0.3,0.8,0.6
	c0.2,0.3,0.4,0.7,0.4,1c0,0.4-0.1,0.7-0.3,1c-0.2,0.3-0.5,0.6-0.9,0.7c-0.4,0.2-0.9,0.3-1.4,0.3C905.5,65.3,905,65.2,904.5,65z"/>
<path d="M916.2,58.1v7.1H915v-1.1c-0.2,0.4-0.6,0.7-0.9,0.8c-0.4,0.2-0.9,0.3-1.3,0.3c-0.5,0-1-0.1-1.5-0.3c-0.4-0.2-0.8-0.6-1-1
	c-0.3-0.5-0.4-1.1-0.4-1.7V58h1.2v4c0,0.6,0.2,1.2,0.5,1.6c0.4,0.4,0.9,0.6,1.5,0.6s1.1-0.2,1.5-0.6c0.4-0.5,0.6-1.1,0.5-1.7V58h1.1
	V58.1z"/>
<path d="M919.9,58.3c0.4-0.2,0.9-0.3,1.4-0.3v1.2H921c-1.3,0-2,0.7-2,2.2v3.9h-1.2v-7.2h1.2v1.2C919.2,58.8,919.5,58.5,919.9,58.3z"
	/>
<path d="M924.9,64.1l2.2-6h1.2l-2.8,7.1h-1.4l-2.8-7.1h1.3L924.9,64.1z"/>
<path d="M935.7,62.1H930c0,0.6,0.3,1.2,0.7,1.6c0.4,0.4,1,0.6,1.6,0.6c0.5,0,0.9-0.1,1.3-0.4c0.3-0.2,0.6-0.6,0.7-1h1.3
	c-0.2,0.7-0.6,1.3-1.2,1.7c-0.6,0.4-1.4,0.7-2.1,0.6c-0.6,0-1.3-0.1-1.8-0.4s-1-0.8-1.3-1.3c-0.6-1.2-0.6-2.7,0-3.9
	c0.3-0.5,0.7-1,1.2-1.3c0.6-0.3,1.2-0.5,1.8-0.5s1.2,0.1,1.8,0.5c0.5,0.3,0.9,0.7,1.2,1.2c0.3,0.5,0.4,1.1,0.4,1.8
	C935.7,61.6,935.7,61.9,935.7,62.1z M934.2,60c-0.2-0.3-0.5-0.6-0.8-0.7c-0.4-0.2-0.7-0.3-1.1-0.2c-0.6,0-1.1,0.2-1.5,0.6
	c-0.4,0.4-0.7,1-0.7,1.6h4.5C934.5,60.8,934.4,60.4,934.2,60z"/>
<path d="M943.1,58.1l-4.3,10.5h-1.2l1.4-3.4l-2.9-7h1.3l2.2,5.8l2.2-5.8L943.1,58.1z"/>
<path d="M945.1,63.6l-1.5,3.5h-0.8l1-3.5H945.1z"/>
<path d="M949.2,59.7c0.3-0.5,0.7-1,1.2-1.3s1.1-0.5,1.7-0.5c0.6,0,1.1,0.1,1.6,0.4c0.4,0.2,0.8,0.6,1,1V58h1.2v10.5h-1.2v-4.7
	c-0.2,0.4-0.6,0.8-1,1c-0.5,0.3-1.1,0.4-1.6,0.4c-1.2,0-2.4-0.7-2.9-1.8c-0.3-0.6-0.5-1.3-0.5-1.9C948.8,60.9,948.9,60.3,949.2,59.7
	z M954.5,60.2c-0.2-0.4-0.5-0.7-0.9-0.9s-0.8-0.3-1.2-0.3s-0.8,0.1-1.2,0.3s-0.7,0.5-0.9,0.9c-0.2,0.4-0.3,0.9-0.3,1.4
	s0.1,1,0.3,1.4c0.2,0.4,0.5,0.7,0.9,0.9c1.1,0.7,2.6,0.3,3.2-0.8c0,0,0-0.1,0.1-0.1c0.2-0.4,0.3-0.9,0.3-1.4
	C954.8,61.1,954.7,60.7,954.5,60.2z"/>
<path d="M963.9,58.1v7.1h-1.2v-1.1c-0.2,0.4-0.6,0.7-1,0.8c-0.4,0.2-0.9,0.3-1.3,0.3c-0.5,0-1-0.1-1.5-0.3c-0.4-0.2-0.8-0.6-1-1
	c-0.3-0.5-0.4-1.1-0.4-1.7V58h1.2v4c0,0.6,0.1,1.2,0.5,1.6c0.8,0.8,2.1,0.8,3,0c0.4-0.5,0.6-1.1,0.5-1.7V58h1.2V58.1z"/>
<path d="M972,62.1h-5.7c0,0.6,0.3,1.2,0.7,1.6c0.4,0.4,1,0.6,1.6,0.6c0.5,0,0.9-0.1,1.3-0.4c0.3-0.2,0.6-0.6,0.7-1h1.3
	c-0.2,0.7-0.6,1.3-1.1,1.7c-0.6,0.4-1.4,0.7-2.1,0.6c-0.6,0-1.3-0.1-1.8-0.4s-1-0.8-1.2-1.3c-0.6-1.2-0.6-2.7,0-3.9
	c0.3-0.5,0.7-1,1.2-1.3c0.6-0.3,1.2-0.5,1.8-0.5s1.2,0.1,1.8,0.5c0.5,0.3,0.9,0.7,1.2,1.2s0.4,1.1,0.4,1.8
	C972.1,61.6,972.1,61.8,972,62.1z M970.6,60c-0.2-0.3-0.5-0.6-0.8-0.7c-0.4-0.2-0.7-0.3-1.1-0.2c-0.6,0-1.1,0.2-1.5,0.6
	c-0.4,0.4-0.7,1-0.7,1.6h4.5C970.9,60.8,970.8,60.4,970.6,60z"/>
<path d="M974.3,65c-0.4-0.2-0.7-0.4-1-0.8c-0.3-0.3-0.4-0.7-0.4-1.2h1.2c0,0.4,0.2,0.7,0.5,0.9s0.8,0.4,1.2,0.3
	c0.4,0,0.8-0.1,1.1-0.3c0.2-0.2,0.4-0.5,0.4-0.8s-0.2-0.6-0.4-0.7c-0.4-0.2-0.8-0.3-1.3-0.5c-0.4-0.1-0.9-0.2-1.3-0.4
	c-0.3-0.1-0.6-0.4-0.9-0.6c-0.2-0.3-0.4-0.7-0.3-1.1c0-0.4,0.1-0.7,0.3-1c0.2-0.3,0.6-0.6,0.9-0.7c0.4-0.2,0.9-0.3,1.4-0.3
	c0.7,0,1.4,0.2,1.9,0.6c0.5,0.4,0.8,1,0.8,1.6h-1.2c0-0.3-0.2-0.7-0.4-0.9c-0.6-0.4-1.5-0.4-2.1-0.1c-0.2,0.2-0.4,0.4-0.4,0.7
	c0,0.2,0.1,0.4,0.2,0.6c0.2,0.2,0.4,0.3,0.6,0.4c0.2,0.1,0.6,0.2,1,0.3s0.8,0.2,1.2,0.4c0.3,0.1,0.6,0.3,0.8,0.6
	c0.2,0.3,0.4,0.7,0.4,1c0,0.4-0.1,0.7-0.3,1c-0.2,0.3-0.6,0.6-0.9,0.7c-0.4,0.2-0.9,0.3-1.4,0.3C975.3,65.3,974.8,65.2,974.3,65z"/>
<path d="M981.1,59.1v4.2c0,0.3,0.1,0.5,0.2,0.7c0.2,0.2,0.5,0.2,0.8,0.2h0.9v1h-1.1c-0.5,0-1.1-0.1-1.5-0.5s-0.6-0.9-0.5-1.5V59H979
	v-1h0.9v-1.8h1.2V58h1.9v1L981.1,59.1z"/>
<path d="M984.1,56.7c-0.2-0.1-0.2-0.4-0.2-0.6c0-0.2,0.1-0.4,0.2-0.6c0.1-0.2,0.4-0.2,0.6-0.2s0.4,0.1,0.6,0.2
	c0.1,0.2,0.2,0.4,0.2,0.6c0,0.2-0.1,0.4-0.2,0.6c-0.1,0.2-0.3,0.2-0.6,0.2C984.5,56.9,984.2,56.8,984.1,56.7z M985.2,58.1v7.1H984
	v-7.1H985.2z"/>
<path d="M988.2,64.9c-0.5-0.3-1-0.8-1.3-1.3c-0.3-0.6-0.5-1.3-0.5-1.9c0-0.7,0.2-1.3,0.5-1.9c0.3-0.5,0.7-1,1.3-1.3
	c1.2-0.6,2.5-0.6,3.7,0c0.5,0.3,1,0.7,1.3,1.3c0.6,1.2,0.6,2.7,0,3.9c-0.3,0.5-0.8,1-1.3,1.3c-0.6,0.3-1.2,0.5-1.8,0.4
	C989.4,65.3,988.7,65.2,988.2,64.9z M991.2,64c0.4-0.2,0.7-0.5,0.9-0.9c0.2-0.4,0.4-1,0.3-1.5c0-0.5-0.1-1-0.3-1.5
	c-0.2-0.4-0.5-0.7-0.9-0.9s-0.8-0.3-1.2-0.3c-0.4,0-0.8,0.1-1.2,0.3c-0.4,0.2-0.7,0.5-0.9,0.9c-0.2,0.4-0.3,0.9-0.3,1.5
	c0,0.5,0.1,1,0.3,1.5c0.2,0.4,0.5,0.7,0.8,0.9c0.4,0.2,0.8,0.3,1.2,0.3C990.4,64.3,990.8,64.2,991.2,64L991.2,64z"/>
<path d="M1000.4,58.7c0.6,0.6,0.9,1.4,0.8,2.3v4.2h-1.2v-4c0-0.6-0.2-1.2-0.5-1.6c-0.4-0.4-0.9-0.6-1.4-0.6c-0.6,0-1.1,0.2-1.5,0.6
	c-0.4,0.5-0.6,1.1-0.6,1.7v3.9h-1.2V58h1.2v1c0.2-0.4,0.6-0.7,0.9-0.8c0.4-0.2,0.9-0.3,1.3-0.3C999.1,57.9,999.8,58.2,1000.4,58.7z"
	/>
<path d="M1003.9,65c-0.4-0.2-0.7-0.4-1-0.8c-0.3-0.3-0.4-0.7-0.4-1.2h1.2c0,0.3,0.2,0.7,0.5,0.9s0.8,0.4,1.2,0.3
	c0.4,0,0.7-0.1,1.1-0.3c0.2-0.2,0.4-0.5,0.4-0.8s-0.2-0.6-0.4-0.7c-0.4-0.2-0.8-0.3-1.3-0.5c-0.4-0.1-0.9-0.2-1.3-0.4
	c-0.3-0.1-0.6-0.4-0.9-0.6c-0.5-0.6-0.5-1.5,0-2.1c0.2-0.3,0.6-0.6,0.9-0.7c0.4-0.2,0.9-0.3,1.4-0.3c0.7,0,1.4,0.2,1.9,0.6
	c0.5,0.4,0.8,1,0.8,1.6h-1.2c0-0.4-0.2-0.7-0.4-0.9c-0.3-0.2-0.7-0.3-1.1-0.3s-0.7,0.1-1,0.3c-0.2,0.2-0.4,0.4-0.4,0.7
	c0,0.2,0.1,0.4,0.2,0.6c0.2,0.2,0.4,0.3,0.6,0.4c0.3,0.1,0.7,0.2,1,0.3c0.4,0.1,0.8,0.2,1.2,0.4c0.3,0.1,0.6,0.3,0.8,0.6
	c0.2,0.3,0.4,0.7,0.4,1c0,0.4-0.1,0.7-0.3,1c-0.2,0.3-0.6,0.6-0.9,0.7c-0.4,0.2-0.9,0.3-1.4,0.3C1004.9,65.3,1004.4,65.2,1003.9,65z
	"/>
<path d="M1012.3,59.7c0.3-0.5,0.7-1,1.2-1.3c1.3-0.7,2.8-0.6,4,0.2c0.6,0.4,1,1.1,1.1,1.8h-1.3c-0.1-0.4-0.4-0.8-0.7-1
	c-0.4-0.3-0.8-0.4-1.3-0.4c-0.6,0-1.2,0.2-1.6,0.7c-0.5,0.6-0.7,1.3-0.6,2c0,0.7,0.2,1.4,0.6,2c0.4,0.5,1,0.7,1.6,0.7
	c0.5,0,0.9-0.1,1.3-0.4c0.3-0.2,0.6-0.6,0.7-1h1.3c-0.2,0.7-0.6,1.3-1.1,1.8c-0.6,0.4-1.4,0.7-2.1,0.7c-0.6,0-1.3-0.1-1.8-0.4
	s-1-0.7-1.2-1.3c-0.3-0.6-0.5-1.3-0.4-2C1011.9,61,1012,60.3,1012.3,59.7z"/>
<path d="M1021.2,64.9c-0.5-0.3-1-0.8-1.3-1.3c-0.3-0.6-0.5-1.3-0.5-1.9c0-0.7,0.2-1.3,0.5-1.9c0.3-0.5,0.7-1,1.3-1.3
	c1.2-0.6,2.5-0.6,3.7,0c0.5,0.3,1,0.7,1.3,1.3c0.6,1.2,0.6,2.7,0,3.9c-0.3,0.5-0.8,1-1.3,1.3c-0.6,0.3-1.2,0.5-1.8,0.4
	C1022.3,65.3,1021.7,65.2,1021.2,64.9z M1024.2,64c0.4-0.2,0.7-0.5,0.9-0.9c0.2-0.4,0.4-1,0.3-1.5c0-0.5-0.1-1-0.3-1.5
	c-0.2-0.4-0.5-0.7-0.9-0.9c-0.7-0.4-1.6-0.4-2.4,0c-0.4,0.2-0.7,0.5-0.9,0.9c-0.2,0.4-0.3,0.9-0.3,1.5c0,0.5,0.1,1,0.3,1.5
	c0.2,0.4,0.5,0.7,0.8,0.9c0.4,0.2,0.8,0.3,1.2,0.3C1023.4,64.3,1023.8,64.2,1024.2,64L1024.2,64z"/>
<path d="M1030.5,64.1l2.2-6h1.3l-2.8,7.1h-1.4l-2.8-7.1h1.3L1030.5,64.1z"/>
<path d="M1041.2,62.1h-5.7c0,0.6,0.3,1.2,0.7,1.6c0.4,0.4,1,0.6,1.6,0.6c0.5,0,0.9-0.1,1.3-0.4c0.3-0.2,0.6-0.6,0.7-1h1.3
	c-0.2,0.7-0.6,1.3-1.2,1.7c-0.6,0.4-1.4,0.7-2.1,0.6c-0.6,0-1.3-0.1-1.8-0.4s-1-0.8-1.3-1.3c-0.6-1.2-0.6-2.7,0-3.9
	c0.3-0.5,0.7-1,1.2-1.3c0.6-0.3,1.2-0.5,1.8-0.5c0.6,0,1.2,0.1,1.8,0.5c0.5,0.3,0.9,0.7,1.2,1.2c0.3,0.5,0.4,1.1,0.4,1.8
	C1041.3,61.6,1041.2,61.8,1041.2,62.1z M1039.7,60c-0.2-0.3-0.5-0.6-0.8-0.7c-0.4-0.2-0.7-0.3-1.1-0.2c-0.6,0-1.1,0.2-1.5,0.6
	c-0.4,0.4-0.7,1-0.7,1.6h4.5C1040,60.8,1039.9,60.4,1039.7,60z"/>
<path d="M1044.5,58.3c0.4-0.2,0.9-0.4,1.4-0.3v1.2h-0.3c-1.3,0-2,0.7-2,2.2v3.9h-1.2v-7.1h1.2v1.2
	C1043.8,58.8,1044.1,58.5,1044.5,58.3z"/>
<path d="M1047,56.7c-0.2-0.1-0.2-0.4-0.2-0.6c0-0.2,0.1-0.4,0.2-0.6c0.1-0.2,0.4-0.2,0.6-0.2s0.4,0.1,0.6,0.2
	c0.2,0.2,0.2,0.4,0.2,0.6c0,0.2-0.1,0.4-0.2,0.6c-0.1,0.2-0.3,0.2-0.6,0.2S1047.1,56.8,1047,56.7z M1048.1,58.1v7.1h-1.2v-7.1
	H1048.1z"/>
<path d="M1055.3,58.7c0.6,0.6,0.9,1.4,0.8,2.3v4.2h-1.2v-4c0-0.6-0.2-1.2-0.5-1.6c-0.4-0.4-0.9-0.6-1.4-0.6c-0.6,0-1.1,0.2-1.5,0.6
	c-0.4,0.5-0.6,1.1-0.6,1.7v3.9h-1.2V58h1.2v1c0.2-0.4,0.6-0.7,1-0.8c0.4-0.2,0.9-0.3,1.3-0.3C1054,57.9,1054.8,58.2,1055.3,58.7z"/>
<path d="M1062.3,58.4c0.4,0.2,0.8,0.6,1,1v-1.3h1.2v7.3c0,0.6-0.1,1.2-0.4,1.7s-0.7,0.9-1.2,1.2c-0.6,0.3-1.2,0.4-1.8,0.4
	c-0.8,0-1.7-0.2-2.3-0.7c-0.6-0.4-1-1.1-1.1-1.8h1.2c0.1,0.4,0.4,0.8,0.8,1c0.4,0.3,1,0.4,1.5,0.4c0.6,0,1.2-0.2,1.6-0.6
	c0.4-0.5,0.7-1.1,0.6-1.7v-1.4c-0.2,0.4-0.6,0.8-1,1c-0.5,0.3-1,0.4-1.6,0.4c-1.2,0-2.4-0.7-2.9-1.8c-0.3-0.6-0.5-1.3-0.4-1.9
	c0-0.7,0.1-1.3,0.4-1.9c0.3-0.5,0.7-1,1.2-1.3s1.1-0.5,1.7-0.5C1061.2,57.9,1061.8,58.1,1062.3,58.4z M1063,60.2
	c-0.2-0.4-0.5-0.7-0.9-0.9s-0.8-0.3-1.2-0.3c-0.4,0-0.8,0.1-1.2,0.3c-0.4,0.2-0.7,0.5-0.9,0.9c-0.2,0.4-0.3,0.9-0.3,1.4
	s0.1,1,0.3,1.4c0.2,0.4,0.5,0.7,0.9,0.9s0.8,0.3,1.2,0.3c0.4,0,0.9-0.1,1.2-0.3c0.4-0.2,0.7-0.5,0.9-0.9c0.2-0.4,0.3-0.9,0.3-1.4
	C1063.3,61.1,1063.2,60.7,1063,60.2z"/>
<path d="M598.3,84.5c-0.3-0.3-0.5-0.7-0.5-1.1s0.2-0.8,0.5-1.1c0.3-0.3,0.7-0.5,1.1-0.5c0.9,0,1.6,0.7,1.6,1.6l0,0
	c0,0.4-0.2,0.8-0.5,1.1c-0.3,0.3-0.7,0.5-1.2,0.5C599,85,598.6,84.8,598.3,84.5z"/>
<path d="M608.1,83.2c-0.7,0.5-1.5,0.8-2.4,0.7H604v3.8h-1.2v-9.1h2.9c0.8-0.1,1.7,0.2,2.3,0.8c0.5,0.5,0.8,1.2,0.8,1.9
	C608.8,82,608.6,82.7,608.1,83.2z M607.1,82.5c0.3-0.3,0.5-0.8,0.5-1.2c0-1.1-0.6-1.7-1.9-1.7H604V83h1.7
	C606.2,83,606.7,82.9,607.1,82.5L607.1,82.5z"/>
<path d="M612,80.8c0.4-0.2,0.9-0.4,1.4-0.3v1.2h-0.3c-1.3,0-2,0.7-2,2.2v3.9h-1.2v-7.1h1.2v1.2C611.3,81.3,611.6,81,612,80.8z"/>
<path d="M620.9,84.6h-5.7c0,0.6,0.3,1.2,0.7,1.6s1,0.6,1.6,0.6c0.5,0,0.9-0.1,1.3-0.4c0.3-0.2,0.6-0.6,0.7-0.9h1.3
	c-0.2,0.7-0.6,1.3-1.2,1.7c-0.6,0.4-1.4,0.7-2.1,0.6c-0.6,0-1.3-0.1-1.8-0.4s-1-0.8-1.3-1.3c-0.3-0.6-0.5-1.3-0.5-1.9
	c0-0.7,0.1-1.3,0.4-1.9c0.3-0.5,0.7-1,1.2-1.3c0.6-0.3,1.2-0.5,1.8-0.4c0.6,0,1.3,0.1,1.8,0.4s0.9,0.7,1.2,1.2
	c0.3,0.5,0.4,1.1,0.4,1.8C620.9,84.1,620.9,84.4,620.9,84.6z M619.4,82.5c-0.2-0.3-0.5-0.6-0.8-0.7c-0.4-0.2-0.7-0.3-1.1-0.2
	c-0.6,0-1.1,0.2-1.5,0.6s-0.7,1-0.7,1.6h4.5C619.7,83.2,619.6,82.8,619.4,82.5z"/>
<path d="M625,81.6h-1.5v6.2h-1.2v-6.2h-0.9v-1h0.9v-0.5c-0.1-0.6,0.2-1.3,0.6-1.8c0.6-0.4,1.3-0.6,2-0.6v1c-0.4,0-0.8,0.1-1.1,0.3
	c-0.2,0.3-0.4,0.6-0.3,1v0.5h1.5L625,81.6z"/>
<path d="M632.5,84.6h-5.7c0,0.6,0.3,1.2,0.7,1.6s1,0.6,1.6,0.6c0.5,0,0.9-0.1,1.3-0.4c0.3-0.2,0.6-0.6,0.7-0.9h1.3
	c-0.2,0.7-0.6,1.3-1.2,1.7c-0.6,0.4-1.4,0.7-2.1,0.6c-0.6,0-1.3-0.1-1.8-0.4s-1-0.8-1.3-1.3c-0.3-0.6-0.5-1.3-0.5-1.9
	c0-0.7,0.1-1.3,0.4-1.9c0.3-0.5,0.7-1,1.2-1.3c0.6-0.3,1.2-0.5,1.8-0.4c0.6,0,1.3,0.1,1.8,0.4s0.9,0.7,1.2,1.2
	c0.3,0.5,0.4,1.1,0.4,1.8C632.5,84.1,632.5,84.4,632.5,84.6z M631,82.5c-0.2-0.3-0.5-0.6-0.8-0.7c-0.4-0.2-0.7-0.3-1.1-0.2
	c-0.6,0-1.1,0.2-1.5,0.6s-0.7,1-0.7,1.6h4.5C631.3,83.2,631.2,82.8,631,82.5L631,82.5z"/>
<path d="M635.8,80.8c0.4-0.2,0.9-0.4,1.4-0.3v1.2h-0.3c-1.3,0-2,0.7-2,2.2v3.9h-1.2v-7.1h1.2v1.2C635.1,81.3,635.4,81,635.8,80.8z"
	/>
<path d="M644.7,84.6H639c0,0.6,0.3,1.2,0.7,1.6s1,0.6,1.6,0.6c0.5,0,0.9-0.1,1.3-0.4c0.3-0.2,0.6-0.6,0.7-0.9h1.3
	c-0.2,0.7-0.6,1.3-1.2,1.7c-0.6,0.4-1.4,0.7-2.1,0.6c-0.6,0-1.3-0.1-1.8-0.4s-1-0.8-1.3-1.3c-0.3-0.6-0.5-1.3-0.5-1.9
	c0-0.7,0.1-1.3,0.4-1.9c0.3-0.5,0.7-1,1.2-1.3c0.6-0.3,1.2-0.5,1.8-0.4c0.6,0,1.3,0.1,1.8,0.4s0.9,0.7,1.2,1.2
	c0.3,0.5,0.4,1.1,0.4,1.8C644.7,84.1,644.7,84.4,644.7,84.6z M643.2,82.5c-0.2-0.3-0.5-0.6-0.8-0.7c-0.4-0.2-0.7-0.3-1.1-0.2
	c-0.6,0-1.1,0.2-1.5,0.6s-0.7,1-0.7,1.6h4.5C643.5,83.2,643.4,82.8,643.2,82.5z"/>
<path d="M645.9,82.2c0.3-0.5,0.7-1,1.2-1.3s1.1-0.5,1.7-0.5c0.5,0,1.1,0.1,1.5,0.4c0.4,0.2,0.8,0.6,1.1,1V78h1.2v9.6h-1.2v-1.3
	c-0.2,0.4-0.6,0.8-1,1c-0.5,0.3-1.1,0.4-1.6,0.4c-1.3,0-2.4-0.7-3-1.8c-0.3-0.6-0.5-1.3-0.5-1.9C645.4,83.4,645.6,82.8,645.9,82.2z
	 M651.2,82.7c-0.2-0.4-0.5-0.7-0.9-0.9c-0.4-0.2-0.8-0.3-1.2-0.3s-0.8,0.1-1.2,0.3c-0.4,0.2-0.7,0.5-0.9,0.9
	c-0.2,0.4-0.3,0.9-0.3,1.4s0.1,1,0.3,1.4c0.2,0.4,0.5,0.7,0.9,0.9c1.1,0.7,2.6,0.3,3.2-0.8c0,0,0-0.1,0.1-0.1
	c0.2-0.4,0.3-0.9,0.3-1.4S651.4,83.2,651.2,82.7z"/>
<path d="M657.4,82.2c0.3-0.5,0.7-1,1.2-1.3s1.1-0.5,1.7-0.5c0.5,0,1.1,0.1,1.5,0.4c0.4,0.2,0.8,0.6,1.1,1V78h1.2v9.6h-1.2v-1.3
	c-0.2,0.4-0.6,0.8-1,1c-0.5,0.3-1,0.4-1.6,0.4c-1.3,0-2.4-0.7-3-1.8c-0.3-0.6-0.5-1.3-0.4-1.9C656.9,83.4,657.1,82.8,657.4,82.2z
	 M662.7,82.7c-0.2-0.4-0.5-0.7-0.9-0.9c-0.4-0.2-0.8-0.3-1.2-0.3s-0.8,0.1-1.2,0.3c-0.4,0.2-0.7,0.5-0.9,0.9
	c-0.2,0.4-0.3,0.9-0.3,1.4s0.1,1,0.3,1.4c0.2,0.4,0.5,0.7,0.9,0.9c0.4,0.2,0.8,0.3,1.2,0.3s0.9-0.1,1.2-0.3c0.4-0.2,0.7-0.5,0.9-0.9
	c0.2-0.4,0.3-0.9,0.3-1.4S662.9,83.2,662.7,82.7L662.7,82.7z"/>
<path d="M672.3,84.6h-5.7c0,0.6,0.3,1.2,0.7,1.6s1,0.6,1.6,0.6c0.5,0,0.9-0.1,1.3-0.4c0.3-0.2,0.6-0.6,0.7-0.9h1.3
	c-0.2,0.7-0.6,1.3-1.1,1.7c-0.6,0.4-1.4,0.7-2.1,0.6c-0.6,0-1.3-0.1-1.8-0.4s-1-0.8-1.3-1.3c-0.3-0.6-0.5-1.3-0.5-1.9
	c0-0.7,0.1-1.3,0.4-1.9c0.3-0.5,0.7-1,1.2-1.3c0.6-0.3,1.2-0.5,1.8-0.4c0.6,0,1.3,0.1,1.8,0.4s0.9,0.7,1.2,1.2
	c0.3,0.5,0.4,1.1,0.4,1.8C672.4,84.1,672.3,84.4,672.3,84.6z M670.8,82.5c-0.2-0.3-0.5-0.6-0.8-0.7c-0.4-0.2-0.7-0.3-1.1-0.2
	c-0.5,0-1.1,0.2-1.5,0.5c-0.4,0.4-0.7,1-0.7,1.6h4.5C671.2,83.2,671,82.8,670.8,82.5z"/>
<path d="M675.8,80.9c0.5-0.3,1.1-0.4,1.6-0.4c0.6,0,1.2,0.2,1.7,0.5s0.9,0.7,1.2,1.3c0.3,0.6,0.5,1.3,0.5,1.9c0,0.7-0.1,1.3-0.5,1.9
	c-0.6,1.1-1.7,1.8-2.9,1.8c-0.6,0-1.1-0.1-1.6-0.4c-0.4-0.2-0.8-0.6-1.1-1v4.7h-1.2V80.6h1.2v1.3C675,81.5,675.3,81.1,675.8,80.9z
	 M679.2,82.7c-0.2-0.4-0.5-0.7-0.9-0.9c-0.4-0.2-0.8-0.3-1.2-0.3s-0.8,0.1-1.2,0.3c-0.4,0.2-0.7,0.5-0.9,0.9c-0.4,0.9-0.4,1.9,0,2.8
	c0.2,0.4,0.5,0.7,0.9,0.9c0.7,0.4,1.7,0.4,2.4,0c0.4-0.2,0.7-0.5,0.9-0.9c0.2-0.4,0.3-0.9,0.3-1.4C679.6,83.6,679.5,83.1,679.2,82.7
	z"/>
<path d="M682,82.2c0.3-0.5,0.7-1,1.2-1.3s1.1-0.5,1.7-0.5s1.1,0.1,1.6,0.4c0.4,0.2,0.8,0.6,1,1v-1.3h1.2v7.1h-1.2v-1.3
	c-0.2,0.4-0.6,0.8-1,1c-0.5,0.3-1.1,0.4-1.6,0.4c-0.6,0-1.2-0.2-1.7-0.5s-0.9-0.8-1.2-1.3c-0.3-0.6-0.5-1.3-0.4-1.9
	C681.5,83.4,681.7,82.8,682,82.2z M687.2,82.7c-0.2-0.4-0.5-0.7-0.9-0.9c-0.4-0.2-0.8-0.3-1.2-0.3s-0.8,0.1-1.2,0.3
	c-0.4,0.2-0.7,0.5-0.9,0.9c-0.2,0.4-0.3,0.9-0.3,1.4s0.1,1,0.3,1.4c0.2,0.4,0.5,0.7,0.9,0.9c1.1,0.7,2.6,0.3,3.3-0.8v-0.1
	c0.2-0.4,0.3-0.9,0.3-1.4C687.6,83.6,687.5,83.2,687.2,82.7z"/>
<path d="M692.5,80.8c0.4-0.2,0.9-0.4,1.4-0.3v1.2h-0.3c-1.3,0-2,0.7-2,2.2v3.9h-1.2v-7.1h1.2v1.2C691.8,81.3,692.1,81,692.5,80.8z"
	/>
<path d="M696.3,81.6v4.2c0,0.3,0.1,0.5,0.2,0.7c0.2,0.2,0.5,0.2,0.8,0.2h0.9v1h-1.1c-0.5,0-1.1-0.1-1.5-0.5s-0.5-0.9-0.5-1.5v-4.2
	h-0.9v-1h0.9v-1.8h1.2v1.8h1.9v1L696.3,81.6z"/>
<path d="M705.6,80.6v7.1h-1.2v-1.1c-0.2,0.4-0.6,0.7-0.9,0.8c-0.4,0.2-0.9,0.3-1.3,0.3c-0.5,0-1-0.1-1.5-0.3c-0.4-0.2-0.8-0.6-1-1
	c-0.3-0.5-0.4-1.1-0.4-1.7v-4.2h1.2v4c0,0.6,0.2,1.2,0.5,1.6c0.4,0.4,0.9,0.6,1.5,0.6s1.1-0.2,1.5-0.6c0.4-0.5,0.6-1.1,0.5-1.7v-3.9
	L705.6,80.6L705.6,80.6z"/>
<path d="M709.3,80.8c0.4-0.2,0.9-0.4,1.4-0.3v1.2h-0.3c-1.3,0-2,0.7-2,2.2v3.9h-1.2v-7.1h1.2v1.2C708.6,81.3,708.9,81,709.3,80.8z"
	/>
<path d="M718.2,84.6h-5.7c0,0.6,0.3,1.2,0.7,1.6s1,0.6,1.6,0.6c0.5,0,0.9-0.1,1.3-0.4c0.3-0.2,0.6-0.6,0.7-0.9h1.3
	c-0.2,0.7-0.6,1.3-1.2,1.7c-0.6,0.4-1.4,0.7-2.1,0.6c-0.6,0-1.3-0.1-1.8-0.4s-1-0.8-1.3-1.3c-0.6-1.2-0.6-2.7,0-3.9
	c0.3-0.5,0.7-1,1.2-1.3c0.6-0.3,1.2-0.5,1.8-0.4c0.6,0,1.2,0.1,1.8,0.4c0.5,0.3,0.9,0.7,1.2,1.2c0.3,0.5,0.4,1.1,0.4,1.8
	C718.2,84.1,718.2,84.4,718.2,84.6z M716.7,82.5c-0.2-0.3-0.5-0.6-0.8-0.7c-0.4-0.2-0.7-0.3-1.1-0.2c-0.6,0-1.1,0.2-1.5,0.6
	s-0.7,1-0.7,1.6h4.5C717,83.2,716.9,82.8,716.7,82.5z"/>
<path d="M723.7,78.1v9.6h-1.2v-9.6H723.7z"/>
<path d="M726.6,87.4c-0.5-0.3-1-0.8-1.3-1.3c-0.3-0.6-0.5-1.3-0.5-1.9c0-0.7,0.2-1.3,0.5-1.9c0.3-0.5,0.7-1,1.3-1.3
	c1.2-0.6,2.5-0.6,3.7,0c0.5,0.3,1,0.7,1.3,1.3c0.6,1.2,0.6,2.7,0,3.9c-0.3,0.5-0.8,1-1.3,1.3c-0.6,0.3-1.2,0.5-1.8,0.4
	C727.8,87.8,727.2,87.7,726.6,87.4z M729.6,86.5c0.4-0.2,0.7-0.5,0.9-0.9c0.2-0.4,0.4-1,0.3-1.5c0-0.5-0.1-1-0.3-1.4
	c-0.2-0.4-0.5-0.7-0.9-0.9c-0.4-0.2-0.8-0.3-1.2-0.3s-0.8,0.1-1.2,0.3c-0.4,0.2-0.7,0.5-0.9,0.9c-0.2,0.4-0.3,0.9-0.3,1.4
	s0.1,1,0.3,1.5c0.2,0.4,0.5,0.7,0.8,0.9c0.4,0.2,0.8,0.3,1.2,0.3C728.8,86.8,729.3,86.7,729.6,86.5L729.6,86.5z"/>
<path d="M733.3,82.2c0.3-0.5,0.7-1,1.2-1.3c1.3-0.7,2.8-0.6,4,0.2c0.6,0.4,1,1.1,1.1,1.8h-1.2c-0.1-0.4-0.4-0.8-0.7-1
	c-0.4-0.3-0.8-0.4-1.3-0.4c-0.6,0-1.2,0.2-1.6,0.7c-0.4,0.6-0.7,1.3-0.6,2c0,0.7,0.2,1.4,0.6,2c0.4,0.5,1,0.7,1.6,0.7
	c0.5,0,0.9-0.1,1.3-0.4c0.3-0.2,0.6-0.6,0.7-1h1.3c-0.2,0.7-0.6,1.3-1.1,1.8c-0.6,0.4-1.4,0.7-2.2,0.7c-0.6,0-1.3-0.1-1.8-0.4
	s-0.9-0.8-1.2-1.3c-0.3-0.6-0.5-1.3-0.4-2C732.8,83.5,733,82.8,733.3,82.2z"/>
<path d="M740.8,82.2c0.3-0.5,0.7-1,1.2-1.3s1.1-0.5,1.7-0.5s1.1,0.1,1.6,0.4c0.4,0.2,0.8,0.6,1,1v-1.3h1.2v7.1h-1.1v-1.3
	c-0.2,0.4-0.6,0.8-1,1c-0.5,0.3-1.1,0.4-1.6,0.4c-0.6,0-1.2-0.2-1.7-0.5s-1-0.8-1.3-1.3c-0.3-0.6-0.5-1.3-0.4-1.9
	C740.4,83.4,740.5,82.8,740.8,82.2z M746.1,82.7c-0.2-0.4-0.5-0.7-0.9-0.9c-0.4-0.2-0.8-0.3-1.2-0.3s-0.8,0.1-1.2,0.3
	c-0.4,0.2-0.7,0.5-0.9,0.9c-0.2,0.4-0.3,0.9-0.3,1.4s0.1,1,0.3,1.4c0.2,0.4,0.5,0.7,0.9,0.9c0.4,0.2,0.8,0.3,1.2,0.3
	s0.9-0.1,1.2-0.3c0.4-0.2,0.7-0.5,0.9-0.9c0.2-0.4,0.3-0.9,0.3-1.4S746.3,83.2,746.1,82.7z"/>
<path d="M750.7,81.6v4.2c0,0.3,0.1,0.5,0.2,0.7c0.2,0.2,0.5,0.2,0.8,0.2h0.9v1h-1.1c-0.5,0-1.1-0.1-1.5-0.5s-0.6-0.9-0.5-1.5v-4.2
	h-0.9v-1h0.9v-1.8h1.2v1.8h1.8v1L750.7,81.6z"/>
<path d="M753.6,79.2c-0.2-0.1-0.2-0.4-0.2-0.6s0.1-0.4,0.2-0.6c0.1-0.2,0.4-0.2,0.6-0.2s0.4,0.1,0.5,0.2c0.2,0.1,0.2,0.4,0.2,0.6
	s-0.1,0.4-0.2,0.6s-0.3,0.2-0.5,0.2C754,79.4,753.8,79.3,753.6,79.2z M754.8,80.6v7.1h-1.2v-7.1H754.8z"/>
<path d="M757.7,87.4c-0.5-0.3-1-0.8-1.3-1.3c-0.3-0.6-0.5-1.3-0.5-1.9c0-0.7,0.2-1.3,0.5-1.9c0.3-0.5,0.7-1,1.3-1.3
	c1.2-0.6,2.5-0.6,3.7,0c0.5,0.3,1,0.7,1.3,1.3c0.6,1.2,0.6,2.7,0,3.9c-0.3,0.5-0.8,1-1.3,1.3c-0.6,0.3-1.2,0.5-1.8,0.4
	C758.9,87.8,758.3,87.7,757.7,87.4z M760.7,86.5c0.4-0.2,0.7-0.5,0.9-0.9c0.2-0.4,0.4-1,0.3-1.5c0-0.5-0.1-1-0.3-1.4
	c-0.2-0.4-0.5-0.7-0.9-0.9c-0.7-0.4-1.6-0.4-2.4,0c-0.4,0.2-0.7,0.5-0.9,0.9c-0.2,0.4-0.3,0.9-0.3,1.4s0.1,1,0.3,1.5
	c0.2,0.4,0.5,0.7,0.8,0.9c0.4,0.2,0.8,0.3,1.2,0.3C760,86.8,760.4,86.7,760.7,86.5L760.7,86.5z"/>
<path d="M770,81.2c0.6,0.6,0.9,1.4,0.8,2.3v4.2h-1.2v-4c0-0.6-0.1-1.2-0.5-1.6c-0.8-0.8-2.1-0.8-2.9,0c-0.4,0.5-0.6,1.1-0.6,1.7v3.9
	h-1.2v-7.1h1.2v1c0.2-0.4,0.6-0.7,1-0.8c0.4-0.2,0.9-0.3,1.3-0.3C768.7,80.4,769.4,80.7,770,81.2z"/>
<path d="M773.6,86.1l-1.5,3.5h-0.8l1-3.5H773.6z"/>
<path d="M779.1,81.6v4.2c0,0.3,0.1,0.5,0.2,0.7c0.2,0.2,0.5,0.2,0.8,0.2h0.9v1h-1.1c-0.5,0-1.1-0.1-1.5-0.5s-0.6-0.9-0.5-1.5v-4.2
	H777v-1h0.9v-1.8h1.2v1.8h1.9v1L779.1,81.6z"/>
<path d="M782.1,79.2c-0.2-0.1-0.2-0.4-0.2-0.6s0.1-0.4,0.2-0.6c0.1-0.2,0.4-0.2,0.6-0.2s0.4,0.1,0.5,0.2c0.2,0.1,0.2,0.4,0.2,0.6
	s-0.1,0.4-0.2,0.6s-0.3,0.2-0.5,0.2C782.4,79.4,782.2,79.3,782.1,79.2z M783.2,80.6v7.1H782v-7.1H783.2z"/>
<path d="M794.9,80.8c0.4,0.2,0.8,0.6,1,1c0.3,0.5,0.4,1.1,0.4,1.7v4.2h-1.2v-4c0-0.6-0.2-1.2-0.5-1.6c-0.4-0.4-0.9-0.6-1.4-0.6
	c-0.6,0-1.1,0.2-1.5,0.6c-0.4,0.5-0.6,1.1-0.5,1.7v3.9H790v-4c0-0.6-0.1-1.2-0.5-1.6s-0.9-0.6-1.4-0.6c-0.6,0-1.1,0.2-1.5,0.6
	c-0.4,0.5-0.6,1.1-0.5,1.7v3.9h-1.2v-7.2h1.2v1c0.2-0.4,0.6-0.7,0.9-0.9c0.4-0.2,0.9-0.3,1.3-0.3c0.6,0,1.1,0.1,1.6,0.4
	s0.8,0.7,1,1.2c0.2-0.5,0.5-0.9,1-1.2c0.5-0.3,1-0.4,1.5-0.4C793.9,80.4,794.4,80.5,794.9,80.8z"/>
<path d="M804.4,84.6h-5.7c0,0.6,0.3,1.2,0.7,1.6s1,0.6,1.6,0.6c0.5,0,0.9-0.1,1.3-0.4c0.3-0.2,0.6-0.6,0.7-0.9h1.3
	c-0.2,0.7-0.6,1.3-1.2,1.7c-0.6,0.4-1.4,0.7-2.1,0.6c-0.6,0-1.3-0.1-1.8-0.4s-1-0.8-1.3-1.3c-0.3-0.6-0.5-1.3-0.5-1.9
	c0-0.7,0.1-1.3,0.4-1.9c0.3-0.5,0.7-1,1.2-1.3c0.6-0.3,1.2-0.5,1.8-0.4c0.6,0,1.3,0.1,1.8,0.4s0.9,0.7,1.2,1.2
	c0.3,0.5,0.4,1.1,0.4,1.8C804.4,84.1,804.4,84.4,804.4,84.6z M802.9,82.5c-0.2-0.3-0.5-0.6-0.8-0.7c-0.4-0.2-0.7-0.3-1.1-0.2
	c-0.6,0-1.1,0.2-1.6,0.5c-0.4,0.4-0.7,1-0.7,1.6h4.5C803.2,83.2,803.1,82.8,802.9,82.5L802.9,82.5z"/>
<path d="M598.3,107c-0.3-0.3-0.5-0.7-0.5-1.1s0.2-0.8,0.5-1.1c0.3-0.3,0.7-0.5,1.1-0.5c0.9,0,1.6,0.7,1.6,1.6l0,0
	c0,0.4-0.2,0.8-0.5,1.1c-0.3,0.3-0.7,0.5-1.1,0.5S598.6,107.3,598.3,107z"/>
<path d="M608.1,108.2h-4l-0.7,2h-1.2l3.3-9h1.4l3.3,9H609L608.1,108.2z M607.8,107.2l-1.6-4.6l-1.6,4.6H607.8z"/>
<path d="M614.1,104.1h-1.5v6.2h-1.2v-6.2h-0.9v-1h0.9v-0.5c-0.1-0.6,0.2-1.3,0.6-1.8c0.6-0.4,1.3-0.6,2-0.6v1
	c-0.4,0-0.8,0.1-1.1,0.3c-0.2,0.3-0.3,0.6-0.3,1v0.5h1.5V104.1z"/>
<path d="M618,104.1h-1.5v6.2h-1.2v-6.2h-0.9v-1h0.9v-0.5c-0.1-0.6,0.2-1.3,0.6-1.8c0.6-0.4,1.3-0.6,2-0.6v1c-0.4,0-0.8,0.1-1.1,0.3
	c-0.2,0.3-0.4,0.6-0.3,1v0.5h1.5L618,104.1z"/>
<path d="M620.3,109.9c-0.5-0.3-1-0.8-1.3-1.3c-0.3-0.6-0.5-1.3-0.5-1.9c0-0.7,0.1-1.3,0.5-1.9c0.3-0.5,0.7-1,1.3-1.3
	c1.2-0.6,2.5-0.6,3.7,0c0.5,0.3,1,0.7,1.3,1.3c0.3,0.6,0.5,1.3,0.5,1.9c0,0.7-0.2,1.4-0.5,1.9c-0.3,0.5-0.8,1-1.3,1.3
	c-0.6,0.3-1.2,0.5-1.8,0.4C621.5,110.3,620.8,110.2,620.3,109.9z M623.3,109c0.4-0.2,0.7-0.5,0.9-0.9c0.2-0.4,0.4-1,0.3-1.5
	c0-0.5-0.1-1-0.3-1.4c-0.2-0.4-0.5-0.7-0.9-0.9c-0.4-0.2-0.8-0.3-1.2-0.3s-0.8,0.1-1.2,0.3c-0.4,0.2-0.7,0.5-0.9,0.9
	c-0.2,0.4-0.3,0.9-0.3,1.4s0.1,1,0.3,1.5c0.2,0.4,0.5,0.7,0.8,0.9c0.4,0.2,0.8,0.3,1.2,0.3C622.5,109.3,622.9,109.2,623.3,109
	L623.3,109z"/>
<path d="M629,103.3c0.4-0.2,0.9-0.3,1.4-0.3v1.2h-0.3c-1.3,0-2,0.7-2,2.2v3.9h-1.2v-7.1h1.2v1.2C628.3,103.9,628.6,103.5,629,103.3z
	"/>
<path d="M631.4,104.7c0.3-0.5,0.7-1,1.2-1.3s1.2-0.4,1.8-0.4c0.5,0,1.1,0.1,1.5,0.4c0.4,0.2,0.8,0.6,1.1,1v-3.8h1.2v9.6H637v-1.3
	c-0.2,0.4-0.6,0.8-1,1c-0.5,0.3-1,0.4-1.6,0.4c-1.2,0-2.4-0.7-2.9-1.8c-0.3-0.6-0.5-1.3-0.4-1.9C631,106,631.1,105.3,631.4,104.7z
	 M636.7,105.2c-0.2-0.4-0.5-0.7-0.9-0.9c-0.4-0.2-0.8-0.3-1.2-0.3s-0.8,0.1-1.2,0.3c-0.4,0.2-0.7,0.5-0.9,0.9
	c-0.2,0.4-0.3,0.9-0.3,1.4s0.1,1,0.3,1.4c0.2,0.4,0.5,0.7,0.9,0.9c0.4,0.2,0.8,0.3,1.2,0.3s0.9-0.1,1.2-0.3c0.4-0.2,0.7-0.5,0.9-0.9
	c0.2-0.4,0.3-0.9,0.3-1.4S636.9,105.7,636.7,105.2L636.7,105.2z"/>
<path d="M639.9,104.7c0.3-0.5,0.7-1,1.2-1.3s1.1-0.5,1.7-0.5s1.1,0.1,1.6,0.4c0.4,0.2,0.8,0.6,1,1V103h1.2v7.1h-1.2v-1.3
	c-0.2,0.4-0.6,0.8-1,1c-0.5,0.3-1.1,0.4-1.6,0.4c-0.6,0-1.2-0.2-1.7-0.5s-0.9-0.8-1.2-1.3c-0.3-0.6-0.5-1.3-0.4-1.9
	C639.4,105.9,639.6,105.3,639.9,104.7z M645.1,105.2c-0.2-0.4-0.5-0.7-0.9-0.9c-0.8-0.4-1.7-0.4-2.4,0c-0.4,0.2-0.7,0.5-0.9,0.9
	c-0.2,0.4-0.3,0.9-0.3,1.4s0.1,1,0.3,1.4c0.2,0.4,0.5,0.7,0.9,0.9c0.4,0.2,0.8,0.3,1.2,0.3c0.9,0,1.7-0.5,2.1-1.2
	c0.2-0.4,0.3-0.9,0.3-1.4C645.4,106.2,645.3,105.7,645.1,105.2L645.1,105.2z"/>
<path d="M650.5,103.4c0.5-0.3,1-0.4,1.6-0.4s1.2,0.2,1.7,0.5s0.9,0.7,1.2,1.3c0.3,0.6,0.5,1.3,0.4,1.9c0,0.7-0.1,1.3-0.4,1.9
	c-0.6,1.1-1.7,1.8-2.9,1.8c-0.6,0-1.1-0.1-1.6-0.4c-0.4-0.2-0.8-0.6-1-1v1.3h-1.2v-9.6h1.2v3.8C649.7,104,650.1,103.6,650.5,103.4z
	 M654,105.2c-0.2-0.4-0.5-0.7-0.9-0.9c-0.4-0.2-0.8-0.3-1.2-0.3s-0.8,0.1-1.2,0.3c-0.4,0.2-0.7,0.5-0.9,0.9c-0.4,0.9-0.4,1.9,0,2.8
	c0.2,0.4,0.5,0.7,0.9,0.9c1.1,0.7,2.6,0.3,3.2-0.8c0,0,0-0.1,0.1-0.1c0.2-0.4,0.3-0.9,0.3-1.4C654.3,106.1,654.2,105.6,654,105.2z"
	/>
<path d="M657.9,100.6v9.6h-1.2v-9.6H657.9z"/>
<path d="M666,107.1h-5.7c0,0.6,0.3,1.2,0.7,1.6s1,0.6,1.6,0.6c0.5,0,0.9-0.1,1.3-0.4c0.3-0.2,0.6-0.6,0.7-0.9h1.3
	c-0.2,0.7-0.6,1.3-1.1,1.7c-0.6,0.4-1.4,0.7-2.1,0.6c-0.6,0-1.3-0.1-1.8-0.4s-1-0.8-1.2-1.3c-0.3-0.6-0.5-1.3-0.5-1.9
	c0-0.7,0.1-1.3,0.4-1.9c0.3-0.5,0.7-1,1.2-1.3c0.6-0.3,1.2-0.5,1.8-0.4c0.6,0,1.3,0.1,1.8,0.4s0.9,0.7,1.2,1.2
	c0.3,0.5,0.4,1.1,0.4,1.8C666,106.6,666,106.9,666,107.1z M664.5,105c-0.2-0.3-0.5-0.6-0.8-0.7c-0.4-0.2-0.7-0.3-1.1-0.2
	c-0.6,0-1.1,0.2-1.5,0.6s-0.7,1-0.7,1.6h4.5C664.8,105.8,664.7,105.4,664.5,105z"/>
<path d="M675.6,105.7c-0.7,0.5-1.5,0.8-2.4,0.7h-1.7v3.8h-1.2v-9.1h2.9c0.8-0.1,1.7,0.2,2.3,0.8
	C676.6,102.9,676.7,104.6,675.6,105.7L675.6,105.7L675.6,105.7z M674.7,105c0.3-0.3,0.5-0.8,0.5-1.2c0-1.1-0.7-1.7-1.9-1.7h-1.7v3.3
	h1.7C673.8,105.5,674.3,105.3,674.7,105L674.7,105z"/>
<path d="M679.6,103.3c0.4-0.2,0.9-0.4,1.4-0.3v1.2h-0.3c-1.3,0-2,0.7-2,2.2v3.9h-1.2v-7.1h1.2v1.2
	C678.9,103.8,679.2,103.5,679.6,103.3z"/>
<path d="M682,101.7c-0.2-0.2-0.2-0.4-0.2-0.6s0.1-0.4,0.2-0.6c0.2-0.2,0.4-0.2,0.6-0.2c0.2,0,0.4,0.1,0.5,0.2
	c0.2,0.2,0.2,0.4,0.2,0.6s-0.1,0.4-0.2,0.6c-0.1,0.2-0.3,0.2-0.5,0.2C682.4,101.9,682.2,101.8,682,101.7z M683.2,103.1v7.1H682v-7.1
	H683.2z"/>
<path d="M684.8,104.7c0.3-0.5,0.7-1,1.2-1.3c1.3-0.7,2.8-0.6,4,0.2c0.6,0.4,1,1.1,1.1,1.8h-1.3c-0.1-0.4-0.4-0.8-0.7-1
	c-0.4-0.3-0.8-0.4-1.3-0.4c-0.6,0-1.2,0.2-1.6,0.7c-0.5,0.6-0.7,1.3-0.6,2c-0.1,0.7,0.2,1.4,0.6,2c0.4,0.5,1,0.7,1.6,0.7
	c0.5,0,0.9-0.1,1.3-0.4c0.3-0.2,0.6-0.6,0.7-1h1.3c-0.2,0.7-0.6,1.3-1.2,1.8c-0.6,0.4-1.4,0.7-2.1,0.7c-0.6,0-1.3-0.1-1.8-0.4
	s-1-0.7-1.2-1.3c-0.3-0.6-0.5-1.3-0.4-2C684.4,106,684.5,105.3,684.8,104.7z"/>
<path d="M698.8,107.1h-5.7c0,1.2,1,2.2,2.2,2.2h0.1c0.5,0,0.9-0.1,1.3-0.4c0.3-0.2,0.6-0.6,0.7-1h1.3c-0.2,0.7-0.6,1.3-1.1,1.7
	c-0.6,0.4-1.4,0.7-2.1,0.6c-0.6,0-1.3-0.1-1.8-0.4s-1-0.8-1.2-1.3c-0.6-1.2-0.6-2.7,0-3.9c0.3-0.5,0.7-1,1.2-1.3
	c0.6-0.3,1.2-0.4,1.8-0.4s1.2,0.1,1.8,0.4c0.5,0.3,0.9,0.7,1.2,1.2c0.3,0.5,0.4,1.1,0.4,1.8C698.9,106.6,698.8,106.8,698.8,107.1z
	 M697.3,105c-0.2-0.3-0.5-0.6-0.8-0.7c-0.3-0.2-0.7-0.3-1.1-0.3c-0.6,0-1.1,0.2-1.5,0.6s-0.7,1-0.7,1.6h4.5
	C697.6,105.7,697.5,105.3,697.3,105z"/>
<path d="M598.3,129.5c-0.3-0.3-0.5-0.7-0.5-1.1c0-0.4,0.2-0.8,0.5-1.1c0.3-0.3,0.7-0.5,1.1-0.5c0.9,0,1.6,0.7,1.6,1.6l0,0
	c0,0.4-0.2,0.8-0.5,1.1c-0.3,0.3-0.7,0.5-1.2,0.5C599,130,598.6,129.8,598.3,129.5z"/>
<path d="M603.9,123.6v9.1h-1.2v-9.1H603.9z"/>
<path d="M611.2,126.2c0.6,0.6,0.9,1.4,0.8,2.3v4.2h-1.2v-4c0-0.6-0.2-1.2-0.5-1.6c-0.4-0.4-0.9-0.6-1.5-0.6s-1.1,0.2-1.5,0.6
	c-0.4,0.5-0.6,1.1-0.5,1.7v3.9h-1.2v-7.1h1.2v1c0.2-0.4,0.6-0.7,1-0.8c0.4-0.2,0.9-0.3,1.3-0.3C609.9,125.4,610.6,125.7,611.2,126.2
	z"/>
<path d="M615,126.6v4.2c0,0.3,0.1,0.5,0.2,0.7c0.2,0.2,0.5,0.2,0.8,0.2h0.9v1h-1.1c-0.5,0-1.1-0.1-1.5-0.5s-0.6-0.9-0.5-1.5v-4.2
	h-0.9v-1h0.9v-1.8h1.2v1.8h1.9v1L615,126.6z"/>
<path d="M624.4,129.6h-5.7c0,0.6,0.3,1.2,0.7,1.6c0.4,0.4,1,0.6,1.6,0.6c0.5,0,0.9-0.1,1.3-0.4c0.4-0.2,0.6-0.6,0.7-1h1.3
	c-0.2,0.7-0.6,1.3-1.2,1.7c-0.6,0.4-1.4,0.7-2.1,0.6c-0.6,0-1.3-0.1-1.8-0.4c-0.5-0.3-1-0.8-1.3-1.3c-0.3-0.6-0.5-1.3-0.5-1.9
	c0-0.7,0.1-1.3,0.4-1.9c0.3-0.5,0.7-1,1.2-1.3c0.6-0.3,1.2-0.5,1.8-0.4c0.6,0,1.3,0.1,1.8,0.4s0.9,0.7,1.2,1.2
	c0.3,0.5,0.4,1.1,0.4,1.7C624.4,129.1,624.4,129.3,624.4,129.6z M622.9,127.5c-0.2-0.3-0.5-0.6-0.8-0.7c-0.4-0.2-0.7-0.3-1.1-0.2
	c-0.6,0-1.1,0.2-1.6,0.5c-0.4,0.4-0.7,1-0.7,1.6h4.5C623.2,128.2,623.1,127.8,622.9,127.5L622.9,127.5z"/>
<path d="M631.2,126.2c0.6,0.6,0.9,1.4,0.8,2.3v4.2h-1.2v-4c0-0.6-0.2-1.2-0.5-1.6c-0.4-0.4-0.9-0.6-1.5-0.6s-1.1,0.2-1.5,0.6
	c-0.4,0.5-0.6,1.1-0.5,1.7v3.9h-1.2v-7.1h1.2v1c0.2-0.4,0.6-0.7,1-0.8c0.4-0.2,0.9-0.3,1.3-0.3C629.9,125.4,630.6,125.7,631.2,126.2
	z"/>
<path d="M635,126.6v4.2c0,0.3,0.1,0.5,0.2,0.7c0.2,0.2,0.5,0.2,0.8,0.2h0.9v1h-1.1c-0.5,0-1.1-0.1-1.5-0.5s-0.6-0.9-0.5-1.5v-4.2
	h-0.9v-1h0.9v-1.8h1.2v1.8h1.9v1L635,126.6z"/>
<path d="M638,124.2c-0.2-0.1-0.2-0.4-0.2-0.6s0.1-0.4,0.2-0.6s0.4-0.2,0.6-0.2c0.2,0,0.4,0.1,0.6,0.2c0.1,0.2,0.2,0.4,0.2,0.6
	s-0.1,0.4-0.2,0.6c-0.1,0.2-0.3,0.2-0.6,0.2C638.3,124.4,638.1,124.3,638,124.2z M639.1,125.6v7.1h-1.2v-7.1H639.1z"/>
<path d="M642.1,132.4c-0.5-0.3-1-0.8-1.3-1.3c-0.3-0.6-0.5-1.3-0.5-1.9c0-0.7,0.2-1.3,0.5-1.9c0.3-0.5,0.7-1,1.3-1.3
	c1.2-0.6,2.5-0.6,3.7,0c0.5,0.3,1,0.7,1.3,1.3c0.6,1.2,0.6,2.7,0,3.9c-0.3,0.5-0.8,1-1.3,1.3c-0.6,0.3-1.2,0.5-1.8,0.4
	C643.3,132.8,642.6,132.7,642.1,132.4z M645.1,131.5c0.4-0.2,0.7-0.5,0.9-0.9c0.2-0.4,0.4-1,0.3-1.5c0-0.5-0.1-1-0.3-1.4
	c-0.2-0.4-0.5-0.7-0.9-0.9c-0.4-0.2-0.8-0.3-1.2-0.3s-0.8,0.1-1.2,0.3c-0.4,0.2-0.7,0.5-0.9,0.9c-0.2,0.4-0.3,0.9-0.3,1.4
	s0.1,1,0.3,1.5c0.2,0.4,0.5,0.7,0.8,0.9c0.4,0.2,0.8,0.3,1.2,0.3C644.3,131.8,644.7,131.7,645.1,131.5L645.1,131.5z"/>
<path d="M654.3,126.2c0.6,0.6,0.9,1.4,0.8,2.3v4.2h-1.2v-4c0.1-0.6-0.1-1.2-0.5-1.7c-0.4-0.4-0.9-0.6-1.5-0.6s-1.1,0.2-1.5,0.6
	c-0.4,0.5-0.6,1.1-0.6,1.7v3.9h-1.2v-7.1h1.2v1c0.2-0.4,0.6-0.7,1-0.8c0.4-0.2,0.9-0.3,1.3-0.3C653,125.4,653.8,125.7,654.3,126.2z"
	/>
<path d="M661.1,120.5l-3.6,14.5h-1.1l3.5-14.5H661.1z"/>
<path d="M672.6,125.8c0.4,0.2,0.8,0.6,1,1c0.3,0.5,0.4,1.1,0.4,1.7v4.2h-1.2v-4c0-0.6-0.1-1.2-0.5-1.6c-0.8-0.8-2.1-0.8-2.9,0
	c-0.4,0.5-0.6,1.1-0.5,1.7v3.9h-1.2v-4c0-0.6-0.2-1.2-0.5-1.6c-0.4-0.4-0.9-0.6-1.4-0.6c-0.6,0-1.1,0.2-1.5,0.6
	c-0.4,0.5-0.6,1.1-0.5,1.7v3.9h-1.2v-7.1h1.2v1c0.2-0.4,0.6-0.7,1-0.9c0.4-0.2,0.8-0.3,1.3-0.3c0.6,0,1.1,0.1,1.6,0.4s0.8,0.7,1,1.2
	c0.2-0.5,0.5-0.9,1-1.2c0.5-0.3,1-0.4,1.5-0.4C671.6,125.4,672.1,125.6,672.6,125.8z"/>
<path d="M676.8,132.4c-0.5-0.3-1-0.8-1.3-1.3c-0.3-0.6-0.5-1.3-0.5-1.9c0-0.7,0.1-1.3,0.5-1.9c0.3-0.5,0.7-1,1.3-1.3
	c1.2-0.6,2.5-0.6,3.7,0c0.5,0.3,1,0.7,1.3,1.3c0.6,1.2,0.6,2.7,0,3.9c-0.3,0.5-0.8,1-1.3,1.3c-0.6,0.3-1.2,0.5-1.8,0.4
	C678,132.8,677.4,132.7,676.8,132.4z M679.8,131.5c0.4-0.2,0.7-0.5,0.9-0.9c0.2-0.4,0.4-1,0.3-1.5c0-0.5-0.1-1-0.3-1.4
	c-0.2-0.4-0.5-0.7-0.9-0.9c-0.4-0.2-0.8-0.3-1.2-0.3s-0.8,0.1-1.2,0.3c-0.4,0.2-0.7,0.5-0.9,0.9c-0.2,0.4-0.3,0.9-0.3,1.4
	s0.1,1,0.3,1.5c0.2,0.4,0.5,0.7,0.8,0.9c0.4,0.2,0.8,0.3,1.2,0.3C679.1,131.8,679.5,131.7,679.8,131.5L679.8,131.5z"/>
<path d="M684.9,126.6v4.2c0,0.3,0.1,0.5,0.2,0.7c0.2,0.2,0.5,0.2,0.8,0.2h0.9v1h-1.1c-0.5,0-1.1-0.1-1.5-0.5s-0.6-0.9-0.5-1.5v-4.2
	h-0.9v-1h0.9v-1.8h1.2v1.8h1.9v1L684.9,126.6z"/>
<path d="M687.9,124.2c-0.2-0.1-0.2-0.4-0.2-0.6s0.1-0.4,0.2-0.6s0.4-0.2,0.6-0.2c0.2,0,0.4,0.1,0.6,0.2c0.1,0.2,0.2,0.4,0.2,0.6
	s-0.1,0.4-0.2,0.6c-0.1,0.2-0.3,0.2-0.6,0.2C688.3,124.4,688,124.3,687.9,124.2z M689,125.6v7.1h-1.2v-7.1H689z"/>
<path d="M693.4,131.6l2.2-6h1.3l-2.8,7.1h-1.4l-2.8-7.1h1.3L693.4,131.6z"/>
<path d="M697.6,127.2c0.3-0.5,0.7-1,1.2-1.3s1.1-0.5,1.7-0.5c0.6,0,1.1,0.1,1.6,0.4c0.4,0.2,0.8,0.6,1,1v-1.3h1.2v7.1h-1.2v-1.3
	c-0.2,0.4-0.6,0.8-1,1c-0.5,0.3-1.1,0.4-1.6,0.4c-0.6,0-1.2-0.2-1.7-0.5s-0.9-0.8-1.2-1.3c-0.3-0.6-0.5-1.3-0.4-1.9
	C697.2,128.4,697.3,127.8,697.6,127.2z M702.9,127.7c-0.2-0.4-0.5-0.7-0.9-0.9c-0.4-0.2-0.8-0.3-1.2-0.3s-0.8,0.1-1.2,0.3
	c-0.4,0.2-0.7,0.5-0.9,0.9c-0.2,0.4-0.3,0.9-0.3,1.4s0.1,1,0.3,1.4c0.2,0.4,0.5,0.7,0.9,0.9s0.8,0.3,1.2,0.3c0.9,0,1.7-0.5,2.1-1.2
	c0.2-0.4,0.3-0.9,0.3-1.4C703.2,128.6,703.1,128.2,702.9,127.7z"/>
<path d="M707.5,126.6v4.2c0,0.3,0.1,0.5,0.2,0.7c0.2,0.2,0.5,0.2,0.8,0.2h0.9v1h-1.1c-0.5,0-1.1-0.1-1.5-0.5s-0.5-0.9-0.5-1.5v-4.2
	h-1v-1h0.9v-1.8h1.2v1.8h1.9v1L707.5,126.6z"/>
<path d="M710.4,124.2c-0.2-0.2-0.2-0.4-0.2-0.6s0.1-0.4,0.2-0.6c0.2-0.2,0.4-0.2,0.6-0.2c0.2,0,0.4,0.1,0.5,0.2
	c0.2,0.2,0.2,0.4,0.2,0.6s-0.1,0.4-0.2,0.6c-0.1,0.2-0.3,0.2-0.5,0.2C710.8,124.4,710.6,124.3,710.4,124.2z M711.6,125.6v7.1h-1.2
	v-7.1H711.6z"/>
<path d="M714.5,132.4c-0.5-0.3-1-0.8-1.3-1.3c-0.6-1.2-0.6-2.7,0-3.9c0.3-0.5,0.8-1,1.3-1.3c0.6-0.3,1.2-0.5,1.8-0.4
	c0.6,0,1.3,0.1,1.8,0.4s1,0.7,1.3,1.3c0.3,0.6,0.5,1.3,0.5,1.9c0,0.7-0.2,1.4-0.5,1.9c-0.3,0.5-0.8,1-1.3,1.3
	c-0.6,0.3-1.2,0.5-1.8,0.4C715.7,132.8,715.1,132.7,714.5,132.4z M717.5,131.5c0.4-0.2,0.7-0.5,0.9-0.9c0.2-0.4,0.4-1,0.3-1.5
	c0-0.5-0.1-1-0.3-1.4c-0.2-0.4-0.5-0.7-0.9-0.9c-0.4-0.2-0.8-0.3-1.2-0.3s-0.8,0.1-1.2,0.3c-0.4,0.2-0.7,0.5-0.9,0.9
	c-0.2,0.4-0.3,0.9-0.3,1.4s0.1,1,0.3,1.5c0.2,0.4,0.5,0.7,0.9,0.9s0.8,0.3,1.2,0.3C716.8,131.8,717.2,131.7,717.5,131.5L717.5,131.5
	z"/>
<path d="M726.8,126.2c0.6,0.6,0.9,1.4,0.8,2.3v4.2h-1.2v-4c0-0.6-0.2-1.2-0.5-1.6c-0.8-0.8-2.2-0.8-3,0c-0.4,0.5-0.6,1.1-0.5,1.7
	v3.9h-1.2v-7.1h1.3v1c0.2-0.4,0.6-0.7,1-0.8c0.4-0.2,0.9-0.3,1.3-0.3C725.5,125.4,726.2,125.7,726.8,126.2z"/>
<path d="M735.2,126.6h-1.5v6.1h-1.2v-6.2h-0.9v-1h0.9V125c-0.1-0.6,0.2-1.3,0.6-1.8c0.6-0.4,1.3-0.6,2-0.6v1c-0.4,0-0.8,0.1-1.1,0.3
	c-0.2,0.3-0.4,0.6-0.3,1v0.5h1.5V126.6z"/>
<path d="M737.5,132.4c-0.5-0.3-1-0.8-1.3-1.3c-0.6-1.2-0.6-2.7,0-3.9c0.3-0.5,0.8-1,1.3-1.3c1.1-0.6,2.5-0.6,3.7,0
	c0.5,0.3,1,0.7,1.3,1.3c0.3,0.6,0.5,1.3,0.5,1.9c0,0.7-0.2,1.4-0.5,1.9c-0.3,0.5-0.8,1-1.3,1.3c-0.6,0.3-1.2,0.5-1.8,0.4
	C738.7,132.8,738,132.7,737.5,132.4z M740.5,131.5c0.4-0.2,0.7-0.5,0.9-0.9c0.2-0.4,0.4-1,0.3-1.5c0-0.5-0.1-1-0.3-1.4
	c-0.2-0.4-0.5-0.7-0.9-0.9c-0.7-0.4-1.6-0.4-2.4,0c-0.4,0.2-0.7,0.5-0.9,0.9c-0.2,0.4-0.3,0.9-0.3,1.4s0.1,1,0.3,1.5
	c0.2,0.4,0.5,0.7,0.8,0.9c0.4,0.2,0.8,0.3,1.2,0.3C739.7,131.8,740.1,131.7,740.5,131.5z"/>
<path d="M746.2,125.8c0.4-0.2,0.9-0.4,1.4-0.3v1.2h-0.3c-1.3,0-2,0.7-2,2.2v3.9h-1.2v-7.1h1.2v1.2
	C745.5,126.3,745.8,126,746.2,125.8z"/>
<path d="M753.2,126.6v4.2c0,0.3,0.1,0.5,0.2,0.7c0.2,0.2,0.5,0.2,0.8,0.2h0.9v1H754c-0.5,0-1.1-0.1-1.5-0.5s-0.5-0.9-0.5-1.5v-4.2
	h-0.9v-1h0.9v-1.8h1.2v1.8h1.9v1L753.2,126.6z"/>
<path d="M761.1,125.8c0.4,0.2,0.8,0.6,1,1c0.3,0.5,0.4,1.1,0.4,1.7v4.2h-1.2v-4c0-0.6-0.2-1.2-0.5-1.6c-0.4-0.4-0.9-0.6-1.5-0.6
	s-1.1,0.2-1.5,0.6c-0.4,0.5-0.6,1.1-0.5,1.7v3.9h-1.2v-9.6h1.2v3.5c0.2-0.4,0.6-0.7,1-0.8c0.4-0.2,0.9-0.3,1.4-0.3
	C760.2,125.4,760.6,125.6,761.1,125.8z"/>
<path d="M770.5,129.6h-5.7c0,0.6,0.3,1.2,0.7,1.6c0.4,0.4,1,0.6,1.6,0.6c0.5,0,0.9-0.1,1.3-0.4c0.4-0.2,0.6-0.6,0.7-1h1.3
	c-0.2,0.7-0.6,1.3-1.1,1.7c-0.6,0.4-1.4,0.7-2.1,0.6c-0.6,0-1.3-0.1-1.8-0.4c-0.5-0.3-1-0.8-1.2-1.3c-0.3-0.6-0.5-1.3-0.5-1.9
	c0-0.7,0.1-1.3,0.4-1.9c0.3-0.5,0.7-1,1.2-1.3c0.6-0.3,1.2-0.5,1.8-0.4c0.6,0,1.3,0.1,1.8,0.4s0.9,0.7,1.2,1.2
	c0.3,0.5,0.4,1.1,0.4,1.7C770.5,129.1,770.5,129.3,770.5,129.6z M769,127.5c-0.2-0.3-0.5-0.6-0.8-0.7c-0.4-0.2-0.7-0.3-1.1-0.2
	c-0.6,0-1.1,0.2-1.5,0.6s-0.7,1-0.7,1.6h4.5C769.3,128.2,769.2,127.8,769,127.5z"/>
<path d="M776.3,126.6v4.2c0,0.3,0.1,0.5,0.2,0.7c0.2,0.2,0.5,0.2,0.8,0.2h0.9v1h-1.1c-0.5,0-1.1-0.1-1.5-0.5s-0.5-0.9-0.5-1.5v-4.2
	h-0.9v-1h0.9v-1.8h1.2v1.8h1.9v1L776.3,126.6z"/>
<path d="M781.3,125.8c0.4-0.2,0.9-0.4,1.4-0.3v1.2h-0.3c-1.3,0-2,0.7-2,2.2v3.9h-1.2v-7.1h1.2v1.2
	C780.6,126.3,780.9,126,781.3,125.8z"/>
<path d="M783.7,124.2c-0.2-0.1-0.2-0.4-0.2-0.6c0-0.4,0.4-0.8,0.8-0.8c0.2,0,0.4,0.1,0.5,0.2c0.2,0.2,0.2,0.4,0.2,0.6
	s-0.1,0.4-0.2,0.6s-0.3,0.2-0.5,0.2C784.1,124.4,783.9,124.3,783.7,124.2z M784.9,125.6v7.1h-1.2v-7.1H784.9z"/>
<path d="M788.8,125.9c0.5-0.3,1.1-0.4,1.6-0.4c0.6,0,1.2,0.2,1.7,0.5s0.9,0.7,1.2,1.3c0.3,0.6,0.5,1.3,0.4,1.9
	c0,0.7-0.1,1.3-0.4,1.9c-0.3,0.5-0.7,1-1.2,1.3s-1.1,0.5-1.7,0.5c-0.6,0-1.1-0.1-1.6-0.4c-0.4-0.2-0.8-0.6-1.1-1v4.7h-1.2v-10.5h1.2
	v1.3C788,126.5,788.3,126.1,788.8,125.9z M792.2,127.7c-0.2-0.4-0.5-0.7-0.9-0.9c-0.4-0.2-0.8-0.3-1.2-0.3s-0.8,0.1-1.2,0.3
	c-0.4,0.2-0.7,0.5-0.9,0.9c-0.4,0.9-0.4,1.9,0,2.8c0.6,1.2,2.1,1.6,3.2,1c0.4-0.2,0.8-0.6,1-1c0.2-0.4,0.3-0.9,0.3-1.4
	C792.6,128.6,792.5,128.1,792.2,127.7L792.2,127.7z"/>
<path d="M598.3,152c-0.3-0.3-0.5-0.7-0.5-1.1c0-0.4,0.2-0.8,0.5-1.1c0.3-0.3,0.7-0.5,1.1-0.5c0.9,0,1.6,0.7,1.6,1.6l0,0
	c0,0.4-0.2,0.8-0.5,1.1c-0.3,0.3-0.7,0.5-1.1,0.5S598.6,152.3,598.3,152z"/>
<path d="M609.7,146.1v9.1h-1.2v-4.1h-4.6v4.1h-1.2v-9.1h1.2v4h4.6v-4H609.7z"/>
<path d="M612.7,154.9c-0.5-0.3-1-0.8-1.3-1.3c-0.3-0.6-0.5-1.3-0.5-1.9c0-0.7,0.2-1.3,0.5-1.9c0.3-0.5,0.7-1,1.3-1.3
	c1.2-0.6,2.5-0.6,3.7,0c0.5,0.3,1,0.7,1.3,1.3c0.6,1.2,0.6,2.7,0,3.9c-0.3,0.5-0.8,1-1.3,1.3c-0.6,0.3-1.2,0.5-1.8,0.4
	C613.9,155.3,613.2,155.2,612.7,154.9z M615.7,154c0.4-0.2,0.7-0.5,0.9-0.9c0.2-0.4,0.4-1,0.3-1.5c0-0.5-0.1-1-0.3-1.4
	c-0.2-0.4-0.5-0.7-0.9-0.9s-0.8-0.3-1.2-0.3s-0.8,0.1-1.2,0.3s-0.7,0.5-0.9,0.9c-0.2,0.4-0.3,0.9-0.3,1.4s0.1,1,0.3,1.5
	c0.2,0.4,0.5,0.7,0.8,0.9c0.4,0.2,0.8,0.3,1.2,0.3C614.9,154.3,615.3,154.2,615.7,154L615.7,154z"/>
<path d="M628.8,148.1l-2.2,7.1h-1.2l-1.7-5.7l-1.7,5.7h-1.2l-2.2-7.1h1.2l1.6,6l1.8-6h1.2l1.7,6l1.6-6H628.8z"/>
<path d="M642.8,148.3c0.4,0.2,0.8,0.6,1,1c0.3,0.5,0.4,1.1,0.4,1.7v4.2H643v-4c0-0.6-0.2-1.2-0.5-1.6c-0.4-0.4-0.9-0.6-1.4-0.6
	c-0.6,0-1.1,0.2-1.5,0.6c-0.4,0.5-0.6,1.1-0.5,1.7v3.9H638v-4c0-0.6-0.1-1.2-0.5-1.6c-0.4-0.4-0.9-0.6-1.4-0.6
	c-0.6,0-1.1,0.2-1.5,0.6c-0.4,0.5-0.6,1.1-0.5,1.7v3.9h-1.2v-7.1h1.2v1c0.2-0.4,0.6-0.7,0.9-0.9c0.4-0.2,0.9-0.3,1.3-0.3
	c0.6,0,1.1,0.1,1.6,0.4c0.5,0.3,0.8,0.7,1,1.2c0.2-0.5,0.5-0.9,1-1.2s1-0.4,1.5-0.4C641.8,147.9,642.3,148.1,642.8,148.3z"/>
<path d="M645.8,149.7c0.3-0.5,0.7-1,1.2-1.3s1.1-0.5,1.7-0.5s1.1,0.1,1.6,0.4c0.4,0.2,0.8,0.6,1,1V148h1.2v7.1h-1.1v-1.3
	c-0.3,0.4-0.6,0.8-1,1c-0.5,0.3-1.1,0.4-1.6,0.4c-0.6,0-1.2-0.2-1.7-0.5s-0.9-0.8-1.2-1.3c-0.3-0.6-0.5-1.3-0.4-1.9
	C645.3,150.9,645.5,150.3,645.8,149.7z M651.1,150.2c-0.2-0.4-0.5-0.7-0.9-0.9s-0.8-0.3-1.2-0.3s-0.8,0.1-1.2,0.3s-0.7,0.5-0.9,0.9
	c-0.2,0.4-0.3,0.9-0.3,1.4s0.1,1,0.3,1.4c0.2,0.4,0.5,0.7,0.9,0.9s0.8,0.3,1.2,0.3s0.9-0.1,1.2-0.3c0.4-0.2,0.7-0.5,0.9-0.9
	c0.2-0.4,0.3-0.9,0.3-1.4C651.4,151.1,651.3,150.7,651.1,150.2z"/>
<path d="M659.8,148.7c0.6,0.6,0.9,1.4,0.8,2.3v4.2h-1.2v-4c0-0.6-0.2-1.2-0.5-1.6c-0.4-0.4-0.9-0.6-1.5-0.6s-1.1,0.2-1.5,0.6
	c-0.4,0.5-0.6,1.1-0.5,1.7v3.9h-1.2v-7.1h1.2v1c0.2-0.4,0.6-0.7,1-0.9s0.9-0.3,1.3-0.3C658.5,147.9,659.2,148.2,659.8,148.7z"/>
<path d="M668.3,148.1l-4.3,10.5h-1.2l1.4-3.4l-2.9-7h1.3l2.2,5.8l2.2-5.8L668.3,148.1z"/>
<path d="M674.4,148.4c0.5-0.3,1.1-0.4,1.6-0.4c0.6,0,1.2,0.2,1.7,0.5s0.9,0.7,1.2,1.3c0.3,0.6,0.5,1.3,0.4,1.9
	c0,0.7-0.1,1.3-0.4,1.9c-0.3,0.5-0.7,1-1.2,1.3s-1.1,0.5-1.7,0.5c-0.6,0-1.1-0.1-1.6-0.4c-0.4-0.2-0.8-0.6-1.1-1v4.7h-1.2v-10.5h1.2
	v1.3C673.7,149,674,148.6,674.4,148.4z M677.9,150.2c-0.2-0.4-0.5-0.7-0.9-0.9s-0.8-0.3-1.2-0.3s-0.8,0.1-1.2,0.3s-0.7,0.5-0.9,0.9
	c-0.5,0.9-0.5,1.9,0,2.8c0.6,1.2,2.1,1.6,3.2,1c0.4-0.2,0.8-0.6,1-1c0.2-0.4,0.3-0.9,0.3-1.4C678.2,151.1,678.1,150.6,677.9,150.2
	L677.9,150.2z"/>
<path d="M680.6,149.7c0.3-0.5,0.7-1,1.2-1.3s1.1-0.5,1.7-0.5c0.6,0,1.1,0.1,1.6,0.4c0.4,0.2,0.8,0.6,1,1V148h1.2v7.1h-1.2v-1.3
	c-0.3,0.4-0.6,0.8-1,1c-0.5,0.3-1.1,0.4-1.6,0.4c-1.2,0-2.4-0.7-2.9-1.8c-0.3-0.6-0.5-1.3-0.5-1.9
	C680.2,150.9,680.3,150.3,680.6,149.7z M685.9,150.2c-0.2-0.4-0.5-0.7-0.9-0.9s-0.8-0.3-1.2-0.3s-0.8,0.1-1.2,0.3s-0.7,0.5-0.9,0.9
	c-0.2,0.4-0.3,0.9-0.3,1.4s0.1,1,0.3,1.4c0.2,0.4,0.5,0.7,0.9,0.9s0.8,0.3,1.2,0.3c0.9,0,1.7-0.5,2.1-1.2c0.2-0.4,0.3-0.9,0.3-1.4
	C686.3,151.1,686.1,150.7,685.9,150.2z"/>
<path d="M690.1,155c-0.4-0.2-0.7-0.4-1-0.8c-0.3-0.3-0.4-0.7-0.4-1.1h1.2c0,0.3,0.2,0.7,0.5,0.9c0.3,0.2,0.8,0.4,1.2,0.3
	c0.4,0,0.8-0.1,1.1-0.3c0.2-0.2,0.4-0.5,0.4-0.8s-0.1-0.6-0.4-0.7c-0.4-0.2-0.8-0.3-1.3-0.4c-0.4-0.1-0.9-0.2-1.3-0.4
	c-0.3-0.1-0.6-0.4-0.9-0.6c-0.5-0.6-0.5-1.5,0-2.1c0.2-0.3,0.6-0.6,0.9-0.7c0.4-0.1,0.8-0.2,1.3-0.2c0.7,0,1.4,0.2,1.9,0.6
	c0.5,0.4,0.8,1,0.8,1.6h-1.2c0-0.3-0.2-0.7-0.4-0.9c-0.6-0.4-1.5-0.4-2.1-0.1c-0.2,0.2-0.4,0.4-0.4,0.7c0,0.2,0.1,0.4,0.2,0.6
	c0.2,0.2,0.4,0.3,0.6,0.4c0.3,0.1,0.7,0.2,1,0.3c0.4,0.1,0.8,0.2,1.2,0.4c0.3,0.1,0.6,0.3,0.8,0.6c0.2,0.3,0.4,0.7,0.4,1.1
	c0,0.4-0.1,0.7-0.3,1c-0.2,0.3-0.6,0.6-0.9,0.7c-0.4,0.2-0.9,0.3-1.4,0.3C691.1,155.3,690.6,155.2,690.1,155z"/>
<path d="M696.5,155c-0.4-0.2-0.7-0.4-1-0.8c-0.3-0.3-0.4-0.7-0.4-1.1h1.2c0,0.3,0.2,0.7,0.5,0.9c0.3,0.2,0.8,0.4,1.2,0.3
	c0.4,0,0.8-0.1,1.1-0.3c0.2-0.2,0.4-0.5,0.4-0.8s-0.2-0.6-0.4-0.7c-0.4-0.2-0.8-0.3-1.3-0.4c-0.4-0.1-0.9-0.2-1.3-0.4
	c-0.3-0.1-0.6-0.4-0.9-0.6c-0.5-0.6-0.5-1.5,0-2.1c0.2-0.3,0.6-0.6,0.9-0.7c0.4-0.2,0.9-0.3,1.4-0.3c0.7,0,1.4,0.2,1.9,0.6
	c0.5,0.4,0.8,1,0.8,1.6h-1.2c0-0.3-0.2-0.7-0.5-0.9c-0.3-0.2-0.7-0.3-1.1-0.3s-0.7,0.1-1,0.3c-0.2,0.2-0.4,0.4-0.4,0.7
	c0,0.2,0.1,0.4,0.2,0.6c0.2,0.2,0.4,0.3,0.6,0.4c0.2,0.1,0.5,0.2,1,0.3c0.4,0.1,0.8,0.2,1.2,0.4c0.3,0.1,0.6,0.3,0.8,0.6
	c0.2,0.3,0.4,0.7,0.3,1.1c0,0.4-0.1,0.7-0.3,1c-0.2,0.3-0.6,0.6-0.9,0.7c-0.4,0.2-0.9,0.3-1.4,0.3C697.5,155.3,697,155.2,696.5,155z
	"/>
<path d="M708.4,152.1h-5.7c0,0.6,0.3,1.2,0.7,1.6c0.4,0.4,1,0.6,1.6,0.6c0.5,0,0.9-0.1,1.3-0.4c0.3-0.2,0.6-0.6,0.7-1h1.3
	c-0.2,0.7-0.6,1.3-1.1,1.7c-0.6,0.4-1.4,0.7-2.1,0.6c-0.6,0-1.3-0.1-1.8-0.4c-0.5-0.3-1-0.8-1.2-1.3c-0.3-0.6-0.5-1.3-0.5-1.9
	c0-0.7,0.1-1.3,0.4-1.9c0.3-0.5,0.7-1,1.2-1.3c0.6-0.3,1.2-0.5,1.8-0.4c0.6,0,1.3,0.1,1.8,0.4c0.5,0.3,0.9,0.7,1.2,1.2
	c0.3,0.5,0.4,1.1,0.4,1.8C708.4,151.6,708.4,151.8,708.4,152.1z M706.9,150c-0.2-0.3-0.5-0.6-0.8-0.7c-0.4-0.2-0.7-0.3-1.1-0.2
	c-0.6,0-1.1,0.2-1.5,0.6c-0.4,0.4-0.7,1-0.7,1.6h4.5C707.2,150.8,707.1,150.4,706.9,150z"/>
<path d="M715.2,148.7c0.6,0.6,0.9,1.4,0.8,2.3v4.2h-1.2v-4c0-0.6-0.1-1.2-0.5-1.6c-0.8-0.8-2.1-0.8-2.9,0c-0.4,0.5-0.6,1.1-0.6,1.7
	v3.9h-1.2v-7.1h1.2v1c0.2-0.4,0.6-0.7,1-0.9s0.9-0.3,1.3-0.3C713.9,147.9,714.6,148.2,715.2,148.7z"/>
<path d="M722.1,148.4c0.4,0.2,0.8,0.6,1,1v-1.3h1.3v7.3c0,0.6-0.1,1.2-0.4,1.7c-0.3,0.5-0.7,0.9-1.2,1.2c-0.6,0.3-1.2,0.4-1.8,0.4
	c-0.8,0-1.7-0.2-2.3-0.7c-0.6-0.4-1-1.1-1.1-1.8h1.2c0.1,0.4,0.4,0.8,0.8,1c0.4,0.3,1,0.4,1.5,0.4c0.6,0,1.2-0.2,1.6-0.6
	c0.4-0.5,0.7-1.1,0.6-1.7v-1.5c-0.2,0.4-0.6,0.8-1,1c-0.5,0.3-1.1,0.4-1.6,0.4c-1.2,0-2.4-0.7-2.9-1.8c-0.3-0.6-0.5-1.3-0.5-1.9
	c0-0.7,0.1-1.3,0.5-1.9c0.3-0.5,0.7-1,1.2-1.3s1.1-0.5,1.7-0.5C721.1,147.9,721.7,148.1,722.1,148.4z M722.8,150.2
	c-0.2-0.4-0.5-0.7-0.9-0.9s-0.8-0.3-1.2-0.3s-0.8,0.1-1.2,0.3s-0.7,0.5-0.9,0.9c-0.2,0.4-0.3,0.9-0.3,1.4s0.1,1,0.3,1.4
	c0.2,0.4,0.5,0.7,0.9,0.9s0.8,0.3,1.2,0.3c0.9,0,1.7-0.5,2.1-1.2c0.2-0.4,0.3-0.9,0.3-1.4C723.2,151.1,723.1,150.7,722.8,150.2z"/>
<path d="M732.4,152.1h-5.7c0,0.6,0.3,1.2,0.7,1.6c0.4,0.4,1,0.6,1.6,0.6c0.5,0,0.9-0.1,1.3-0.3c0.3-0.2,0.6-0.6,0.7-1h1.3
	c-0.2,0.7-0.6,1.3-1.2,1.7c-0.6,0.4-1.4,0.7-2.1,0.6c-0.6,0-1.3-0.1-1.8-0.4c-0.5-0.3-1-0.8-1.3-1.3c-0.6-1.2-0.6-2.7,0-3.9
	c0.3-0.5,0.7-1,1.2-1.3c0.6-0.3,1.2-0.5,1.8-0.4c0.6,0,1.2,0.1,1.8,0.4c0.5,0.3,0.9,0.7,1.2,1.2c0.3,0.5,0.4,1.1,0.4,1.8
	C732.5,151.6,732.5,151.8,732.4,152.1z M731,150c-0.2-0.3-0.5-0.6-0.8-0.7c-0.4-0.2-0.7-0.3-1.1-0.2c-0.6,0-1.1,0.2-1.5,0.6
	c-0.4,0.4-0.7,1-0.7,1.6h4.5C731.3,150.8,731.2,150.4,731,150z"/>
<path d="M735.8,148.3c0.4-0.2,0.9-0.4,1.4-0.3v1.2h-0.3c-1.3,0-2,0.7-2,2.2v3.9h-1.2v-7.1h1.2v1.2
	C735.1,148.8,735.4,148.5,735.8,148.3z"/>
<path d="M739.2,155c-0.4-0.2-0.7-0.4-1-0.8c-0.3-0.3-0.4-0.7-0.4-1.1h1.2c0,0.3,0.2,0.7,0.5,0.9c0.3,0.2,0.8,0.4,1.2,0.3
	c0.4,0,0.8-0.1,1.1-0.3c0.2-0.2,0.4-0.5,0.4-0.8s-0.2-0.6-0.4-0.7c-0.4-0.2-0.8-0.3-1.3-0.4c-0.4-0.1-0.9-0.2-1.3-0.4
	c-0.3-0.1-0.6-0.4-0.9-0.6c-0.5-0.6-0.5-1.5,0-2.1c0.2-0.3,0.6-0.6,0.9-0.7c0.4-0.2,0.9-0.3,1.4-0.3c0.7,0,1.4,0.2,1.9,0.6
	c0.5,0.4,0.8,1,0.8,1.6h-1.2c0-0.3-0.2-0.7-0.4-0.9c-0.6-0.4-1.5-0.4-2.1-0.1c-0.2,0.2-0.4,0.4-0.4,0.7c0,0.2,0.1,0.4,0.2,0.6
	c0.2,0.2,0.4,0.3,0.6,0.4c0.3,0.1,0.7,0.2,1,0.3c0.4,0.1,0.8,0.2,1.2,0.4c0.3,0.1,0.6,0.3,0.8,0.6c0.2,0.3,0.4,0.7,0.3,1.1
	c0,0.4-0.1,0.7-0.3,1c-0.2,0.3-0.6,0.6-0.9,0.7c-0.4,0.2-0.9,0.3-1.4,0.3C740.3,155.3,739.7,155.2,739.2,155z"/>
</svg>
