<?xml version="1.0" encoding="utf-8"?>
<!-- Generator: Adobe Illustrator 24.1.0, SVG Export Plug-In . SVG Version: 6.00 Build 0)  -->
<svg version="1.1" id="图层_1" xmlns="http://www.w3.org/2000/svg" xmlns:xlink="http://www.w3.org/1999/xlink" x="0px" y="0px"
	 viewBox="0 0 1251.7 105.8" style="enable-background:new 0 0 1251.7 105.8;" xml:space="preserve">
<style type="text/css">
	.st0{fill:#FFFFFF;}
</style>
<rect class="st0" width="1251.7" height="105.8"/>
<path d="M598.9,48.7v5.6c0,0.5,0.1,1,0.5,1.4c0.4,0.3,0.9,0.5,1.3,0.5c0.5,0,1-0.1,1.4-0.5c0.3-0.4,0.5-0.9,0.5-1.4v-5.6h1.8v5.6
	c0,0.7-0.1,1.4-0.5,2c-0.3,0.5-0.8,0.9-1.3,1.2c-0.6,0.3-1.2,0.4-1.9,0.4c-0.6,0-1.3-0.1-1.8-0.4c-0.5-0.3-1-0.7-1.3-1.2
	c-0.3-0.6-0.5-1.3-0.5-2v-5.6H598.9z"/>
<path d="M607,57.6c-0.4-0.2-0.8-0.5-1.1-0.9c-0.3-0.3-0.4-0.8-0.5-1.2h1.8c0,0.3,0.2,0.5,0.4,0.7c0.5,0.3,1.2,0.4,1.7,0.1
	c0.2-0.1,0.3-0.3,0.3-0.5s-0.1-0.4-0.4-0.5c-0.4-0.2-0.7-0.3-1.1-0.4c-0.4-0.1-0.9-0.2-1.3-0.4c-0.3-0.1-0.6-0.4-0.9-0.6
	c-0.3-0.3-0.4-0.7-0.4-1.2c0-0.4,0.1-0.8,0.3-1.1c0.3-0.3,0.6-0.6,1-0.8c0.5-0.2,1-0.3,1.5-0.3c0.7,0,1.4,0.2,2,0.6
	c0.5,0.4,0.8,1.1,0.8,1.7h-1.8c0-0.3-0.1-0.5-0.3-0.7s-0.5-0.3-0.8-0.3s-0.5,0-0.8,0.2c-0.2,0.1-0.3,0.3-0.3,0.5s0.1,0.5,0.4,0.6
	c0.4,0.2,0.7,0.3,1.1,0.4c0.4,0.1,0.9,0.2,1.3,0.4c0.3,0.1,0.6,0.4,0.9,0.7c0.3,0.3,0.4,0.7,0.4,1.2c0,0.4-0.1,0.8-0.3,1.1
	c-0.3,0.3-0.6,0.6-1,0.8C609,58,607.9,58,607,57.6L607,57.6z"/>
<path d="M619.2,54.7h-5.3c0,0.5,0.2,0.9,0.5,1.2s0.7,0.5,1.2,0.4c0.6,0,1.2-0.3,1.4-0.9h2c-0.2,0.7-0.6,1.3-1.2,1.7
	c-0.6,0.5-1.4,0.7-2.2,0.7c-0.7,0-1.3-0.2-1.9-0.5c-0.5-0.3-1-0.8-1.3-1.3c-0.3-0.6-0.5-1.3-0.5-2s0.1-1.4,0.5-2
	c0.3-0.5,0.7-1,1.3-1.3s1.2-0.5,1.9-0.5c0.6,0,1.3,0.1,1.8,0.4c0.5,0.3,1,0.7,1.3,1.3s0.5,1.2,0.5,1.9
	C619.3,54.2,619.2,54.5,619.2,54.7z M617.3,53.5c0-0.4-0.2-0.8-0.5-1.1S616,52,615.6,52s-0.8,0.1-1.1,0.4c-0.3,0.3-0.5,0.7-0.6,1.1
	H617.3z"/>
<path d="M622.9,50.8c0.4-0.2,0.8-0.3,1.3-0.3v1.9h-0.5c-0.5,0-0.9,0.1-1.3,0.4c-0.3,0.4-0.5,0.9-0.4,1.4v3.6h-1.8v-7.2h1.8v1.1
	C622.2,51.3,622.5,51,622.9,50.8z"/>
<path d="M626.2,57.6c-0.4-0.2-0.8-0.5-1.1-0.9c-0.3-0.3-0.4-0.8-0.5-1.2h1.8c0,0.3,0.2,0.5,0.4,0.7c0.3,0.2,0.6,0.3,0.9,0.3
	c0.3,0,0.6-0.1,0.8-0.2c0.2-0.1,0.3-0.3,0.3-0.5s-0.1-0.4-0.3-0.5c-0.4-0.2-0.7-0.3-1.1-0.4c-0.4-0.1-0.9-0.2-1.3-0.4
	c-0.3-0.1-0.6-0.4-0.9-0.6c-0.3-0.3-0.4-0.7-0.4-1.2c0-0.4,0.1-0.8,0.3-1.1c0.3-0.3,0.6-0.6,1-0.8c0.5-0.2,1-0.3,1.5-0.3
	c0.7,0,1.5,0.2,2.1,0.6c0.5,0.4,0.8,1.1,0.8,1.7h-1.7c0-0.3-0.2-0.5-0.4-0.7s-0.5-0.3-0.8-0.3s-0.5,0-0.8,0.2
	c-0.2,0.1-0.3,0.3-0.3,0.5s0.1,0.5,0.4,0.6c0.4,0.2,0.7,0.3,1.1,0.4c0.4,0.1,0.9,0.2,1.3,0.4c0.3,0.1,0.6,0.4,0.9,0.7
	c0.3,0.3,0.4,0.7,0.4,1.2c0,0.4-0.1,0.8-0.3,1.1c-0.3,0.3-0.6,0.6-1,0.8C628.3,58,627.2,58,626.2,57.6L626.2,57.6z"/>
<path d="M639.8,48.7v6.4c0,0.8-0.2,1.5-0.8,2.1c-0.6,0.5-1.3,0.8-2,0.7c-0.8,0-1.5-0.2-2.1-0.8s-0.8-1.3-0.8-2.1h1.8
	c0,0.3,0.1,0.6,0.3,0.9c0.2,0.2,0.5,0.3,0.8,0.3s0.6-0.1,0.8-0.3s0.3-0.5,0.3-0.8v-6.4C638.1,48.7,639.8,48.7,639.8,48.7z"/>
<path d="M642.9,57.4c-0.6-0.3-1-0.8-1.3-1.3c-0.3-0.6-0.5-1.3-0.5-2s0.1-1.4,0.5-2c0.3-0.6,0.8-1,1.3-1.3c1.2-0.6,2.6-0.6,3.8,0
	c0.6,0.3,1,0.8,1.3,1.3c0.7,1.2,0.7,2.7,0,3.9c-0.3,0.6-0.8,1-1.3,1.4c-0.6,0.3-1.2,0.5-1.9,0.5C644.1,57.9,643.5,57.7,642.9,57.4z
	 M645.7,56.1c0.3-0.2,0.5-0.4,0.7-0.7c0.2-0.4,0.3-0.8,0.3-1.2c0-0.6-0.2-1.1-0.5-1.6c-0.3-0.4-0.8-0.6-1.3-0.6s-1,0.2-1.3,0.5
	c-0.4,0.4-0.6,1-0.5,1.6c0,0.6,0.2,1.1,0.5,1.6c0.3,0.4,0.8,0.6,1.3,0.5C645.1,56.3,645.4,56.2,645.7,56.1z"/>
<path d="M656.3,50.6v7.2h-1.8v-0.9c-0.2,0.3-0.6,0.6-0.9,0.7c-0.4,0.2-0.8,0.3-1.2,0.3c-0.5,0-1-0.1-1.5-0.4c-0.4-0.2-0.8-0.6-1-1
	c-0.3-0.5-0.4-1.1-0.4-1.7v-4.3h1.8v4c0,0.5,0.1,1,0.4,1.3c0.3,0.3,0.7,0.5,1.2,0.5c0.4,0,0.9-0.1,1.2-0.5s0.5-0.8,0.4-1.3v-4h1.8
	V50.6z"/>
<path d="M660.5,50.8c0.4-0.2,0.8-0.3,1.3-0.3v1.9h-0.5c-0.8-0.1-1.6,0.4-1.7,1.3c0,0.2,0,0.4,0,0.5v3.6h-1.9v-7.2h1.8v1.1
	C659.8,51.3,660.1,51,660.5,50.8z"/>
<path d="M668.7,51.3c0.6,0.6,0.8,1.4,0.8,2.3v4.2h-1.8v-4c0-0.5-0.1-0.9-0.4-1.3c-0.3-0.3-0.7-0.5-1.2-0.5c-0.4,0-0.9,0.1-1.2,0.5
	s-0.5,0.8-0.4,1.3v4h-1.8v-7.2h1.8v0.9c0.2-0.3,0.6-0.6,0.9-0.7c0.4-0.2,0.8-0.3,1.2-0.3C667.4,50.4,668.2,50.7,668.7,51.3z"/>
<path d="M677.5,54.7h-5.3c0,0.5,0.2,0.9,0.5,1.2s0.8,0.5,1.2,0.4c0.6,0,1.2-0.3,1.4-0.9h2c-0.2,0.7-0.6,1.3-1.2,1.7
	c-0.6,0.5-1.4,0.7-2.2,0.7c-0.6,0-1.3-0.2-1.9-0.5c-0.5-0.3-1-0.8-1.3-1.3c-0.6-1.2-0.6-2.7,0-3.9c0.3-0.6,0.7-1,1.3-1.3
	s1.2-0.5,1.9-0.5c0.6,0,1.3,0.1,1.8,0.4c0.5,0.3,1,0.7,1.3,1.3s0.5,1.2,0.4,1.9C677.6,54.2,677.5,54.5,677.5,54.7z M675.7,53.5
	c0-0.4-0.2-0.8-0.5-1.1S674.4,52,674,52s-0.8,0.1-1.1,0.4c-0.3,0.3-0.5,0.7-0.6,1.1H675.7z"/>
<path d="M685.4,50.6l-4.5,10.6H679l1.6-3.6l-2.9-7h2l1.9,5l1.9-5H685.4z"/>
<path d="M698.6,48.7v9.1h-1.8v-5.9l-2.4,5.9H693l-2.4-5.9v5.9h-1.9v-9.1h2.1l2.9,6.7l2.9-6.7L698.6,48.7z"/>
<path d="M700,52.2c0.5-1.1,1.6-1.8,2.8-1.8c0.5,0,1,0.1,1.4,0.3s0.7,0.5,1,0.8v-1h1.8v7.2h-1.8v-1.1c-0.3,0.4-0.6,0.6-1,0.8
	s-0.9,0.3-1.4,0.3c-0.6,0-1.2-0.2-1.7-0.5s-0.9-0.8-1.2-1.3c-0.3-0.6-0.5-1.3-0.4-2C699.6,53.4,699.7,52.8,700,52.2z M705,53
	c-0.3-0.6-1-1-1.7-1c-0.3,0-0.7,0.1-0.9,0.2c-0.3,0.2-0.6,0.4-0.7,0.7c-0.2,0.3-0.3,0.7-0.3,1.1c0,0.4,0.1,0.8,0.3,1.1
	s0.4,0.6,0.7,0.8s0.6,0.3,0.9,0.3c0.4,0,0.7-0.1,1-0.3s0.5-0.4,0.7-0.7C705.4,54.6,705.4,53.7,705,53L705,53z"/>
<path d="M711.3,50.8c0.4-0.2,0.9-0.3,1.4-0.3c0.6,0,1.2,0.2,1.7,0.5s0.9,0.8,1.2,1.3c0.3,0.6,0.5,1.3,0.4,1.9c0,0.7-0.1,1.4-0.4,2
	c-0.3,0.5-0.7,1-1.2,1.3s-1.1,0.5-1.7,0.5c-0.5,0-1-0.1-1.4-0.3s-0.7-0.5-1-0.8v4.4h-1.8V50.6h1.8v1C710.6,51.2,710.9,51,711.3,50.8
	z M713.9,53c-0.5-0.9-1.6-1.2-2.5-0.7l0,0c-0.3,0.2-0.5,0.4-0.7,0.7c-0.4,0.7-0.4,1.5,0,2.3c0.2,0.3,0.4,0.6,0.7,0.7
	c0.6,0.3,1.3,0.3,1.9,0c0.3-0.2,0.5-0.4,0.7-0.7c0.2-0.4,0.3-0.7,0.3-1.2C714.1,53.7,714.1,53.3,713.9,53z"/>
<path d="M721.5,57.4c-0.5-0.3-1-0.7-1.3-1.3c-0.6-1.2-0.6-2.7,0-3.9c0.3-0.5,0.8-1,1.3-1.3c1.1-0.6,2.5-0.6,3.7,0
	c0.5,0.3,1,0.7,1.3,1.3s0.5,1.3,0.5,1.9c0,0.7-0.1,1.4-0.5,2c-0.3,0.5-0.8,1-1.3,1.3c-0.6,0.3-1.2,0.5-1.8,0.5
	C722.6,57.9,722,57.8,721.5,57.4z M724.5,56.5c0.4-0.2,0.7-0.5,0.9-0.9c0.5-0.9,0.5-2,0-2.9c-0.2-0.4-0.5-0.7-0.9-0.9
	c-0.7-0.4-1.6-0.4-2.4,0c-0.4,0.2-0.7,0.5-0.9,0.9c-0.2,0.5-0.3,0.9-0.3,1.5c0,0.5,0.1,1,0.3,1.5c0.2,0.4,0.5,0.7,0.8,0.9
	c0.4,0.2,0.8,0.3,1.2,0.3C723.7,56.9,724.1,56.8,724.5,56.5L724.5,56.5z"/>
<path d="M731,51.6h-1.5v6.2h-1.2v-6.2h-0.9v-1h0.9v-0.5c-0.1-0.6,0.2-1.3,0.6-1.8c0.6-0.4,1.3-0.6,2-0.5v1c-0.4,0-0.8,0.1-1.1,0.3
	c-0.2,0.3-0.4,0.6-0.3,1v0.5h1.5V51.6z"/>
<path d="M736.6,51.6v4.2c0,0.3,0.1,0.5,0.2,0.7c0.2,0.2,0.5,0.3,0.8,0.2h0.9v1h-1.1c-0.5,0-1.1-0.1-1.5-0.5s-0.5-0.9-0.5-1.5v-4.2
	h-0.9v-1h0.9v-1.8h1.2v1.8h1.9v1L736.6,51.6L736.6,51.6z"/>
<path d="M744.5,50.9c0.4,0.2,0.8,0.6,1,1c0.3,0.5,0.4,1.1,0.4,1.7v4.2h-1.2v-4c0-0.6-0.2-1.2-0.5-1.6c-0.4-0.4-0.9-0.6-1.5-0.6
	s-1.1,0.2-1.5,0.6c-0.4,0.5-0.6,1.1-0.5,1.7v3.9h-1.2v-9.6h1.2v3.5c0.2-0.4,0.6-0.7,1-0.8c0.4-0.2,0.9-0.3,1.4-0.3
	C743.6,50.5,744.1,50.6,744.5,50.9z"/>
<path d="M753.9,54.7h-5.7c0,1.2,1,2.2,2.3,2.2c0,0,0,0,0.1,0c0.5,0,0.9-0.1,1.3-0.4c0.3-0.2,0.6-0.6,0.7-1h1.3
	c-0.2,0.7-0.6,1.3-1.1,1.7c-0.6,0.4-1.4,0.7-2.1,0.7c-0.6,0-1.3-0.1-1.8-0.5c-0.5-0.3-1-0.7-1.3-1.3s-0.5-1.3-0.5-2s0.1-1.3,0.4-1.9
	c0.3-0.5,0.7-0.9,1.2-1.2c0.6-0.3,1.2-0.5,1.8-0.5s1.2,0.1,1.8,0.4c0.5,0.3,0.9,0.7,1.2,1.2s0.4,1.1,0.4,1.7
	C754,54.2,754,54.4,753.9,54.7z M752.5,52.5c-0.2-0.3-0.5-0.6-0.8-0.7c-0.4-0.2-0.7-0.3-1.1-0.2c-0.6,0-1.1,0.2-1.5,0.6
	c-0.4,0.4-0.7,1-0.7,1.6h4.5C752.8,53.3,752.7,52.9,752.5,52.5z"/>
<path d="M759.7,51.6v4.2c0,0.3,0.1,0.5,0.2,0.7c0.2,0.2,0.5,0.3,0.8,0.2h0.9v1h-1.1c-0.5,0-1.1-0.1-1.5-0.5s-0.6-0.9-0.5-1.5v-4.2
	h-0.9v-1h0.9v-1.8h1.2v1.8h1.9v1L759.7,51.6L759.7,51.6z"/>
<path d="M762.6,52.3c0.3-0.5,0.7-1,1.2-1.3s1.1-0.5,1.7-0.5c0.6,0,1.1,0.1,1.6,0.4c0.4,0.2,0.8,0.6,1,1v-1.3h1.2v7.1h-1.2v-1.3
	c-0.2,0.4-0.6,0.8-1,1c-0.5,0.3-1,0.4-1.6,0.4s-1.2-0.2-1.7-0.5s-0.9-0.8-1.2-1.3c-0.3-0.6-0.4-1.3-0.4-1.9S762.4,52.8,762.6,52.3z
	 M767.9,52.8c-0.2-0.4-0.5-0.7-0.9-0.9c-0.8-0.4-1.7-0.4-2.4,0c-0.4,0.2-0.7,0.5-0.9,0.9s-0.3,0.9-0.3,1.4s0.1,1,0.3,1.4
	s0.5,0.7,0.9,0.9c0.8,0.4,1.7,0.4,2.4,0c0.4-0.2,0.7-0.5,0.9-0.9C768.3,54.7,768.3,53.7,767.9,52.8L767.9,52.8z"/>
<path d="M773.1,50.8c0.4-0.2,0.9-0.3,1.4-0.3v1.2h-0.3c-1.3,0-2,0.7-2,2.2v3.9H771v-7.1h1.2v1.1C772.4,51.4,772.8,51.1,773.1,50.8z"
	/>
<path d="M780.1,50.9c0.4,0.2,0.8,0.6,1,1v-1.3h1.2v7.3c0,0.6-0.1,1.2-0.4,1.7c-0.3,0.5-0.7,0.9-1.2,1.2c-0.6,0.3-1.2,0.4-1.8,0.4
	c-0.8,0-1.6-0.2-2.3-0.7c-0.6-0.4-1-1.1-1.1-1.8h1.2c0.1,0.4,0.4,0.8,0.8,1c0.4,0.3,1,0.4,1.5,0.4c0.6,0,1.2-0.2,1.6-0.6
	c0.4-0.5,0.7-1.1,0.6-1.7v-1.5c-0.2,0.4-0.6,0.8-1,1c-0.5,0.3-1,0.4-1.6,0.4s-1.2-0.2-1.7-0.5s-0.9-0.8-1.2-1.3
	c-0.3-0.6-0.5-1.3-0.4-1.9c0-0.7,0.1-1.3,0.4-1.9c0.3-0.5,0.7-0.9,1.1-1.2c0.5-0.3,1.1-0.5,1.7-0.5
	C779.1,50.5,779.6,50.7,780.1,50.9z M780.8,52.8c-0.2-0.4-0.5-0.7-0.9-0.9s-0.8-0.3-1.2-0.3s-0.8,0.1-1.2,0.3s-0.7,0.5-0.9,0.9
	s-0.3,0.9-0.3,1.4s0.1,1,0.3,1.4s0.5,0.7,0.9,0.9s0.8,0.3,1.2,0.3s0.8-0.1,1.2-0.3s0.7-0.5,0.9-0.9
	C781.2,54.7,781.2,53.7,780.8,52.8z"/>
<path d="M790.4,54.7h-5.7c0,1.2,1,2.2,2.3,2.2c0,0,0,0,0.1,0c0.5,0,0.9-0.1,1.3-0.4c0.3-0.2,0.6-0.6,0.7-1h1.3
	c-0.2,0.7-0.6,1.3-1.1,1.7c-0.6,0.4-1.4,0.7-2.1,0.7c-0.6,0-1.3-0.1-1.8-0.5c-0.5-0.3-1-0.7-1.2-1.3c-0.3-0.6-0.5-1.3-0.5-2
	s0.1-1.3,0.4-1.9c0.3-0.5,0.8-0.9,1.3-1.2c1.1-0.6,2.5-0.6,3.6,0c0.5,0.3,0.9,0.7,1.2,1.2s0.4,1.1,0.4,1.7
	C790.5,54.2,790.5,54.4,790.4,54.7z M788.9,52.5c-0.2-0.3-0.5-0.6-0.8-0.7c-0.4-0.2-0.7-0.3-1.1-0.2c-0.6,0-1.1,0.2-1.5,0.6
	c-0.4,0.4-0.7,1-0.7,1.6h4.5C789.3,53.3,789.2,52.9,788.9,52.5z"/>
<path d="M793.1,51.6v4.2c0,0.3,0.1,0.5,0.2,0.7c0.2,0.2,0.5,0.2,0.8,0.2h0.9v1h-1.1c-0.5,0-1.1-0.1-1.5-0.5s-0.5-0.9-0.5-1.5v-4.2
	H791v-1h0.9v-1.8h1.2v1.8h1.9v1L793.1,51.6L793.1,51.6z"/>
<path d="M802.5,54.7h-5.7c0,0.6,0.3,1.2,0.7,1.6c0.4,0.4,1,0.6,1.6,0.6c0.5,0,0.9-0.1,1.3-0.4c0.3-0.2,0.6-0.6,0.7-1h1.3
	c-0.2,0.7-0.6,1.3-1.1,1.7c-0.6,0.4-1.4,0.7-2.1,0.7c-0.6,0-1.3-0.1-1.8-0.5c-0.5-0.3-1-0.7-1.3-1.3s-0.5-1.3-0.5-2s0.1-1.3,0.4-1.9
	c0.3-0.5,0.7-0.9,1.2-1.2c0.6-0.3,1.2-0.5,1.8-0.5s1.2,0.1,1.8,0.4c0.5,0.3,0.9,0.7,1.2,1.2s0.4,1.1,0.4,1.7
	C802.5,54.2,802.5,54.4,802.5,54.7z M801,52.5c-0.2-0.3-0.5-0.6-0.8-0.7c-0.4-0.2-0.7-0.3-1.1-0.2c-0.6,0-1.1,0.2-1.5,0.6
	c-0.4,0.4-0.7,1-0.7,1.6h4.5C801.3,53.3,801.2,52.9,801,52.5z"/>
<path d="M803.7,52.3c0.3-0.5,0.7-1,1.2-1.3s1.1-0.5,1.7-0.5c0.5,0,1.1,0.1,1.5,0.4c0.4,0.2,0.8,0.6,1.1,1v-3.8h1.2v9.6h-1.2v-1.3
	c-0.2,0.4-0.6,0.8-1,1c-0.5,0.3-1,0.4-1.6,0.4c-1.3,0-2.4-0.6-3-1.7c-0.3-0.6-0.4-1.3-0.4-1.9C803.2,53.5,803.4,52.9,803.7,52.3z
	 M809,52.8c-0.2-0.4-0.5-0.7-0.9-0.9s-0.8-0.3-1.2-0.3s-0.8,0.1-1.2,0.3s-0.7,0.5-0.9,0.9s-0.3,0.9-0.3,1.4s0.1,1,0.3,1.4
	s0.5,0.7,0.9,0.9s0.8,0.3,1.2,0.3s0.8-0.1,1.2-0.3s0.7-0.5,0.9-0.9C809.4,54.7,809.4,53.7,809,52.8z"/>
<path d="M819.8,50.9c0.4,0.2,0.8,0.6,1,1v-1.3h1.2v7.3c0,0.6-0.1,1.2-0.4,1.7c-0.3,0.5-0.7,0.9-1.2,1.2c-0.6,0.3-1.2,0.4-1.8,0.4
	c-0.8,0-1.6-0.2-2.3-0.7c-0.6-0.4-1-1.1-1.1-1.8h1.2c0.1,0.4,0.4,0.8,0.8,1c0.4,0.3,1,0.4,1.5,0.4c0.6,0,1.2-0.2,1.6-0.6
	c0.4-0.5,0.7-1.1,0.6-1.7v-1.5c-0.2,0.4-0.6,0.8-1,1c-0.5,0.3-1.1,0.4-1.6,0.4c-0.6,0-1.2-0.2-1.7-0.5s-0.9-0.8-1.2-1.3
	c-0.3-0.6-0.5-1.3-0.5-1.9c0-0.7,0.1-1.3,0.5-1.9c0.3-0.5,0.7-0.9,1.2-1.1c0.5-0.3,1.1-0.5,1.7-0.5
	C818.8,50.5,819.3,50.7,819.8,50.9z M820.5,52.8c-0.2-0.4-0.5-0.7-0.9-0.9s-0.8-0.3-1.2-0.3s-0.8,0.1-1.2,0.3s-0.7,0.5-0.9,0.9
	s-0.3,0.9-0.3,1.4s0.1,1,0.3,1.4s0.5,0.7,0.9,0.9s0.8,0.3,1.2,0.3s0.8-0.1,1.2-0.3s0.7-0.5,0.9-0.9C821,54.7,821,53.7,820.5,52.8z"
	/>
<path d="M825.8,50.8c0.4-0.2,0.9-0.3,1.4-0.3v1.2h-0.3c-1.3,0-2,0.7-2,2.2v3.9h-1.2v-7.1h1.2v1.1C825.1,51.4,825.4,51.1,825.8,50.8z
	"/>
<path d="M829.5,57.4c-0.5-0.3-1-0.7-1.3-1.3s-0.5-1.3-0.5-2s0.2-1.3,0.5-1.9c0.3-0.5,0.8-0.9,1.3-1.2c1.2-0.6,2.5-0.6,3.7,0
	c0.5,0.3,1,0.7,1.3,1.3s0.5,1.3,0.5,1.9c0,0.7-0.1,1.4-0.5,2c-0.3,0.5-0.8,1-1.3,1.3c-0.6,0.3-1.2,0.5-1.8,0.5
	C830.6,57.9,830,57.8,829.5,57.4z M832.5,56.5c0.4-0.2,0.7-0.5,0.9-0.9s0.4-1,0.3-1.5c0-0.5-0.1-1-0.3-1.5c-0.2-0.4-0.5-0.7-0.9-0.9
	c-0.7-0.4-1.6-0.4-2.4,0c-0.4,0.2-0.7,0.5-0.9,0.9s-0.3,0.9-0.3,1.5c0,0.5,0.1,1,0.3,1.5c0.2,0.4,0.5,0.7,0.8,0.9
	c0.4,0.2,0.8,0.3,1.2,0.3C831.7,56.9,832.1,56.8,832.5,56.5L832.5,56.5z"/>
<path d="M842.5,50.7v7.1h-1.2v-1c-0.2,0.4-0.6,0.7-1,0.8c-0.4,0.2-0.9,0.3-1.3,0.3c-0.5,0-1-0.1-1.5-0.3c-0.4-0.2-0.8-0.6-1-1
	c-0.3-0.5-0.4-1.1-0.4-1.7v-4.2h1.2v4c0,0.6,0.1,1.2,0.5,1.6c0.4,0.4,0.9,0.6,1.5,0.6s1.1-0.2,1.5-0.6c0.4-0.5,0.6-1.1,0.5-1.7v-3.9
	C841.3,50.7,842.5,50.7,842.5,50.7z"/>
<path d="M846.3,50.9c0.5-0.3,1-0.4,1.6-0.4s1.2,0.2,1.8,0.5c0.5,0.3,0.9,0.8,1.2,1.3c0.3,0.6,0.5,1.3,0.4,1.9c0,0.7-0.1,1.3-0.4,1.9
	c-0.3,0.5-0.7,1-1.2,1.3s-1.1,0.5-1.7,0.5c-0.6,0-1.1-0.1-1.6-0.4c-0.4-0.2-0.8-0.6-1.1-1v4.7h-1.2V50.7h1.2V52
	C845.5,51.6,845.9,51.2,846.3,50.9z M849.8,52.8c-0.2-0.4-0.5-0.7-0.9-0.9c-1.1-0.7-2.6-0.3-3.2,0.8c0,0,0,0.1-0.1,0.1
	c-0.4,0.9-0.4,1.9,0,2.8c0.2,0.4,0.5,0.7,0.9,0.9c0.8,0.4,1.7,0.4,2.4,0c0.4-0.2,0.7-0.5,0.9-0.9s0.3-0.9,0.3-1.4
	C850.1,53.7,850,53.2,849.8,52.8z"/>
<path d="M856.7,57.1c-0.5-1.3-0.7-2.7-0.7-4.1c0-1.4,0.2-2.8,0.7-4.2c0.4-1.2,1.2-2.3,2.1-3.2h1.2v0.1c-1,0.9-1.7,2-2.2,3.2
	c-0.5,1.3-0.7,2.6-0.7,4c0,1.3,0.2,2.6,0.7,3.8c0.4,1.2,1.1,2.3,2,3.2V60h-1.1C857.8,59.3,857.1,58.3,856.7,57.1z"/>
<path d="M866.4,53.2c-0.7,0.5-1.5,0.8-2.4,0.8h-1.7v3.8h-1.2v-9.1h2.9c0.8-0.1,1.7,0.2,2.3,0.7c0.5,0.5,0.8,1.2,0.8,1.9
	C867.2,52.1,866.9,52.7,866.4,53.2z M865.5,52.6c0.3-0.3,0.5-0.8,0.5-1.2c0-1.1-0.6-1.7-1.9-1.7h-1.7V53h1.7
	C864.6,53,865.1,52.9,865.5,52.6L865.5,52.6z"/>
<path d="M874.8,54.7h-5.7c0,0.6,0.3,1.2,0.7,1.6c0.4,0.4,1,0.6,1.6,0.6c0.5,0,0.9-0.1,1.3-0.4c0.3-0.2,0.6-0.6,0.7-1h1.3
	c-0.2,0.7-0.6,1.3-1.1,1.7c-0.6,0.4-1.4,0.7-2.1,0.7c-0.6,0-1.3-0.1-1.8-0.5c-0.5-0.3-1-0.7-1.2-1.3c-0.3-0.6-0.5-1.3-0.5-2
	s0.1-1.3,0.4-1.9c0.3-0.5,0.7-0.9,1.2-1.2c0.6-0.3,1.2-0.5,1.8-0.5s1.2,0.1,1.8,0.4c0.5,0.3,0.9,0.7,1.2,1.2s0.4,1.1,0.4,1.7
	C874.8,54.2,874.8,54.4,874.8,54.7z M873.3,52.5c-0.2-0.3-0.5-0.6-0.8-0.7c-0.4-0.2-0.7-0.3-1.1-0.2c-0.6,0-1.1,0.2-1.5,0.6
	c-0.4,0.4-0.7,1-0.7,1.6h4.5C873.6,53.3,873.5,52.9,873.3,52.5L873.3,52.5z"/>
<path d="M878.1,50.8c0.4-0.2,0.9-0.3,1.4-0.3v1.2h-0.3c-1.3,0-2,0.7-2,2.2v3.9H876v-7.1h1.2v1.1C877.4,51.4,877.7,51.1,878.1,50.8z"
	/>
<path d="M881.5,57.6c-0.4-0.2-0.7-0.4-1-0.8c-0.2-0.3-0.4-0.7-0.4-1.2h1.2c0,0.3,0.2,0.7,0.5,0.9s0.8,0.4,1.2,0.3
	c0.4,0,0.8-0.1,1.1-0.3c0.2-0.2,0.4-0.5,0.4-0.8s-0.1-0.6-0.4-0.7c-0.4-0.2-0.8-0.3-1.3-0.5c-0.4-0.1-0.9-0.3-1.3-0.4
	c-0.3-0.1-0.6-0.4-0.9-0.6c-0.5-0.6-0.5-1.5,0-2.1c0.2-0.3,0.5-0.6,0.9-0.7c0.4-0.2,0.9-0.3,1.4-0.3c0.7,0,1.4,0.2,1.9,0.6
	c0.5,0.4,0.8,1,0.8,1.6h-1.2c0-0.3-0.2-0.7-0.5-0.9s-0.7-0.4-1.1-0.3c-0.4,0-0.7,0.1-1,0.3c-0.2,0.2-0.4,0.4-0.4,0.7
	c0,0.2,0.1,0.4,0.2,0.6c0.2,0.2,0.4,0.3,0.6,0.4c0.2,0.1,0.5,0.2,1,0.3c0.4,0.1,0.8,0.2,1.2,0.4c0.3,0.1,0.6,0.3,0.8,0.6
	s0.4,0.6,0.4,1s-0.1,0.7-0.3,1.1c-0.2,0.3-0.5,0.6-0.9,0.7c-0.4,0.2-0.9,0.3-1.4,0.3C882.6,57.9,882.1,57.8,881.5,57.6z"/>
<path d="M888.2,57.4c-0.5-0.3-1-0.7-1.3-1.3c-0.6-1.2-0.6-2.7,0-3.9c0.3-0.5,0.8-1,1.3-1.3c1.1-0.6,2.5-0.6,3.7,0
	c0.5,0.3,1,0.7,1.3,1.3s0.5,1.3,0.5,1.9c0,0.7-0.1,1.4-0.5,2c-0.3,0.5-0.8,1-1.3,1.3c-0.6,0.3-1.2,0.5-1.8,0.5
	C889.4,57.9,888.8,57.8,888.2,57.4z M891.2,56.5c0.4-0.2,0.7-0.5,0.9-0.9c0.5-0.9,0.5-2,0-2.9c-0.2-0.4-0.5-0.7-0.9-0.9
	s-0.8-0.3-1.2-0.3s-0.8,0.1-1.2,0.3s-0.7,0.5-0.9,0.9c-0.2,0.5-0.3,0.9-0.3,1.5c0,0.5,0.1,1,0.3,1.5c0.2,0.4,0.5,0.7,0.8,0.9
	c0.4,0.2,0.8,0.3,1.2,0.3C890.4,56.9,890.9,56.8,891.2,56.5L891.2,56.5z"/>
<path d="M900.5,51.3c0.6,0.6,0.9,1.4,0.8,2.3v4.2h-1.2v-4c0-0.6-0.2-1.2-0.5-1.6c-0.4-0.4-0.9-0.6-1.5-0.6s-1.1,0.2-1.5,0.6
	c-0.4,0.5-0.6,1.1-0.5,1.7v3.9h-1.2v-7.1h1.2v1c0.2-0.4,0.6-0.7,1-0.8c0.4-0.2,0.9-0.3,1.3-0.3C899.1,50.5,899.9,50.8,900.5,51.3z"
	/>
<path d="M902.8,52.3c0.3-0.5,0.7-1,1.2-1.3s1.1-0.5,1.7-0.5c0.6,0,1.1,0.1,1.6,0.4c0.4,0.2,0.8,0.6,1,1v-1.3h1.2v7.1h-1.2v-1.3
	c-0.3,0.4-0.6,0.8-1,1c-0.5,0.3-1,0.4-1.6,0.4s-1.2-0.2-1.7-0.5s-0.9-0.8-1.2-1.3c-0.3-0.6-0.4-1.3-0.4-1.9
	C902.4,53.5,902.5,52.8,902.8,52.3z M908.1,52.8c-0.2-0.4-0.5-0.7-0.9-0.9c-0.8-0.4-1.7-0.4-2.4,0c-0.4,0.2-0.7,0.5-0.9,0.9
	s-0.3,0.9-0.3,1.4s0.1,1,0.3,1.4s0.5,0.7,0.9,0.9c0.8,0.4,1.7,0.4,2.4,0c0.4-0.2,0.7-0.5,0.9-0.9C908.5,54.7,908.5,53.7,908.1,52.8z
	"/>
<path d="M912.3,57.6c-0.4-0.2-0.7-0.4-1-0.8c-0.2-0.3-0.4-0.7-0.4-1.2h1.2c0,0.3,0.2,0.7,0.5,0.9s0.8,0.4,1.2,0.3
	c0.4,0,0.8-0.1,1.1-0.3c0.2-0.2,0.4-0.5,0.4-0.8s-0.2-0.6-0.4-0.7c-0.4-0.2-0.8-0.4-1.3-0.5c-0.4-0.1-0.9-0.3-1.3-0.4
	c-0.3-0.1-0.6-0.4-0.8-0.6c-0.3-0.3-0.4-0.7-0.4-1.1c0-0.4,0.1-0.7,0.3-1s0.6-0.6,0.9-0.7c0.4-0.2,0.9-0.3,1.4-0.3
	c0.7,0,1.4,0.2,1.9,0.6c0.5,0.4,0.8,1,0.8,1.6h-1.2c0-0.3-0.2-0.7-0.5-0.9s-0.7-0.4-1.1-0.3c-0.4,0-0.7,0.1-1,0.3
	c-0.2,0.2-0.4,0.4-0.4,0.7c0,0.2,0.1,0.4,0.2,0.6c0.2,0.2,0.4,0.3,0.6,0.4c0.2,0.1,0.5,0.2,1,0.3c0.4,0.1,0.8,0.2,1.2,0.4
	c0.3,0.1,0.6,0.3,0.8,0.6s0.4,0.6,0.4,1s-0.1,0.7-0.3,1.1c-0.2,0.3-0.5,0.6-0.9,0.7c-0.4,0.2-0.9,0.3-1.4,0.3
	C913.3,57.9,912.8,57.8,912.3,57.6z"/>
<path d="M917.3,60.2L917.3,60.2c0.9-1,1.6-2.1,2-3.3c0.5-1.2,0.7-2.5,0.7-3.8c0-1.4-0.2-2.7-0.7-4c-0.5-1.2-1.2-2.4-2.2-3.3v-0.1
	h1.2c0.9,0.9,1.7,2,2.1,3.2c0.9,2.7,0.9,5.6,0,8.2c-0.4,1.2-1.1,2.2-2,3.1L917.3,60.2z"/>
<path d="M923,52c-0.2-0.1-0.2-0.4-0.2-0.6c0-0.2,0.1-0.4,0.2-0.6c0.1-0.2,0.4-0.2,0.6-0.2c0.2,0,0.4,0.1,0.5,0.2
	c0.2,0.1,0.2,0.4,0.2,0.6c0,0.2-0.1,0.4-0.2,0.6c-0.1,0.2-0.3,0.2-0.5,0.2C923.4,52.3,923.2,52.2,923,52z M923,57.6
	c-0.2-0.1-0.2-0.4-0.2-0.6c0-0.4,0.3-0.8,0.8-0.8l0,0c0.2,0,0.4,0.1,0.5,0.2c0.2,0.1,0.2,0.4,0.2,0.6c0,0.2-0.1,0.4-0.2,0.6
	c-0.1,0.2-0.3,0.2-0.5,0.2C923.4,57.9,923.2,57.8,923,57.6z"/>
<path d="M603.4,73.9c-0.2-0.4-0.5-0.7-0.9-0.9c-0.4-0.2-0.8-0.3-1.3-0.3s-1,0.1-1.4,0.4c-0.4,0.2-0.8,0.6-1,1
	c-0.2,0.5-0.4,1-0.4,1.6s0.1,1.1,0.4,1.6c0.2,0.4,0.6,0.8,1,1c0.5,0.2,1,0.4,1.5,0.4c0.6,0,1.2-0.2,1.7-0.6s0.8-0.9,0.9-1.5h-3.1
	v-1.3h4.9v1.6c-0.1,0.6-0.4,1.2-0.8,1.8c-0.4,0.5-0.9,1-1.5,1.3c-0.7,0.3-1.4,0.5-2.1,0.5c-0.8,0-1.6-0.2-2.4-0.6
	c-0.7-0.4-1.3-1-1.7-1.7s-0.6-1.6-0.6-2.4s0.2-1.7,0.6-2.4c0.4-0.7,1-1.3,1.7-1.7c0.7-0.4,1.5-0.6,2.4-0.6s1.9,0.2,2.7,0.8
	c0.8,0.5,1.3,1.2,1.6,2.1L603.4,73.9z"/>
<path d="M613.4,77.2h-5.3c0,0.5,0.2,0.9,0.5,1.2c0.3,0.3,0.7,0.5,1.2,0.4c0.6,0,1.2-0.3,1.4-0.9h2c-0.2,0.7-0.6,1.3-1.2,1.7
	c-0.6,0.5-1.4,0.7-2.2,0.7c-0.7,0-1.3-0.2-1.9-0.5c-0.6-0.3-1-0.8-1.3-1.3c-0.3-0.6-0.5-1.3-0.5-2s0.1-1.4,0.5-2
	c0.3-0.5,0.7-1,1.3-1.3s1.2-0.5,1.9-0.5c0.6,0,1.3,0.1,1.8,0.4s1,0.7,1.3,1.3c0.3,0.6,0.5,1.2,0.5,1.9
	C613.4,76.7,613.4,76.9,613.4,77.2z M611.5,76c0-0.4-0.2-0.8-0.5-1.1c-0.3-0.3-0.8-0.4-1.2-0.4s-0.8,0.1-1.1,0.4s-0.5,0.7-0.6,1.1
	H611.5z"/>
<path d="M620.5,73.8c0.6,0.6,0.8,1.4,0.8,2.3v4.2h-1.8v-4c0-0.5-0.1-0.9-0.4-1.3c-0.7-0.6-1.7-0.5-2.3,0c-0.3,0.4-0.5,0.8-0.4,1.3v4
	h-1.8v-7.2h1.8V74c0.2-0.3,0.6-0.6,0.9-0.7c0.4-0.2,0.8-0.3,1.2-0.3C619.2,73,619.9,73.3,620.5,73.8z"/>
<path d="M624.5,78.7h4.1v1.5h-6.2v-1.4l4.1-6.1h-4.1v-1.5h6.2v1.4L624.5,78.7z"/>
<path d="M631.7,78.4l-1.5,3.6H629l0.8-3.7L631.7,78.4z"/>
<path d="M640.5,80.3l-3.3-4v4h-1.8v-9.1h1.8v4.1l3.3-4.1h2.2l-3.7,4.5l3.8,4.6H640.5z"/>
<path d="M645.5,79.8c-0.7-0.4-1.3-1-1.7-1.7c-0.8-1.5-0.8-3.3,0-4.8c0.4-0.7,1-1.3,1.7-1.7c0.7-0.4,1.5-0.6,2.3-0.6s1.6,0.2,2.3,0.6
	s1.3,1,1.7,1.7c0.8,1.5,0.8,3.3,0,4.8c-0.4,0.7-1,1.3-1.7,1.7C648.8,80.6,647,80.6,645.5,79.8L645.5,79.8z M649.3,78.4
	c0.4-0.3,0.8-0.6,1-1.1c0.5-1,0.5-2.2,0-3.2c-0.2-0.4-0.6-0.8-1-1s-0.9-0.4-1.4-0.4s-1,0.1-1.5,0.4c-0.4,0.2-0.8,0.6-1,1
	c-0.5,1-0.5,2.2,0,3.2c0.2,0.4,0.6,0.8,1,1.1c0.4,0.2,0.9,0.4,1.5,0.4C648.4,78.7,648.9,78.6,649.3,78.4L649.3,78.4z"/>
<path d="M655.3,78.8h3v1.4h-4.8v-9.1h1.8V78.8z"/>
<path d="M660.3,80.1c-0.4-0.2-0.8-0.5-1.1-0.9c-0.3-0.3-0.4-0.8-0.5-1.2h1.8c0,0.3,0.2,0.5,0.4,0.7c0.5,0.3,1.2,0.4,1.7,0.1
	c0.2-0.1,0.3-0.3,0.3-0.5s-0.1-0.4-0.4-0.5c-0.4-0.2-0.7-0.3-1.1-0.4c-0.4-0.1-0.9-0.2-1.3-0.4c-0.3-0.1-0.6-0.4-0.9-0.6
	c-0.3-0.3-0.4-0.7-0.4-1.2c0-0.4,0.1-0.8,0.3-1.1c0.3-0.3,0.6-0.6,1-0.8c0.5-0.2,1-0.3,1.5-0.2c0.7,0,1.5,0.2,2,0.6s0.8,1.1,0.8,1.7
	h-1.7c0-0.3-0.1-0.5-0.4-0.7c-0.2-0.2-0.5-0.3-0.8-0.3s-0.5,0-0.8,0.2c-0.2,0.1-0.3,0.3-0.3,0.5s0.1,0.5,0.4,0.6
	c0.4,0.2,0.7,0.3,1.1,0.4c0.4,0.1,0.9,0.2,1.3,0.4c0.3,0.1,0.6,0.4,0.9,0.7c0.3,0.3,0.4,0.7,0.4,1.2c0,0.4-0.1,0.8-0.3,1.1
	c-0.3,0.3-0.6,0.6-1,0.8C662.3,80.6,661.2,80.6,660.3,80.1L660.3,80.1z"/>
<path d="M667.8,78.4l-1.5,3.6h-1.2l0.8-3.7L667.8,78.4z"/>
<path d="M671.5,74.7c0.5-1.1,1.7-1.7,2.8-1.7c0.5,0,1,0.1,1.4,0.3c0.4,0.2,0.7,0.5,1,0.8v-1h1.8v7.2h-1.8v-1
	c-0.6,0.8-1.4,1.2-2.4,1.2c-0.6,0-1.2-0.2-1.7-0.5s-0.9-0.8-1.2-1.3c-0.3-0.6-0.5-1.3-0.4-2C671,76,671.2,75.3,671.5,74.7z
	 M676.5,75.5c-0.2-0.3-0.4-0.6-0.7-0.7c-0.3-0.2-0.6-0.3-1-0.2c-0.3,0-0.7,0.1-0.9,0.2c-0.3,0.2-0.5,0.4-0.7,0.7
	c-0.2,0.3-0.3,0.7-0.3,1.1s0.1,0.8,0.3,1.1c0.2,0.3,0.4,0.6,0.7,0.8c0.3,0.2,0.6,0.3,0.9,0.3c0.3,0,0.7-0.1,1-0.3
	c0.3-0.2,0.5-0.4,0.7-0.7C676.8,77.1,676.8,76.3,676.5,75.5z"/>
<path d="M686,73.8c0.6,0.6,0.8,1.4,0.8,2.3v4.2H685v-4c0-0.5-0.1-1-0.4-1.3c-0.3-0.3-0.7-0.5-1.2-0.5c-0.4,0-0.9,0.1-1.2,0.5
	s-0.5,0.8-0.4,1.3v4H680v-7.2h1.8V74c0.2-0.3,0.6-0.6,0.9-0.7c0.4-0.2,0.8-0.3,1.2-0.3C684.7,73,685.5,73.2,686,73.8z"/>
<path d="M688.1,74.7c0.3-0.5,0.7-1,1.2-1.3s1.1-0.5,1.7-0.5c0.5,0,0.9,0.1,1.3,0.3c0.4,0.2,0.7,0.5,1,0.8v-3.4h1.8v9.6h-1.8v-1.1
	c-0.2,0.4-0.6,0.7-1,0.9c-0.4,0.2-0.9,0.3-1.4,0.3c-0.6,0-1.2-0.2-1.7-0.5s-0.9-0.8-1.2-1.3c-0.3-0.6-0.5-1.3-0.4-2
	C687.7,75.9,687.8,75.3,688.1,74.7z M693.1,75.5c-0.2-0.3-0.4-0.6-0.7-0.7c-0.3-0.2-0.6-0.3-0.9-0.2c-0.7,0-1.3,0.4-1.6,1
	c-0.2,0.3-0.3,0.7-0.3,1.1s0.1,0.8,0.3,1.1c0.2,0.3,0.4,0.6,0.7,0.8c0.3,0.2,0.6,0.3,0.9,0.3c0.3,0,0.7-0.1,0.9-0.3
	c0.3-0.2,0.5-0.4,0.7-0.7C693.5,77.1,693.5,76.3,693.1,75.5L693.1,75.5z"/>
<path d="M701.2,79.8c-0.7-0.4-1.3-1-1.7-1.7c-0.8-1.5-0.8-3.3,0-4.8c0.4-0.7,1-1.3,1.7-1.7c0.7-0.4,1.5-0.6,2.3-0.6s1.6,0.2,2.3,0.6
	s1.3,1,1.7,1.7c0.8,1.5,0.8,3.3,0,4.8c-0.4,0.7-1,1.3-1.7,1.7C704.5,80.6,702.7,80.6,701.2,79.8L701.2,79.8z M705,78.4
	c0.4-0.3,0.8-0.6,1-1.1c0.5-1,0.5-2.2,0-3.2c-0.2-0.4-0.6-0.8-1-1s-0.9-0.4-1.4-0.4s-1,0.1-1.5,0.4c-0.4,0.2-0.8,0.6-1,1
	c-0.5,1-0.5,2.2,0,3.2c0.2,0.4,0.6,0.8,1,1.1c0.4,0.2,0.9,0.4,1.5,0.4C704.1,78.7,704.6,78.6,705,78.4L705,78.4z"/>
<path d="M719.2,73.1l-2.1,7.2h-2l-1.3-5l-1.3,5h-2l-2.1-7.2h1.8l1.3,5.5l1.4-5.5h1.9l1.4,5.5l1.3-5.5H719.2z"/>
<path d="M725.9,73.8c0.6,0.6,0.9,1.4,0.8,2.2v4.2h-1.8v-4c0-0.5-0.1-1-0.4-1.3c-0.3-0.3-0.7-0.5-1.2-0.5c-0.4,0-0.9,0.1-1.2,0.5
	s-0.5,0.8-0.4,1.3v4h-1.8V73h1.8v1c0.2-0.3,0.6-0.6,0.9-0.7c0.4-0.2,0.8-0.3,1.2-0.3C724.6,73,725.3,73.2,725.9,73.8z"/>
<path d="M734.7,77.2h-5.3c0,0.5,0.2,0.9,0.5,1.2c0.3,0.3,0.7,0.5,1.2,0.4c0.6,0,1.2-0.3,1.4-0.9h2c-0.2,0.7-0.6,1.3-1.2,1.7
	c-0.6,0.5-1.4,0.7-2.2,0.7c-0.6,0-1.3-0.2-1.9-0.5c-0.5-0.3-1-0.8-1.3-1.3c-0.3-0.6-0.5-1.3-0.5-2s0.1-1.4,0.5-2
	c0.3-0.6,0.7-1,1.3-1.3s1.2-0.5,1.9-0.5c0.6,0,1.3,0.1,1.8,0.4s1,0.7,1.3,1.3c0.3,0.6,0.5,1.2,0.5,1.9
	C734.8,76.7,734.7,76.9,734.7,77.2z M732.8,76c0-0.4-0.2-0.8-0.5-1.1c-0.3-0.3-0.8-0.4-1.2-0.4s-0.8,0.1-1.1,0.4s-0.5,0.7-0.6,1.1
	H732.8z"/>
<path d="M738.4,73.3c0.4-0.2,0.8-0.3,1.3-0.3v1.9h-0.5c-0.8-0.1-1.6,0.4-1.7,1.3c0,0.2,0,0.4,0,0.5v3.6h-1.8v-7.2h1.8v1.1
	C737.7,73.8,738.1,73.5,738.4,73.3z"/>
<path d="M741.7,80.1c-0.4-0.2-0.8-0.5-1.1-0.9c-0.3-0.3-0.4-0.8-0.5-1.2h1.8c0,0.3,0.2,0.5,0.4,0.7c0.5,0.3,1.2,0.4,1.7,0.1
	c0.2-0.1,0.3-0.3,0.3-0.5s-0.1-0.4-0.4-0.5c-0.4-0.2-0.7-0.3-1.1-0.4c-0.4-0.1-0.9-0.2-1.3-0.4c-0.3-0.1-0.6-0.4-0.9-0.6
	c-0.3-0.3-0.4-0.7-0.4-1.2c0-0.4,0.1-0.8,0.3-1.1c0.3-0.3,0.6-0.6,1-0.8c0.5-0.2,1-0.3,1.5-0.3c0.7,0,1.4,0.2,2,0.6
	c0.5,0.4,0.8,1.1,0.8,1.7h-1.7c0-0.3-0.1-0.5-0.4-0.7c-0.2-0.2-0.5-0.3-0.8-0.3s-0.5,0-0.8,0.2c-0.2,0.1-0.3,0.3-0.3,0.5
	s0.1,0.5,0.4,0.6c0.4,0.2,0.7,0.3,1.1,0.4c0.4,0.1,0.9,0.2,1.3,0.4c0.3,0.1,0.6,0.4,0.9,0.7c0.3,0.3,0.4,0.7,0.4,1.2
	c0,0.4-0.1,0.8-0.3,1.1c-0.3,0.3-0.6,0.6-1,0.8C743.8,80.5,742.7,80.5,741.7,80.1L741.7,80.1z"/>
<path d="M751.4,79.9c-0.6-0.3-1-0.8-1.3-1.3c-0.6-1.2-0.6-2.7,0-3.9c0.3-0.6,0.8-1,1.3-1.3c0.6-0.3,1.2-0.5,1.9-0.5s1.3,0.1,1.9,0.5
	c0.6,0.3,1,0.8,1.3,1.3c0.3,0.6,0.5,1.3,0.5,2s-0.2,1.4-0.5,2s-0.8,1-1.4,1.3c-0.6,0.3-1.2,0.5-1.9,0.5
	C752.6,80.5,751.9,80.3,751.4,79.9z M754.2,78.6c0.3-0.2,0.5-0.4,0.7-0.7c0.2-0.4,0.3-0.8,0.3-1.2c0-0.6-0.2-1.1-0.5-1.6
	c-0.3-0.4-0.8-0.6-1.3-0.6s-1,0.2-1.3,0.6c-0.4,0.4-0.6,1-0.5,1.6c0,0.6,0.1,1.1,0.5,1.6c0.3,0.4,0.8,0.6,1.3,0.6
	C753.6,78.8,753.9,78.7,754.2,78.6L754.2,78.6z"/>
<path d="M761.3,74.6H760v5.7h-1.8v-5.7h-0.8v-1.5h0.8v-0.4c-0.1-0.7,0.2-1.5,0.8-2c0.7-0.5,1.5-0.7,2.3-0.6v1.6
	c-0.3,0-0.6,0-0.9,0.2c-0.2,0.2-0.3,0.5-0.3,0.8V73h1.3L761.3,74.6L761.3,74.6z"/>
<path d="M766.2,80c-0.5-0.2-0.9-0.5-1.2-0.9s-0.5-0.9-0.5-1.4h2c0,0.3,0.1,0.6,0.4,0.9c0.3,0.2,0.6,0.4,1,0.3c0.4,0,0.7-0.1,1-0.3
	c0.2-0.2,0.4-0.5,0.4-0.8c0-0.2-0.1-0.5-0.2-0.7c-0.2-0.2-0.4-0.3-0.6-0.4c-0.3-0.1-0.7-0.2-1-0.3c-0.5-0.1-1-0.3-1.4-0.5
	s-0.7-0.4-1-0.8s-0.4-0.9-0.4-1.4s0.1-1,0.4-1.4c0.3-0.4,0.7-0.7,1.1-0.9c0.5-0.2,1.1-0.3,1.7-0.3c0.8,0,1.6,0.2,2.3,0.7
	c0.6,0.5,1,1.1,1,1.9h-2c0-0.3-0.2-0.6-0.4-0.8c-0.3-0.2-0.6-0.3-1-0.3c-0.3,0-0.6,0.1-0.8,0.3c-0.2,0.2-0.3,0.5-0.3,0.8
	c0,0.2,0.1,0.4,0.2,0.6c0.2,0.2,0.4,0.3,0.6,0.4c0.3,0.1,0.7,0.3,1,0.3c0.5,0.1,1,0.3,1.4,0.5s0.7,0.4,1,0.8s0.4,0.9,0.4,1.4
	s-0.1,1-0.4,1.4c-0.3,0.5-0.7,0.8-1.1,1c-0.5,0.3-1.1,0.4-1.7,0.4C767.4,80.4,766.8,80.2,766.2,80z"/>
<path d="M783.5,73.8c0.6,0.6,0.9,1.4,0.8,2.3v4.2h-1.8v-4c0-0.5-0.1-0.9-0.4-1.3c-0.3-0.3-0.7-0.5-1.2-0.4c-0.4,0-0.8,0.2-1.1,0.5
	c-0.3,0.4-0.5,0.8-0.4,1.3v4h-1.8v-4c0-0.5-0.1-0.9-0.4-1.3c-0.3-0.3-0.7-0.5-1.2-0.4c-0.4,0-0.9,0.1-1.2,0.4
	c-0.3,0.4-0.5,0.8-0.4,1.3v4h-1.8v-7.2h1.8V74c0.2-0.3,0.6-0.6,0.9-0.7c0.4-0.2,0.8-0.2,1.2-0.2c0.5,0,1,0.1,1.5,0.4
	c0.4,0.2,0.8,0.6,1,1c0.2-0.4,0.6-0.8,1-1c0.4-0.3,0.9-0.4,1.5-0.4C782.1,72.9,782.9,73.2,783.5,73.8z"/>
<path d="M785.6,74.7c0.3-0.5,0.7-1,1.2-1.3s1.1-0.5,1.7-0.5c0.5,0,1,0.1,1.4,0.3c0.4,0.2,0.7,0.5,1,0.8v-1h1.8v7.2h-1.8v-1
	c-0.3,0.4-0.6,0.6-1,0.8c-0.4,0.2-0.9,0.3-1.4,0.3c-0.6,0-1.2-0.2-1.7-0.5s-0.9-0.8-1.2-1.3c-0.3-0.6-0.5-1.3-0.4-2
	C785.1,76,785.3,75.3,785.6,74.7z M790.6,75.5c-0.2-0.3-0.4-0.6-0.7-0.7c-0.3-0.2-0.6-0.3-1-0.2c-0.3,0-0.6,0.1-0.9,0.2
	c-0.3,0.2-0.5,0.4-0.7,0.7c-0.2,0.3-0.3,0.7-0.3,1.1s0.1,0.8,0.3,1.1c0.2,0.3,0.4,0.6,0.7,0.8c0.3,0.2,0.6,0.3,0.9,0.3
	c0.3,0,0.7-0.1,1-0.3c0.3-0.2,0.5-0.4,0.7-0.7C790.9,77.1,790.9,76.3,790.6,75.5z"/>
<path d="M795.9,70.7v9.6h-1.8v-9.6H795.9z"/>
<path d="M799.1,70.7v9.6h-1.8v-9.6H799.1z"/>
<path d="M809.7,76.4c0.6,0.8,0.7,1.9,0.1,2.7c-0.2,0.4-0.6,0.7-1,0.9c-0.5,0.2-1.1,0.3-1.6,0.3h-3.9v-9.1h3.8c0.5,0,1.1,0.1,1.6,0.3
	c0.4,0.2,0.8,0.5,1,0.8c0.2,0.4,0.4,0.8,0.3,1.2c0,0.5-0.1,0.9-0.4,1.3c-0.3,0.4-0.7,0.6-1.1,0.8C808.9,75.7,809.4,76,809.7,76.4z
	 M805.1,74.9h1.7c0.4,0,0.7-0.1,1-0.3c0.5-0.5,0.5-1.2,0-1.7c-0.3-0.2-0.6-0.3-1-0.3h-1.7V74.9z M808,78.5c0.3-0.2,0.4-0.6,0.4-0.9
	s-0.1-0.7-0.4-0.9c-0.3-0.2-0.6-0.3-1-0.3h-1.8v2.4h1.8C807.4,78.8,807.7,78.7,808,78.5L808,78.5z"/>
<path d="M818.1,73.1v7.2h-1.8v-0.9c-0.2,0.3-0.5,0.6-0.9,0.7c-0.4,0.2-0.8,0.3-1.2,0.3c-0.5,0-1-0.1-1.5-0.4c-0.4-0.2-0.8-0.6-1-1
	c-0.3-0.5-0.4-1.1-0.4-1.7V73h1.8v4c0,0.5,0.1,0.9,0.4,1.3c0.7,0.6,1.7,0.6,2.3,0c0.3-0.4,0.5-0.8,0.4-1.3v-4h1.9V73.1z"/>
<path d="M820.7,80.1c-0.4-0.2-0.8-0.5-1.1-0.9c-0.3-0.3-0.4-0.8-0.5-1.2h1.8c0,0.3,0.2,0.5,0.4,0.7c0.3,0.2,0.6,0.3,0.9,0.3
	c0.3,0,0.6-0.1,0.8-0.2s0.3-0.3,0.3-0.5s-0.1-0.4-0.3-0.5c-0.4-0.2-0.7-0.3-1.1-0.4c-0.4-0.1-0.9-0.2-1.3-0.4
	c-0.3-0.1-0.6-0.4-0.9-0.6c-0.3-0.3-0.4-0.7-0.4-1.2c0-0.4,0.1-0.8,0.4-1.1c0.3-0.3,0.6-0.6,1-0.8c0.5-0.2,1-0.3,1.5-0.3
	c0.7,0,1.5,0.2,2.1,0.6c0.5,0.4,0.8,1.1,0.8,1.7h-1.7c0-0.3-0.2-0.5-0.4-0.7s-0.5-0.3-0.8-0.3s-0.5,0-0.8,0.2
	c-0.2,0.1-0.3,0.3-0.3,0.5s0.1,0.5,0.4,0.6c0.4,0.2,0.7,0.3,1.1,0.4c0.4,0.1,0.9,0.2,1.3,0.4c0.3,0.1,0.6,0.4,0.9,0.7
	c0.3,0.3,0.4,0.7,0.4,1.2c0,0.4-0.1,0.8-0.3,1.1c-0.3,0.3-0.6,0.6-1,0.8C822.8,80.5,821.7,80.5,820.7,80.1L820.7,80.1z"/>
<path d="M826.4,71.9c-0.2-0.2-0.3-0.5-0.3-0.8s0.1-0.6,0.3-0.8c0.5-0.4,1.1-0.4,1.6,0c0.2,0.2,0.3,0.5,0.3,0.8s-0.1,0.6-0.3,0.8
	C827.5,72.3,826.8,72.3,826.4,71.9z M828.1,73.1v7.2h-1.8v-7.2H828.1z"/>
<path d="M835.6,73.8c0.6,0.6,0.8,1.4,0.8,2.3v4.2h-1.8v-4c0-0.5-0.1-1-0.4-1.3c-0.3-0.3-0.7-0.5-1.2-0.5c-0.4,0-0.9,0.1-1.2,0.5
	s-0.5,0.8-0.4,1.3v4h-1.8v-7.2h1.8V74c0.2-0.3,0.6-0.6,0.9-0.7c0.4-0.2,0.8-0.3,1.2-0.3C834.3,73,835,73.2,835.6,73.8z"/>
<path d="M844.4,77.2h-5.3c0,0.5,0.2,0.9,0.5,1.2c0.3,0.3,0.7,0.4,1.2,0.4c0.6,0,1.2-0.3,1.5-0.9h2c-0.2,0.7-0.6,1.3-1.2,1.7
	c-0.6,0.5-1.4,0.7-2.2,0.7c-0.6,0-1.3-0.2-1.9-0.5c-0.6-0.3-1-0.8-1.4-1.3c-0.3-0.6-0.5-1.3-0.5-2s0.1-1.4,0.5-2
	c0.3-0.6,0.7-1,1.3-1.3s1.2-0.5,1.9-0.5c0.6,0,1.3,0.1,1.8,0.4s1,0.7,1.3,1.3c0.3,0.6,0.5,1.2,0.5,1.9
	C844.4,76.7,844.4,76.9,844.4,77.2z M842.5,76c0-0.4-0.2-0.8-0.5-1.1c-0.3-0.3-0.8-0.4-1.2-0.4s-0.8,0.1-1.1,0.4s-0.5,0.7-0.6,1.1
	H842.5z"/>
<path d="M846.5,80.1c-0.4-0.2-0.8-0.5-1.1-0.9c-0.3-0.3-0.4-0.8-0.5-1.2h1.8c0,0.3,0.2,0.5,0.4,0.7c0.3,0.2,0.6,0.3,0.9,0.3
	c0.3,0,0.6-0.1,0.8-0.2s0.3-0.3,0.3-0.5s-0.1-0.4-0.4-0.5c-0.4-0.2-0.7-0.3-1.1-0.4c-0.4-0.1-0.9-0.2-1.3-0.4
	c-0.3-0.1-0.6-0.4-0.9-0.6c-0.3-0.3-0.4-0.7-0.4-1.2c0-0.4,0.1-0.8,0.3-1.1c0.3-0.3,0.6-0.6,1-0.8c0.5-0.2,1-0.3,1.5-0.3
	c0.7,0,1.5,0.2,2,0.6s0.8,1.1,0.8,1.7h-1.7c0-0.3-0.2-0.5-0.4-0.7s-0.5-0.3-0.8-0.3s-0.5,0-0.8,0.2c-0.2,0.1-0.3,0.3-0.3,0.5
	s0.1,0.5,0.4,0.6c0.4,0.2,0.7,0.3,1.1,0.4c0.4,0.1,0.9,0.2,1.3,0.4c0.3,0.1,0.6,0.4,0.9,0.7c0.3,0.3,0.4,0.7,0.4,1.2
	c0,0.4-0.1,0.8-0.3,1.1c-0.3,0.3-0.6,0.6-1,0.8C848.7,80.5,847.6,80.5,846.5,80.1L846.5,80.1z"/>
<path d="M853.3,80.1c-0.4-0.2-0.8-0.5-1.1-0.9c-0.3-0.3-0.4-0.8-0.5-1.2h1.8c0,0.3,0.2,0.5,0.4,0.7c0.3,0.2,0.6,0.3,0.9,0.3
	c0.3,0,0.6-0.1,0.8-0.2s0.3-0.3,0.3-0.5s-0.1-0.4-0.3-0.5c-0.4-0.2-0.7-0.3-1.1-0.4c-0.4-0.1-0.9-0.2-1.3-0.4
	c-0.3-0.1-0.6-0.4-0.9-0.6c-0.3-0.3-0.4-0.7-0.4-1.2c0-0.4,0.1-0.8,0.3-1.1c0.3-0.3,0.6-0.6,1-0.8c0.5-0.2,1-0.3,1.5-0.2
	c0.7,0,1.5,0.2,2,0.6s0.8,1.1,0.8,1.7h-1.7c0-0.3-0.2-0.5-0.4-0.7s-0.5-0.3-0.8-0.3s-0.5,0-0.8,0.2c-0.2,0.1-0.3,0.3-0.3,0.5
	s0.1,0.5,0.4,0.6c0.4,0.2,0.7,0.3,1.1,0.4c0.4,0.1,0.9,0.2,1.3,0.4c0.3,0.1,0.6,0.4,0.9,0.7c0.3,0.3,0.4,0.7,0.4,1.2
	c0,0.4-0.1,0.8-0.3,1.1c-0.3,0.3-0.6,0.6-1,0.8C855.3,80.6,854.2,80.6,853.3,80.1L853.3,80.1z"/>
<path d="M95.3,51.5c1.1,0.5,2,1.4,2.6,2.4c0.6,1.1,0.9,2.4,0.9,3.7s-0.3,2.6-0.9,3.7c-0.6,1-1.5,1.9-2.6,2.4
	c-1.2,0.6-2.5,0.9-3.9,0.8h-4.5V50.7h4.5C92.7,50.6,94.1,50.9,95.3,51.5z M95.1,61.4c0.9-1,1.4-2.4,1.3-3.7c0.1-1.4-0.4-2.7-1.3-3.8
	c-1-1-2.4-1.5-3.7-1.4h-2.3v10.2h2.3C92.7,62.8,94.1,62.3,95.1,61.4z"/>
<path d="M110.5,59.9h-8.4c0,1.7,1.4,3,3.1,2.9c0,0,0,0,0.1,0c1.1,0.1,2.1-0.5,2.6-1.5h2.5c-0.3,1-1,1.9-1.8,2.5
	c-0.9,0.7-2.1,1-3.2,1c-1,0-2-0.2-2.8-0.7s-1.5-1.2-2-2c-0.5-0.9-0.7-2-0.7-3s0.2-2.1,0.7-3c0.4-0.8,1.1-1.5,1.9-2
	c0.9-0.5,1.9-0.7,2.9-0.7s2,0.2,2.8,0.7c0.8,0.4,1.5,1.1,1.9,1.9c0.5,0.9,0.7,1.8,0.7,2.8C110.6,59.1,110.5,59.5,110.5,59.9z
	 M108.2,58c0-0.8-0.3-1.5-0.9-2s-1.4-0.8-2.2-0.8c-0.7,0-1.5,0.3-2,0.8c-0.6,0.5-0.9,1.2-1,2H108.2z"/>
<path d="M114.5,49.8v14.8h-2.3V49.8H114.5z"/>
<path d="M117.1,51.7c-0.3-0.3-0.4-0.6-0.4-1s0.2-0.7,0.4-1c0.3-0.3,0.6-0.4,1-0.4c0.8,0,1.4,0.6,1.4,1.4l0,0c0,0.4-0.2,0.7-0.4,1
	c-0.3,0.3-0.6,0.4-1,0.4C117.7,52.1,117.3,51.9,117.1,51.7z M119.2,53.5v11H117v-11H119.2z"/>
<path d="M125.9,62.5l3.1-9h2.4l-4.2,11h-2.7l-4.2-11h2.4L125.9,62.5z"/>
<path d="M142.6,59.9h-8.4c0,1.7,1.4,3,3.1,2.9c0,0,0,0,0.1,0c1.1,0.1,2.1-0.5,2.6-1.5h2.5c-0.3,1-1,1.9-1.8,2.5
	c-0.9,0.7-2.1,1-3.2,1c-1,0-2-0.2-2.8-0.7s-1.5-1.2-2-2c-0.5-0.9-0.7-2-0.7-3s0.2-2.1,0.7-3c0.4-0.8,1.1-1.5,1.9-2
	c0.9-0.5,1.9-0.7,2.9-0.7s1.9,0.2,2.8,0.7c0.8,0.4,1.5,1.1,1.9,1.9c0.5,0.9,0.7,1.8,0.7,2.8C142.7,59.1,142.7,59.5,142.6,59.9z
	 M140.3,58c0-0.8-0.3-1.5-0.9-2c-0.6-0.5-1.4-0.8-2.2-0.8c-0.7,0-1.5,0.3-2,0.8c-0.6,0.5-0.9,1.2-1,2H140.3z"/>
<path d="M148,53.8c0.6-0.3,1.3-0.5,2-0.5v2.4h-0.6c-0.7,0-1.5,0.2-2,0.7c-0.5,0.7-0.8,1.5-0.7,2.4v5.8h-2.3v-11h2.3v1.6
	C147,54.6,147.5,54.1,148,53.8z"/>
<path d="M151.5,56c0.9-1.7,2.6-2.7,4.5-2.7c0.8,0,1.6,0.2,2.3,0.5c0.6,0.3,1.1,0.7,1.6,1.3v-1.6h2.3v11h-2.3v-1.6
	c-0.4,0.5-1,1-1.6,1.3c-1.6,0.8-3.4,0.7-4.9-0.2c-0.8-0.5-1.4-1.2-1.9-2c-0.5-0.9-0.7-2-0.7-3C150.7,58,151,57,151.5,56z M159.3,57
	c-0.3-0.5-0.7-1-1.2-1.3s-1.1-0.4-1.6-0.4c-1.2,0-2.3,0.6-2.9,1.7c-0.3,0.6-0.5,1.3-0.5,2s0.1,1.4,0.5,2c0.3,0.5,0.7,1,1.2,1.3
	c1,0.6,2.3,0.6,3.3,0c0.5-0.3,0.9-0.8,1.2-1.3c0.3-0.6,0.5-1.3,0.5-2S159.6,57.6,159.3,57z"/>
<path d="M168.4,53.9c0.7-0.3,1.5-0.5,2.2-0.5c0.9,0,1.8,0.2,2.6,0.7s1.4,1.2,1.9,2c0.5,0.9,0.7,2,0.7,3s-0.2,2.1-0.7,3
	c-0.4,0.8-1.1,1.5-1.9,2c-1.5,0.9-3.3,1-4.9,0.2c-0.6-0.3-1.2-0.7-1.6-1.3v1.6h-2.3V49.8h2.3v5.4C167.2,54.6,167.8,54.2,168.4,53.9z
	 M173,57c-0.3-0.5-0.7-1-1.2-1.3s-1.1-0.4-1.6-0.4c-0.6,0-1.1,0.2-1.6,0.4c-0.5,0.3-1,0.7-1.2,1.3c-0.3,0.6-0.5,1.3-0.5,2
	s0.1,1.4,0.5,2c0.3,0.5,0.7,1,1.2,1.3s1.1,0.4,1.6,0.4c0.6,0,1.2-0.2,1.6-0.5c0.5-0.3,1-0.8,1.2-1.3c0.3-0.6,0.5-1.3,0.5-2
	C173.5,58.3,173.3,57.6,173,57z"/>
<path d="M179.8,49.8v14.8h-2.3V49.8H179.8z"/>
<path d="M192.3,59.9h-8.4c0,1.7,1.4,3,3.1,2.9c0,0,0,0,0.1,0c1.1,0.1,2.1-0.5,2.6-1.5h2.5c-0.3,1-1,1.9-1.8,2.5
	c-0.9,0.7-2.1,1-3.2,1c-1,0-2-0.2-2.8-0.7s-1.5-1.2-2-2c-0.5-0.9-0.7-2-0.7-3s0.2-2.1,0.7-3c0.4-0.8,1.1-1.5,1.9-2
	c0.9-0.5,1.9-0.7,2.9-0.7s1.9,0.2,2.8,0.7c0.8,0.4,1.5,1.1,1.9,1.9c0.5,0.9,0.7,1.8,0.7,2.8C192.3,59.1,192.3,59.5,192.3,59.9z
	 M190,58c0-0.8-0.3-1.5-0.9-2c-0.6-0.5-1.4-0.8-2.2-0.8c-0.7,0-1.5,0.3-2,0.8c-0.6,0.5-0.9,1.2-1,2H190z"/>
<path d="M195.7,64.3c-0.6-0.3-1.2-0.7-1.6-1.3c-0.4-0.5-0.6-1.2-0.6-1.8h2.4c0,0.5,0.3,0.9,0.7,1.2s1,0.5,1.5,0.5s1-0.1,1.5-0.4
	c0.3-0.2,0.5-0.6,0.5-1s-0.2-0.8-0.6-0.9c-0.6-0.3-1.2-0.5-1.9-0.7s-1.3-0.4-2-0.7c-0.5-0.2-1-0.6-1.4-1c-0.4-0.5-0.6-1.1-0.6-1.7
	c0-0.6,0.2-1.1,0.5-1.6c0.4-0.5,0.9-0.9,1.5-1.2c0.7-0.3,1.5-0.4,2.2-0.4c1.1-0.1,2.1,0.3,3,1c0.8,0.6,1.2,1.6,1.2,2.6h-2.3
	c0-0.5-0.2-0.9-0.6-1.2c-0.4-0.3-0.9-0.5-1.5-0.4c-0.5,0-1,0.1-1.4,0.3c-0.3,0.2-0.5,0.5-0.5,0.9c0,0.3,0.1,0.5,0.3,0.7
	s0.5,0.4,0.8,0.5s0.8,0.2,1.4,0.4c0.7,0.2,1.4,0.4,2,0.7c0.5,0.2,1,0.6,1.3,1c0.4,0.5,0.6,1.1,0.6,1.7c0,0.6-0.2,1.2-0.5,1.7
	c-0.4,0.5-0.9,0.9-1.5,1.2c-0.7,0.3-1.5,0.4-2.2,0.4C197.2,64.8,196.4,64.6,195.7,64.3z"/>
<path d="M213.4,55.4h-2v9.2h-2.3v-9.2h-1.3v-1.9h1.3v-0.8c-0.1-1,0.3-2,1-2.8c0.9-0.7,2-1,3.2-0.9v2c-0.5-0.1-1,0.1-1.5,0.4
	c-0.3,0.4-0.5,0.9-0.4,1.3v0.8h2V55.4z"/>
<path d="M216.8,64c-0.8-0.5-1.5-1.2-2-2c-0.5-0.9-0.7-2-0.7-3s0.2-2.1,0.7-3c0.5-0.8,1.2-1.5,2-2c1.8-0.9,3.9-0.9,5.7,0
	c0.8,0.5,1.5,1.2,2,2c0.5,0.9,0.8,2,0.7,3c0,1.1-0.2,2.1-0.8,3c-0.5,0.8-1.2,1.5-2.1,2c-0.9,0.5-1.9,0.7-2.9,0.7
	C218.6,64.7,217.7,64.5,216.8,64z M221.3,62.3c0.5-0.3,1-0.7,1.2-1.3c0.6-1.3,0.6-2.8,0-4.1c-0.3-0.5-0.7-1-1.2-1.2
	c-1-0.6-2.3-0.6-3.3,0c-0.5,0.3-0.9,0.7-1.2,1.3s-0.5,1.3-0.4,2c-0.1,1,0.3,2,0.9,2.8c0.6,0.7,1.4,1,2.3,1
	C220.2,62.8,220.8,62.6,221.3,62.3L221.3,62.3z"/>
<path d="M230.7,53.8c0.6-0.3,1.3-0.5,2-0.5v2.4h-0.6c-0.7,0-1.5,0.2-2,0.7c-0.5,0.7-0.8,1.5-0.7,2.4v5.8h-2.3v-11h2.3v1.6
	C229.7,54.6,230.1,54.1,230.7,53.8z"/>
<path d="M253.5,50.7v13.9h-2.3V55l-4.2,9.6h-1.6l-4.3-9.6v9.5h-2.3V50.7h2.5l4.9,10.9l4.8-10.9C251,50.7,253.5,50.7,253.5,50.7z"/>
<path d="M255.8,56c0.9-1.7,2.6-2.7,4.5-2.7c0.8,0,1.6,0.2,2.3,0.5c0.6,0.3,1.1,0.7,1.5,1.3v-1.6h2.3v11h-2.3v-1.6
	c-0.4,0.5-1,1-1.6,1.3c-0.7,0.4-1.5,0.5-2.3,0.5c-0.9,0-1.8-0.2-2.6-0.7c-0.8-0.5-1.4-1.2-1.9-2c-0.5-0.9-0.7-2-0.7-3
	C255.1,58,255.4,57,255.8,56z M263.7,57c-0.3-0.5-0.7-1-1.2-1.3s-1.1-0.4-1.6-0.4c-0.6,0-1.1,0.1-1.6,0.4c-0.5,0.3-0.9,0.7-1.2,1.2
	c-0.3,0.6-0.5,1.3-0.5,2s0.1,1.4,0.5,2c0.3,0.5,0.7,1,1.2,1.3s1.1,0.4,1.6,0.5c0.6,0,1.1-0.2,1.6-0.4c0.5-0.3,0.9-0.8,1.2-1.3
	c0.3-0.6,0.5-1.3,0.5-2S264,57.6,263.7,57L263.7,57z"/>
<path d="M272.5,53.8c0.6-0.3,1.3-0.5,2-0.5v2.4h-0.6c-0.7,0-1.5,0.2-2,0.7c-0.5,0.7-0.8,1.5-0.7,2.4v5.8H269v-11h2.3v1.6
	C271.5,54.6,272,54.1,272.5,53.8z"/>
<path d="M280.4,59l5.1,5.5h-3.1l-4.1-4.7v4.7H276V49.8h2.3v8.6l4-4.8h3.2L280.4,59z"/>
<path d="M296.6,59.9h-8.4c0,0.8,0.4,1.6,1,2.1s1.4,0.8,2.2,0.8c1.1,0.1,2.1-0.5,2.6-1.5h2.5c-0.3,1-1,1.9-1.8,2.5
	c-0.9,0.7-2.1,1-3.2,1c-1,0-2-0.2-2.8-0.7s-1.5-1.2-2-2c-0.5-0.9-0.7-2-0.7-3s0.2-2.1,0.7-3c0.4-0.8,1.1-1.5,1.9-2
	c0.9-0.5,1.9-0.7,2.9-0.7s1.9,0.2,2.8,0.7c0.8,0.4,1.5,1.1,1.9,1.9c0.5,0.9,0.7,1.8,0.7,2.8C296.6,59.1,296.6,59.5,296.6,59.9z
	 M294.3,58c0-0.8-0.3-1.5-0.9-2s-1.4-0.8-2.2-0.8c-0.7,0-1.5,0.3-2,0.8c-0.6,0.5-0.9,1.2-1,2H294.3z"/>
<path d="M301,55.4v6.1c0,0.3,0.1,0.6,0.3,0.9c0.3,0.2,0.6,0.3,1,0.3h1.4v1.9h-1.8c-0.8,0.1-1.7-0.2-2.4-0.7
	c-0.6-0.6-0.9-1.5-0.8-2.3v-6.1h-1.3v-1.9h1.3v-2.7h2.3v2.7h2.7v1.9L301,55.4z"/>
<path d="M318.8,50.7v1.9h-3.7v12h-2.3v-12h-3.7v-1.9C309.1,50.7,318.8,50.7,318.8,50.7z"/>
<path d="M330.6,59.9h-8.4c0,0.8,0.4,1.6,1,2.1s1.4,0.8,2.2,0.8c1.1,0.1,2.1-0.5,2.6-1.5h2.5c-0.3,1-1,1.9-1.8,2.5
	c-0.9,0.7-2.1,1-3.2,1c-1,0-2-0.2-2.8-0.7s-1.5-1.2-2-2c-0.5-0.9-0.7-2-0.7-3s0.2-2.1,0.7-3c0.4-0.8,1.1-1.5,1.9-2
	c0.9-0.5,1.9-0.7,2.9-0.7s1.9,0.2,2.8,0.7c0.8,0.4,1.5,1.1,1.9,1.9c0.5,0.9,0.7,1.8,0.7,2.8C330.7,59.1,330.6,59.5,330.6,59.9z
	 M328.3,58c0-0.8-0.3-1.5-0.9-2s-1.4-0.8-2.2-0.8c-0.7,0-1.5,0.3-2,0.8c-0.6,0.5-0.9,1.2-1,2H328.3z"/>
<path d="M332.3,56c0.9-1.7,2.6-2.7,4.5-2.7c0.8,0,1.6,0.2,2.3,0.5c0.6,0.3,1.1,0.7,1.5,1.3v-1.6h2.3v11h-2.3v-1.6
	c-0.4,0.5-1,1-1.6,1.3c-0.7,0.4-1.5,0.5-2.3,0.5c-0.9,0-1.8-0.2-2.6-0.7c-0.8-0.5-1.4-1.2-1.9-2c-0.5-0.9-0.7-2-0.7-3
	C331.6,58,331.8,57,332.3,56z M340.1,57c-0.3-0.5-0.7-1-1.2-1.3s-1.1-0.4-1.6-0.4c-0.6,0-1.1,0.1-1.6,0.4c-0.5,0.3-0.9,0.7-1.2,1.2
	c-0.3,0.6-0.5,1.3-0.5,2s0.1,1.4,0.5,2c0.3,0.5,0.7,1,1.2,1.3s1.1,0.4,1.6,0.5c0.6,0,1.1-0.2,1.6-0.4c0.5-0.3,0.9-0.8,1.2-1.3
	c0.3-0.6,0.5-1.3,0.5-2S340.5,57.6,340.1,57L340.1,57z"/>
<path d="M361,53.9c0.7,0.4,1.3,0.9,1.6,1.6c0.4,0.8,0.6,1.7,0.6,2.6v6.5H361v-6.2c0.1-0.8-0.2-1.6-0.7-2.3c-0.5-0.5-1.3-0.8-2-0.8
	s-1.5,0.3-2,0.8c-0.5,0.6-0.8,1.4-0.8,2.3v6.2h-2.3v-6.2c0.1-0.8-0.2-1.6-0.7-2.3c-0.5-0.5-1.3-0.8-2-0.8s-1.5,0.3-2,0.8
	c-0.5,0.6-0.8,1.4-0.8,2.3v6.2h-2.3v-11h2.3v1.3c0.4-0.5,0.9-0.8,1.4-1.1c0.6-0.3,1.2-0.4,1.8-0.4c0.8,0,1.6,0.2,2.4,0.6
	c0.7,0.4,1.2,0.9,1.6,1.6c0.3-0.7,0.9-1.2,1.6-1.6c0.7-0.4,1.5-0.6,2.3-0.6C359.6,53.4,360.3,53.6,361,53.9z"/>
<path d="M89.1,72.7v8.9c-0.1,0.9,0.2,1.7,0.8,2.4c1.4,1.1,3.3,1.1,4.6,0c0.6-0.6,0.9-1.5,0.8-2.4v-8.9h2.3v8.8c0,1-0.2,2-0.7,2.9
	c-0.5,0.8-1.2,1.4-2,1.8c-1.7,0.8-3.7,0.8-5.5,0c-0.8-0.4-1.5-1-2-1.8c-0.5-0.9-0.8-1.9-0.7-2.9v-8.8H89.1z"/>
<path d="M101.7,86.3c-0.6-0.3-1.2-0.7-1.6-1.3c-0.4-0.5-0.6-1.2-0.6-1.8h2.4c0,0.5,0.3,0.9,0.7,1.2c0.4,0.3,1,0.5,1.5,0.5
	s1-0.1,1.5-0.4c0.3-0.2,0.5-0.6,0.5-1s-0.2-0.8-0.6-0.9c-0.6-0.3-1.2-0.5-1.9-0.7c-0.7-0.2-1.3-0.4-2-0.7c-0.5-0.2-1-0.6-1.3-1
	c-0.4-0.5-0.6-1.1-0.6-1.7s0.2-1.1,0.5-1.6c0.4-0.5,0.9-0.9,1.5-1.2c0.7-0.3,1.5-0.4,2.2-0.4c1.1,0,2.2,0.3,3,1
	c0.8,0.6,1.2,1.6,1.2,2.6h-2.3c0-0.5-0.2-0.9-0.6-1.2c-0.4-0.3-0.9-0.5-1.5-0.4c-0.5,0-1,0.1-1.4,0.3c-0.3,0.2-0.5,0.5-0.5,0.9
	c0,0.3,0.1,0.5,0.3,0.7c0.2,0.2,0.5,0.4,0.8,0.5s0.8,0.2,1.4,0.4c0.7,0.2,1.4,0.4,2,0.7c0.5,0.2,1,0.6,1.3,1
	c0.4,0.5,0.6,1.1,0.6,1.7s-0.2,1.2-0.5,1.7c-0.4,0.5-0.9,0.9-1.5,1.2c-0.7,0.3-1.5,0.4-2.2,0.4C103.3,86.8,102.5,86.6,101.7,86.3z"
	/>
<path d="M120.2,81.9h-8.4c0,1.7,1.4,3,3.1,2.9c0,0,0,0,0.1,0c1.1,0.1,2.1-0.5,2.6-1.5h2.5c-0.3,1-1,1.9-1.8,2.5
	c-0.9,0.7-2.1,1-3.2,1c-1,0-2-0.3-2.8-0.8s-1.5-1.2-2-2c-0.5-0.9-0.7-2-0.7-3s0.2-2.1,0.7-3c0.4-0.8,1.1-1.5,1.9-2
	c0.9-0.5,1.9-0.7,2.9-0.7s1.9,0.2,2.8,0.7c0.8,0.4,1.5,1.1,1.9,1.9c0.5,0.9,0.7,1.8,0.7,2.8C120.3,81.1,120.3,81.5,120.2,81.9z
	 M117.9,80.1c0-0.8-0.3-1.5-0.9-2s-1.4-0.8-2.2-0.8c-0.7,0-1.5,0.3-2,0.8c-0.6,0.5-0.9,1.2-1,2H117.9z"/>
<path d="M125.6,75.8c0.6-0.3,1.3-0.5,2-0.5v2.4H127c-0.7,0-1.5,0.2-2,0.7c-0.5,0.7-0.8,1.5-0.7,2.4v5.8H122v-11h2.3v1.6
	C124.6,76.6,125,76.1,125.6,75.8z"/>
<path d="M141.3,72.7v10c0.1,1.1-0.4,2.2-1.1,2.9c-1.7,1.4-4.2,1.4-5.9,0c-0.8-0.8-1.2-1.8-1.1-2.9h2.3c0,0.5,0.2,1,0.5,1.5
	c0.7,0.7,1.9,0.7,2.7,0c0.3-0.4,0.5-0.9,0.5-1.4v-10L141.3,72.7z"/>
<path d="M146.4,86c-0.8-0.5-1.5-1.2-2-2c-0.5-0.9-0.7-2-0.7-3s0.2-2.1,0.7-3c0.5-0.8,1.2-1.5,2-2c1.8-0.9,3.9-0.9,5.7,0
	c0.8,0.5,1.5,1.2,2,2c0.5,0.9,0.8,2,0.7,3c0,1.1-0.2,2.1-0.8,3c-0.5,0.8-1.2,1.5-2.1,2c-0.9,0.5-1.9,0.7-2.9,0.7
	C148.2,86.7,147.3,86.5,146.4,86z M150.9,84.3c0.5-0.3,1-0.7,1.2-1.3c0.6-1.3,0.6-2.8,0-4.1c-0.3-0.5-0.7-1-1.2-1.2
	c-1-0.6-2.3-0.6-3.3,0c-0.5,0.3-0.9,0.7-1.2,1.3c-0.3,0.6-0.5,1.3-0.4,2c-0.1,1,0.3,2,0.9,2.8c0.6,0.7,1.4,1,2.3,1
	C149.8,84.8,150.4,84.6,150.9,84.3L150.9,84.3z"/>
<path d="M166.6,75.5v11h-2.3v-1.3c-0.4,0.5-0.9,0.8-1.4,1.1c-0.6,0.3-1.2,0.4-1.9,0.4c-0.8,0-1.6-0.2-2.3-0.5
	c-0.7-0.4-1.2-0.9-1.6-1.6c-0.4-0.8-0.6-1.7-0.6-2.6v-6.5h2.3v6.1c-0.1,0.8,0.2,1.6,0.7,2.3c1.1,1,2.9,1,4,0
	c0.5-0.6,0.8-1.4,0.8-2.3v-6.1H166.6z"/>
<path d="M172.7,75.8c0.6-0.3,1.3-0.5,2-0.5v2.4h-0.6c-0.7,0-1.5,0.2-2,0.7c-0.5,0.7-0.8,1.5-0.7,2.4v5.8h-2.3v-11h2.3v1.6
	C171.7,76.6,172.1,76.1,172.7,75.8z"/>
<path d="M184.1,75.9c0.7,0.4,1.3,0.9,1.6,1.6c0.4,0.8,0.6,1.7,0.6,2.6v6.5H184v-6.2c0.1-0.8-0.2-1.6-0.7-2.3c-0.5-0.5-1.3-0.8-2-0.8
	s-1.5,0.3-2,0.8c-0.5,0.6-0.8,1.4-0.8,2.3v6.2h-2.3v-11h2.3v1.3c0.4-0.5,0.9-0.8,1.4-1.1c0.6-0.3,1.2-0.4,1.9-0.4
	C182.6,75.4,183.4,75.5,184.1,75.9z"/>
<path d="M198.6,81.9h-8.4c0,0.8,0.4,1.6,1,2.1s1.4,0.8,2.2,0.8c1.1,0.1,2.1-0.5,2.6-1.5h2.5c-0.3,1-1,1.9-1.8,2.5
	c-0.9,0.7-2.1,1-3.2,1c-1,0-2-0.2-2.8-0.7s-1.5-1.2-2-2c-0.5-0.9-0.7-2-0.7-3s0.2-2.1,0.7-3c0.4-0.8,1.1-1.5,1.9-2
	c0.9-0.5,1.9-0.7,2.9-0.7s1.9,0.2,2.8,0.7c0.8,0.4,1.5,1.1,1.9,1.9c0.5,0.9,0.7,1.8,0.7,2.8C198.7,81.1,198.7,81.5,198.6,81.9z
	 M196.3,80.1c0-0.8-0.3-1.5-0.9-2c-0.6-0.5-1.4-0.8-2.2-0.8c-0.7,0-1.5,0.3-2,0.8c-0.6,0.5-0.9,1.2-1,2H196.3z"/>
<path d="M210.3,75.5l-6.8,16.2h-2.4l2.2-5.4L199,75.5h2.5l3.1,8.4l3.2-8.4C207.8,75.5,210.3,75.5,210.3,75.5z"/>
<path d="M230.8,72.7v13.9h-2.3V77l-4.2,9.5h-1.6l-4.3-9.5v9.5h-2.3V72.7h2.5l4.9,10.9l4.9-10.9H230.8z"/>
<path d="M233.1,78.1c0.9-1.7,2.6-2.7,4.5-2.7c0.8,0,1.6,0.2,2.3,0.5c0.6,0.3,1.1,0.7,1.6,1.3v-1.6h2.3v11h-2.3V85
	c-0.4,0.5-1,1-1.6,1.3c-0.7,0.4-1.5,0.5-2.3,0.5c-0.9,0-1.8-0.2-2.6-0.7s-1.4-1.2-1.9-2c-0.5-0.9-0.7-2-0.7-3
	C232.4,80,232.6,79,233.1,78.1z M241,79.1c-0.3-0.5-0.7-1-1.2-1.3s-1.1-0.4-1.6-0.4c-0.6,0-1.1,0.1-1.6,0.4s-0.9,0.7-1.2,1.2
	c-0.3,0.6-0.5,1.3-0.5,2s0.1,1.4,0.5,2c0.3,0.5,0.7,1,1.2,1.3s1.1,0.4,1.6,0.4c0.6,0,1.1-0.2,1.6-0.4c0.5-0.3,1-0.8,1.2-1.3
	c0.3-0.6,0.5-1.3,0.5-2C241.5,80.3,241.3,79.6,241,79.1L241,79.1z"/>
<path d="M250.1,75.9c0.7-0.4,1.5-0.5,2.3-0.5c1.9,0,3.6,1,4.5,2.7c0.5,0.9,0.7,1.9,0.7,2.9s-0.2,2.1-0.7,3c-0.4,0.8-1.1,1.5-1.9,2
	c-0.8,0.5-1.7,0.7-2.6,0.7c-0.8,0-1.5-0.2-2.2-0.5c-0.6-0.3-1.2-0.7-1.6-1.3v6.8h-2.3V75.5h2.3v1.6
	C248.9,76.6,249.4,76.2,250.1,75.9z M254.7,79c-0.3-0.5-0.7-1-1.2-1.3s-1.1-0.4-1.6-0.4c-0.6,0-1.1,0.1-1.6,0.4s-1,0.7-1.2,1.3
	c-0.3,0.6-0.5,1.3-0.5,2s0.1,1.4,0.5,2c0.3,0.5,0.7,1,1.2,1.3s1.1,0.4,1.6,0.4c0.6,0,1.2-0.2,1.6-0.4c0.5-0.3,1-0.8,1.2-1.3
	c0.3-0.6,0.5-1.3,0.5-2S255,79.6,254.7,79z"/>
</svg>
