<?xml version="1.0" encoding="utf-8"?>
<!-- Generator: Adobe Illustrator 24.1.0, SVG Export Plug-In . SVG Version: 6.00 Build 0)  -->
<svg version="1.1" id="图层_1" xmlns="http://www.w3.org/2000/svg" xmlns:xlink="http://www.w3.org/1999/xlink" x="0px" y="0px"
	 viewBox="0 0 1252.1 332.8" style="enable-background:new 0 0 1252.1 332.8;" xml:space="preserve">
<style type="text/css">
	.st0{clip-path:url(#SVGID_2_);}
	.st1{fill:#FFFFFF;}
	.st2{opacity:0.88;}
	.st3{fill:#FF69B4;}
	.st4{opacity:0.87;enable-background:new    ;}
	.st5{font-family:'Poppins-Medium';}
	.st6{font-size:11.3624px;}
	.st7{fill:none;}
	.st8{font-family:'Poppins-Regular';}
	.st9{font-size:6.6281px;}
</style>
<g>
	<defs>
		<rect id="SVGID_1_" width="1253.7" height="361.5"/>
	</defs>
	<clipPath id="SVGID_2_">
		<use xlink:href="#SVGID_1_"  style="overflow:visible;"/>
	</clipPath>
	<g class="st0">
		<rect class="st1" width="1252.1" height="361.5"/>
		<path d="M105.6,115.3c-0.6-1.2-1.6-2.2-2.8-2.9c-1.3-0.7-2.7-1-4.1-1c-1.6,0-3.2,0.4-4.6,1.2c-1.4,0.8-2.5,1.9-3.2,3.3
			c-0.8,1.5-1.2,3.2-1.1,4.9c0,1.7,0.4,3.3,1.1,4.8c0.7,1.4,1.8,2.5,3.2,3.3c1.4,0.8,3,1.2,4.6,1.2c2,0.1,4-0.6,5.6-1.9
			c1.5-1.4,2.4-3.2,2.6-5.2h-9.7v-3.3h14.2v3.3c-0.9,6.4-6.3,11.1-12.7,11c-2.3,0-4.6-0.6-6.6-1.7c-2-1.1-3.6-2.7-4.8-4.7
			c-1.2-2.1-1.8-4.4-1.8-6.8s0.6-4.7,1.8-6.8c1.1-2,2.8-3.6,4.8-4.7c4.4-2.4,9.7-2.2,13.9,0.3c2.1,1.3,3.8,3.3,4.6,5.7L105.6,115.3z
			"/>
		<path d="M118.2,132.6c-1.5-0.9-2.8-2.2-3.7-3.7c-0.9-1.7-1.4-3.6-1.3-5.5c0-1.9,0.4-3.8,1.4-5.5c0.9-1.6,2.2-2.8,3.7-3.7
			c3.3-1.7,7.3-1.7,10.6,0c1.6,0.9,2.9,2.1,3.7,3.7c0.9,1.7,1.4,3.6,1.4,5.5s-0.4,3.8-1.4,5.5c-0.9,1.6-2.2,2.9-3.8,3.7
			c-1.6,0.9-3.5,1.3-5.3,1.3C121.6,134,119.8,133.5,118.2,132.6z M126.4,129.5c1-0.5,1.8-1.4,2.3-2.3c0.6-1.2,0.9-2.5,0.9-3.8
			s-0.3-2.6-0.9-3.8c-0.5-1-1.3-1.8-2.2-2.3c-0.9-0.5-1.9-0.8-3-0.8s-2.1,0.3-3,0.8s-1.7,1.3-2.2,2.3c-0.6,1.2-0.8,2.5-0.8,3.8
			c-0.1,1.8,0.5,3.7,1.7,5.1c1.1,1.2,2.6,1.8,4.2,1.8C124.5,130.3,125.5,130,126.4,129.5z"/>
		<path d="M137,117.9c0.8-1.5,2-2.8,3.5-3.7c1.5-0.9,3.1-1.3,4.9-1.3c1.5,0,2.9,0.3,4.2,0.9c1.1,0.6,2.1,1.4,2.9,2.4v-3h4.2v20.5
			h-4.2v-3c-0.8,1-1.8,1.8-2.9,2.4c-2.9,1.4-6.3,1.3-9-0.4c-1.5-0.9-2.7-2.2-3.5-3.8c-0.9-1.7-1.3-3.6-1.3-5.5
			C135.7,121.5,136.1,119.6,137,117.9z M151.5,119.7c-0.5-1-1.3-1.8-2.3-2.4c-0.9-0.5-1.9-0.8-3-0.8c-2.2,0-4.3,1.2-5.3,3.1
			c-0.6,1.1-0.9,2.4-0.9,3.6c0,1.3,0.3,2.6,0.9,3.7c0.5,1,1.3,1.8,2.3,2.4c1.9,1.1,4.1,1.1,6,0c1-0.6,1.8-1.4,2.3-2.4
			c0.6-1.1,0.9-2.4,0.9-3.7C152.4,122.1,152.1,120.9,151.5,119.7L151.5,119.7z"/>
		<path d="M165.4,106.2v27.4h-4.2v-27.4C161.2,106.2,165.4,106.2,165.4,106.2z"/>
		<g>
			<g class="st2">
			</g>
			<g>
				<path class="st3" d="M667.8,142l1-1.3l3.3,2.4l-1,1.3L667.8,142z"/>
				<path class="st3" d="M666.5,138l0.3-1.6l4.1,0.8l-0.3,1.6L666.5,138z"/>
				<path class="st3" d="M667,134.1l3.3-2.4l1,1.3l-3.3,2.4L667,134.1z"/>
				<path class="st3" d="M665.1,140.9c0.2-0.4,0-0.9-0.4-1.1l0,0l-2.2-0.9c-1.7-0.7-2.4-2.6-1.7-4.3c0.3-0.8,1-1.4,1.8-1.7l2.6-1
					l1.5-4.5c0.1-0.4,0.5-0.6,0.9-0.5l3.1,0.4c0.4,0.1,0.9-0.2,0.9-0.7c0-0.1,0-0.3,0-0.4l-0.6-1.9c-1-3.1-1.3-6.5-0.6-9.7H657V155
					l2-7.9c0.4-1.5,1.6-2.7,3.2-3l1.3-0.3c0.2-0.1,0.5-0.2,0.6-0.4L665.1,140.9z"/>
				<path class="st3" d="M676.5,142.6c0.1-0.3,0.4-0.5,0.8-0.5h9.3l0.2-0.2c0.2-0.2,0.4-0.5,0.6-0.8l5-10.1l-1-0.5
					c-0.4-0.2-0.9,0-1.1,0.4l0,0l-2.6,5.8l-1.5-0.7l2.6-5.8l0.1-0.1l3.5-8l-0.9-0.5c-0.4-0.2-0.8-0.1-1,0.3l-3.4,9.3l-0.8,2.2
					l-1.5-0.6l0.8-2.2l3.3-9.1c0-0.1,0.1-0.2,0.2-0.3l1.1-3.1l-1.7-0.6c-0.4-0.2-0.9,0.1-1,0.5l-1.4,3.7c0,0.1,0,0.2-0.1,0.3
					l-3.8,10.3l0,0l-0.2,0.4l-1.5-0.6l0.2-0.4l3.8-10.3l-1.6-0.7c-0.4-0.2-0.9,0-1.1,0.5v0.1l-3.6,12.1c-0.1,0.4-0.6,0.7-1,0.5
					c-0.3-0.1-0.5-0.4-0.6-0.7l-0.4-3.2c-0.2-1.3-1.4-2.2-2.7-2.1h-0.1c-0.4,0.1-0.7,0.5-0.7,0.9l2.1,13.2c0.1,0.6,0,1.2-0.4,1.7
					L663.8,160H674l6.9-12.4l-4.2-4.2C676.4,143.3,676.3,142.9,676.5,142.6L676.5,142.6z"/>
				<path class="st3" d="M698.2,151.1H696c-0.4,0-0.8-0.4-0.8-0.8c0-0.1,0-0.1,0-0.2l0.4-2.1c0.1-0.4-0.2-0.9-0.6-1
					c-0.1,0-0.1,0-0.2,0H694l-1.4,3.6c-0.1,0.3-0.4,0.5-0.8,0.5h-1.6v4.1h1c0.7,0,1.3,0.3,1.7,0.7l0.7,0.7c0.2,0.2,0.4,0.2,0.6,0.2
					h3.6c0.4,0,0.8-0.3,0.8-0.7l0.4-4.1C699.1,151.6,698.7,151.2,698.2,151.1C698.2,151.1,698.2,151.1,698.2,151.1L698.2,151.1z"/>
				<path class="st3" d="M701.6,143.7h-22.4l3.5,3.5c0.2,0.2,0.2,0.4,0.2,0.6v11.4c0,0.4,0.4,0.8,0.8,0.8h17.9
					c0.4,0,0.8-0.4,0.8-0.8v-14.6C702.4,144.1,702.1,143.7,701.6,143.7L701.6,143.7z M700.6,152.1l-0.4,4.1
					c-0.1,1.2-1.2,2.2-2.4,2.2h-3.6c-0.7,0-1.3-0.3-1.7-0.7l-0.7-0.7c-0.2-0.2-0.4-0.2-0.6-0.2h-0.9v0.8c0,0.4-0.4,0.8-0.8,0.8h-4.1
					c-0.4,0-0.8-0.4-0.8-0.8v-9c0-0.4,0.4-0.8,0.8-0.8h4.1c0.4,0,0.8,0.4,0.8,0.8v0.8h1.1l1.4-3.6c0.1-0.3,0.4-0.5,0.8-0.5h1.3
					c1.4,0,2.4,1.1,2.4,2.4c0,0.2,0,0.3-0.1,0.5l-0.2,1.1h1.3c1.4,0,2.4,1.1,2.4,2.4C700.6,152,700.6,152.1,700.6,152.1L700.6,152.1
					z"/>
				<path class="st3" d="M686.2,149.4h2.4v7.3h-2.4V149.4z"/>
			</g>
			<text transform="matrix(1 0 0 1 623.6321 180.9501)" class="st4 st5 st6">Marketing Exposure</text>
			<rect x="622.8" y="188.7" class="st7" width="113.7" height="33.3"/>
			<text transform="matrix(1 0 0 1 624.1285 194.3515)" class="st8 st9">To expand service line, my design </text>
			<text transform="matrix(1 0 0 1 630.6285 202.3515)" class="st8 st9">needs to increase consumers </text>
			<text transform="matrix(1 0 0 1 627.1285 210.2515)" class="st8 st9">awareness along each possible </text>
			<text transform="matrix(1 0 0 1 660.7285 218.2515)" class="st8 st9">touch point</text>
		</g>
		<g>
			<g class="st2">
			</g>
			<text transform="matrix(1 0 0 1 1121.8613 180.9501)" class="st4 st5 st6">Refine UI&amp;UX</text>
			<rect x="1103.8" y="188.8" class="st7" width="109.2" height="41.2"/>
			<text transform="matrix(1 0 0 1 1110.4052 194.3964)" class="st8 st9">The old uiux system do not fit </text>
			<text transform="matrix(1 0 0 1 1109.6051 202.3964)" class="st8 st9">user experience. The ui is also </text>
			<text transform="matrix(1 0 0 1 1104.8052 210.2964)" class="st8 st9">outdated, my goal is to redesign </text>
			<text transform="matrix(1 0 0 1 1105.4052 218.2964)" class="st8 st9">the ui design and make the flow </text>
			<text transform="matrix(1 0 0 1 1138.2052 226.1964)" class="st8 st9">user friendly</text>
			<g>
				<path class="st3" d="M1171,114.4v50.5h-25.2v-50.5C1145.8,114.4,1171,114.4,1171,114.4z M1158.4,160.2c-0.9,0-1.6,0.7-1.6,1.6
					c0,0.9,0.7,1.6,1.6,1.6s1.6-0.7,1.6-1.6S1159.3,160.2,1158.4,160.2z M1169.5,120.7h-22.1v37.9h22.1V120.7z M1164.7,117.6h-12.6
					v0.8h12.6V117.6z"/>
				<path class="st3" d="M1161.6,148.4c0,0.9-0.7,1.6-1.6,1.6h-1.6c-0.5,0-1-0.3-1.3-0.7l0,0l0,0c-0.1-0.1-0.1-0.2-0.2-0.3
					c-1-1.7-1.5-2.7-1.6-2.9c-0.2-0.3-0.1-0.7,0.1-0.8c0.3-0.1,0.5,0.1,0.7,0.4c0.1,0.2,0.3,0.5,0.6,1v-4c0-0.3,0.3-0.6,0.6-0.6
					s0.6,0.3,0.6,0.6v2.4V145c0-0.3,0.3-0.5,0.6-0.5c0.3,0,0.6,0.3,0.6,0.6c0-0.3,0.3-0.6,0.6-0.6c0.3,0,0.6,0.3,0.6,0.6
					c0-0.3,0.3-0.6,0.6-0.6s0.6,0.3,0.6,0.6v3.3H1161.6z M1166.3,132.7v6.3h-15.8v-6.3H1166.3z M1154.2,134.8c-0.2,0-0.2,0-0.4,0.1
					c-0.2,0.1-0.2,0.1-0.2,0.2c-0.1,0.1-0.1,0.1-0.1,0.3s0,0.2,0.2,0.4c0.2,0.1,0.2,0.1,0.5,0.2c0.2,0.1,0.2,0.1,0.3,0.1
					c0.1,0.1,0.1,0.1,0.1,0.1c0,0.1,0,0.1,0,0.2c0,0.2,0,0.2-0.1,0.3s-0.1,0.1-0.3,0.1c-0.2,0-0.2,0-0.3-0.1c-0.1,0-0.1,0-0.2-0.1
					l-0.1-0.1l-0.2,0.2c0.3,0.3,0.3,0.3,0.7,0.3c0.2,0,0.2,0,0.4-0.1c0.2-0.1,0.2-0.1,0.3-0.2c0.1-0.1,0.1-0.1,0.1-0.3
					s0-0.2-0.1-0.3s-0.1-0.1-0.2-0.2c-0.1-0.1-0.1-0.1-0.3-0.1c-0.2-0.1-0.2-0.1-0.3-0.1c-0.1-0.1-0.1-0.1-0.1-0.1
					c0-0.1,0-0.1,0-0.2c0-0.2,0-0.2,0.1-0.2c0.1-0.1,0.1-0.1,0.3-0.1c0.1,0,0.1,0,0.3,0c0.1,0,0.1,0,0.2,0.1l0.1,0.1l0.2-0.2
					c-0.1-0.1-0.1-0.1-0.3-0.2C1154.4,134.8,1154.4,134.8,1154.2,134.8L1154.2,134.8z M1155.9,135.3c-0.2,0-0.2,0-0.4,0.1
					c-0.2,0.1-0.2,0.1-0.2,0.3c-0.1,0.2-0.1,0.2-0.1,0.5c0,0.4,0,0.4,0.2,0.6c0.2,0.2,0.2,0.2,0.5,0.2s0.3,0,0.5-0.1l0.1-0.1
					l-0.1-0.2c-0.1,0.1-0.1,0.1-0.2,0.1s-0.1,0-0.2,0c-0.2,0-0.2,0-0.3-0.1c-0.1-0.1-0.1-0.1-0.1-0.3v-0.1h1.1c0-0.1,0-0.1,0-0.1
					c0-0.4,0-0.4-0.2-0.6C1156.2,135.3,1156.2,135.3,1155.9,135.3L1155.9,135.3z M1157.5,135.3c-0.2,0-0.2,0-0.4,0.1h-0.2l0.1,0.2
					c0.3-0.1,0.3-0.1,0.4-0.1c0.2,0,0.2,0,0.3,0.1c0.1,0.1,0.1,0.1,0.1,0.2v0.1v0.1h-0.3c-0.3,0-0.3,0-0.5,0.1s-0.2,0.1-0.2,0.4
					c0,0.2,0,0.2,0.1,0.4c0.1,0.1,0.1,0.1,0.4,0.1s0.3,0,0.5-0.2c0,0.1,0,0.1,0.1,0.2c0.1,0.1,0.1,0.1,0.2,0.1l0.1-0.2
					c-0.1,0-0.1,0-0.1-0.1c0,0,0,0,0-0.1v-0.1v-0.8c0-0.3,0-0.3-0.1-0.4C1157.8,135.3,1157.8,135.3,1157.5,135.3L1157.5,135.3z
					 M1160.5,135.3c-0.2,0-0.2,0-0.4,0.1c-0.2,0.1-0.2,0.1-0.3,0.3c-0.1,0.2-0.1,0.2-0.1,0.5c0,0.4,0,0.4,0.2,0.6
					c0.2,0.2,0.2,0.2,0.5,0.2c0.2,0,0.2,0,0.4-0.1l0.1-0.1l-0.1-0.2c-0.1,0.1-0.1,0.1-0.2,0.1s-0.1,0-0.2,0c-0.2,0-0.2,0-0.3-0.1
					c-0.1-0.1-0.1-0.1-0.1-0.5c0-0.3,0-0.3,0.1-0.5s0.1-0.2,0.3-0.2c0.1,0,0.1,0,0.2,0s0.1,0,0.1,0.1h0.1l0.1-0.2
					c-0.1-0.1-0.1-0.1-0.2-0.1S1160.6,135.3,1160.5,135.3L1160.5,135.3z M1159.4,135.3c-0.2,0-0.2,0-0.3,0.1
					c-0.1,0.1-0.1,0.1-0.1,0.2v0.1v-0.3h-0.2v1.7h0.3V136c0.1-0.2,0.1-0.2,0.1-0.4c0.1-0.1,0.1-0.1,0.2-0.1h0.1h0.1l0.1-0.3
					C1159.5,135.3,1159.5,135.3,1159.4,135.3L1159.4,135.3z M1161.6,134.6h-0.3v2.3h0.3v-1.2c0.1-0.1,0.1-0.1,0.2-0.2
					c0.1-0.1,0.1-0.1,0.2-0.1s0.1,0,0.2,0.1s0.1,0.1,0.1,0.2v0.1v1.2h0.3v-1.2c0-0.2,0-0.2-0.1-0.4s-0.1-0.1-0.4-0.1s-0.3,0-0.4,0.2
					l-0.1,0.1L1161.6,134.6L1161.6,134.6z M1157.8,136.2v0.4c-0.1,0.3-0.1,0.3-0.4,0.3c-0.1,0-0.1,0-0.2-0.1s-0.1-0.1-0.1-0.2
					c0-0.3,0-0.3,0.4-0.3h0.1L1157.8,136.2z M1155.9,135.5c0.2,0,0.2,0,0.3,0.1c0.1,0.1,0.1,0.1,0.1,0.3v0.1l0,0h-0.8
					C1155.5,135.5,1155.5,135.5,1155.9,135.5L1155.9,135.5z"/>
			</g>
		</g>
		<g>
			<g class="st2">
			</g>
			<text transform="matrix(1 0 0 1 877.1526 180.9501)" class="st4 st5 st6">Service Design</text>
			<rect x="862.2" y="188.8" class="st7" width="113.7" height="33.3"/>
			<text transform="matrix(1 0 0 1 864.8191 194.3964)" class="st8 st9">Understand the current user flow </text>
			<text transform="matrix(1 0 0 1 874.3191 202.3964)" class="st8 st9">of shared flight experience. </text>
			<text transform="matrix(1 0 0 1 863.4191 210.2964)" class="st8 st9">Improve on the shortage and find </text>
			<text transform="matrix(1 0 0 1 871.3191 218.2964)" class="st8 st9">potential market opportunity</text>
			<g>
				<path class="st3" d="M913,120.1c-0.7,2.6,0.7,4.6,2.8,5.5c-3.1,1.5-5.4,5.1-5,8.5c0,0.1,0.1,0.2,0.1,0.3
					c0.1,0.3,0.4,0.5,0.7,0.5c0.1,0,0.2,0,0.4,0c4.3,0,8.6,0.2,12.9,0.2c0.3,0,0.6-0.2,0.9-0.4c0.2-0.3,0.3-0.6,0.2-0.9
					c-1.2-3.1-1-6.8-4.6-8.4c-0.1,0-0.1-0.1-0.2-0.1c1.1-0.6,2-1.6,2.4-2.8c0.8-2.7-1.3-5.5-3.9-6.2c-1.4-0.4-2.8-0.2-4.1,0.5
					S913.3,118.7,913,120.1L913,120.1z M922,128.9c0.9,1.3,1.1,2.8,1.4,4.2c-3.6,0.1-7.1,0.2-10.7,0.2c0.6-2.5,1.5-4.6,4.1-5.7
					C918.8,126.7,920.7,127.1,922,128.9L922,128.9z M921.3,122.1c-0.5,1.2-2.5,2.1-3.7,2.1h-0.1c-1.3-0.6-2.6-1.3-2.5-2.9
					c0-1,0.5-1.8,1.3-2.4c0.8-0.5,1.8-0.7,2.7-0.4C920.4,118.9,922,120.5,921.3,122.1L921.3,122.1z"/>
				<path class="st3" d="M929.7,130.7c-0.1,1.7-0.9,3.3-2.1,4.4c-1.3,1.1-2.9,1.7-4.6,1.6c-1.4-0.1-1.4,2.1,0,2.2
					c2.3,0.1,4.5-0.7,6.1-2.3c1.7-1.5,2.6-3.7,2.7-5.9C931.9,129.3,929.7,129.3,929.7,130.7L929.7,130.7z"/>
				<path class="st3" d="M922.7,113.7c-1.4,0-1.4,2.1,0,2.1c1.9,0.1,3.6,1,4.9,2.4c1.3,1.4,1.9,3.3,1.8,5.1c-0.1,1.4,2.1,1.4,2.2,0
					l0,0c0.1-2.5-0.8-4.9-2.4-6.7C927.4,114.9,925.1,113.8,922.7,113.7L922.7,113.7z"/>
				<path class="st3" d="M914.4,113.7c-2.3-0.1-4.5,0.7-6.1,2.3c-1.7,1.5-2.7,3.7-2.7,5.9c-0.1,1.4,2.1,1.4,2.1,0
					c0.1-1.7,0.9-3.3,2.1-4.4c1.3-1.1,2.9-1.7,4.6-1.6C915.8,116,915.8,113.8,914.4,113.7L914.4,113.7z"/>
				<path class="st3" d="M914.4,138.9c1.4,0,1.4-2.1,0-2.1c-1.9-0.1-3.6-1-4.9-2.4c-1.3-1.4-1.9-3.3-1.8-5.1c0.1-1.4-2.1-1.4-2.2,0
					c-0.1,2.5,0.8,4.8,2.5,6.7C909.7,137.7,912,138.8,914.4,138.9z"/>
				<path class="st3" d="M935.4,138.8c-1.1,0.2-2.3,0.3-3.5,0.2c-0.7,0-1.7-0.3-2.5-0.1c-0.2-0.1-0.5-0.2-0.8-0.1
					c-0.3,0.1-0.5,0.3-0.6,0.5c-1.2,2.1-3.3,3.8-4.9,5.5c-1,1-2,2-3.1,3c-0.4,0.3-0.7,0.7-1.1,1c-0.6-0.7-1.1-1.3-1.6-1.8
					c-2.9-3-6-5.8-8.9-8.7c-0.3-0.2-0.6-0.3-1-0.2c-0.3,0.1-0.6,0.4-0.8,0.7c-1.7,1.4-3.4,3-5.2,4.4c-0.3,0.2-0.4,0.6-0.3,0.9
					c0.1,0.3,0.3,0.6,0.7,0.7c0.9,1.4,2.6,2.3,3.9,3.3c1.5,1.2,3,2.4,4.4,3.7s3,2.7,4.5,4.1c1.2,1.1,2.9,2.3,3.7,3.7l0,0
					c0.2,0.3,0.6,0.5,1,0.5s0.8-0.3,0.9-0.7c0.8-0.7,1.6-1.5,2.5-2.3l0,0c0.4-0.4,0.9-0.8,1.4-1.2c0.2-0.1,0.3-0.2,0.5-0.3
					c0.4-0.1,0.7-0.5,0.8-0.9c1.4-0.9,2.8-2.1,4.1-3.1c1.7-1.3,3.7-2.5,5.3-4l0,0c0.4,0,0.8-0.2,0.9-0.7c0.1-0.2,0.1-0.5,0-0.7
					c-0.2-0.8-0.3-1.5-0.2-2.3c0-0.1,0-0.2,0-0.3c0.1-0.9,0.3-1.9,0.7-2.7c0.4-0.3,0.6-0.9,0.4-1.3
					C936.5,139,935.9,138.7,935.4,138.8L935.4,138.8z M931.6,143.4c0.5,0.5,1.1,0.9,1.8,1c0,0.3,0,0.5,0,0.7l0,0
					c-0.8-0.2-1.5-0.5-2-1c-0.8-0.8-1.2-1.9-1.2-3c0.2,0,0.5,0.1,0.7,0.1C930.8,142,931.1,142.8,931.6,143.4L931.6,143.4z
					 M933.6,142.2c-0.1,0-0.3-0.1-0.4-0.2c-0.2-0.1-0.2-0.3-0.2-0.5v-0.3h0.9C933.7,141.5,933.6,141.9,933.6,142.2L933.6,142.2z
					 M919.6,157.2c-0.9-1.1-2-2.2-3.1-3.1h0.1c0.1-0.1,0.2-0.2,0.3-0.3c0.3-0.3,0.3-0.7,0.1-1.1c-0.2-0.4-0.6-0.5-1-0.5
					c-0.4,0.1-0.7,0.4-1,0.7c-0.8-0.7-1.7-1.3-2.5-2l0.6-0.6l0,0c0.4-0.4,0.8-0.8,1.1-1.3c0.4-0.9-0.4-1.9-1.4-1.4
					c-0.5,0.3-0.9,0.8-1.2,1.2c-0.2,0.2-0.4,0.5-0.6,0.7c-0.9-0.8-1.8-1.7-2.7-2.5l0,0c0.4-0.3,0.7-0.7,0.9-1.1
					c0.1-0.3,0-0.7-0.2-0.9s-0.6-0.3-0.9-0.3c-0.5,0.2-0.9,0.5-1.2,0.9v0.1c-0.9-0.7-1.8-1.4-2.8-2c1.3-1,2.5-2.1,3.6-3.3
					c2.7,3.2,6.1,5.9,9,8.8c1.5,1.6,3.5,4,5.6,5.4l-0.7,0.7C920.9,156,920.2,156.6,919.6,157.2L919.6,157.2z M928,150.1
					c-1.4,1-2.8,2-4.2,3c-1.3-0.8-2.4-1.7-3.4-2.8c1.6-0.9,3.1-2.8,4.2-3.8s2.5-2.3,3.7-3.6l0,0c0.3,1,0.8,2,1.6,2.7
					c0.7,0.6,1.4,1.1,2.3,1.4C930.7,148,929.3,149.1,928,150.1L928,150.1z"/>
			</g>
		</g>
	</g>
</g>
</svg>
