<?xml version="1.0" encoding="utf-8"?>
<!-- Generator: Adobe Illustrator 24.1.0, SVG Export Plug-In . SVG Version: 6.00 Build 0)  -->
<svg version="1.1" id="图层_1" xmlns="http://www.w3.org/2000/svg" xmlns:xlink="http://www.w3.org/1999/xlink" x="0px" y="0px"
	 viewBox="0 0 1252.1 332.8" style="enable-background:new 0 0 1252.1 332.8;" xml:space="preserve">
<style type="text/css">
	.st0{fill:#FFFFFF;}
	.st1{clip-path:url(#SVGID_2_);}
	.st2{fill:none;}
	.st3{fill:#FF69B4;}
	.st4{opacity:0.87;enable-background:new    ;}
	.st5{font-family:'Poppins-Medium';}
	.st6{font-size:10.8849px;}
	.st7{font-family:'Poppins-Regular';}
	.st8{font-size:6.3496px;}
</style>
<rect class="st0" width="1252.1" height="361.5"/>
<g>
	<defs>
		<rect id="SVGID_1_" x="0.8" y="0.6" width="1251.3" height="332.2"/>
	</defs>
	<clipPath id="SVGID_2_">
		<use xlink:href="#SVGID_1_"  style="overflow:visible;"/>
	</clipPath>
	<g class="st1">
		<rect class="st2" width="1253.7" height="361.5"/>
		<path d="M105.6,115.3c-0.6-1.2-1.6-2.2-2.8-2.9c-1.3-0.7-2.7-1-4.1-1c-1.6,0-3.2,0.4-4.6,1.2c-1.4,0.8-2.5,1.9-3.2,3.3
			c-0.8,1.5-1.2,3.2-1.1,4.9c0,1.7,0.4,3.3,1.1,4.8c0.7,1.4,1.8,2.5,3.2,3.3c1.4,0.8,3,1.2,4.6,1.2c2,0.1,4-0.6,5.6-1.9
			c1.5-1.4,2.4-3.2,2.6-5.2h-9.7v-3.3h14.2v3.3c-0.9,6.4-6.3,11.1-12.7,11c-2.3,0-4.6-0.6-6.6-1.7c-2-1.1-3.6-2.7-4.8-4.7
			c-1.2-2.1-1.8-4.4-1.8-6.8s0.6-4.7,1.8-6.8c1.1-2,2.8-3.6,4.8-4.7c4.4-2.4,9.7-2.2,13.9,0.3c2.1,1.3,3.8,3.3,4.6,5.7L105.6,115.3z
			"/>
		<path d="M118.2,132.6c-1.5-0.9-2.8-2.2-3.7-3.7c-0.9-1.7-1.4-3.6-1.3-5.5c0-1.9,0.4-3.8,1.4-5.5c0.9-1.6,2.2-2.8,3.7-3.7
			c3.3-1.7,7.3-1.7,10.6,0c1.6,0.9,2.9,2.1,3.7,3.7c0.9,1.7,1.4,3.6,1.4,5.5s-0.4,3.8-1.4,5.5c-0.9,1.6-2.2,2.9-3.8,3.7
			c-1.6,0.9-3.5,1.3-5.3,1.3C121.6,134,119.8,133.5,118.2,132.6z M126.4,129.5c1-0.5,1.8-1.4,2.3-2.3c0.6-1.2,0.9-2.5,0.9-3.8
			s-0.3-2.6-0.9-3.8c-0.5-1-1.3-1.8-2.2-2.3c-0.9-0.5-1.9-0.8-3-0.8s-2.1,0.3-3,0.8s-1.7,1.3-2.2,2.3c-0.6,1.2-0.8,2.5-0.8,3.8
			c-0.1,1.8,0.5,3.7,1.7,5.1c1.1,1.2,2.6,1.8,4.2,1.8C124.5,130.3,125.5,130,126.4,129.5z"/>
		<path d="M137,117.9c0.8-1.5,2-2.8,3.5-3.7c1.5-0.9,3.1-1.3,4.9-1.3c1.5,0,2.9,0.3,4.2,0.9c1.1,0.6,2.1,1.4,2.9,2.4v-3h4.2v20.5
			h-4.2v-3c-0.8,1-1.8,1.8-2.9,2.4c-2.9,1.4-6.3,1.3-9-0.4c-1.5-0.9-2.7-2.2-3.5-3.8c-0.9-1.7-1.3-3.6-1.3-5.5
			C135.7,121.5,136.1,119.6,137,117.9z M151.5,119.7c-0.5-1-1.3-1.8-2.3-2.4c-0.9-0.5-1.9-0.8-3-0.8c-2.2,0-4.3,1.2-5.3,3.1
			c-0.6,1.1-0.9,2.4-0.9,3.6c0,1.3,0.3,2.6,0.9,3.7c0.5,1,1.3,1.8,2.3,2.4c1.9,1.1,4.1,1.1,6,0c1-0.6,1.8-1.4,2.3-2.4
			c0.6-1.1,0.9-2.4,0.9-3.7C152.4,122.1,152.1,120.9,151.5,119.7L151.5,119.7z"/>
		<path d="M165.4,106.2v27.4h-4.2v-27.4C161.2,106.2,165.4,106.2,165.4,106.2z"/>
		<g>
			<g>
				<g>
					<path class="st3" d="M720.2,116.6l1-1.2l3.2,2.3l-1,1.2L720.2,116.6z"/>
					<path class="st3" d="M719,112.8l0.3-1.5l3.9,0.8l-0.3,1.5L719,112.8z"/>
					<path class="st3" d="M719.5,109.1l3.2-2.3l1,1.2l-3.2,2.3L719.5,109.1z"/>
					<path class="st3" d="M717.6,115.6c0.2-0.4,0-0.9-0.4-1.1l0,0l-2.1-0.9c-1.6-0.7-2.3-2.5-1.6-4.1c0.3-0.8,1-1.3,1.7-1.6l2.5-1
						l1.4-4.3c0.1-0.4,0.5-0.6,0.9-0.5l3,0.4c0.4,0.1,0.9-0.2,0.9-0.7c0-0.1,0-0.3,0-0.4l-0.6-1.8c-1-3-1.2-6.2-0.6-9.3h-12.8v38.7
						l1.9-7.6c0.4-1.4,1.5-2.6,3.1-2.9l1.2-0.3c0.2-0.1,0.5-0.2,0.6-0.4L717.6,115.6z"/>
					<path class="st3" d="M728.6,117.2c0.1-0.3,0.4-0.5,0.8-0.5h8.9l0.2-0.2c0.2-0.2,0.4-0.5,0.6-0.8l4.8-9.7l-1-0.5
						c-0.4-0.2-0.9,0-1.1,0.4l0,0l-2.5,5.6l-1.4-0.7l2.5-5.6l0.1-0.1l3.4-7.7l-0.9-0.5c-0.4-0.2-0.8-0.1-1,0.3l-3.3,8.9l-0.8,2.1
						l-1.4-0.6l0.8-2.1l3.2-8.7c0-0.1,0.1-0.2,0.2-0.3l1.1-3l-1.6-0.6c-0.4-0.2-0.9,0.1-1,0.5l-1.3,3.5c0,0.1,0,0.2-0.1,0.3
						l-3.6,9.9l0,0l-0.2,0.4l-1.4-0.6l0.2-0.4l3.6-9.9l-1.5-0.7c-0.4-0.2-0.9,0-1.1,0.5v0.1l-3.4,11.6c-0.1,0.4-0.6,0.7-1,0.5
						c-0.3-0.1-0.5-0.4-0.6-0.7l-0.4-3.1c-0.2-1.2-1.3-2.1-2.6-2h-0.1c-0.4,0.1-0.7,0.5-0.7,0.9l2,12.6c0.1,0.6,0,1.1-0.4,1.6
						l-10.2,15.6h9.8l6.6-11.9l-4-4C728.5,117.9,728.4,117.5,728.6,117.2L728.6,117.2z"/>
					<path class="st3" d="M749.3,125.3h-2.1c-0.4,0-0.8-0.4-0.8-0.8c0-0.1,0-0.1,0-0.2l0.4-2c0.1-0.4-0.2-0.9-0.6-1
						c-0.1,0-0.1,0-0.2,0h-0.8l-1.3,3.4c-0.1,0.3-0.4,0.5-0.8,0.5h-1.5v3.9h1c0.7,0,1.2,0.3,1.6,0.7l0.7,0.7
						c0.2,0.2,0.4,0.2,0.6,0.2h3.4c0.4,0,0.8-0.3,0.8-0.7l0.4-3.9C750.2,125.8,749.8,125.4,749.3,125.3L749.3,125.3L749.3,125.3z"/>
					<path class="st3" d="M752.6,118.2h-21.5l3.4,3.4c0.2,0.2,0.2,0.4,0.2,0.6v10.9c0,0.4,0.4,0.8,0.8,0.8h17.1
						c0.4,0,0.8-0.4,0.8-0.8v-14C753.4,118.6,753.1,118.2,752.6,118.2L752.6,118.2z M751.6,126.3l-0.4,3.9c-0.1,1.1-1.1,2.1-2.3,2.1
						h-3.4c-0.7,0-1.2-0.3-1.6-0.7l-0.7-0.7c-0.2-0.2-0.4-0.2-0.6-0.2h-0.9v0.8c0,0.4-0.4,0.8-0.8,0.8h-3.9c-0.4,0-0.8-0.4-0.8-0.8
						v-8.6c0-0.4,0.4-0.8,0.8-0.8h3.9c0.4,0,0.8,0.4,0.8,0.8v0.8h1.1l1.3-3.4c0.1-0.3,0.4-0.5,0.8-0.5h1.2c1.3,0,2.3,1.1,2.3,2.3
						c0,0.2,0,0.3-0.1,0.5l-0.2,1.1h1.2c1.3,0,2.3,1.1,2.3,2.3C751.6,126.2,751.6,126.3,751.6,126.3L751.6,126.3z"/>
					<path class="st3" d="M737.8,123.7h2.3v7h-2.3V123.7z"/>
				</g>
				<text transform="matrix(1 0 0 1 677.9039 153.9316)" class="st4 st5 st6">Marketing Exposure</text>
				<rect x="677.1" y="161.4" class="st2" width="108.9" height="31.9"/>
				<text transform="matrix(1 0 0 1 678.3795 166.7705)" class="st7 st8">To expand service line, my design </text>
				<text transform="matrix(1 0 0 1 684.6071 174.4336)" class="st7 st8">needs to increase consumers </text>
				<text transform="matrix(1 0 0 1 681.2535 182.001)" class="st7 st8">awareness along each possible </text>
				<text transform="matrix(1 0 0 1 713.442 189.665)" class="st7 st8">touch point</text>
			</g>
		</g>
		<g>
			<g>
				<text transform="matrix(1 0 0 1 896.4536 157.3501)" class="st4 st5 st6">Service Design</text>
				<rect x="882.1" y="164.9" class="st2" width="108.9" height="31.9"/>
				<text transform="matrix(1 0 0 1 884.6381 170.2314)" class="st7 st8">Understand the current user flow </text>
				<text transform="matrix(1 0 0 1 893.7397 177.8955)" class="st7 st8">of shared flight experience. </text>
				<text transform="matrix(1 0 0 1 883.2973 185.4629)" class="st7 st8">Improve on the shortage and find </text>
				<text transform="matrix(1 0 0 1 890.8647 193.127)" class="st7 st8">potential market opportunity</text>
				<g>
					<path class="st3" d="M930.3,97.7c-0.7,2.7,0.7,4.8,2.9,5.7c-3.2,1.6-5.6,5.3-5.2,8.8c0,0.1,0.1,0.2,0.1,0.3
						c0.1,0.3,0.4,0.5,0.7,0.5c0.1,0,0.2,0,0.4,0c4.5,0,9,0.2,13.4,0.2c0.3,0,0.6-0.2,0.9-0.4c0.2-0.3,0.3-0.6,0.2-0.9
						c-1.2-3.2-1-7.1-4.8-8.7c-0.1,0-0.1-0.1-0.2-0.1c1.1-0.6,2.1-1.7,2.5-2.9c0.8-2.8-1.4-5.7-4.1-6.5c-1.5-0.4-2.9-0.2-4.3,0.5
						C931.7,95,930.6,96.2,930.3,97.7L930.3,97.7z M939.7,106.8c0.9,1.4,1.1,2.9,1.5,4.4c-3.7,0.1-7.4,0.2-11.1,0.2
						c0.6-2.6,1.6-4.8,4.3-5.9C936.3,104.5,938.3,104.9,939.7,106.8L939.7,106.8z M938.9,99.7c-0.5,1.2-2.6,2.2-3.9,2.2H935
						c-1.4-0.6-2.7-1.4-2.6-3c0-1,0.5-1.9,1.4-2.5c0.8-0.5,1.9-0.7,2.8-0.4C938,96.4,939.7,98.1,938.9,99.7L938.9,99.7z"/>
					<path class="st3" d="M947.7,108.7c-0.1,1.8-0.9,3.4-2.2,4.6c-1.4,1.1-3,1.8-4.8,1.7c-1.5-0.1-1.5,2.2,0,2.3
						c2.4,0.1,4.7-0.7,6.4-2.4c1.8-1.6,2.7-3.9,2.8-6.1C950,107.2,947.7,107.2,947.7,108.7L947.7,108.7z"/>
					<path class="st3" d="M940.4,91c-1.5,0-1.5,2.2,0,2.2c2,0.1,3.7,1,5.1,2.5c1.4,1.5,2,3.4,1.9,5.3c-0.1,1.5,2.2,1.5,2.3,0l0,0
						c0.1-2.6-0.8-5.1-2.5-7C945.3,92.2,942.9,91.1,940.4,91L940.4,91z"/>
					<path class="st3" d="M931.8,91c-2.4-0.1-4.7,0.7-6.4,2.4c-1.8,1.6-2.8,3.9-2.8,6.1c-0.1,1.5,2.2,1.5,2.2,0
						c0.1-1.8,0.9-3.4,2.2-4.6c1.4-1.1,3-1.8,4.8-1.7C933.2,93.4,933.2,91.1,931.8,91L931.8,91z"/>
					<path class="st3" d="M931.8,117.2c1.5,0,1.5-2.2,0-2.2c-2-0.1-3.7-1-5.1-2.5s-2-3.4-1.9-5.3c0.1-1.5-2.2-1.5-2.3,0
						c-0.1,2.6,0.8,5,2.6,7C926.9,116,929.3,117.1,931.8,117.2z"/>
					<path class="st3" d="M953.6,117.1c-1.1,0.2-2.4,0.3-3.6,0.2c-0.7,0-1.8-0.3-2.6-0.1c-0.2-0.1-0.5-0.2-0.8-0.1
						c-0.3,0.1-0.5,0.3-0.6,0.5c-1.2,2.2-3.4,4-5.1,5.7c-1,1-2.1,2.1-3.2,3.1c-0.4,0.3-0.7,0.7-1.1,1c-0.6-0.7-1.1-1.4-1.7-1.9
						c-3-3.1-6.2-6-9.3-9.1c-0.3-0.2-0.6-0.3-1-0.2c-0.3,0.1-0.6,0.4-0.8,0.7c-1.8,1.5-3.5,3.1-5.4,4.6c-0.3,0.2-0.4,0.6-0.3,0.9
						c0.1,0.3,0.3,0.6,0.7,0.7c0.9,1.5,2.7,2.4,4.1,3.4c1.6,1.2,3.1,2.5,4.6,3.9c1.5,1.4,3.1,2.8,4.7,4.3c1.2,1.1,3,2.4,3.9,3.9l0,0
						c0.2,0.3,0.6,0.5,1,0.5c0.4,0,0.8-0.3,0.9-0.7c0.8-0.7,1.7-1.6,2.6-2.4l0,0c0.4-0.4,0.9-0.8,1.5-1.2c0.2-0.1,0.3-0.2,0.5-0.3
						c0.4-0.1,0.7-0.5,0.8-0.9c1.5-0.9,2.9-2.2,4.3-3.2c1.8-1.4,3.9-2.6,5.5-4.2l0,0c0.4,0,0.8-0.2,0.9-0.7c0.1-0.2,0.1-0.5,0-0.7
						c-0.2-0.8-0.3-1.6-0.2-2.4c0-0.1,0-0.2,0-0.3c0.1-0.9,0.3-2,0.7-2.8c0.4-0.3,0.6-0.9,0.4-1.4
						C954.8,117.3,954.1,117,953.6,117.1L953.6,117.1z M949.7,121.9c0.5,0.5,1.1,0.9,1.9,1c0,0.3,0,0.5,0,0.7l0,0
						c-0.8-0.2-1.6-0.5-2.1-1c-0.8-0.8-1.2-2-1.2-3.1c0.2,0,0.5,0.1,0.7,0.1C948.8,120.5,949.2,121.3,949.7,121.9L949.7,121.9z
						 M951.8,120.7c-0.1,0-0.3-0.1-0.4-0.2c-0.2-0.1-0.2-0.3-0.2-0.5v-0.3h0.9C951.9,119.9,951.8,120.4,951.8,120.7L951.8,120.7z
						 M937.2,136.3c-0.9-1.1-2.1-2.3-3.2-3.2h0.1c0.1-0.1,0.2-0.2,0.3-0.3c0.3-0.3,0.3-0.7,0.1-1.1c-0.2-0.4-0.6-0.5-1-0.5
						c-0.4,0.1-0.7,0.4-1,0.7c-0.8-0.7-1.8-1.4-2.6-2.1l0.6-0.6l0,0c0.4-0.4,0.8-0.8,1.1-1.4c0.4-0.9-0.4-2-1.5-1.5
						c-0.5,0.3-0.9,0.8-1.2,1.2c-0.2,0.2-0.4,0.5-0.6,0.7c-0.9-0.8-1.9-1.8-2.8-2.6l0,0c0.4-0.3,0.7-0.7,0.9-1.1
						c0.1-0.3,0-0.7-0.2-0.9c-0.2-0.2-0.6-0.3-0.9-0.3c-0.5,0.2-0.9,0.5-1.2,0.9v0.1c-0.9-0.7-1.9-1.5-2.9-2.1
						c1.4-1,2.6-2.2,3.7-3.4c2.8,3.3,6.4,6.1,9.4,9.2c1.6,1.7,3.6,4.2,5.8,5.6l-0.7,0.7C938.5,135,937.8,135.7,937.2,136.3
						L937.2,136.3z M945.9,128.9c-1.5,1-2.9,2.1-4.4,3.1c-1.4-0.8-2.5-1.8-3.5-2.9c1.7-0.9,3.2-2.9,4.4-4c1.1-1,2.6-2.4,3.9-3.7l0,0
						c0.3,1,0.8,2.1,1.7,2.8c0.7,0.6,1.5,1.1,2.4,1.5C948.7,126.7,947.3,127.9,945.9,128.9L945.9,128.9z"/>
				</g>
			</g>
		</g>
		<g>
			<g>
				<text transform="matrix(1 0 0 1 1105.5297 153.9316)" class="st4 st5 st6">Refine UI&amp;UX</text>
				<rect x="1088.2" y="161.5" class="st2" width="104.6" height="39.5"/>
				<text transform="matrix(1 0 0 1 1094.5551 166.813)" class="st7 st8">The old uiux system do not fit </text>
				<text transform="matrix(1 0 0 1 1093.7885 174.4766)" class="st7 st8">user experience. The ui is also </text>
				<text transform="matrix(1 0 0 1 1089.1898 182.0449)" class="st7 st8">outdated, my goal is to redesign </text>
				<text transform="matrix(1 0 0 1 1089.765 189.709)" class="st7 st8">the ui design and make the flow </text>
				<text transform="matrix(1 0 0 1 1121.1869 197.2764)" class="st7 st8">user friendly</text>
				<g>
					<path class="st3" d="M1152.6,85.4v48.4h-24.1V85.4C1128.5,85.4,1152.6,85.4,1152.6,85.4z M1140.5,129.3c-0.9,0-1.5,0.7-1.5,1.5
						s0.7,1.5,1.5,1.5s1.5-0.7,1.5-1.5C1142.1,129.9,1141.4,129.3,1140.5,129.3z M1151.2,91.4H1130v36.3h21.2V91.4z M1146.6,88.5
						h-12.1v0.8h12.1V88.5z"/>
					<path class="st3" d="M1143.6,118c0,0.9-0.7,1.5-1.5,1.5h-1.5c-0.5,0-1-0.3-1.2-0.7l0,0l0,0c-0.1-0.1-0.1-0.2-0.2-0.3
						c-1-1.6-1.4-2.6-1.5-2.8c-0.2-0.3-0.1-0.7,0.1-0.8c0.3-0.1,0.5,0.1,0.7,0.4c0.1,0.2,0.3,0.5,0.6,1v-3.8c0-0.3,0.3-0.6,0.6-0.6
						s0.6,0.3,0.6,0.6v2.3v-0.1c0-0.3,0.3-0.5,0.6-0.5c0.3,0,0.6,0.3,0.6,0.6c0-0.3,0.3-0.6,0.6-0.6c0.3,0,0.6,0.3,0.6,0.6
						c0-0.3,0.3-0.6,0.6-0.6s0.6,0.3,0.6,0.6L1143.6,118L1143.6,118L1143.6,118z M1148.1,102.9v6H1133v-6H1148.1z M1136.5,104.9
						c-0.2,0-0.2,0-0.4,0.1c-0.2,0.1-0.2,0.1-0.2,0.2c-0.1,0.1-0.1,0.1-0.1,0.3c0,0.2,0,0.2,0.2,0.4c0.2,0.1,0.2,0.1,0.5,0.2
						c0.2,0.1,0.2,0.1,0.3,0.1c0.1,0.1,0.1,0.1,0.1,0.1c0,0.1,0,0.1,0,0.2c0,0.2,0,0.2-0.1,0.3c-0.1,0.1-0.1,0.1-0.3,0.1
						c-0.2,0-0.2,0-0.3-0.1c-0.1,0-0.1,0-0.2-0.1l-0.1-0.1l-0.2,0.2c0.3,0.3,0.3,0.3,0.7,0.3c0.2,0,0.2,0,0.4-0.1
						c0.2-0.1,0.2-0.1,0.3-0.2c0.1-0.1,0.1-0.1,0.1-0.3c0-0.2,0-0.2-0.1-0.3c-0.1-0.1-0.1-0.1-0.2-0.2c-0.1-0.1-0.1-0.1-0.3-0.1
						c-0.2-0.1-0.2-0.1-0.3-0.1c-0.1-0.1-0.1-0.1-0.1-0.1c0-0.1,0-0.1,0-0.2c0-0.2,0-0.2,0.1-0.2c0.1-0.1,0.1-0.1,0.3-0.1
						c0.1,0,0.1,0,0.3,0c0.1,0,0.1,0,0.2,0.1l0.1,0.1l0.2-0.2c-0.1-0.1-0.1-0.1-0.3-0.2C1136.7,104.9,1136.7,104.9,1136.5,104.9
						L1136.5,104.9z M1138.1,105.4c-0.2,0-0.2,0-0.4,0.1s-0.2,0.1-0.2,0.3c-0.1,0.2-0.1,0.2-0.1,0.5c0,0.4,0,0.4,0.2,0.6
						c0.2,0.2,0.2,0.2,0.5,0.2s0.3,0,0.5-0.1l0.1-0.1l-0.1-0.2c-0.1,0.1-0.1,0.1-0.2,0.1c-0.1,0-0.1,0-0.2,0c-0.2,0-0.2,0-0.3-0.1
						c-0.1-0.1-0.1-0.1-0.1-0.3v-0.1h1.1c0-0.1,0-0.1,0-0.1c0-0.4,0-0.4-0.2-0.6C1138.4,105.4,1138.4,105.4,1138.1,105.4
						L1138.1,105.4z M1139.7,105.4c-0.2,0-0.2,0-0.4,0.1h-0.2l0.1,0.2c0.3-0.1,0.3-0.1,0.4-0.1c0.2,0,0.2,0,0.3,0.1s0.1,0.1,0.1,0.2
						v0.1v0.1h-0.3c-0.3,0-0.3,0-0.5,0.1s-0.2,0.1-0.2,0.4c0,0.2,0,0.2,0.1,0.4c0.1,0.1,0.1,0.1,0.4,0.1s0.3,0,0.5-0.2
						c0,0.1,0,0.1,0.1,0.2c0.1,0.1,0.1,0.1,0.2,0.1l0.1-0.2c-0.1,0-0.1,0-0.1-0.1c0,0,0,0,0-0.1v-0.1v-0.8c0-0.3,0-0.3-0.1-0.4
						C1140,105.4,1140,105.4,1139.7,105.4L1139.7,105.4z M1142.5,105.4c-0.2,0-0.2,0-0.4,0.1c-0.2,0.1-0.2,0.1-0.3,0.3
						c-0.1,0.2-0.1,0.2-0.1,0.5c0,0.4,0,0.4,0.2,0.6c0.2,0.2,0.2,0.2,0.5,0.2c0.2,0,0.2,0,0.4-0.1l0.1-0.1l-0.1-0.2
						c-0.1,0.1-0.1,0.1-0.2,0.1s-0.1,0-0.2,0c-0.2,0-0.2,0-0.3-0.1c-0.1-0.1-0.1-0.1-0.1-0.5c0-0.3,0-0.3,0.1-0.5
						C1142.3,105.5,1142.3,105.5,1142.5,105.4C1142.5,105.5,1142.5,105.5,1142.5,105.4c0.2,0.1,0.2,0.1,0.2,0.2h0.1l0.1-0.2
						c-0.1-0.1-0.1-0.1-0.2-0.1C1142.6,105.3,1142.6,105.4,1142.5,105.4L1142.5,105.4z M1141.5,105.4c-0.2,0-0.2,0-0.3,0.1
						c-0.1,0.1-0.1,0.1-0.1,0.2v0.1v-0.3h-0.2v1.6h0.3v-1.1c0.1-0.2,0.1-0.2,0.1-0.4c0.1-0.1,0.1-0.1,0.2-0.1h0.1h0.1l0.1-0.3
						C1141.6,105.4,1141.6,105.4,1141.5,105.4L1141.5,105.4z M1143.6,104.7h-0.3v2.2h0.3v-1.1c0.1-0.1,0.1-0.1,0.2-0.2
						c0.1-0.1,0.1-0.1,0.2-0.1s0.1,0,0.2,0.1c0.1,0.1,0.1,0.1,0.1,0.2v0.1v1.1h0.3v-1.1c0-0.2,0-0.2-0.1-0.4
						c-0.1-0.2-0.1-0.1-0.4-0.1c-0.3,0-0.3,0-0.4,0.2l-0.1,0.1L1143.6,104.7L1143.6,104.7z M1140,106.3v0.4
						c-0.1,0.3-0.1,0.3-0.4,0.3c-0.1,0-0.1,0-0.2-0.1c-0.1-0.1-0.1-0.1-0.1-0.2c0-0.3,0-0.3,0.4-0.3h0.1L1140,106.3z M1138.1,105.6
						c0.2,0,0.2,0,0.3,0.1c0.1,0.1,0.1,0.1,0.1,0.3v0.1l0,0h-0.8C1137.8,105.6,1137.8,105.6,1138.1,105.6L1138.1,105.6z"/>
				</g>
			</g>
		</g>
	</g>
</g>
<image style="overflow:visible;" width="5009" height="946" xlink:href="../4x/资源 2@4x.png"  transform="matrix(0.25 0 0 0.25 0.375 243.25)">
</image>
</svg>
