<?xml version="1.0" encoding="utf-8"?>
<!-- Generator: Adobe Illustrator 24.1.0, SVG Export Plug-In . SVG Version: 6.00 Build 0)  -->
<svg version="1.1" id="图层_1" xmlns="http://www.w3.org/2000/svg" xmlns:xlink="http://www.w3.org/1999/xlink" x="0px" y="0px"
	 viewBox="0 0 1252.1 84.1" style="enable-background:new 0 0 1252.1 84.1;" xml:space="preserve">
<path d="M91.2,22v16.4c-0.1,1.6,0.4,3.2,1.5,4.4c2.5,2,6.1,2,8.6,0c1.1-1.2,1.7-2.8,1.5-4.4V22h4.2v16.3c0.1,1.9-0.4,3.7-1.4,5.3
	c-0.9,1.4-2.2,2.6-3.7,3.3c-3.2,1.4-6.9,1.4-10.1,0c-1.5-0.7-2.8-1.8-3.6-3.3c-0.9-1.6-1.4-3.5-1.3-5.3V22H91.2z"/>
<path d="M115.7,22v25.8h-4.2V22H115.7z"/>
<path d="M655.8,23.1c0.3,0.2,0.5,0.5,0.7,0.8s0.2,0.7,0.2,1c0,0.4-0.1,0.9-0.3,1.2c-0.2,0.4-0.6,0.7-1,0.9c-0.5,0.2-1,0.3-1.6,0.3
	h-3.4v-9h3.2c0.5,0,1.1,0.1,1.6,0.3c0.4,0.2,0.8,0.5,1,0.8c0.2,0.4,0.3,0.8,0.3,1.2c0,0.5-0.1,1-0.4,1.3c-0.3,0.4-0.7,0.6-1.2,0.8
	C655.3,22.7,655.6,22.9,655.8,23.1z M651.6,22.2h2c0.5,0,0.9-0.1,1.3-0.4c0.6-0.6,0.6-1.6,0-2.1l0,0c-0.4-0.3-0.8-0.4-1.3-0.4h-2
	V22.2z M655,26c0.3-0.3,0.5-0.7,0.5-1.2s-0.2-0.9-0.5-1.2c-0.4-0.3-0.9-0.5-1.4-0.4h-2.1v3.2h2.1C654.2,26.4,654.7,26.3,655,26z"/>
<path d="M658,21.8c0.3-0.5,0.7-1,1.2-1.3s1.1-0.5,1.7-0.5c0.6,0,1.1,0.1,1.6,0.4c0.4,0.2,0.8,0.6,1,1v-1.3h1.2v7.1h-1.2V26
	c-0.3,0.4-0.6,0.8-1,1c-0.5,0.3-1.1,0.4-1.6,0.4c-0.6,0-1.2-0.2-1.7-0.5s-0.9-0.8-1.2-1.3c-0.3-0.6-0.5-1.3-0.5-1.9
	C657.6,23.1,657.7,22.4,658,21.8z M663.3,22.4c-0.7-1.2-2.1-1.6-3.3-0.9c-0.4,0.2-0.7,0.5-0.9,0.9s-0.3,0.9-0.3,1.4s0.1,1,0.3,1.4
	s0.5,0.7,0.9,0.9c0.8,0.4,1.7,0.4,2.4,0c0.4-0.2,0.7-0.5,0.9-0.9s0.3-0.9,0.3-1.4C663.6,23.3,663.5,22.8,663.3,22.4L663.3,22.4z"/>
<path d="M667.5,27.2c-0.4-0.2-0.7-0.4-1-0.8c-0.3-0.3-0.4-0.7-0.4-1.1h1.2c0,0.3,0.2,0.7,0.5,0.9c0.3,0.2,0.8,0.4,1.2,0.3
	c0.4,0,0.8-0.1,1.1-0.3c0.2-0.2,0.4-0.5,0.4-0.8s-0.1-0.6-0.4-0.7c-0.4-0.2-0.8-0.4-1.3-0.5c-0.4-0.1-0.9-0.3-1.3-0.4
	c-0.3-0.1-0.6-0.4-0.9-0.6c-0.5-0.6-0.5-1.5,0-2.1c0.2-0.3,0.5-0.6,0.9-0.7c0.4-0.2,0.9-0.3,1.4-0.3c0.7,0,1.4,0.2,1.9,0.6
	s0.8,1,0.8,1.6h-1.2c0-0.3-0.2-0.7-0.4-0.9c-0.3-0.2-0.7-0.4-1.1-0.3c-0.4,0-0.7,0.1-1,0.3c-0.2,0.2-0.4,0.4-0.4,0.7
	c0,0.2,0.1,0.4,0.2,0.6c0.2,0.2,0.4,0.3,0.6,0.4c0.2,0.1,0.5,0.2,1,0.3c0.4,0.1,0.8,0.2,1.2,0.4c0.3,0.1,0.6,0.3,0.8,0.6
	c0.2,0.3,0.4,0.7,0.4,1c0,0.4-0.1,0.7-0.3,1.1c-0.2,0.3-0.6,0.6-0.9,0.7c-0.4,0.2-0.9,0.3-1.4,0.3C668.5,27.5,668,27.4,667.5,27.2z"
	/>
<path d="M679.3,24.2h-5.7c0,1.2,1,2.2,2.3,2.2c0,0,0,0,0.1,0c0.5,0,0.9-0.1,1.3-0.4c0.3-0.2,0.6-0.6,0.7-1h1.3
	c-0.2,0.7-0.6,1.3-1.2,1.7c-0.6,0.4-1.4,0.7-2.1,0.6c-0.6,0-1.3-0.2-1.8-0.5s-1-0.7-1.2-1.3c-0.3-0.6-0.5-1.3-0.5-2s0.1-1.3,0.4-1.9
	c0.3-0.5,0.7-1,1.2-1.3c0.6-0.3,1.2-0.5,1.8-0.5s1.2,0.1,1.8,0.4c0.5,0.3,0.9,0.7,1.2,1.2s0.4,1.1,0.4,1.7
	C679.4,23.7,679.3,24,679.3,24.2z M677.8,22.1c-0.2-0.3-0.5-0.6-0.8-0.7c-0.4-0.2-0.7-0.3-1.1-0.2c-0.6,0-1.1,0.2-1.5,0.6
	s-0.7,1-0.7,1.6h4.5C678.1,22.9,678,22.5,677.8,22.1z"/>
<path d="M685,27c-0.5-0.3-1-0.7-1.3-1.3c-0.3-0.6-0.5-1.3-0.5-2s0.2-1.3,0.5-1.9c0.3-0.5,0.7-1,1.3-1.3c1.2-0.6,2.5-0.6,3.7,0
	c0.5,0.3,1,0.7,1.3,1.3c0.3,0.6,0.5,1.3,0.5,1.9c0,0.7-0.2,1.4-0.5,2c-0.3,0.5-0.8,1-1.3,1.3c-0.6,0.3-1.2,0.5-1.8,0.5
	C686.1,27.5,685.5,27.3,685,27z M688,26.1c0.4-0.2,0.7-0.5,0.9-0.9s0.4-1,0.3-1.5c0-0.5-0.1-1-0.3-1.5c-0.2-0.4-0.5-0.7-0.9-0.9
	c-0.7-0.4-1.6-0.4-2.4,0c-0.4,0.2-0.7,0.5-0.9,0.9s-0.3,0.9-0.3,1.5c0,0.5,0.1,1,0.3,1.5c0.2,0.4,0.5,0.7,0.8,0.9
	c0.4,0.2,0.8,0.3,1.2,0.3C687.2,26.4,687.6,26.3,688,26.1L688,26.1z"/>
<path d="M697.2,20.9c0.6,0.6,0.9,1.4,0.8,2.3v4.2h-1.2v-4c0-0.6-0.1-1.2-0.5-1.6s-0.9-0.6-1.5-0.6s-1.1,0.2-1.5,0.6
	c-0.4,0.5-0.6,1.1-0.6,1.7v3.9h-1.2v-7.2h1.2v1c0.2-0.4,0.6-0.7,1-0.8c0.4-0.2,0.9-0.3,1.3-0.3C695.9,20.1,696.6,20.4,697.2,20.9z"
	/>
<path d="M704.1,21.2v4.2c0,0.3,0.1,0.5,0.2,0.7c0.2,0.2,0.5,0.3,0.8,0.2h0.9v1h-1.1c-0.5,0-1.1-0.1-1.5-0.5s-0.5-1-0.5-1.5v-4.2h-1
	v-1h0.9v-1.8h1.2v1.8h1.9v1L704.1,21.2L704.1,21.2z"/>
<path d="M712,20.4c0.4,0.2,0.8,0.6,1,1c0.3,0.5,0.4,1.1,0.4,1.7v4.2h-1.2v-4c0-0.6-0.1-1.2-0.5-1.6s-0.9-0.6-1.5-0.6
	s-1.1,0.2-1.5,0.6c-0.4,0.5-0.6,1.1-0.6,1.7v3.9H707v-9.6h1.2v3.5c0.2-0.4,0.6-0.7,1-0.8c0.4-0.2,0.9-0.3,1.4-0.3
	C711.1,20.1,711.6,20.2,712,20.4z"/>
<path d="M721.5,24.2h-5.7c0,0.6,0.3,1.2,0.7,1.6s1,0.6,1.6,0.6c0.5,0,0.9-0.1,1.3-0.4c0.3-0.2,0.6-0.6,0.7-1h1.3
	c-0.2,0.7-0.6,1.3-1.1,1.7c-0.6,0.4-1.4,0.7-2.1,0.6c-0.6,0-1.3-0.2-1.8-0.5s-1-0.7-1.3-1.2c-0.3-0.6-0.5-1.3-0.5-2s0.1-1.3,0.4-1.9
	c0.3-0.5,0.7-1,1.2-1.3c0.6-0.3,1.2-0.5,1.8-0.5s1.2,0.1,1.8,0.4c0.5,0.3,0.9,0.7,1.2,1.2s0.4,1.1,0.4,1.7
	C721.5,23.7,721.5,24,721.5,24.2z M720,22.1c-0.2-0.3-0.5-0.6-0.8-0.7c-0.4-0.2-0.7-0.3-1.1-0.2c-0.6,0-1.1,0.2-1.5,0.6
	s-0.7,1-0.7,1.6h4.5C720.3,22.9,720.2,22.5,720,22.1z"/>
<path d="M728.7,21.2h-1.5v6.1H726v-6.1h-0.9v-1h0.9v-0.5c-0.1-0.6,0.2-1.3,0.6-1.8c0.6-0.4,1.3-0.6,2-0.5v1c-0.4,0-0.8,0.1-1.1,0.3
	c-0.2,0.3-0.4,0.6-0.3,1v0.5h1.5V21.2z"/>
<path d="M729.8,18.8c-0.2-0.2-0.2-0.4-0.2-0.6s0.1-0.4,0.2-0.6c0.1-0.2,0.4-0.2,0.6-0.2c0.2,0,0.4,0.1,0.6,0.2
	c0.1,0.2,0.2,0.4,0.2,0.6s-0.1,0.4-0.2,0.6c-0.1,0.2-0.3,0.2-0.6,0.2C730.1,19.1,729.9,19,729.8,18.8z M730.9,20.2v7.1h-1.2v-7.1
	H730.9z"/>
<path d="M738.1,20.9c0.6,0.6,0.9,1.4,0.8,2.3v4.2h-1.2v-4c0-0.6-0.1-1.2-0.5-1.6s-0.9-0.6-1.5-0.6s-1.1,0.2-1.5,0.6
	c-0.4,0.5-0.6,1.1-0.5,1.7v3.9h-1.2v-7.2h1.2v1c0.2-0.4,0.6-0.7,1-0.8c0.4-0.2,0.9-0.3,1.3-0.3C736.8,20.1,737.6,20.4,738.1,20.9z"
	/>
<path d="M740.5,21.8c0.3-0.5,0.7-1,1.2-1.3s1.1-0.5,1.7-0.5c0.5,0,1.1,0.1,1.5,0.4c0.4,0.2,0.8,0.6,1.1,1v-3.8h1.2v9.6H746V26
	c-0.2,0.4-0.6,0.8-1,1c-0.5,0.3-1,0.4-1.6,0.4c-1.2,0-2.4-0.7-2.9-1.8c-0.3-0.6-0.4-1.3-0.4-1.9S740.2,22.4,740.5,21.8z M745.8,22.4
	c-0.2-0.4-0.5-0.7-0.9-0.9c-0.4-0.2-0.8-0.3-1.2-0.3s-0.8,0.1-1.2,0.3c-0.4,0.2-0.7,0.5-0.9,0.9s-0.3,0.9-0.3,1.4s0.1,1,0.3,1.4
	s0.5,0.7,0.9,0.9c0.4,0.2,0.8,0.3,1.2,0.3s0.8-0.1,1.2-0.3c0.4-0.2,0.7-0.5,0.9-0.9s0.3-0.9,0.3-1.4S746,22.8,745.8,22.4z"/>
<path d="M749,18.8c-0.2-0.1-0.2-0.4-0.2-0.6s0.1-0.4,0.2-0.6c0.1-0.2,0.4-0.2,0.6-0.2c0.2,0,0.4,0.1,0.5,0.2
	c0.1,0.2,0.2,0.4,0.2,0.6s-0.1,0.4-0.2,0.6c-0.1,0.2-0.3,0.2-0.5,0.2C749.4,19.1,749.1,19,749,18.8z M750.1,20.2v7.1H749v-7.1H750.1
	z"/>
<path d="M757.3,20.9c0.6,0.6,0.9,1.4,0.8,2.3v4.2H757v-4c0-0.6-0.1-1.2-0.5-1.6s-0.9-0.6-1.5-0.6s-1.1,0.2-1.5,0.6
	c-0.4,0.5-0.6,1.1-0.6,1.7v3.9h-1.2v-7.2h1.2v1c0.2-0.4,0.6-0.7,1-0.8c0.4-0.2,0.9-0.3,1.3-0.3C756.1,20.1,756.8,20.4,757.3,20.9z"
	/>
<path d="M764.3,20.5c0.4,0.2,0.8,0.6,1,1v-1.3h1.2v7.3c0,0.6-0.1,1.2-0.4,1.7c-0.3,0.5-0.7,0.9-1.2,1.2c-0.6,0.3-1.2,0.4-1.8,0.4
	c-0.8,0-1.6-0.2-2.3-0.7c-0.6-0.4-1-1.1-1.1-1.8h1.2c0.1,0.4,0.4,0.8,0.8,1c0.4,0.3,1,0.4,1.5,0.4c0.6,0,1.2-0.2,1.6-0.6
	c0.4-0.5,0.7-1.1,0.6-1.7V26c-0.2,0.4-0.6,0.8-1,1c-0.5,0.3-1.1,0.4-1.6,0.4c-1.2,0-2.4-0.7-2.9-1.8c-0.3-0.6-0.5-1.3-0.4-1.9
	c0-0.7,0.1-1.3,0.4-1.9c0.3-0.5,0.7-1,1.2-1.3s1.1-0.5,1.7-0.5C763.2,20.1,763.8,20.2,764.3,20.5z M765,22.4
	c-0.2-0.4-0.5-0.7-0.9-0.9c-0.8-0.4-1.7-0.4-2.4,0c-0.4,0.2-0.7,0.5-0.9,0.9s-0.3,0.9-0.3,1.4s0.1,1,0.3,1.4s0.5,0.7,0.9,0.9
	c0.8,0.4,1.7,0.4,2.4,0c0.4-0.2,0.7-0.5,0.9-0.9s0.3-0.9,0.3-1.4S765.2,22.8,765,22.4L765,22.4z"/>
<path d="M769.2,27.2c-0.4-0.2-0.7-0.4-1-0.8c-0.2-0.3-0.4-0.7-0.4-1.1h1.2c0,0.3,0.2,0.7,0.5,0.9c0.3,0.2,0.8,0.4,1.2,0.3
	c0.4,0,0.8-0.1,1.1-0.3c0.2-0.2,0.4-0.5,0.4-0.8s-0.2-0.6-0.4-0.7c-0.4-0.2-0.8-0.4-1.3-0.5c-0.4-0.1-0.9-0.3-1.3-0.4
	c-0.3-0.1-0.6-0.4-0.9-0.6c-0.5-0.6-0.5-1.5,0-2.1c0.2-0.3,0.6-0.6,0.9-0.7c0.4-0.2,0.9-0.3,1.4-0.3c0.7,0,1.4,0.2,1.9,0.6
	s0.8,1,0.8,1.6H772c0-0.3-0.2-0.7-0.4-0.9c-0.3-0.2-0.7-0.4-1.1-0.3c-0.4,0-0.7,0.1-1,0.3c-0.2,0.2-0.4,0.4-0.4,0.7
	c0,0.2,0.1,0.4,0.2,0.6c0.2,0.2,0.4,0.3,0.6,0.4c0.2,0.1,0.5,0.2,1,0.3c0.4,0.1,0.8,0.2,1.2,0.4c0.3,0.1,0.6,0.3,0.8,0.6
	c0.2,0.3,0.4,0.7,0.3,1c0,0.4-0.1,0.7-0.3,1.1c-0.2,0.3-0.6,0.6-0.9,0.7c-0.4,0.2-0.9,0.3-1.4,0.3C770.2,27.5,769.7,27.4,769.2,27.2
	z"/>
<path d="M780.6,21.2h-1.5v6.1h-1.2v-6.1H777v-1h0.9v-0.5c-0.1-0.6,0.2-1.3,0.6-1.8c0.6-0.4,1.3-0.6,2-0.5v1c-0.4,0-0.8,0.1-1.1,0.3
	c-0.2,0.3-0.4,0.6-0.3,1v0.5h1.5L780.6,21.2z"/>
<path d="M783.7,20.4c0.4-0.2,0.9-0.3,1.4-0.3v1.2h-0.3c-1.3,0-2,0.7-2,2.2v3.9h-1.2v-7.1h1.2v1.1C783,21,783.3,20.6,783.7,20.4z"/>
<path d="M787.4,27c-0.5-0.3-1-0.7-1.3-1.3c-0.3-0.6-0.5-1.3-0.5-2s0.1-1.3,0.5-1.9c0.3-0.5,0.8-1,1.3-1.3c1.2-0.6,2.5-0.6,3.7,0
	c0.5,0.3,1,0.7,1.3,1.3c0.6,1.2,0.6,2.7,0,3.9c-0.3,0.5-0.8,1-1.3,1.3c-0.6,0.3-1.2,0.5-1.8,0.5C788.5,27.5,787.9,27.3,787.4,27z
	 M790.4,26.1c0.4-0.2,0.7-0.5,0.9-0.9c0.5-0.9,0.5-2,0-2.9c-0.2-0.4-0.5-0.7-0.9-0.9c-0.4-0.2-0.8-0.3-1.2-0.3s-0.8,0.1-1.2,0.3
	c-0.4,0.2-0.7,0.5-0.9,0.9s-0.3,0.9-0.3,1.5c0,0.5,0.1,1,0.3,1.5c0.2,0.4,0.5,0.7,0.8,0.9c0.4,0.2,0.8,0.3,1.2,0.3
	C789.6,26.4,790,26.3,790.4,26.1L790.4,26.1z"/>
<path d="M804.1,20.4c0.4,0.2,0.8,0.6,1,1c0.3,0.5,0.4,1.1,0.4,1.7v4.2h-1.2v-4c0-0.6-0.1-1.2-0.5-1.6s-0.9-0.6-1.4-0.6
	c-0.6,0-1.1,0.2-1.5,0.6c-0.4,0.5-0.6,1.1-0.5,1.7v3.9h-1.2v-4c0-0.6-0.1-1.2-0.5-1.6s-0.9-0.6-1.4-0.6c-0.6,0-1.1,0.2-1.5,0.6
	c-0.4,0.5-0.6,1.1-0.5,1.7v3.9H794v-7.2h1.2v1c0.2-0.4,0.6-0.7,0.9-0.9c0.4-0.2,0.9-0.3,1.3-0.3c0.6,0,1.1,0.1,1.6,0.4
	s0.8,0.7,1,1.2c0.2-0.5,0.5-0.9,1-1.2c0.5-0.3,1-0.4,1.5-0.4C803.1,20.1,803.6,20.2,804.1,20.4z"/>
<path d="M812.2,20.4c0.4-0.2,0.9-0.3,1.4-0.3v1.2h-0.3c-1.3,0-2,0.7-2,2.2v3.9h-1.2v-7.1h1.2v1.1C811.5,21,811.8,20.7,812.2,20.4z"
	/>
<path d="M821.1,24.2h-5.7c0,1.2,1,2.2,2.3,2.2c0,0,0,0,0.1,0c0.5,0,0.9-0.1,1.3-0.4c0.3-0.2,0.6-0.6,0.7-1h1.3
	c-0.2,0.7-0.6,1.3-1.2,1.7c-0.6,0.4-1.4,0.7-2.1,0.6c-0.6,0-1.3-0.2-1.8-0.5s-1-0.8-1.3-1.3c-0.6-1.2-0.6-2.7,0-3.9
	c0.3-0.5,0.7-1,1.2-1.3c0.6-0.3,1.2-0.5,1.8-0.5s1.2,0.1,1.8,0.4c0.5,0.3,0.9,0.7,1.2,1.2s0.4,1.1,0.4,1.7
	C821.1,23.7,821.1,24,821.1,24.2z M819.6,22.1c-0.2-0.3-0.5-0.6-0.8-0.7c-0.4-0.2-0.7-0.3-1.1-0.2c-0.6,0-1.1,0.2-1.5,0.6
	s-0.7,1-0.7,1.6h4.5C819.9,22.9,819.8,22.5,819.6,22.1z"/>
<path d="M823.4,27.2c-0.4-0.2-0.7-0.4-1-0.8c-0.2-0.3-0.4-0.7-0.4-1.1h1.2c0,0.3,0.2,0.7,0.5,0.9c0.3,0.2,0.8,0.4,1.2,0.3
	c0.4,0,0.8-0.1,1.1-0.3c0.2-0.2,0.4-0.5,0.4-0.8s-0.1-0.6-0.4-0.7c-0.4-0.2-0.8-0.4-1.3-0.5c-0.4-0.1-0.9-0.3-1.3-0.4
	c-0.3-0.1-0.6-0.4-0.9-0.6c-0.5-0.6-0.5-1.5,0-2.1c0.2-0.3,0.5-0.6,0.9-0.7c0.4-0.2,0.9-0.3,1.4-0.3c0.7,0,1.4,0.2,1.9,0.6
	s0.8,1,0.8,1.6h-1.2c0-0.3-0.2-0.7-0.5-0.9c-0.3-0.2-0.7-0.4-1.1-0.3c-0.4,0-0.7,0.1-1,0.3c-0.2,0.2-0.4,0.4-0.4,0.7
	c0,0.2,0.1,0.4,0.2,0.6c0.2,0.2,0.4,0.3,0.6,0.4c0.2,0.1,0.5,0.2,1,0.3c0.4,0.1,0.8,0.2,1.2,0.4c0.3,0.1,0.6,0.3,0.8,0.6
	c0.2,0.3,0.4,0.7,0.4,1c0,0.4-0.1,0.7-0.3,1.1c-0.2,0.3-0.5,0.6-0.9,0.7c-0.4,0.2-0.9,0.3-1.4,0.3C824.4,27.5,823.9,27.4,823.4,27.2
	z"/>
<path d="M835.2,24.2h-5.7c0,1.2,1,2.2,2.3,2.2c0,0,0,0,0.1,0c0.5,0,0.9-0.1,1.3-0.4c0.3-0.2,0.6-0.6,0.7-1h1.3
	c-0.2,0.7-0.6,1.3-1.1,1.7c-0.6,0.4-1.4,0.7-2.1,0.6c-0.7,0-1.3-0.1-1.9-0.5c-0.5-0.3-1-0.7-1.3-1.3c-0.3-0.6-0.5-1.3-0.5-2
	s0.1-1.3,0.4-1.9c0.3-0.5,0.7-1,1.3-1.3s1.2-0.5,1.8-0.5s1.2,0.1,1.8,0.4c0.5,0.3,0.9,0.7,1.2,1.2s0.4,1.1,0.4,1.7
	C835.3,23.8,835.2,24,835.2,24.2z M833.7,22.1c-0.2-0.3-0.5-0.6-0.8-0.7c-0.4-0.2-0.7-0.3-1.1-0.2c-0.6,0-1.1,0.2-1.5,0.6
	s-0.7,1-0.7,1.6h4.5C834,22.9,833.9,22.5,833.7,22.1z"/>
<path d="M836.5,21.8c0.3-0.5,0.7-1,1.2-1.3s1.1-0.5,1.7-0.5c0.6,0,1.1,0.1,1.6,0.4c0.4,0.2,0.8,0.6,1,1v-1.3h1.2v7.1H842V26
	c-0.2,0.4-0.6,0.8-1,1c-0.5,0.3-1.1,0.4-1.6,0.4c-1.2,0-2.4-0.7-2.9-1.8c-0.3-0.6-0.5-1.3-0.5-1.9S836.2,22.4,836.5,21.8z
	 M841.7,22.4c-0.2-0.4-0.5-0.7-0.9-0.9c-0.4-0.2-0.8-0.3-1.2-0.3s-0.8,0.1-1.2,0.3c-0.4,0.2-0.7,0.5-0.9,0.9s-0.3,0.9-0.3,1.4
	s0.1,1,0.3,1.4s0.5,0.7,0.9,0.9c0.4,0.2,0.8,0.3,1.2,0.3s0.8-0.1,1.2-0.3c0.4-0.2,0.7-0.5,0.9-0.9s0.3-0.9,0.3-1.4
	C842.1,23.3,841.9,22.8,841.7,22.4L841.7,22.4z"/>
<path d="M847,20.4c0.4-0.2,0.9-0.3,1.4-0.3v1.2h-0.3c-1.3,0-2,0.7-2,2.2v3.9h-1.2v-7.1h1.2v1.1C846.3,21,846.6,20.7,847,20.4z"/>
<path d="M849.4,21.8c0.3-0.5,0.7-1,1.2-1.3c0.6-0.3,1.2-0.5,1.8-0.5c0.8,0,1.5,0.2,2.2,0.6c0.6,0.4,1,1.1,1.1,1.8h-1.3
	c-0.1-0.4-0.4-0.8-0.7-1c-0.4-0.3-0.8-0.4-1.3-0.4c-0.6,0-1.2,0.2-1.6,0.7c-0.5,0.6-0.7,1.3-0.6,2c0,0.7,0.2,1.4,0.6,2
	c0.4,0.5,1,0.7,1.6,0.7c0.5,0,0.9-0.1,1.3-0.4c0.3-0.2,0.6-0.6,0.7-1h1.3c-0.2,0.7-0.6,1.3-1.1,1.8c-0.6,0.5-1.4,0.7-2.2,0.7
	c-0.6,0-1.3-0.2-1.8-0.5s-0.9-0.7-1.2-1.3c-0.3-0.6-0.5-1.3-0.4-2C848.9,23.1,849,22.5,849.4,21.8z"/>
<path d="M861.9,20.4c0.4,0.2,0.8,0.6,1,1c0.3,0.5,0.4,1.1,0.4,1.7v4.2h-1.2v-4c0-0.6-0.1-1.2-0.5-1.6s-0.9-0.6-1.5-0.6
	s-1.1,0.2-1.5,0.6c-0.4,0.5-0.6,1.1-0.6,1.7v3.9h-1.2v-9.6h1.2v3.5c0.2-0.4,0.6-0.7,1-0.8c0.4-0.2,0.9-0.3,1.4-0.3
	C861,20.1,861.4,20.2,861.9,20.4z"/>
<path d="M866.1,25.7l-1.5,3.5h-0.8l1-3.5H866.1z"/>
<path d="M871.3,18.3v9.1h-1.2v-9.1H871.3z"/>
<path d="M885.6,20.2l-2.2,7.1h-1.2l-1.7-5.7l-1.7,5.7h-1.2l-2.2-7.1h1.2l1.6,6l1.8-6h1.2l1.7,6l1.6-6
	C884.5,20.2,885.6,20.2,885.6,20.2z"/>
<path d="M886.4,18.8c-0.2-0.1-0.2-0.4-0.2-0.6s0.1-0.4,0.2-0.6c0.1-0.2,0.4-0.2,0.6-0.2c0.2,0,0.4,0.1,0.5,0.2
	c0.1,0.2,0.2,0.4,0.2,0.6s-0.1,0.4-0.2,0.6c-0.1,0.2-0.3,0.2-0.5,0.2C886.8,19.1,886.6,19,886.4,18.8z M887.6,20.2v7.1h-1.2v-7.1
	H887.6z"/>
<path d="M890.4,17.7v9.6h-1.2v-9.6H890.4z"/>
<path d="M893.2,17.7v9.6H892v-9.6H893.2z"/>
<path d="M900.1,20.4c0.4-0.2,0.9-0.3,1.4-0.3v1.2h-0.3c-1.3,0-2,0.7-2,2.2v3.9H898v-7.1h1.2v1.1C899.4,21,899.7,20.7,900.1,20.4z"/>
<path d="M909,24.2h-5.7c0,1.2,1,2.2,2.3,2.2c0,0,0,0,0.1,0c0.5,0,0.9-0.1,1.3-0.4c0.3-0.2,0.6-0.6,0.7-1h1.3
	c-0.2,0.7-0.6,1.3-1.1,1.7c-0.6,0.4-1.4,0.7-2.1,0.6c-0.6,0-1.3-0.2-1.8-0.5s-1-0.7-1.2-1.3c-0.3-0.6-0.5-1.3-0.5-2s0.1-1.3,0.4-1.9
	c0.3-0.5,0.7-1,1.2-1.3c1.1-0.6,2.5-0.6,3.6,0c0.5,0.3,0.9,0.7,1.2,1.2s0.4,1.1,0.4,1.7C909,23.7,909,24,909,24.2z M907.5,22.1
	c-0.2-0.3-0.5-0.6-0.8-0.7c-0.4-0.2-0.7-0.3-1.1-0.2c-0.6,0-1.1,0.2-1.5,0.6s-0.7,1-0.7,1.6h4.5C907.8,22.9,907.7,22.5,907.5,22.1
	L907.5,22.1z"/>
<path d="M910.2,21.8c0.3-0.5,0.7-1,1.2-1.3s1.1-0.5,1.7-0.5c0.5,0,1.1,0.1,1.5,0.4c0.4,0.2,0.8,0.6,1.1,1v-3.8h1.2v9.6h-1.2V26
	c-0.2,0.4-0.6,0.8-1,1c-0.5,0.3-1,0.4-1.6,0.4s-1.2-0.1-1.8-0.4c-0.5-0.3-0.9-0.8-1.2-1.3c-0.3-0.6-0.5-1.3-0.4-1.9
	C909.7,23.1,909.9,22.4,910.2,21.8z M915.5,22.4c-0.2-0.4-0.5-0.7-0.9-0.9c-0.4-0.2-0.8-0.3-1.2-0.3s-0.8,0.1-1.2,0.3
	c-0.4,0.2-0.7,0.5-0.9,0.9s-0.3,0.9-0.3,1.4s0.1,1,0.3,1.4s0.5,0.7,0.9,0.9c0.4,0.2,0.8,0.3,1.2,0.3s0.8-0.1,1.2-0.3
	c0.4-0.2,0.7-0.5,0.9-0.9s0.3-0.9,0.3-1.4S915.7,22.8,915.5,22.4z"/>
<path d="M925.1,24.2h-5.7c0,1.2,1,2.2,2.3,2.2c0,0,0,0,0.1,0c0.5,0,0.9-0.1,1.3-0.4c0.3-0.2,0.6-0.6,0.7-1h1.3
	c-0.2,0.7-0.6,1.3-1.1,1.7c-0.6,0.4-1.4,0.7-2.1,0.6c-0.6,0-1.3-0.2-1.8-0.5s-1-0.7-1.2-1.3c-0.3-0.6-0.5-1.3-0.5-2s0.1-1.3,0.4-1.9
	c0.3-0.5,0.7-1,1.2-1.3c1.1-0.6,2.5-0.6,3.6,0c0.5,0.3,0.9,0.7,1.2,1.2s0.4,1.1,0.4,1.7C925.1,23.7,925.1,24,925.1,24.2z
	 M923.6,22.1c-0.2-0.3-0.5-0.6-0.8-0.7c-0.4-0.2-0.7-0.3-1.1-0.2c-0.6,0-1.1,0.2-1.5,0.6s-0.7,1-0.7,1.6h4.5
	C923.9,22.9,923.8,22.5,923.6,22.1z"/>
<path d="M927.4,27.2c-0.4-0.2-0.7-0.4-1-0.8c-0.2-0.3-0.4-0.7-0.4-1.1h1.2c0,0.3,0.2,0.7,0.5,0.9c0.3,0.2,0.8,0.4,1.2,0.3
	c0.4,0,0.8-0.1,1.1-0.3c0.2-0.2,0.4-0.5,0.4-0.8s-0.1-0.6-0.4-0.7c-0.4-0.2-0.8-0.4-1.3-0.5c-0.4-0.1-0.9-0.3-1.3-0.4
	c-0.3-0.1-0.6-0.4-0.9-0.6c-0.5-0.6-0.5-1.5,0-2.1c0.2-0.3,0.5-0.6,0.9-0.7c0.4-0.2,0.9-0.3,1.4-0.3c0.7,0,1.4,0.2,1.9,0.6
	s0.8,1,0.8,1.6h-1.2c0-0.3-0.2-0.7-0.5-0.9c-0.3-0.2-0.7-0.4-1.1-0.3c-0.4,0-0.7,0.1-1,0.3c-0.2,0.2-0.4,0.4-0.4,0.7
	c0,0.2,0.1,0.4,0.2,0.6c0.1,0.1,0.3,0.2,0.5,0.3c0.2,0.1,0.5,0.2,1,0.3c0.4,0.1,0.8,0.2,1.2,0.4c0.3,0.1,0.6,0.3,0.8,0.6
	c0.2,0.3,0.4,0.7,0.4,1c0,0.4-0.1,0.7-0.3,1.1c-0.2,0.3-0.6,0.6-0.9,0.7c-0.4,0.2-0.9,0.3-1.4,0.3C928.3,27.4,927.8,27.4,927.4,27.2
	z"/>
<path d="M932.8,18.8c-0.2-0.1-0.2-0.4-0.2-0.6c0-0.4,0.3-0.8,0.8-0.8l0,0c0.2,0,0.4,0.1,0.5,0.2c0.2,0.1,0.2,0.4,0.2,0.6
	s-0.1,0.4-0.2,0.6c-0.1,0.2-0.3,0.2-0.5,0.2C933.1,19.1,932.9,19,932.8,18.8z M933.9,20.2v7.1h-1.2v-7.1H933.9z"/>
<path d="M940.1,20.5c0.4,0.2,0.8,0.6,1,1v-1.3h1.2v7.3c0,0.6-0.1,1.2-0.4,1.7c-0.3,0.5-0.7,0.9-1.2,1.2c-0.6,0.3-1.2,0.4-1.8,0.4
	c-0.8,0-1.6-0.2-2.3-0.7c-0.6-0.4-1-1.1-1.1-1.8h1.2c0.1,0.4,0.4,0.8,0.8,1c0.4,0.3,1,0.4,1.5,0.4c0.6,0,1.2-0.2,1.6-0.6
	c0.4-0.5,0.6-1.1,0.6-1.7V26c-0.2,0.4-0.6,0.8-1,1c-0.5,0.3-1.1,0.4-1.6,0.4c-1.2,0-2.4-0.7-2.9-1.8c-0.3-0.6-0.4-1.3-0.4-1.9
	c0-0.7,0.1-1.3,0.4-1.9c0.3-0.5,0.7-1,1.2-1.3s1.1-0.5,1.7-0.5C939.1,20.1,939.6,20.2,940.1,20.5z M940.8,22.4
	c-0.2-0.4-0.5-0.7-0.9-0.9c-0.4-0.2-0.8-0.3-1.2-0.3s-0.8,0.1-1.2,0.3c-0.4,0.2-0.7,0.5-0.9,0.9s-0.3,0.9-0.3,1.4s0.1,1,0.3,1.4
	s0.5,0.7,0.9,0.9c0.4,0.2,0.8,0.3,1.2,0.3s0.8-0.1,1.2-0.3c0.4-0.2,0.7-0.5,0.9-0.9s0.3-0.9,0.3-1.4
	C941.2,23.3,941.1,22.8,940.8,22.4z"/>
<path d="M949.6,20.9c0.6,0.6,0.9,1.4,0.8,2.3v4.2h-1.2v-4c0-0.6-0.1-1.2-0.5-1.6s-0.9-0.6-1.5-0.6s-1.1,0.2-1.5,0.6
	c-0.4,0.5-0.6,1.1-0.5,1.7v3.9H944v-7.2h1.2v1c0.2-0.4,0.6-0.7,1-0.8C947.3,19.9,948.7,20,949.6,20.9L949.6,20.9z"/>
<path d="M956.5,21.2v4.2c0,0.3,0.1,0.5,0.2,0.7c0.2,0.2,0.5,0.3,0.8,0.2h0.9v1h-1.1c-0.5,0-1.1-0.1-1.5-0.5s-0.5-1-0.5-1.5v-4.2
	h-0.9v-1h0.9v-1.8h1.2v1.8h1.9v1L956.5,21.2L956.5,21.2z"/>
<path d="M964.4,20.4c0.4,0.2,0.8,0.6,1,1c0.3,0.5,0.4,1.1,0.4,1.7v4.2h-1.2v-4c0-0.6-0.1-1.2-0.5-1.6s-0.9-0.6-1.5-0.6
	s-1.1,0.2-1.5,0.6c-0.4,0.5-0.6,1.1-0.6,1.7v3.9h-1.2v-9.6h1.2v3.5c0.2-0.4,0.6-0.7,1-0.8c0.4-0.2,0.9-0.3,1.4-0.3
	C963.5,20.1,964,20.2,964.4,20.4z"/>
<path d="M973.8,24.2h-5.7c0,0.6,0.3,1.2,0.7,1.6s1,0.6,1.6,0.6c0.5,0,0.9-0.1,1.3-0.4c0.3-0.2,0.6-0.6,0.7-1h1.3
	c-0.2,0.7-0.6,1.3-1.1,1.7c-0.6,0.4-1.4,0.7-2.1,0.6c-0.6,0-1.3-0.2-1.8-0.5s-1-0.7-1.2-1.3c-0.6-1.2-0.6-2.7,0-3.9
	c0.3-0.5,0.7-1,1.2-1.3c0.6-0.3,1.2-0.5,1.8-0.5s1.2,0.1,1.8,0.4c0.5,0.3,0.9,0.7,1.2,1.2s0.4,1.1,0.4,1.7
	C973.9,23.7,973.9,24,973.8,24.2z M972.4,22.1c-0.2-0.3-0.5-0.6-0.8-0.7c-0.4-0.2-0.7-0.3-1.1-0.2c-0.6,0-1.1,0.2-1.5,0.6
	s-0.7,1-0.7,1.6h4.5C972.7,22.9,972.6,22.5,972.4,22.1L972.4,22.1z"/>
<path d="M980.4,20.5c0.5-0.3,1.1-0.4,1.6-0.4c0.6,0,1.2,0.1,1.7,0.5c0.5,0.3,1,0.7,1.3,1.3c0.3,0.6,0.5,1.3,0.5,1.9
	c0,0.7-0.1,1.3-0.5,1.9c-0.6,1.1-1.7,1.8-3,1.8c-0.6,0-1.1-0.1-1.6-0.4c-0.4-0.2-0.8-0.6-1.1-1v4.7h-1.2V20.2h1.2v1.3
	C979.6,21.1,980,20.8,980.4,20.5z M983.9,22.4c-0.2-0.4-0.5-0.7-0.9-0.9c-0.4-0.2-0.8-0.3-1.2-0.3s-0.8,0.1-1.2,0.3
	c-0.4,0.2-0.7,0.5-0.9,0.9s-0.3,0.9-0.3,1.4s0.1,1,0.3,1.4s0.5,0.7,0.9,0.9c0.4,0.2,0.8,0.3,1.2,0.3s0.8-0.1,1.2-0.3
	c0.4-0.2,0.7-0.5,0.9-0.9s0.3-0.9,0.3-1.4S984.1,22.8,983.9,22.4z"/>
<path d="M988.7,20.4c0.4-0.2,0.9-0.3,1.4-0.3v1.2h-0.3c-1.3,0-2,0.7-2,2.2v3.9h-1.2v-7.1h1.2v1.1C988,21,988.3,20.7,988.7,20.4z"/>
<path d="M991.1,18.8c-0.2-0.1-0.2-0.4-0.2-0.6s0.1-0.4,0.2-0.6c0.1-0.2,0.4-0.2,0.6-0.2c0.2,0,0.4,0.1,0.5,0.2
	c0.1,0.2,0.2,0.4,0.2,0.6s-0.1,0.4-0.2,0.6c-0.1,0.2-0.3,0.2-0.5,0.2C991.5,19.1,991.3,19,991.1,18.8z M992.3,20.2v7.1h-1.2v-7.1
	H992.3z"/>
<path d="M996.6,26.3l2.2-6h1.2l-2.8,7.1h-1.4l-2.8-7.1h1.3L996.6,26.3z"/>
<path d="M1000.8,21.8c0.3-0.5,0.7-1,1.2-1.3s1.1-0.5,1.7-0.5c0.6,0,1.1,0.1,1.6,0.4c0.4,0.2,0.8,0.6,1,1v-1.3h1.2v7.1h-1.2V26
	c-0.3,0.4-0.6,0.8-1,1c-0.5,0.3-1,0.4-1.6,0.4c-1.2,0-2.4-0.7-2.9-1.8c-0.3-0.6-0.5-1.3-0.4-1.9
	C1000.4,23.1,1000.5,22.4,1000.8,21.8z M1006.1,22.4c-0.2-0.4-0.5-0.7-0.9-0.9c-0.4-0.2-0.8-0.3-1.2-0.3s-0.8,0.1-1.2,0.3
	c-0.4,0.2-0.7,0.5-0.9,0.9s-0.3,0.9-0.3,1.4s0.1,1,0.3,1.4s0.5,0.7,0.9,0.9c0.4,0.2,0.8,0.3,1.2,0.3s0.8-0.1,1.2-0.3
	c0.4-0.2,0.7-0.5,0.9-0.9s0.3-0.9,0.3-1.4C1006.4,23.3,1006.3,22.8,1006.1,22.4z"/>
<path d="M1009.3,21.8c0.3-0.5,0.7-1,1.2-1.3c0.6-0.3,1.2-0.5,1.8-0.5c0.8,0,1.5,0.2,2.2,0.6c0.6,0.4,1,1.1,1.1,1.8h-1.3
	c-0.1-0.4-0.4-0.8-0.7-1c-0.4-0.3-0.8-0.4-1.3-0.4c-0.6,0-1.2,0.2-1.6,0.7c-0.5,0.6-0.7,1.3-0.6,2c-0.1,0.7,0.2,1.4,0.6,2
	c0.4,0.5,1,0.7,1.6,0.7c0.5,0,0.9-0.1,1.3-0.4c0.3-0.2,0.6-0.6,0.7-1h1.3c-0.2,0.7-0.6,1.3-1.1,1.8c-0.6,0.5-1.4,0.7-2.2,0.7
	c-0.6,0-1.3-0.2-1.8-0.5s-0.9-0.7-1.2-1.3c-0.3-0.6-0.5-1.3-0.4-2C1008.8,23.1,1009,22.5,1009.3,21.8z"/>
<path d="M1022.9,20.2l-4.3,10.5h-1.2l1.4-3.4l-2.9-7h1.3l2.2,5.7l2.2-5.8H1022.9z"/>
<path d="M1029.1,20.5c0.5-0.3,1.1-0.4,1.6-0.4c0.6,0,1.2,0.1,1.7,0.5c0.5,0.3,0.9,0.7,1.2,1.3c0.3,0.6,0.5,1.3,0.4,1.9
	c0,0.7-0.1,1.3-0.4,1.9c-0.6,1.1-1.7,1.8-2.9,1.8c-0.6,0-1.1-0.1-1.6-0.4c-0.4-0.2-0.8-0.6-1.1-1v4.7h-1.2V20.2h1.2v1.3
	C1028.3,21.1,1028.7,20.8,1029.1,20.5z M1032.6,22.4c-0.2-0.4-0.5-0.7-0.9-0.9c-0.8-0.4-1.7-0.4-2.4,0c-0.4,0.2-0.7,0.5-0.9,0.9
	c-0.2,0.4-0.3,0.9-0.3,1.4s0.1,1,0.3,1.4c0.2,0.4,0.5,0.7,0.9,0.9c0.8,0.4,1.7,0.4,2.4,0c0.4-0.2,0.7-0.5,0.9-0.9
	c0.2-0.4,0.3-0.9,0.3-1.4S1032.8,22.8,1032.6,22.4L1032.6,22.4z"/>
<path d="M1037.4,20.4c0.4-0.2,0.9-0.3,1.4-0.3v1.2h-0.3c-1.3,0-2,0.7-2,2.2v3.9h-1.2v-7.1h1.2v1.1C1036.7,21,1037,20.7,1037.4,20.4z
	"/>
<path d="M1041.1,27c-0.5-0.3-1-0.7-1.3-1.3c-0.6-1.2-0.6-2.7,0-3.9c0.3-0.5,0.8-1,1.3-1.3c1.1-0.6,2.5-0.6,3.7,0
	c0.5,0.3,1,0.7,1.3,1.3c0.3,0.6,0.5,1.3,0.5,1.9c0,0.7-0.2,1.4-0.5,2c-0.3,0.5-0.8,1-1.3,1.3c-0.6,0.3-1.2,0.5-1.8,0.5
	C1042.2,27.5,1041.6,27.3,1041.1,27z M1044.1,26.1c0.4-0.2,0.7-0.5,0.9-0.9c0.5-0.9,0.5-2,0-2.9c-0.2-0.4-0.5-0.7-0.9-0.9
	c-0.7-0.4-1.6-0.4-2.4,0c-0.4,0.2-0.7,0.5-0.9,0.9c-0.2,0.5-0.3,0.9-0.3,1.5c0,0.5,0.1,1,0.3,1.5c0.2,0.4,0.5,0.7,0.8,0.9
	c0.4,0.2,0.8,0.3,1.2,0.3C1043.3,26.4,1043.7,26.3,1044.1,26.1L1044.1,26.1z"/>
<path d="M1049.2,21.2v4.2c0,0.3,0.1,0.5,0.2,0.7c0.2,0.2,0.5,0.3,0.8,0.2h0.9v1h-1c-0.5,0-1.1-0.1-1.5-0.5s-0.5-1-0.5-1.5v-4.2h-0.9
	v-1h0.9v-1.8h1.2v1.8h1.8v1L1049.2,21.2L1049.2,21.2z"/>
<path d="M1058.6,24.2h-5.7c0,0.6,0.3,1.2,0.7,1.6c0.4,0.4,1,0.6,1.6,0.6c0.5,0,0.9-0.1,1.3-0.4c0.3-0.2,0.6-0.6,0.7-1h1.3
	c-0.2,0.7-0.6,1.3-1.1,1.7c-0.6,0.4-1.4,0.7-2.1,0.6c-0.6,0-1.3-0.2-1.8-0.5s-1-0.7-1.2-1.3c-0.6-1.2-0.6-2.7,0-3.9
	c0.3-0.5,0.7-1,1.2-1.3c0.6-0.3,1.2-0.5,1.8-0.5c0.6,0,1.2,0.1,1.8,0.4c0.5,0.3,0.9,0.7,1.2,1.2c0.3,0.5,0.4,1.1,0.4,1.7
	C1058.6,23.7,1058.6,24,1058.6,24.2z M1057.1,22.1c-0.2-0.3-0.5-0.6-0.8-0.7c-0.4-0.2-0.7-0.3-1.1-0.2c-0.6,0-1.1,0.2-1.5,0.6
	s-0.7,1-0.7,1.6h4.5C1057.4,22.9,1057.3,22.5,1057.1,22.1L1057.1,22.1z"/>
<path d="M1059.8,21.8c0.3-0.5,0.7-1,1.2-1.3s1.2-0.5,1.8-0.5c0.8,0,1.5,0.2,2.2,0.6c0.6,0.4,1,1.1,1.1,1.8h-1.3
	c-0.1-0.4-0.4-0.8-0.7-1c-0.4-0.3-0.8-0.4-1.3-0.4c-0.6,0-1.2,0.2-1.6,0.7c-0.5,0.6-0.7,1.3-0.6,2c0,0.7,0.2,1.4,0.6,2
	c0.4,0.5,1,0.7,1.6,0.7c0.5,0,0.9-0.1,1.3-0.4c0.3-0.2,0.6-0.6,0.7-1h1.3c-0.2,0.7-0.6,1.3-1.2,1.8s-1.4,0.7-2.1,0.7
	c-0.6,0-1.3-0.2-1.8-0.6c-0.5-0.3-0.9-0.7-1.2-1.3c-0.3-0.6-0.5-1.3-0.4-2C1059.3,23.1,1059.5,22.4,1059.8,21.8z"/>
<path d="M1068.8,21.2v4.2c0,0.3,0.1,0.5,0.2,0.7c0.2,0.2,0.5,0.3,0.8,0.2h0.9v1h-1.1c-0.5,0-1.1-0.1-1.5-0.5s-0.5-1-0.5-1.5v-4.2
	h-0.9v-1h0.9v-1.8h1.2v1.8h1.9v1L1068.8,21.2L1068.8,21.2z"/>
<path d="M1071.7,18.8c-0.2-0.1-0.2-0.4-0.2-0.6s0.1-0.4,0.2-0.6s0.4-0.2,0.6-0.2s0.4,0.1,0.6,0.2c0.1,0.2,0.2,0.4,0.2,0.6
	s-0.1,0.4-0.2,0.6s-0.3,0.2-0.6,0.2C1072.1,19.1,1071.9,19,1071.7,18.8z M1072.9,20.2v7.1h-1.2v-7.1H1072.9z"/>
<path d="M1075.8,27c-0.5-0.3-1-0.7-1.3-1.3c-0.6-1.2-0.6-2.7,0-3.9c0.3-0.5,0.8-1,1.3-1.3c1.1-0.6,2.5-0.6,3.7,0
	c0.5,0.3,1,0.7,1.3,1.3c0.3,0.6,0.5,1.3,0.5,1.9c0,0.7-0.2,1.4-0.5,2c-0.3,0.5-0.8,1-1.3,1.3c-0.6,0.3-1.2,0.5-1.8,0.5
	C1077,27.5,1076.4,27.3,1075.8,27z M1078.8,26.1c0.4-0.2,0.7-0.5,0.9-0.9c0.5-0.9,0.5-2,0-2.9c-0.2-0.4-0.5-0.7-0.9-0.9
	c-0.4-0.2-0.8-0.3-1.2-0.3c-0.4,0-0.8,0.1-1.2,0.3c-0.4,0.2-0.7,0.5-0.9,0.9c-0.2,0.5-0.3,0.9-0.3,1.5c0,0.5,0.1,1,0.3,1.5
	c0.2,0.4,0.5,0.7,0.8,0.9c0.4,0.2,0.8,0.3,1.2,0.3C1078,26.4,1078.5,26.3,1078.8,26.1L1078.8,26.1z"/>
<path d="M1088.1,20.9c0.6,0.6,0.9,1.4,0.8,2.3v4.2h-1.2v-4c0-0.6-0.1-1.2-0.5-1.6s-0.9-0.6-1.5-0.6s-1.1,0.2-1.5,0.6
	c-0.4,0.5-0.6,1.1-0.6,1.7v3.9h-1.2v-7.2h1.2v1c0.2-0.4,0.6-0.7,1-0.8c0.4-0.2,0.9-0.3,1.3-0.3C1086.8,20.1,1087.5,20.4,1088.1,20.9
	z"/>
<path d="M650.4,44.3c0.3-0.5,0.7-1,1.2-1.3s1.1-0.5,1.7-0.5c0.6,0,1.2,0.1,1.7,0.4c0.4,0.2,0.8,0.6,1,1v-1.3h1.2v7.1H656v-1.3
	c-0.2,0.4-0.6,0.8-1,1c-0.5,0.3-1,0.4-1.6,0.4s-1.2-0.2-1.7-0.5s-0.9-0.8-1.2-1.3c-0.3-0.6-0.4-1.3-0.4-1.9
	C650,45.6,650.1,44.9,650.4,44.3z M655.7,44.9c-0.2-0.4-0.5-0.7-0.9-0.9c-0.8-0.4-1.7-0.4-2.4,0c-0.4,0.2-0.7,0.5-0.9,0.9
	s-0.3,0.9-0.3,1.4s0.1,1,0.3,1.4s0.5,0.7,0.9,0.9c0.8,0.4,1.7,0.4,2.4,0c0.4-0.2,0.7-0.5,0.9-0.9s0.3-0.9,0.3-1.4
	C656,45.8,655.9,45.3,655.7,44.9L655.7,44.9z"/>
<path d="M663.4,43c0.4,0.2,0.8,0.6,1,1v-1.3h1.2V50c0,0.6-0.1,1.2-0.4,1.7c-0.3,0.5-0.7,0.9-1.2,1.2c-0.6,0.3-1.2,0.4-1.8,0.4
	c-0.8,0-1.6-0.2-2.3-0.7c-0.6-0.4-1-1.1-1.1-1.8h1.2c0.1,0.4,0.4,0.8,0.8,1c0.4,0.3,1,0.4,1.5,0.4c0.6,0,1.2-0.2,1.6-0.6
	c0.4-0.5,0.6-1.1,0.6-1.7v-1.5c-0.2,0.4-0.6,0.8-1,1c-0.5,0.3-1.1,0.4-1.6,0.4c-1.2,0-2.4-0.7-2.9-1.8c-0.3-0.6-0.4-1.3-0.4-1.9
	c0-0.7,0.1-1.3,0.4-1.9c0.3-0.5,0.7-0.9,1.2-1.2s1.1-0.5,1.7-0.5C662.3,42.6,662.9,42.7,663.4,43z M664.1,44.9
	c-0.2-0.4-0.5-0.7-0.9-0.9s-0.8-0.3-1.2-0.3s-0.8,0.1-1.2,0.3s-0.7,0.5-0.9,0.9s-0.3,0.9-0.3,1.4s0.1,1,0.3,1.4s0.5,0.7,0.9,0.9
	s0.8,0.3,1.2,0.3s0.8-0.1,1.2-0.3s0.7-0.5,0.9-0.9s0.3-0.9,0.3-1.4C664.4,45.8,664.3,45.3,664.1,44.9L664.1,44.9z"/>
<path d="M669.3,42.9c0.4-0.2,0.9-0.3,1.4-0.3v1.2h-0.3c-1.3,0-2,0.7-2,2.2v3.9h-1.2v-7.1h1.2V44C668.6,43.5,668.9,43.2,669.3,42.9z"
	/>
<path d="M678.2,46.7h-5.7c0,1.2,1,2.3,2.2,2.3h0.1c0.5,0,0.9-0.1,1.3-0.4c0.3-0.2,0.6-0.6,0.7-1h1.3c-0.2,0.7-0.5,1.3-1.1,1.7
	s-1.4,0.7-2.1,0.7c-0.6,0-1.3-0.2-1.8-0.5s-1-0.7-1.2-1.3c-0.3-0.6-0.5-1.3-0.5-2s0.1-1.3,0.4-1.9c0.3-0.5,0.7-1,1.2-1.3
	c0.6-0.3,1.2-0.5,1.8-0.5s1.2,0.1,1.8,0.4c0.5,0.3,0.9,0.7,1.2,1.2s0.4,1.1,0.4,1.7C678.3,46.3,678.2,46.5,678.2,46.7z M676.7,44.6
	c-0.2-0.3-0.5-0.6-0.8-0.7c-0.4-0.2-0.7-0.3-1.1-0.2c-0.6,0-1.1,0.2-1.5,0.6c-0.4,0.4-0.7,1-0.7,1.6h4.5
	C677,45.4,676.9,45,676.7,44.6z"/>
<path d="M685.9,46.7h-5.7c0,1.2,1,2.3,2.2,2.3h0.1c0.5,0,0.9-0.1,1.3-0.4c0.3-0.2,0.6-0.6,0.7-1h1.3c-0.2,0.7-0.6,1.3-1.2,1.7
	c-0.6,0.4-1.4,0.7-2.1,0.7c-0.6,0-1.3-0.2-1.8-0.5s-1-0.7-1.3-1.3s-0.5-1.3-0.5-2s0.1-1.3,0.4-1.9c0.3-0.5,0.7-1,1.2-1.3
	c0.6-0.3,1.2-0.5,1.8-0.5s1.2,0.1,1.8,0.4c0.5,0.3,0.9,0.7,1.2,1.2s0.4,1.1,0.4,1.7C685.9,46.2,685.9,46.5,685.9,46.7z M684.4,44.6
	c-0.2-0.3-0.5-0.6-0.8-0.7c-0.4-0.2-0.7-0.3-1.1-0.2c-0.6,0-1.1,0.2-1.5,0.6c-0.4,0.4-0.7,1-0.7,1.6h4.5
	C684.7,45.4,684.6,45,684.4,44.6L684.4,44.6z"/>
<path d="M697.2,42.9c0.4,0.2,0.8,0.6,1,1c0.3,0.5,0.4,1.1,0.4,1.7v4.2h-1.2v-4c0-0.6-0.1-1.2-0.5-1.6c-0.4-0.4-0.9-0.6-1.4-0.6
	c-0.6,0-1.1,0.2-1.5,0.6c-0.4,0.5-0.6,1.1-0.5,1.7v3.9h-1.2v-4c0-0.6-0.1-1.2-0.5-1.6c-0.4-0.4-0.9-0.6-1.4-0.6
	c-0.6,0-1.1,0.2-1.5,0.6c-0.4,0.5-0.6,1.1-0.5,1.7v3.9h-1.2v-7.1h1.2v1c0.2-0.4,0.6-0.7,0.9-0.8c0.4-0.2,0.9-0.3,1.3-0.3
	c0.6,0,1.1,0.1,1.6,0.4c0.5,0.3,0.8,0.7,1,1.2c0.2-0.5,0.5-0.9,1-1.2s1-0.4,1.5-0.4C696.2,42.6,696.7,42.7,697.2,42.9z"/>
<path d="M706.6,46.7h-5.7c0,1.2,1,2.3,2.2,2.3h0.1c0.5,0,0.9-0.1,1.3-0.4c0.3-0.2,0.6-0.6,0.7-1h1.3c-0.2,0.7-0.6,1.3-1.2,1.7
	c-0.6,0.4-1.4,0.7-2.1,0.7c-0.6,0-1.3-0.2-1.8-0.5s-1-0.8-1.3-1.3c-0.6-1.2-0.6-2.7,0-3.9c0.3-0.5,0.7-1,1.2-1.3
	c0.6-0.3,1.2-0.5,1.8-0.5s1.2,0.1,1.8,0.4c0.5,0.3,0.9,0.7,1.2,1.2s0.4,1.1,0.4,1.7C706.7,46.2,706.6,46.5,706.6,46.7z M705.1,44.6
	c-0.2-0.3-0.5-0.6-0.8-0.7c-0.4-0.2-0.7-0.3-1.1-0.2c-0.6,0-1.1,0.2-1.5,0.6c-0.4,0.4-0.7,1-0.7,1.6h4.5
	C705.4,45.4,705.3,45,705.1,44.6z"/>
<path d="M713.4,43.4c0.6,0.6,0.9,1.4,0.8,2.3v4.2H713v-4c0-0.6-0.1-1.2-0.5-1.6c-0.4-0.4-0.9-0.6-1.5-0.6s-1.1,0.2-1.5,0.6
	c-0.4,0.5-0.6,1.1-0.5,1.7v3.9h-1.2v-7.2h1.2v1c0.2-0.4,0.6-0.7,1-0.8c0.4-0.2,0.9-0.3,1.3-0.3C712.1,42.6,712.9,42.8,713.4,43.4z"
	/>
<path d="M717.2,43.7v4.2c0,0.3,0.1,0.5,0.2,0.7c0.2,0.2,0.5,0.3,0.8,0.2h0.9v1H718c-0.5,0-1.1-0.1-1.5-0.5s-0.5-1-0.5-1.5v-4.2h-0.9
	v-1h0.9v-1.8h1.2v1.8h1.9v1L717.2,43.7L717.2,43.7z"/>
<path d="M721.4,48.2l-1.5,3.5h-0.8l1-3.5H721.4z"/>
<path d="M725.5,44.3c0.3-0.5,0.7-1,1.2-1.3s1.1-0.5,1.7-0.5c0.5,0,1.1,0.1,1.6,0.4c0.4,0.2,0.8,0.6,1.1,1v-3.8h1.2v9.6h-1.2v-1.3
	c-0.2,0.4-0.6,0.8-1,1c-0.5,0.3-1,0.4-1.6,0.4s-1.2-0.2-1.7-0.5s-0.9-0.8-1.2-1.3c-0.3-0.6-0.5-1.3-0.4-1.9
	C725.1,45.6,725.2,44.9,725.5,44.3z M730.8,44.9c-0.2-0.4-0.5-0.7-0.9-0.9s-0.8-0.3-1.2-0.3s-0.8,0.1-1.2,0.3s-0.7,0.5-0.9,0.9
	s-0.3,0.9-0.3,1.4s0.1,1,0.3,1.4s0.5,0.7,0.9,0.9s0.8,0.3,1.2,0.3s0.8-0.1,1.2-0.3s0.7-0.5,0.9-0.9s0.3-0.9,0.3-1.4
	C731.1,45.8,731,45.3,730.8,44.9z"/>
<path d="M740.4,46.7h-5.7c0,1.2,1,2.3,2.2,2.3h0.1c0.5,0,0.9-0.1,1.3-0.4c0.3-0.2,0.6-0.6,0.7-1h1.3c-0.2,0.7-0.6,1.3-1.1,1.7
	c-0.6,0.5-1.4,0.7-2.1,0.7c-0.6,0-1.3-0.2-1.8-0.5s-1-0.7-1.2-1.3c-0.3-0.6-0.5-1.3-0.5-2s0.1-1.3,0.4-1.9c0.3-0.5,0.7-1,1.2-1.3
	c0.6-0.3,1.2-0.5,1.8-0.5s1.2,0.1,1.8,0.4c0.5,0.3,0.9,0.7,1.2,1.2s0.4,1.1,0.4,1.7C740.4,46.3,740.4,46.5,740.4,46.7z M738.9,44.6
	c-0.2-0.3-0.5-0.6-0.8-0.7c-0.4-0.2-0.7-0.3-1.1-0.2c-0.6,0-1.1,0.2-1.5,0.6c-0.4,0.4-0.7,1-0.7,1.6h4.5
	C739.2,45.4,739.1,45,738.9,44.6z"/>
<path d="M742.7,49.7c-0.4-0.2-0.7-0.4-1-0.8c-0.2-0.3-0.4-0.7-0.4-1.2h1.2c0,0.3,0.2,0.7,0.5,0.9s0.8,0.4,1.2,0.3
	c0.4,0,0.8-0.1,1.1-0.3c0.2-0.2,0.4-0.5,0.4-0.8s-0.1-0.6-0.4-0.7c-0.4-0.2-0.8-0.4-1.3-0.5c-0.4-0.1-0.9-0.3-1.3-0.4
	c-0.3-0.1-0.6-0.4-0.9-0.6c-0.5-0.6-0.5-1.5,0-2.1c0.2-0.3,0.5-0.6,0.9-0.7c0.4-0.2,0.9-0.3,1.4-0.3c0.7,0,1.4,0.2,1.9,0.6
	c0.5,0.4,0.8,1,0.8,1.6h-1.2c0-0.3-0.2-0.7-0.5-0.8c-0.3-0.2-0.7-0.4-1.1-0.3c-0.4,0-0.7,0.1-1,0.3c-0.2,0.2-0.4,0.4-0.4,0.7
	c0,0.2,0.1,0.4,0.2,0.6c0.2,0.2,0.4,0.3,0.6,0.4c0.2,0.1,0.5,0.2,1,0.3c0.4,0.1,0.8,0.2,1.2,0.4c0.3,0.1,0.6,0.3,0.8,0.6
	s0.4,0.6,0.4,1s-0.1,0.8-0.4,1.1c-0.2,0.3-0.5,0.6-0.9,0.7c-0.4,0.2-0.9,0.3-1.4,0.3S743.1,49.9,742.7,49.7z"/>
<path d="M748.1,41.3c-0.2-0.1-0.2-0.4-0.2-0.6c0-0.2,0.1-0.4,0.2-0.6c0.1-0.2,0.4-0.2,0.6-0.2c0.2,0,0.4,0.1,0.5,0.2
	c0.1,0.2,0.2,0.4,0.2,0.6c0,0.2-0.1,0.4-0.2,0.6c-0.1,0.2-0.3,0.2-0.5,0.2C748.4,41.6,748.2,41.5,748.1,41.3z M749.2,42.7v7.1H748
	v-7.1H749.2z"/>
<path d="M755.4,43c0.4,0.2,0.8,0.6,1,1v-1.3h1.2V50c0,0.6-0.1,1.2-0.4,1.7c-0.3,0.5-0.7,0.9-1.2,1.2c-0.6,0.3-1.2,0.4-1.8,0.4
	c-0.8,0-1.6-0.2-2.3-0.7c-0.6-0.4-1-1.1-1.1-1.8h1.2c0.1,0.4,0.4,0.8,0.8,1c0.4,0.3,0.9,0.4,1.5,0.4s1.2-0.2,1.6-0.6
	c0.4-0.5,0.6-1.1,0.6-1.7v-1.5c-0.2,0.4-0.6,0.8-1,1c-0.5,0.3-1,0.4-1.6,0.4c-1.2,0-2.4-0.7-2.9-1.8c-0.3-0.6-0.4-1.3-0.4-1.9
	c0-0.7,0.1-1.3,0.4-1.9c0.3-0.5,0.7-1,1.2-1.3s1.1-0.5,1.7-0.5C754.4,42.5,755,42.7,755.4,43z M756.1,44.9c-0.2-0.4-0.5-0.7-0.9-0.9
	s-0.8-0.3-1.2-0.3s-0.8,0.1-1.2,0.3s-0.7,0.5-0.9,0.9s-0.3,0.9-0.3,1.4s0.1,1,0.3,1.4s0.5,0.7,0.9,0.9s0.8,0.3,1.2,0.3
	s0.8-0.1,1.2-0.3s0.7-0.5,0.9-0.9s0.3-0.9,0.3-1.4C756.5,45.8,756.4,45.3,756.1,44.9L756.1,44.9z"/>
<path d="M764.9,43.4c0.6,0.6,0.9,1.4,0.8,2.3v4.2h-1.2v-4c0-0.6-0.1-1.2-0.5-1.6c-0.4-0.4-0.9-0.6-1.5-0.6s-1.1,0.2-1.5,0.6
	c-0.4,0.5-0.6,1.1-0.5,1.7v3.9h-1.2v-7.2h1.2v1c0.2-0.4,0.6-0.7,1-0.8C762.6,42.4,764,42.5,764.9,43.4L764.9,43.4z"/>
<path d="M771.8,43.7v4.2c0,0.3,0.1,0.5,0.2,0.7c0.2,0.2,0.5,0.2,0.8,0.2h0.9v1h-1.1c-0.5,0-1.1-0.1-1.5-0.5s-0.5-1-0.5-1.5v-4.2
	h-0.9v-1h0.9v-1.8h1.2v1.8h1.9v1L771.8,43.7L771.8,43.7z"/>
<path d="M779.7,42.9c0.4,0.2,0.8,0.6,1,1c0.3,0.5,0.4,1.1,0.4,1.7v4.2h-1.2v-4c0-0.6-0.1-1.2-0.5-1.6c-0.4-0.4-0.9-0.6-1.5-0.6
	s-1.1,0.2-1.5,0.6c-0.4,0.5-0.6,1.1-0.5,1.7v3.9h-1.2v-9.6h1.2v3.5c0.2-0.4,0.6-0.7,1-0.8c0.4-0.2,0.9-0.3,1.4-0.3
	C778.8,42.6,779.3,42.7,779.7,42.9z"/>
<path d="M789.1,46.7h-5.7c0,1.2,1,2.3,2.2,2.3h0.1c0.5,0,0.9-0.1,1.3-0.4c0.3-0.2,0.6-0.6,0.7-1h1.2c-0.2,0.7-0.6,1.3-1.1,1.7
	c-0.6,0.4-1.4,0.7-2.1,0.7c-0.6,0-1.3-0.2-1.8-0.5s-1-0.7-1.2-1.3c-0.3-0.6-0.5-1.3-0.5-2s0.1-1.3,0.4-1.9c0.3-0.5,0.7-1,1.2-1.3
	c0.6-0.3,1.2-0.5,1.8-0.5s1.2,0.1,1.8,0.4c0.5,0.3,0.9,0.7,1.2,1.2s0.4,1.1,0.4,1.7C789.2,46.2,789.2,46.5,789.1,46.7z M787.7,44.6
	c-0.2-0.3-0.5-0.6-0.8-0.7c-0.4-0.2-0.7-0.3-1.1-0.2c-0.6,0-1.1,0.2-1.5,0.6c-0.4,0.4-0.7,1-0.7,1.6h4.5
	C788,45.4,787.9,44.9,787.7,44.6z"/>
<path d="M794.5,49.7c-0.4-0.2-0.7-0.4-1-0.8c-0.2-0.3-0.4-0.7-0.4-1.2h1.2c0,0.3,0.2,0.7,0.5,0.9s0.7,0.4,1.2,0.4
	c0.4,0,0.8-0.1,1.1-0.3c0.2-0.2,0.4-0.5,0.4-0.8s-0.1-0.6-0.4-0.7c-0.4-0.2-0.8-0.4-1.3-0.5c-0.4-0.1-0.9-0.3-1.3-0.4
	c-0.3-0.1-0.6-0.4-0.9-0.6c-0.5-0.6-0.5-1.5,0-2.1c0.2-0.3,0.5-0.6,0.9-0.7c0.4-0.2,0.9-0.3,1.4-0.3c0.7,0,1.4,0.2,1.9,0.6
	c0.5,0.4,0.8,1,0.8,1.6h-1.2c0-0.3-0.2-0.7-0.5-0.9s-0.7-0.4-1.1-0.3c-0.4,0-0.7,0.1-1,0.3c-0.2,0.2-0.4,0.4-0.4,0.7
	c0,0.2,0.1,0.4,0.2,0.6c0.2,0.2,0.4,0.3,0.6,0.4c0.2,0.1,0.5,0.2,1,0.3c0.4,0.1,0.8,0.2,1.2,0.4c0.3,0.1,0.6,0.3,0.8,0.6
	s0.4,0.6,0.4,1s-0.1,0.7-0.3,1.1c-0.2,0.3-0.5,0.6-0.9,0.7c-0.5,0.2-0.9,0.3-1.5,0.3C795.5,50,795,49.9,794.5,49.7z"/>
<path d="M804.9,42.9c0.4,0.2,0.8,0.6,1,1c0.3,0.5,0.4,1.1,0.4,1.7v4.2h-1.2v-4c0-0.6-0.1-1.2-0.5-1.6c-0.4-0.4-0.9-0.6-1.5-0.6
	s-1.1,0.2-1.5,0.6c-0.4,0.5-0.6,1.1-0.5,1.7v3.9h-1.2v-9.6h1.2v3.5c0.2-0.4,0.6-0.7,1-0.8c0.4-0.2,0.9-0.3,1.4-0.3
	C804,42.6,804.5,42.7,804.9,42.9z"/>
<path d="M807.9,44.3c0.3-0.5,0.7-1,1.2-1.3s1.1-0.5,1.7-0.5c0.6,0,1.1,0.1,1.6,0.4c0.4,0.2,0.8,0.6,1,1v-1.3h1.2v7.1h-1.2v-1.3
	c-0.3,0.4-0.6,0.8-1,1c-0.5,0.3-1.1,0.4-1.6,0.4c-0.6,0-1.2-0.2-1.7-0.5s-0.9-0.8-1.2-1.3c-0.3-0.6-0.5-1.3-0.5-1.9
	C807.4,45.6,807.5,44.9,807.9,44.3z M813.1,44.9c-0.7-1.2-2.1-1.6-3.3-0.9c-0.4,0.2-0.7,0.5-0.9,0.9s-0.3,0.9-0.3,1.4s0.1,1,0.3,1.4
	s0.5,0.7,0.9,0.9c0.8,0.4,1.7,0.4,2.4,0c0.4-0.2,0.7-0.5,0.9-0.9s0.3-0.9,0.3-1.4C813.5,45.8,813.3,45.3,813.1,44.9z"/>
<path d="M818.3,42.9c0.4-0.2,0.9-0.3,1.4-0.3v1.2h-0.3c-1.3,0-2,0.7-2,2.2v3.9h-1.2v-7.1h1.2V44C817.7,43.5,818,43.2,818.3,42.9z"/>
<path d="M827.2,46.7h-5.7c0,0.6,0.3,1.2,0.7,1.6c0.4,0.4,1,0.6,1.6,0.6c0.5,0,0.9-0.1,1.3-0.4c0.3-0.2,0.6-0.6,0.7-1h1.3
	c-0.2,0.7-0.6,1.3-1.1,1.7c-0.6,0.4-1.4,0.7-2.1,0.7c-0.6,0-1.3-0.2-1.8-0.5s-1-0.7-1.2-1.3c-0.3-0.6-0.5-1.3-0.5-2s0.1-1.3,0.4-1.9
	c0.3-0.5,0.7-1,1.2-1.3c0.6-0.3,1.2-0.5,1.8-0.5s1.2,0.1,1.8,0.4c0.5,0.3,0.9,0.7,1.2,1.2s0.4,1.1,0.4,1.7
	C827.3,46.3,827.2,46.5,827.2,46.7z M825.7,44.6c-0.2-0.3-0.5-0.6-0.8-0.7c-0.4-0.2-0.7-0.3-1.1-0.2c-0.6,0-1.1,0.2-1.5,0.6
	c-0.4,0.4-0.7,1-0.7,1.6h4.5C826,45.4,825.9,45,825.7,44.6z"/>
<path d="M828.5,44.3c0.3-0.5,0.7-1,1.2-1.3s1.1-0.5,1.7-0.5c0.6,0,1.1,0.1,1.6,0.4c0.4,0.2,0.8,0.6,1.1,1v-3.8h1.2v9.6h-1.2v-1.3
	c-0.2,0.4-0.6,0.8-1,1c-0.5,0.3-1,0.4-1.6,0.4s-1.2-0.2-1.7-0.5s-0.9-0.8-1.2-1.3c-0.3-0.6-0.4-1.3-0.4-1.9
	C828.1,45.6,828.2,44.9,828.5,44.3z M833.7,44.9c-0.2-0.4-0.5-0.7-0.9-0.9s-0.8-0.3-1.2-0.3s-0.8,0.1-1.2,0.3s-0.7,0.5-0.9,0.9
	s-0.3,0.9-0.3,1.4s0.1,1,0.3,1.4s0.5,0.7,0.9,0.9s0.8,0.3,1.2,0.3s0.8-0.1,1.2-0.3s0.7-0.5,0.9-0.9s0.3-0.9,0.3-1.4
	C834.1,45.8,833.9,45.3,833.7,44.9L833.7,44.9z"/>
<path d="M842.9,43.7h-1.5v6.2h-1.2v-6.2h-0.9v-1h0.9v-0.5c-0.1-0.6,0.2-1.3,0.6-1.8c0.6-0.4,1.3-0.6,2-0.5v1c-0.4,0-0.8,0.1-1.1,0.3
	c-0.2,0.3-0.4,0.6-0.3,1v0.5h1.5V43.7z"/>
<path d="M845.1,40.2v9.6h-1.2v-9.6C843.9,40.2,845.1,40.2,845.1,40.2z"/>
<path d="M846.8,41.3c-0.2-0.1-0.2-0.4-0.2-0.6c0-0.2,0.1-0.4,0.2-0.6c0.1-0.2,0.4-0.2,0.6-0.2c0.2,0,0.4,0.1,0.5,0.2
	c0.1,0.2,0.2,0.4,0.2,0.6c0,0.2-0.1,0.4-0.2,0.6c-0.1,0.2-0.3,0.2-0.5,0.2C847.1,41.6,846.9,41.5,846.8,41.3z M847.9,42.7v7.1h-1.2
	v-7.1H847.9z"/>
<path d="M854.1,43c0.4,0.2,0.8,0.6,1,1v-1.3h1.2V50c0,0.6-0.1,1.2-0.4,1.7c-0.3,0.5-0.7,0.9-1.2,1.2c-0.6,0.3-1.2,0.4-1.8,0.4
	c-0.8,0-1.6-0.2-2.3-0.7c-0.6-0.4-1-1.1-1.1-1.8h1.2c0.1,0.4,0.4,0.8,0.8,1c0.4,0.3,1,0.4,1.5,0.4c0.6,0,1.2-0.2,1.6-0.6
	c0.4-0.5,0.7-1.1,0.6-1.7v-1.5c-0.2,0.4-0.6,0.8-1,1c-0.5,0.3-1,0.4-1.6,0.4c-1.2,0-2.4-0.7-2.9-1.8c-0.3-0.6-0.4-1.3-0.4-1.9
	c0-0.7,0.1-1.3,0.4-1.9c0.3-0.5,0.7-1,1.2-1.3s1.1-0.5,1.7-0.5C853.1,42.5,853.6,42.7,854.1,43z M854.8,44.9
	c-0.2-0.4-0.5-0.7-0.8-0.9c-0.4-0.2-0.8-0.3-1.2-0.3s-0.8,0.1-1.2,0.3s-0.7,0.5-0.9,0.9s-0.3,0.9-0.3,1.4s0.1,1,0.3,1.4
	s0.5,0.7,0.9,0.9s0.8,0.3,1.2,0.3s0.8-0.1,1.2-0.3s0.7-0.5,0.9-0.9s0.3-0.9,0.3-1.4C855.2,45.8,855.1,45.3,854.8,44.9L854.8,44.9z"
	/>
<path d="M863,42.9c0.4,0.2,0.8,0.6,1,1c0.3,0.5,0.4,1.1,0.4,1.7v4.2h-1.2v-4c0-0.6-0.1-1.2-0.5-1.6c-0.4-0.4-0.9-0.6-1.5-0.6
	s-1.1,0.2-1.5,0.6c-0.4,0.5-0.6,1.1-0.5,1.7v3.9H858v-9.6h1.2v3.5c0.2-0.4,0.6-0.7,1-0.8C861.1,42.5,862.1,42.5,863,42.9L863,42.9z"
	/>
<path d="M867.4,43.7v4.2c0,0.3,0.1,0.5,0.2,0.7c0.2,0.2,0.5,0.3,0.8,0.2h0.9v1h-1.1c-0.5,0-1.1-0.1-1.5-0.5s-0.5-1-0.5-1.5v-4.2
	h-0.9v-1h0.9v-1.8h1.2v1.8h1.9v1L867.4,43.7L867.4,43.7z"/>
<path d="M879.9,46.7h-5.7c0,0.6,0.3,1.2,0.7,1.6c0.4,0.4,1,0.6,1.6,0.6c0.5,0,0.9-0.1,1.3-0.4c0.3-0.2,0.6-0.6,0.7-1h1.3
	c-0.2,0.7-0.6,1.3-1.1,1.7c-0.6,0.4-1.4,0.7-2.1,0.7c-0.6,0-1.3-0.2-1.8-0.5s-1-0.7-1.2-1.3c-0.3-0.6-0.5-1.3-0.5-2s0.1-1.3,0.5-1.9
	c0.3-0.5,0.7-1,1.2-1.3c0.6-0.3,1.2-0.5,1.8-0.5s1.2,0.1,1.8,0.4c0.5,0.3,0.9,0.7,1.2,1.2s0.4,1.1,0.4,1.7
	C879.9,46.2,879.9,46.5,879.9,46.7z M878.4,44.6c-0.2-0.3-0.5-0.6-0.8-0.7c-0.4-0.2-0.7-0.3-1.1-0.2c-0.6,0-1.1,0.2-1.5,0.6
	c-0.4,0.4-0.7,1-0.7,1.6h4.5C878.7,45.4,878.6,45,878.4,44.6L878.4,44.6z"/>
<path d="M884.8,49.8l-1.7-2.7l-1.6,2.7h-1.2l2.3-3.5l-2.3-3.6h1.3l1.7,2.6l1.6-2.6h1.2l-2.3,3.5l2.3,3.6H884.8z"/>
<path d="M889.2,43c0.5-0.3,1.1-0.4,1.6-0.4c0.6,0,1.2,0.1,1.7,0.5c0.5,0.3,0.9,0.8,1.2,1.3c0.3,0.6,0.5,1.3,0.4,1.9
	c0,0.7-0.1,1.3-0.4,1.9c-0.3,0.5-0.7,1-1.2,1.3s-1.1,0.5-1.7,0.5c-0.6,0-1.1-0.1-1.6-0.4c-0.4-0.2-0.8-0.6-1.1-1v4.7H887V42.7h1.2
	V44C888.4,43.6,888.8,43.2,889.2,43z M892.7,44.8c-0.2-0.4-0.5-0.7-0.9-0.9c-1.1-0.7-2.6-0.3-3.2,0.8c0,0,0,0.1-0.1,0.1
	c-0.2,0.4-0.3,0.9-0.3,1.4s0.1,1,0.3,1.4s0.5,0.7,0.9,0.9c0.8,0.4,1.7,0.4,2.4,0c0.4-0.2,0.7-0.5,0.9-0.9s0.3-0.9,0.3-1.4
	C893,45.8,892.9,45.3,892.7,44.8L892.7,44.8z"/>
<path d="M901.9,46.7h-5.7c0,1.2,1,2.3,2.2,2.3h0.1c0.5,0,0.9-0.1,1.3-0.4c0.3-0.2,0.6-0.6,0.7-1h1.3c-0.2,0.7-0.6,1.3-1.2,1.7
	c-0.6,0.4-1.4,0.7-2.1,0.7c-0.6,0-1.3-0.2-1.8-0.5s-1-0.7-1.3-1.3s-0.5-1.3-0.5-2s0.1-1.3,0.4-1.9c0.3-0.5,0.7-1,1.2-1.3
	c0.6-0.3,1.2-0.5,1.8-0.5s1.2,0.1,1.8,0.4c0.5,0.3,0.9,0.7,1.2,1.2s0.4,1.1,0.4,1.7C901.9,46.2,901.9,46.5,901.9,46.7z M900.4,44.6
	c-0.2-0.3-0.5-0.6-0.8-0.7c-0.4-0.2-0.7-0.3-1.1-0.2c-0.6,0-1.1,0.2-1.5,0.6c-0.4,0.4-0.7,1-0.7,1.6h4.5
	C900.7,45.4,900.6,45,900.4,44.6z"/>
<path d="M905.2,42.9c0.4-0.2,0.9-0.3,1.4-0.3v1.2h-0.3c-1.3,0-2,0.7-2,2.2v3.9h-1.2v-7.1h1.2V44C904.5,43.5,904.8,43.2,905.2,42.9z"
	/>
<path d="M907.6,41.3c-0.2-0.1-0.2-0.4-0.2-0.6c0-0.2,0.1-0.4,0.2-0.6c0.1-0.2,0.4-0.2,0.6-0.2c0.2,0,0.4,0.1,0.5,0.2
	c0.1,0.2,0.2,0.4,0.2,0.6c0,0.2-0.1,0.4-0.2,0.6c-0.1,0.2-0.3,0.2-0.5,0.2C908,41.6,907.8,41.5,907.6,41.3z M908.8,42.7v7.1h-1.2
	v-7.1H908.8z"/>
<path d="M916.9,46.7h-5.7c0,1.2,1,2.3,2.2,2.3h0.1c0.5,0,0.9-0.1,1.3-0.4c0.3-0.2,0.6-0.6,0.7-1h1.3c-0.2,0.7-0.6,1.3-1.1,1.7
	c-0.6,0.4-1.4,0.7-2.1,0.7c-0.6,0-1.3-0.2-1.8-0.5s-1-0.7-1.2-1.3c-0.3-0.6-0.5-1.3-0.5-2s0.1-1.3,0.4-1.9c0.3-0.5,0.7-1,1.2-1.3
	c1.1-0.6,2.5-0.6,3.6,0c0.5,0.3,0.9,0.7,1.2,1.2s0.4,1.1,0.4,1.7C916.9,46.3,916.9,46.5,916.9,46.7z M915.4,44.6
	c-0.2-0.3-0.5-0.6-0.8-0.7c-0.4-0.2-0.7-0.3-1.1-0.2c-0.6,0-1.1,0.2-1.5,0.6c-0.4,0.4-0.7,1-0.7,1.6h4.5
	C915.7,45.4,915.6,45,915.4,44.6z"/>
<path d="M923.7,43.4c0.6,0.6,0.9,1.4,0.8,2.3v4.2h-1.2v-4c0-0.6-0.1-1.2-0.5-1.6c-0.4-0.4-0.9-0.6-1.5-0.6s-1.1,0.2-1.5,0.6
	c-0.4,0.5-0.6,1.1-0.6,1.7v3.9H918v-7.2h1.2v1c0.2-0.4,0.6-0.7,1-0.8c0.4-0.2,0.9-0.3,1.3-0.3C922.4,42.6,923.1,42.9,923.7,43.4z"/>
<path d="M926.1,44.3c0.3-0.5,0.7-1,1.2-1.3c0.6-0.3,1.2-0.5,1.8-0.5c0.8,0,1.5,0.2,2.2,0.6c0.6,0.4,1,1.1,1.1,1.8h-1.3
	c-0.1-0.4-0.4-0.8-0.7-1c-0.4-0.3-0.8-0.4-1.3-0.4c-0.6,0-1.2,0.2-1.6,0.7c-0.5,0.6-0.7,1.3-0.6,2c-0.1,0.7,0.2,1.4,0.6,2
	c0.4,0.5,1,0.7,1.6,0.7c0.5,0,0.9-0.1,1.3-0.4c0.3-0.2,0.6-0.6,0.7-1h1.3c-0.2,0.7-0.6,1.3-1.1,1.8c-0.6,0.5-1.4,0.7-2.2,0.7
	c-0.6,0-1.3-0.2-1.8-0.5s-0.9-0.7-1.2-1.3s-0.5-1.3-0.5-2C925.6,45.6,925.8,45,926.1,44.3z"/>
<path d="M940.1,46.7h-5.7c0,1.2,1,2.3,2.2,2.3h0.1c0.5,0,0.9-0.1,1.3-0.4c0.3-0.2,0.6-0.6,0.7-1h1.3c-0.2,0.7-0.6,1.3-1.1,1.7
	c-0.6,0.4-1.4,0.7-2.1,0.7c-0.6,0-1.3-0.2-1.8-0.5s-1-0.7-1.2-1.3c-0.3-0.6-0.5-1.3-0.5-2s0.1-1.3,0.4-1.9c0.3-0.5,0.7-1,1.2-1.3
	c0.6-0.3,1.2-0.5,1.8-0.5s1.2,0.1,1.8,0.4c0.5,0.3,0.9,0.7,1.2,1.2s0.4,1.1,0.4,1.7C940.1,46.2,940.1,46.5,940.1,46.7z M938.6,44.6
	c-0.2-0.3-0.5-0.6-0.8-0.7c-0.4-0.2-0.7-0.3-1.1-0.2c-0.6,0-1.1,0.2-1.5,0.6c-0.4,0.4-0.7,1-0.7,1.6h4.5
	C938.9,45.4,938.8,45,938.6,44.6z"/>
<path d="M942.5,48.2l-1.5,3.5h-0.8l1-3.5H942.5z"/>
<path d="M946.6,44.3c0.3-0.5,0.7-1,1.2-1.3s1.1-0.5,1.7-0.5c0.6,0,1.1,0.1,1.6,0.4c0.4,0.2,0.8,0.6,1,1v-1.3h1.2v7.1h-1.2v-1.3
	c-0.3,0.4-0.6,0.8-1,1c-0.5,0.3-1.1,0.4-1.6,0.4c-0.6,0-1.2-0.2-1.7-0.5s-0.9-0.8-1.2-1.3c-0.3-0.6-0.5-1.3-0.5-1.9
	C946.1,45.6,946.3,44.9,946.6,44.3z M951.9,44.9c-0.2-0.4-0.5-0.7-0.9-0.9s-0.8-0.3-1.2-0.3s-0.8,0.1-1.2,0.3s-0.7,0.5-0.9,0.9
	s-0.3,0.9-0.3,1.4s0.1,1,0.3,1.4s0.5,0.7,0.9,0.9s0.8,0.3,1.2,0.3s0.8-0.1,1.2-0.3s0.7-0.5,0.9-0.9s0.3-0.9,0.3-1.4
	C952.2,45.8,952.1,45.3,951.9,44.9z"/>
<path d="M960.6,43.4c0.6,0.6,0.9,1.4,0.8,2.3v4.2h-1.2v-4c0-0.6-0.1-1.2-0.5-1.6c-0.4-0.4-0.9-0.6-1.5-0.6s-1.1,0.2-1.5,0.6
	c-0.4,0.5-0.6,1.1-0.6,1.7v3.9H955v-7.2h1.2v1c0.2-0.4,0.6-0.7,1-0.8c0.4-0.2,0.9-0.3,1.3-0.3C959.3,42.6,960.1,42.8,960.6,43.4z"/>
<path d="M963,44.3c0.3-0.5,0.7-1,1.2-1.3s1.1-0.5,1.7-0.5c0.5,0,1.1,0.1,1.5,0.4c0.4,0.2,0.8,0.6,1.1,1v-3.8h1.2v9.6h-1.2v-1.3
	c-0.3,0.4-0.6,0.8-1,1c-0.5,0.3-1,0.4-1.6,0.4c-1.2,0-2.4-0.7-2.9-1.8c-0.3-0.6-0.5-1.3-0.5-1.9C962.5,45.6,962.7,44.9,963,44.3z
	 M968.3,44.9c-0.2-0.4-0.5-0.7-0.9-0.9s-0.8-0.3-1.2-0.3s-0.8,0.1-1.2,0.4c-0.4,0.2-0.7,0.5-0.9,0.9s-0.3,0.9-0.3,1.4s0.1,1,0.3,1.4
	s0.5,0.7,0.9,0.9s0.8,0.3,1.2,0.3s0.8-0.1,1.2-0.3s0.7-0.5,0.9-0.9s0.3-0.9,0.3-1.4C968.6,45.8,968.5,45.3,968.3,44.9z"/>
<path d="M976,43.7v4.2c0,0.3,0.1,0.5,0.2,0.7c0.2,0.2,0.5,0.3,0.8,0.2h0.9v1h-1.1c-0.5,0-1.1-0.1-1.5-0.5s-0.5-1-0.5-1.5v-4.2h-0.9
	v-1h0.9v-1.8h1.2v1.8h1.9v1L976,43.7L976,43.7z"/>
<path d="M983.9,42.9c0.4,0.2,0.8,0.6,1,1c0.3,0.5,0.4,1.1,0.4,1.7v4.2h-1.2v-4c0-0.6-0.2-1.2-0.5-1.6c-0.4-0.4-0.9-0.6-1.5-0.6
	s-1.1,0.2-1.5,0.6c-0.4,0.5-0.6,1.1-0.5,1.7v3.9h-1.2v-9.6h1.2v3.5c0.2-0.4,0.6-0.7,1-0.8C982,42.5,983,42.5,983.9,42.9L983.9,42.9z
	"/>
<path d="M993.3,46.7h-5.7c0,1.2,1,2.3,2.2,2.3h0.1c0.5,0,0.9-0.1,1.3-0.4c0.3-0.2,0.6-0.6,0.7-1h1.3c-0.2,0.7-0.6,1.3-1.2,1.7
	c-0.6,0.4-1.4,0.7-2.1,0.7c-0.6,0-1.3-0.2-1.8-0.5s-1-0.7-1.3-1.3c-0.6-1.2-0.6-2.7,0-3.9c0.3-0.5,0.7-1,1.2-1.3
	c0.6-0.3,1.2-0.5,1.8-0.5s1.2,0.1,1.8,0.4c0.5,0.3,0.9,0.7,1.2,1.2s0.4,1.1,0.4,1.7C993.4,46.2,993.3,46.5,993.3,46.7z M991.8,44.6
	c-0.2-0.3-0.5-0.6-0.8-0.7c-0.4-0.2-0.7-0.3-1.1-0.2c-0.6,0-1.1,0.2-1.5,0.6c-0.4,0.4-0.7,1-0.7,1.6h4.5
	C992.1,45.4,992,45,991.8,44.6z"/>
<path d="M999.7,42.9c0.4-0.2,0.9-0.3,1.4-0.3v1.2h-0.3c-1.3,0-2,0.7-2,2.2v3.9h-1.2v-7.1h1.2V44C999,43.5,999.3,43.2,999.7,42.9z"/>
<path d="M1008.6,46.7h-5.7c0,1.2,1,2.2,2.3,2.2c0,0,0,0,0.1,0c0.5,0,0.9-0.1,1.3-0.4c0.3-0.2,0.6-0.6,0.7-1h1.3
	c-0.2,0.7-0.6,1.3-1.2,1.7c-0.6,0.4-1.4,0.7-2.1,0.7c-0.6,0-1.3-0.2-1.8-0.5s-1-0.7-1.3-1.3s-0.5-1.3-0.5-2s0.1-1.3,0.4-1.9
	c0.3-0.5,0.7-1,1.2-1.3c0.6-0.3,1.2-0.5,1.8-0.5s1.2,0.1,1.8,0.4c0.5,0.3,0.9,0.7,1.2,1.2s0.4,1.1,0.4,1.7
	C1008.6,46.2,1008.6,46.5,1008.6,46.7z M1007.1,44.6c-0.2-0.3-0.5-0.6-0.8-0.7c-0.4-0.2-0.7-0.3-1.1-0.2c-0.6,0-1.1,0.2-1.5,0.6
	c-0.4,0.4-0.7,1-0.7,1.6h4.5C1007.4,45.4,1007.3,45,1007.1,44.6z"/>
<path d="M1012.7,43.7h-1.5v6.2h-1.2v-6.2h-0.9v-1h0.9v-0.5c-0.1-0.6,0.2-1.3,0.6-1.8c0.6-0.4,1.3-0.6,2-0.5v1
	c-0.4,0-0.8,0.1-1.1,0.3c-0.2,0.3-0.4,0.6-0.3,1v0.5h1.5V43.7z"/>
<path d="M1013.8,41.3c-0.2-0.1-0.2-0.4-0.2-0.6c0-0.2,0.1-0.4,0.2-0.6c0.1-0.2,0.4-0.2,0.6-0.2c0.2,0,0.4,0.1,0.5,0.2
	c0.1,0.2,0.2,0.4,0.2,0.6c0,0.2-0.1,0.4-0.2,0.6c-0.1,0.2-0.3,0.2-0.5,0.2C1014.1,41.6,1013.9,41.5,1013.8,41.3z M1014.9,42.7v7.1
	h-1.2v-7.1H1014.9z"/>
<path d="M1022.2,43.4c0.6,0.6,0.9,1.4,0.8,2.3v4.2h-1.2v-4c0-0.6-0.1-1.2-0.5-1.6c-0.4-0.4-0.9-0.6-1.5-0.6s-1.1,0.2-1.5,0.6
	c-0.4,0.5-0.6,1.1-0.6,1.7v3.9h-1.2v-7.2h1.2v1c0.2-0.4,0.6-0.7,1-0.8c0.4-0.2,0.9-0.3,1.3-0.3C1020.9,42.6,1021.6,42.9,1022.2,43.4
	z"/>
<path d="M1031,46.7h-5.7c0,0.6,0.3,1.2,0.7,1.6c0.4,0.4,1,0.6,1.6,0.6c0.5,0,0.9-0.1,1.3-0.4c0.3-0.2,0.6-0.6,0.7-1h1.3
	c-0.2,0.7-0.6,1.3-1.1,1.7c-0.6,0.4-1.4,0.7-2.1,0.7c-0.6,0-1.3-0.2-1.8-0.5s-1-0.7-1.2-1.3c-0.3-0.6-0.5-1.3-0.5-2s0.1-1.3,0.4-1.9
	c0.3-0.5,0.7-1,1.2-1.3c0.6-0.3,1.2-0.5,1.8-0.5c0.6,0,1.2,0.1,1.8,0.4c0.5,0.3,0.9,0.7,1.2,1.2c0.3,0.5,0.4,1.2,0.4,1.8
	C1031,46.2,1031,46.5,1031,46.7z M1029.5,44.6c-0.2-0.3-0.5-0.6-0.8-0.7c-0.4-0.2-0.7-0.3-1.1-0.2c-0.6,0-1.1,0.2-1.5,0.6
	c-0.4,0.4-0.7,1-0.7,1.6h4.5C1029.8,45.4,1029.7,45,1029.5,44.6z"/>
<path d="M1042.3,42.9c0.4,0.2,0.8,0.6,1,1c0.3,0.5,0.4,1.1,0.4,1.7v4.2h-1.2v-4c0-0.6-0.1-1.2-0.5-1.6c-0.4-0.4-0.9-0.6-1.4-0.6
	c-0.6,0-1.1,0.2-1.5,0.6c-0.4,0.5-0.6,1.1-0.6,1.7v3.9h-1.2v-4c0-0.6-0.1-1.2-0.5-1.6c-0.4-0.4-0.9-0.6-1.4-0.6
	c-0.6,0-1.1,0.2-1.5,0.6c-0.4,0.5-0.6,1.1-0.5,1.7v3.9h-1.2v-7.1h1.2v1c0.2-0.4,0.6-0.7,0.9-0.8c0.4-0.2,0.9-0.3,1.3-0.3
	c0.6,0,1.1,0.1,1.6,0.4c0.5,0.3,0.8,0.7,1,1.2c0.2-0.5,0.5-0.9,1-1.2s1-0.4,1.5-0.4C1041.3,42.6,1041.8,42.7,1042.3,42.9z"/>
<path d="M1051.7,46.7h-5.7c0,1.2,1,2.2,2.3,2.2c0,0,0,0,0.1,0c0.5,0,0.9-0.1,1.3-0.4c0.3-0.2,0.6-0.6,0.7-1h1.3
	c-0.2,0.7-0.6,1.3-1.2,1.7s-1.4,0.7-2.1,0.7c-0.6,0-1.3-0.2-1.8-0.5s-1-0.7-1.3-1.3s-0.5-1.3-0.4-2c0-0.7,0.1-1.3,0.4-1.9
	c0.3-0.5,0.7-1,1.2-1.3c0.6-0.3,1.2-0.5,1.8-0.5c0.6,0,1.2,0.1,1.8,0.4c0.5,0.3,0.9,0.7,1.2,1.2c0.3,0.5,0.4,1.1,0.4,1.7
	C1051.7,46.2,1051.7,46.5,1051.7,46.7z M1050.2,44.6c-0.2-0.3-0.5-0.6-0.8-0.7c-0.4-0.2-0.7-0.3-1.1-0.2c-0.6,0-1.1,0.2-1.5,0.6
	c-0.4,0.4-0.7,1-0.7,1.6h4.5C1050.6,45.4,1050.4,45,1050.2,44.6z"/>
<path d="M1058.5,43.4c0.6,0.6,0.9,1.4,0.8,2.3v4.2h-1.2v-4c0-0.6-0.2-1.2-0.5-1.6c-0.4-0.4-0.9-0.6-1.4-0.6c-0.6,0-1.1,0.2-1.5,0.6
	c-0.4,0.5-0.6,1.1-0.6,1.7v3.9h-1.1v-7.2h1.2v1c0.2-0.4,0.6-0.7,0.9-0.8c0.4-0.2,0.9-0.3,1.3-0.3C1057.2,42.6,1058,42.9,1058.5,43.4
	z"/>
<path d="M1062.3,43.7v4.2c0,0.3,0.1,0.5,0.2,0.7c0.2,0.2,0.5,0.2,0.8,0.2h0.9v1h-1.1c-0.5,0-1.1-0.1-1.5-0.5s-0.5-1-0.5-1.5v-4.2
	h-0.9v-1h0.9v-1.8h1.2v1.8h1.9v1L1062.3,43.7L1062.3,43.7z"/>
<g>
	<path d="M143.7,47.8l-5.9-10.3h-3.2v10.3h-4.2V22h8.9c2,0,3.6,0.3,5,1s2.4,1.6,3.1,2.8c0.7,1.2,1,2.5,1,3.9c0,1.7-0.5,3.2-1.5,4.6
		s-2.5,2.3-4.5,2.8l6.4,10.7H143.7z M134.6,34.1h4.7c1.6,0,2.8-0.4,3.6-1.2s1.2-1.9,1.2-3.2s-0.4-2.4-1.2-3.1
		c-0.8-0.8-2-1.1-3.6-1.1h-4.7V34.1z"/>
	<path d="M171.2,39.1h-15.6c0.1,1.6,0.7,2.9,1.8,3.9s2.4,1.5,4,1.5c2.3,0,3.9-0.9,4.8-2.8h4.6c-0.6,1.9-1.7,3.4-3.3,4.6
		c-1.6,1.2-3.6,1.8-6,1.8c-1.9,0-3.7-0.4-5.2-1.3c-1.5-0.9-2.8-2.1-3.6-3.7c-0.9-1.6-1.3-3.4-1.3-5.5s0.4-3.9,1.3-5.5
		c0.9-1.6,2-2.8,3.6-3.7s3.3-1.3,5.3-1.3c1.9,0,3.6,0.4,5.1,1.3c1.5,0.8,2.7,2,3.5,3.5s1.3,3.3,1.3,5.2
		C171.4,37.8,171.3,38.5,171.2,39.1z M167,35.7c0-1.6-0.6-2.8-1.7-3.7c-1.1-0.9-2.4-1.4-4-1.4c-1.5,0-2.7,0.5-3.7,1.4
		c-1,0.9-1.7,2.2-1.9,3.8L167,35.7L167,35.7z"/>
	<path d="M174.3,32c0.9-1.6,2-2.8,3.5-3.7c1.5-0.9,3.1-1.3,4.9-1.3c1.3,0,2.6,0.3,3.9,0.9c1.3,0.6,2.3,1.4,3.1,2.3v-9.8h4.3v27.4
		h-4.3v-3.1c-0.7,1-1.6,1.8-2.9,2.4s-2.6,1-4.2,1c-1.8,0-3.4-0.5-4.9-1.4s-2.6-2.2-3.5-3.8s-1.3-3.4-1.3-5.5
		C173.1,35.4,173.5,33.6,174.3,32z M188.9,33.9c-0.6-1-1.3-1.8-2.3-2.4c-0.9-0.5-1.9-0.8-3-0.8s-2.1,0.3-3,0.8
		c-0.9,0.5-1.7,1.3-2.3,2.3s-0.9,2.2-0.9,3.6c0,1.4,0.3,2.6,0.9,3.7c0.6,1.1,1.3,1.9,2.3,2.4c0.9,0.6,2,0.8,3,0.8
		c1.1,0,2.1-0.3,3-0.8s1.7-1.3,2.3-2.4c0.6-1,0.9-2.3,0.9-3.7C189.8,36.1,189.5,34.9,188.9,33.9z"/>
	<path d="M217.1,39.1h-15.6c0.1,1.6,0.7,2.9,1.8,3.9s2.4,1.5,4,1.5c2.3,0,3.9-0.9,4.8-2.8h4.6c-0.6,1.9-1.7,3.4-3.3,4.6
		c-1.6,1.2-3.6,1.8-6,1.8c-1.9,0-3.7-0.4-5.2-1.3c-1.5-0.9-2.8-2.1-3.6-3.7c-0.9-1.6-1.3-3.4-1.3-5.5s0.4-3.9,1.3-5.5
		c0.9-1.6,2-2.8,3.6-3.7s3.3-1.3,5.3-1.3c1.9,0,3.6,0.4,5.1,1.3c1.5,0.8,2.7,2,3.5,3.5s1.3,3.3,1.3,5.2
		C217.2,37.8,217.2,38.5,217.1,39.1z M212.8,35.7c0-1.6-0.6-2.8-1.7-3.7c-1.1-0.9-2.4-1.4-4-1.4c-1.5,0-2.7,0.5-3.7,1.4
		c-1,0.9-1.7,2.2-1.9,3.8L212.8,35.7L212.8,35.7z"/>
	<path d="M223.4,47.2c-1.3-0.6-2.3-1.4-3-2.4s-1.1-2.1-1.2-3.3h4.4c0.1,0.9,0.5,1.6,1.2,2.2c0.8,0.6,1.7,0.9,2.8,0.9
		c1.2,0,2.1-0.2,2.8-0.7s1-1,1-1.8s-0.4-1.3-1.1-1.7c-0.7-0.4-1.9-0.8-3.5-1.2c-1.5-0.4-2.8-0.8-3.7-1.2c-1-0.4-1.8-1-2.5-1.8
		s-1.1-1.9-1.1-3.2c0-1.1,0.3-2.1,1-3c0.6-0.9,1.6-1.6,2.8-2.1s2.6-0.8,4.1-0.8c2.3,0,4.2,0.6,5.6,1.8c1.4,1.2,2.2,2.8,2.3,4.8h-4.2
		c-0.1-0.9-0.4-1.6-1.1-2.2c-0.7-0.5-1.6-0.8-2.7-0.8c-1.1,0-2,0.2-2.6,0.6s-0.9,1-0.9,1.7c0,0.5,0.2,1,0.6,1.4
		c0.4,0.4,0.9,0.7,1.4,0.9c0.6,0.2,1.4,0.5,2.5,0.8c1.5,0.4,2.7,0.8,3.6,1.2c0.9,0.4,1.8,1,2.5,1.8s1,1.8,1.1,3.1
		c0,1.2-0.3,2.2-1,3.1c-0.6,0.9-1.5,1.6-2.7,2.1s-2.5,0.8-4.1,0.8C226.1,48.1,224.7,47.8,223.4,47.2z"/>
	<path d="M239.3,23.9c-0.5-0.5-0.8-1.2-0.8-1.9c0-0.8,0.3-1.4,0.8-1.9s1.2-0.8,1.9-0.8s1.4,0.3,1.9,0.8s0.8,1.2,0.8,1.9
		c0,0.8-0.3,1.4-0.8,1.9s-1.1,0.8-1.9,0.8C240.4,24.7,239.8,24.4,239.3,23.9z M243.3,27.4v20.4H239V27.4H243.3z"/>
	<path d="M260.2,28c1.2,0.6,2.2,1.4,2.9,2.3v-3h4.3V48c0,1.9-0.4,3.5-1.2,5c-0.8,1.5-1.9,2.6-3.4,3.5c-1.5,0.8-3.3,1.3-5.3,1.3
		c-2.8,0-5.1-0.6-6.9-1.9c-1.8-1.3-2.9-3.1-3.1-5.3h4.2c0.3,1.1,1,1.9,2.1,2.6c1,0.7,2.3,1,3.8,1c1.7,0,3.1-0.5,4.1-1.6
		c1-1,1.6-2.5,1.6-4.5v-3.4c-0.7,1-1.7,1.8-2.9,2.4c-1.2,0.7-2.6,1-4.2,1c-1.8,0-3.4-0.5-4.9-1.4s-2.6-2.2-3.5-3.8s-1.3-3.4-1.3-5.5
		c0-2,0.4-3.9,1.3-5.4c0.9-1.6,2-2.8,3.5-3.7c1.5-0.9,3.1-1.3,4.9-1.3C257.6,27,259,27.3,260.2,28z M262.2,33.9
		c-0.6-1-1.3-1.8-2.3-2.4c-0.9-0.5-1.9-0.8-3-0.8s-2.1,0.3-3,0.8c-0.9,0.5-1.7,1.3-2.3,2.3s-0.9,2.2-0.9,3.6c0,1.4,0.3,2.6,0.9,3.7
		c0.6,1.1,1.3,1.9,2.3,2.4c0.9,0.6,2,0.8,3,0.8c1.1,0,2.1-0.3,3-0.8s1.7-1.3,2.3-2.4c0.6-1,0.9-2.3,0.9-3.7
		C263.1,36.1,262.8,34.9,262.2,33.9z"/>
	<path d="M286.4,28c1.3,0.7,2.3,1.7,3,3s1.1,2.9,1.1,4.7v12h-4.2V36.4c0-1.8-0.5-3.2-1.4-4.2s-2.2-1.5-3.7-1.5
		c-1.6,0-2.8,0.5-3.8,1.5c-0.9,1-1.4,2.4-1.4,4.2v11.4h-4.2V27.4h4.2v2.3c0.7-0.8,1.6-1.5,2.6-2c1.1-0.5,2.2-0.7,3.4-0.7
		C283.7,27,285.2,27.4,286.4,28z"/>
</g>
</svg>
