<svg id="Layer_1" data-name="Layer 1" xmlns="http://www.w3.org/2000/svg" viewBox="0 0 260.03 10.31"><defs><style>.cls-1{fill:#f3bc34;}.cls-2{fill:#adadad;}</style></defs><path class="cls-1" d="M206.83,3.91l-.1.3C206.83,4,206.93,3.91,206.83,3.91Zm27.9,2.7h-.1C234.43,7,234.53,6.91,234.73,6.61ZM54.83.81l-.6-.4C54.43.81,54.63.91,54.83.81Zm-20.3,5.4.1.3C34.63,6.31,34.63,6.21,34.53,6.21Zm-12.1,1.2a3.37,3.37,0,0,0-1-.1A3.07,3.07,0,0,0,22.43,7.41Zm-4.9-5.8c-.1.1-.2.1-.4.2C17.33,1.71,17.43,1.61,17.53,1.61Zm35.2,4.8.5.9A4.4,4.4,0,0,0,52.73,6.41Zm-33.2,1.8c-.2-.2-.4-.2-.6-.3C18.93,8.11,19.23,8.21,19.53,8.21ZM120.93,8c-.1.1-.2.2-.2.3C121,8.21,121,8.11,120.93,8Zm-40-1h-.1a.35.35,0,0,0,.2.1Zm11.7,0-.2.2C92.63,7.11,92.63,7.11,92.63,7Zm-20.5.9c-.1.1-.3.2-.4.3Z" transform="translate(0 0)"/><path class="cls-2" d="M260,2.61c-1-.6-4.7-1.2-5.8.3-.2-.1.1-.3.2-.4a14.46,14.46,0,0,1-3.6,0,19.66,19.66,0,0,0-4.2,0c-1,1.5-3.9-.6-4.8,1.4l.5-.4c.9.5-1.2,1.4-1.5,1.9-.8-1.2-.1-1-1-2l1.1.4-.3-1c-3.1,2.8-6.2-.9-8.2,1.1.1-.1.1-.3.2-.4-1.4-.5-2.3.8-3.3,1.2-.1-.5.6-.9,1.1-1.3-2.4-.3-6.4,1.2-9,.4-.9.7.4.9-.6,1.5-.8-.2-1.4-.7-.4-1.1-2.3-1.2-7.6,1-11.1-.2-1.8.8-.7,1.1-3.5,1.6.7-.5-.7-1.7,1-1.7l.2-.5c-2.8-.1-6.6-.3-8.1,1.2-.1-1.1-.5-.2-1.6-.8-.4.1,0,.2.2.2-1,.9-1.6-.1-2.3.1l.3-.2-2,.7c-.3-.2-.8-.4-.9-.7v.8c-1.1,0-.5-1-1.9-.8l.3.6c-.9-.4-2.2.4-2.4-.5,0-.2.1-.1.4-.1-1.3-1.2-3.5.3-5.1-.3l.4,1.3c-1.6.4-1-.3-.9-.7-1.1,0-1.3-.4-2.7-.6-.7.3-.4.5-.6.8l-1.5-.4,1-.7c-2.3,1.8-5.6-.4-7.2,1.2-.8-.4.8-.7.3-1-2.6-.9-6,1-8.2,0-3.6-1-7.8-.4-11.8-1.1l.1.3-2.9-.4c-.8.7-2.7.3-4,1.1.1-.3-.1-.7.2-.9-1.2.1-2.6.4-3.3-.1l.4-.3c-2.7-.3-6.4-.5-7.9.1-.9,0-.9-.6-1.1-1a8.16,8.16,0,0,0-3.9.7,5.1,5.1,0,0,1-1-.6l-.6.8c-.6-.1-.1-.7-.6-.9-2.5.9-5.3-.1-7-.1l.2.4c-.7.3-2.1-.3-1.2-.7-3.4-.6-5.1,1.2-9.6.8-.6-1.5-4.1.3-4.8-1.4-1.9.4-3.2-.3-4.5.6,0-.2-.2-.2.1-.3-.8-.6-3.3-.2-5.3.2l-.1-.5c-.9,1.2-4.2.9-4.9,2-.2-.2.4-.5.7-.7-1-1.1-1.8.5-3.1.2.1-.3-.3-.6,0-.8-4.4-1.2-10.6.7-16.3-.1-1.6,0,.6,1.2-1.5,1.1-.6-.6,1-1.1-.3-1.4-.9.7-1.3.5-2.6.5.2-.4,0-.6.9-.9-.7-.5-3.1.9-4.5,0,.1.3-.2.5-.5.7-2.1,1-4.9-.9-5.1-.4,0,0-.7.2-.1.3-.8,0-1.9-.2-1.7-.7-.4.3-.8.8-1.4.8l.3-.6c-.4.1-.8.5-1.1.6l.6.4c-.9-.5-2.6.8-2.6-.4H53l-1.7-.5a3.34,3.34,0,0,1-2.5.9c-.5-1.3-2.9-.2-4.3-.3l.1-.4c-1.1.6-4,.4-3.5.6-1.1,0-2.6-.2-2-.6-.8.1-2.7.1-3.2.9l-1.8-1c-1,1.6-3.6-.5-3.6,1.2-1-.2-.8-.6-1.5-.9a6.33,6.33,0,0,1-4.2.7v-.2c-1.4-.1-3.1.8-5.1,1L19.23,1c-1,.2-1.3,1.2-2.3,1-.2-.2,0-.3.2-.3a5.38,5.38,0,0,1-3.1-.2c-1.5,1-2.7.7-3.9,1.8-1.3-1,1.7-.6.6-1.6-2.2-.4-4.4.4-6.7,1.1-.2-.2,0-.4.1-.7,0,0-1.2.9-2.2,1.8S0,6,.53,6.61c-.5.9-1.2,1.4.9,2,.6-.5,2.5-1.3,2.9-.4l.1-.9c2.6-.6.4,1.8,3.6,1.6l-.7-.3c.6-.1,1.1-.7,1.8-.5.2.2-.2.4-.5.6.9-.5,1.7-.9,2.6-1.4a1,1,0,0,1-.4,1.2c2.5-.2-.6-1.6,2.4-1.4.6.4-.2.6-.5.9,1.4.7,2.3-.1,3.8-.6.1.8-.9.7.3,1.2-.3-.4-.5-1.1.5-1.2-.4.8.7.4,1.6.5a.54.54,0,0,1,.12-.75l.08,0a7.27,7.27,0,0,1,1.4.1l-1.1-.7c1.5-.8,2.4.3,3.6.6a.84.84,0,0,1-.5.3c1.2.3,2.5.9,4.1.1l-.3.1c2.9-.9-1-1.3,2.4-2.2,1.1.1-.4,2.6,2.1,1.6-1.3-.6,1.6-1.7,3.1-2l-1.5,1.6c.6,0,1.6-.5,2-.3l-.1-.3c-.2-1.3,1.9.1,3-.7-1.3,1.8-1.4,1.5-1.6,3.2a5.12,5.12,0,0,1,4.1-1.8l-1.5,1.4c2.5.2,5.5-1.9,7.6-3-.5,1,.3,1.4-.6,2.2l2.4-.3L47,8.11c1-1.2,2.1-.4,1.9-1.9-.3.2-.2.4-.7.3a1.59,1.59,0,0,1,1.7-1.3c.9.3-.5.6-.2,1,.8-.6.9.3,1.7-.1l-.8-.6c.6-.9,1.4-.1,2.2-.5-1,.4-.7.9-.3,1.4l-.1-.1c.8-.1,1.6-.7,2-.2l-.5,1.2.9-.9c.3.1.6.6,0,.8,2.8.7-.1-2.5,3.6-1.5,0,.5-.4.8-1.4.5-.2.7.1,1.1,1.1,1.4v.1c1.9,0,4.4,0,5.6-.8.4.3,0,.6-.4.9,2.1.4,2.8-.7,5,.1l-1-.4c1.4-.6,4-.8,5.3.1l-.4.3c1.3-.7,3.5.6,4,0-.6-.4,0-.6-.8-1l3.4-.7.2,1.2,1.8-.4c-.4-.5,2.4.4,2.5-.7,1,.4-.4.9-.8,1.4,1-.3,1.1.2,2.1-.5l1,1.1,2.6-.7c-.1.1,0,.2-.1.3,1.2-.9,3.1.6,4.6-.9-.1.1-.1.1-.1.2.9-.8,2.9-.2,3.7,0,1.4-.2.6-1,.6-1.4,3.9.4,2.7.3,6-.9,2,1.4-2.4,2.1.1,3,.4-.6,2.1-1.1,4.1-1.3,1.8.5,4.8.9,6.5,1.9l-.2-.9,2.6-.4-1.5,1.2a22.64,22.64,0,0,1,2.6-1.2c2.7-.7,1.4,1.9,3.5.7.1.1.1.2.2.3.7-.6,2.4-.3,4.4-.5l-.7,1.1-1.3-.3c.7,1.1,2.1-.1,3.4,0,1.3-.3.7-1.3,1.4-1.6.5.1,1.2-.2,1.6.1,1.1.4.1,1.3-.3,1.8,1-1.1,1.4-.9,3.6-1.3.1.5-.1.8-.4.9a1.64,1.64,0,0,0,1.2-.8l.7.7c2.5,1,2.6-2,5.6-1.5-.8.6,2.6,0,3.5.7-1.1.1.4,1.6-.2,2.3,2.4.5,1-1.3,3-1.4l-.9,1.3c1.9-.5.5-.7,2.4-1.1-.5.4.8.4-.3.8,2.5.2,1.9.1,4.1.3l.2-1.3c.7-.1,1,.5,1.2.7-.3,0-.8-.1-.7.1.8,1.2,1.4-.6,2.4.5-.2-.4-.5-1,.4-1.1-.3.8,1.4.8,1.4,1.2-.6-.6,2-.2,2.1-1,1,.7-.4.6-.4,1.1.9-1,3.7,0,4.6-.6,0,.1.1.1.1.2,1.2-.6,3-.7,5.3-1.5l-.8.7c2.2.4,1.4-1.5,3.3-1.5-.4,1.1,3.1,0,2.2,1.2,1.1-.6,2.3-.8,3.1-1.7,1,.6-2.1,1.4-.6,1.8L177,8l.3.6c.1-.4,1.5-.4,1.4-.8.2.7.9,1.2.8,1.8,1-.2,2.4.5,3.3-.1l.1.3c1-1.3,3.1-.2,3.6-1.5l.6.7c1.5-.1,1.3-1.5,2-1.8a6.7,6.7,0,0,1,2,0c-2,.8,1,1.1,1.4,1.6.8,0,3.1,0,3.7-.7-1,.7-.4,1.2-2.1,1.3.9,1.3,2.6-.2,4.5-.1v.6c2.7-.4,2.8-1.5,4-2.5.3.8.1,1-.7,1.7,1.8.5,4.7-.1,6.7,0,.6.5.2.9-.5,1.1,2.1-.6,4.7.1,6-1.2-.5.5.9.3,1.6.6,0-.3.1-.6.2-.6a10.62,10.62,0,0,1,5.6-.7l-.5.4a11.34,11.34,0,0,0,4.3-.9,8,8,0,0,1,4.5-.4c.7.3-.7,1.1.7,1,.7-.5.4-1.5,2.2-1.3l-.1.9,1.2-.9c-.7-.7-2.6-.4-1.3-1.2,1.6.8,1.3-.9,3.3,0-.4.1-1,.8-1.3,1.2a12.51,12.51,0,0,0,4.8-.1,11.11,11.11,0,0,1,4.9-.2c2-.8,4.6-1.2,5.9-1.9a2.75,2.75,0,0,1-.8,2.4c1.8,0,2.4-2.1,3.7-.9.7-1.3,4.7-1.2,5-3Z" transform="translate(0 0)"/><path class="cls-1" d="M58.13,7.71a6.86,6.86,0,0,0-2.3.2C56,8.11,58.13,8.51,58.13,7.71Zm150.1,2.2c-.1,0-.3.1-.4.1a.63.63,0,0,0,.4-.1Zm8.1-.4a1.31,1.31,0,0,0-.4-.3c0,.3.1.5.4.3Zm-37.8.8c.7-.4,1-.7,1-1-.4.1-.7.3-1,1ZM163,9.21c-.1.1-.2.1-.3.2C163,9.31,163,9.21,163,9.21Zm-32.8-.6a9.32,9.32,0,0,1,2.4-.5C131.93,8.31,130.73,7.81,130.23,8.61Zm95.9-.6-.7.6.8-.4Zm-7.5.6c-.3-.1-1.7.3-1.3.6A3.86,3.86,0,0,1,218.63,8.61Zm-29-.6-.3.6.7-.5Z" transform="translate(0 0)"/></svg>