<?xml version="1.0" encoding="utf-8"?>
<!-- Generator: Adobe Illustrator 22.1.0, SVG Export Plug-In . SVG Version: 6.00 Build 0)  -->
<svg version="1.1" id="Layer_1" xmlns="http://www.w3.org/2000/svg" xmlns:xlink="http://www.w3.org/1999/xlink" x="0px" y="0px"
	 viewBox="0 0 260 10.3" style="enable-background:new 0 0 260 10.3;" xml:space="preserve">
<style type="text/css">
	.st0{fill:#F3BC34;}
	.st1{fill:#D64933;}
</style>
<path class="st0" d="M206.8,3.9l-0.1,0.3C206.8,4,206.9,3.9,206.8,3.9z M234.7,6.6h-0.1C234.4,7,234.5,6.9,234.7,6.6z M54.8,0.8
	l-0.6-0.4C54.4,0.8,54.6,0.9,54.8,0.8z M34.5,6.2l0.1,0.3C34.6,6.3,34.6,6.2,34.5,6.2z M22.4,7.4c-0.3-0.1-0.7-0.1-1-0.1
	C21.8,7.4,22.1,7.4,22.4,7.4z M17.5,1.6c-0.1,0.1-0.2,0.1-0.4,0.2C17.3,1.7,17.4,1.6,17.5,1.6z M52.7,6.4l0.5,0.9
	C53.1,7,52.9,6.7,52.7,6.4z M19.5,8.2C19.3,8,19.1,8,18.9,7.9C18.9,8.1,19.2,8.2,19.5,8.2z M120.9,8c-0.1,0.1-0.2,0.2-0.2,0.3
	C121,8.2,121,8.1,120.9,8z M80.9,7L80.9,7c0,0.1,0,0.1,0.1,0.1L80.9,7z M92.6,7l-0.2,0.2C92.6,7.1,92.6,7.1,92.6,7z M72.1,7.9
	C72,8,71.8,8.1,71.7,8.2L72.1,7.9z"/>
<path class="st1" d="M260,2.6c-1-0.6-4.7-1.2-5.8,0.3c-0.2-0.1,0.1-0.3,0.2-0.4c-1.2,0.2-2.4,0.2-3.6,0c-1.4-0.2-2.8-0.2-4.2,0
	c-1,1.5-3.9-0.6-4.8,1.4l0.5-0.4c0.9,0.5-1.2,1.4-1.5,1.9c-0.8-1.2-0.1-1-1-2l1.1,0.4l-0.3-1c-3.1,2.8-6.2-0.9-8.2,1.1
	c0.1-0.1,0.1-0.3,0.2-0.4c-1.4-0.5-2.3,0.8-3.3,1.2c-0.1-0.5,0.6-0.9,1.1-1.3c-2.4-0.3-6.4,1.2-9,0.4c-0.9,0.7,0.4,0.9-0.6,1.5
	c-0.8-0.2-1.4-0.7-0.4-1.1c-2.3-1.2-7.6,1-11.1-0.2c-1.8,0.8-0.7,1.1-3.5,1.6c0.7-0.5-0.7-1.7,1-1.7l0.2-0.5
	c-2.8-0.1-6.6-0.3-8.1,1.2c-0.1-1.1-0.5-0.2-1.6-0.8c-0.4,0.1,0,0.2,0.2,0.2c-1,0.9-1.6-0.1-2.3,0.1l0.3-0.2l-2,0.7
	c-0.3-0.2-0.8-0.4-0.9-0.7v0.8c-1.1,0-0.5-1-1.9-0.8l0.3,0.6c-0.9-0.4-2.2,0.4-2.4-0.5c0-0.2,0.1-0.1,0.4-0.1
	c-1.3-1.2-3.5,0.3-5.1-0.3l0.4,1.3c-1.6,0.4-1-0.3-0.9-0.7c-1.1,0-1.3-0.4-2.7-0.6c-0.7,0.3-0.4,0.5-0.6,0.8L178.6,4l1-0.7
	c-2.3,1.8-5.6-0.4-7.2,1.2c-0.8-0.4,0.8-0.7,0.3-1c-2.6-0.9-6,1-8.2,0c-3.6-1-7.8-0.4-11.8-1.1l0.1,0.3l-2.9-0.4
	c-0.8,0.7-2.7,0.3-4,1.1c0.1-0.3-0.1-0.7,0.2-0.9c-1.2,0.1-2.6,0.4-3.3-0.1l0.4-0.3c-2.7-0.3-6.4-0.5-7.9,0.1c-0.9,0-0.9-0.6-1.1-1
	c-1.3-0.1-2.7,0.2-3.9,0.7c-0.4-0.2-0.7-0.4-1-0.6l-0.6,0.8c-0.6-0.1-0.1-0.7-0.6-0.9c-2.5,0.9-5.3-0.1-7-0.1l0.2,0.4
	c-0.7,0.3-2.1-0.3-1.2-0.7c-3.4-0.6-5.1,1.2-9.6,0.8c-0.6-1.5-4.1,0.3-4.8-1.4c-1.9,0.4-3.2-0.3-4.5,0.6c0-0.2-0.2-0.2,0.1-0.3
	C100.5-0.1,98,0.3,96,0.7l-0.1-0.5c-0.9,1.2-4.2,0.9-4.9,2c-0.2-0.2,0.4-0.5,0.7-0.7c-1-1.1-1.8,0.5-3.1,0.2c0.1-0.3-0.3-0.6,0-0.8
	C84.2-0.3,78,1.6,72.3,0.8c-1.6,0,0.6,1.2-1.5,1.1c-0.6-0.6,1-1.1-0.3-1.4C69.6,1.2,69.2,1,67.9,1c0.2-0.4,0-0.6,0.9-0.9
	c-0.7-0.5-3.1,0.9-4.5,0c0.1,0.3-0.2,0.5-0.5,0.7c-2.1,1-4.9-0.9-5.1-0.4c0,0-0.7,0.2-0.1,0.3c-0.8,0-1.9-0.2-1.7-0.7
	c-0.4,0.3-0.8,0.8-1.4,0.8l0.3-0.6c-0.4,0.1-0.8,0.5-1.1,0.6l0.6,0.4c-0.9-0.5-2.6,0.8-2.6-0.4H53l-1.7-0.5c-0.7,0.6-1.6,1-2.5,0.9
	c-0.5-1.3-2.9-0.2-4.3-0.3l0.1-0.4c-1.1,0.6-4,0.4-3.5,0.6c-1.1,0-2.6-0.2-2-0.6c-0.8,0.1-2.7,0.1-3.2,0.9l-1.8-1
	c-1,1.6-3.6-0.5-3.6,1.2c-1-0.2-0.8-0.6-1.5-0.9c-1.3,0.7-2.8,1-4.2,0.7V1.2c-1.4-0.1-3.1,0.8-5.1,1L19.2,1c-1,0.2-1.3,1.2-2.3,1
	c-0.2-0.2,0-0.3,0.2-0.3C16.1,2,15,1.9,14,1.5c-1.5,1-2.7,0.7-3.9,1.8c-1.3-1,1.7-0.6,0.6-1.6C8.5,1.3,6.3,2.1,4,2.8
	C3.8,2.6,4,2.4,4.1,2.1c0,0-1.2,0.9-2.2,1.8S0,6,0.5,6.6C0,7.5-0.7,8,1.4,8.6C2,8.1,3.9,7.3,4.3,8.2l0.1-0.9C7,6.7,4.8,9.1,8,8.9
	L7.3,8.6c0.6-0.1,1.1-0.7,1.8-0.5c0.2,0.2-0.2,0.4-0.5,0.6c0.9-0.5,1.7-0.9,2.6-1.4c0.2,0.4,0,0.9-0.4,1.2c2.5-0.2-0.6-1.6,2.4-1.4
	C13.8,7.5,13,7.7,12.7,8c1.4,0.7,2.3-0.1,3.8-0.6c0.1,0.8-0.9,0.7,0.3,1.2c-0.3-0.4-0.5-1.1,0.5-1.2c-0.4,0.8,0.7,0.4,1.6,0.5
	c-0.2-0.2-0.1-0.6,0.1-0.8c0,0,0.1,0,0.1,0c0.5,0,0.9,0,1.4,0.1l-1.1-0.7c1.5-0.8,2.4,0.3,3.6,0.6c-0.1,0.2-0.3,0.3-0.5,0.3
	c1.2,0.3,2.5,0.9,4.1,0.1l-0.3,0.1c2.9-0.9-1-1.3,2.4-2.2C29.8,5.5,28.3,8,30.8,7c-1.3-0.6,1.6-1.7,3.1-2l-1.5,1.6
	c0.6,0,1.6-0.5,2-0.3L34.3,6c-0.2-1.3,1.9,0.1,3-0.7c-1.3,1.8-1.4,1.5-1.6,3.2c1-1.2,2.5-1.9,4.1-1.8l-1.5,1.4
	c2.5,0.2,5.5-1.9,7.6-3c-0.5,1,0.3,1.4-0.6,2.2L47.7,7L47,8.1c1-1.2,2.1-0.4,1.9-1.9c-0.3,0.2-0.2,0.4-0.7,0.3
	c0.1-0.8,0.9-1.4,1.7-1.3c0.9,0.3-0.5,0.6-0.2,1c0.8-0.6,0.9,0.3,1.7-0.1l-0.8-0.6C51.2,4.6,52,5.4,52.8,5c-1,0.4-0.7,0.9-0.3,1.4
	l-0.1-0.1c0.8-0.1,1.6-0.7,2-0.2l-0.5,1.2l0.9-0.9c0.3,0.1,0.6,0.6,0,0.8c2.8,0.7-0.1-2.5,3.6-1.5c0,0.5-0.4,0.8-1.4,0.5
	c-0.2,0.7,0.1,1.1,1.1,1.4v0.1c1.9,0,4.4,0,5.6-0.8c0.4,0.3,0,0.6-0.4,0.9c2.1,0.4,2.8-0.7,5,0.1l-1-0.4c1.4-0.6,4-0.8,5.3,0.1
	l-0.4,0.3c1.3-0.7,3.5,0.6,4,0c-0.6-0.4,0-0.6-0.8-1l3.4-0.7L79,7.4L80.8,7c-0.4-0.5,2.4,0.4,2.5-0.7c1,0.4-0.4,0.9-0.8,1.4
	c1-0.3,1.1,0.2,2.1-0.5l1,1.1l2.6-0.7c-0.1,0.1,0,0.2-0.1,0.3C89.3,7,91.2,8.5,92.7,7c-0.1,0.1-0.1,0.1-0.1,0.2
	c0.9-0.8,2.9-0.2,3.7,0c1.4-0.2,0.6-1,0.6-1.4c3.9,0.4,2.7,0.3,6-0.9c2,1.4-2.4,2.1,0.1,3c0.4-0.6,2.1-1.1,4.1-1.3
	c1.8,0.5,4.8,0.9,6.5,1.9l-0.2-0.9l2.6-0.4l-1.5,1.2c0.8-0.5,1.7-0.9,2.6-1.2c2.7-0.7,1.4,1.9,3.5,0.7c0.1,0.1,0.1,0.2,0.2,0.3
	c0.7-0.6,2.4-0.3,4.4-0.5l-0.7,1.1l-1.3-0.3c0.7,1.1,2.1-0.1,3.4,0c1.3-0.3,0.7-1.3,1.4-1.6c0.5,0.1,1.2-0.2,1.6,0.1
	c1.1,0.4,0.1,1.3-0.3,1.8c1-1.1,1.4-0.9,3.6-1.3c0.1,0.5-0.1,0.8-0.4,0.9c0.5-0.1,0.9-0.4,1.2-0.8l0.7,0.7c2.5,1,2.6-2,5.6-1.5
	c-0.8,0.6,2.6,0,3.5,0.7c-1.1,0.1,0.4,1.6-0.2,2.3c2.4,0.5,1-1.3,3-1.4l-0.9,1.3c1.9-0.5,0.5-0.7,2.4-1.1c-0.5,0.4,0.8,0.4-0.3,0.8
	c2.5,0.2,1.9,0.1,4.1,0.3l0.2-1.3c0.7-0.1,1,0.5,1.2,0.7c-0.3,0-0.8-0.1-0.7,0.1c0.8,1.2,1.4-0.6,2.4,0.5c-0.2-0.4-0.5-1,0.4-1.1
	c-0.3,0.8,1.4,0.8,1.4,1.2c-0.6-0.6,2-0.2,2.1-1c1,0.7-0.4,0.6-0.4,1.1c0.9-1,3.7,0,4.6-0.6c0,0.1,0.1,0.1,0.1,0.2
	c1.2-0.6,3-0.7,5.3-1.5l-0.8,0.7c2.2,0.4,1.4-1.5,3.3-1.5c-0.4,1.1,3.1,0,2.2,1.2c1.1-0.6,2.3-0.8,3.1-1.7c1,0.6-2.1,1.4-0.6,1.8
	L177,8l0.3,0.6c0.1-0.4,1.5-0.4,1.4-0.8c0.2,0.7,0.9,1.2,0.8,1.8c1-0.2,2.4,0.5,3.3-0.1l0.1,0.3c1-1.3,3.1-0.2,3.6-1.5l0.6,0.7
	c1.5-0.1,1.3-1.5,2-1.8c0.7-0.1,1.3-0.1,2,0c-2,0.8,1,1.1,1.4,1.6c0.8,0,3.1,0,3.7-0.7c-1,0.7-0.4,1.2-2.1,1.3
	c0.9,1.3,2.6-0.2,4.5-0.1v0.6c2.7-0.4,2.8-1.5,4-2.5c0.3,0.8,0.1,1-0.7,1.7c1.8,0.5,4.7-0.1,6.7,0c0.6,0.5,0.2,0.9-0.5,1.1
	c2.1-0.6,4.7,0.1,6-1.2c-0.5,0.5,0.9,0.3,1.6,0.6c0-0.3,0.1-0.6,0.2-0.6c1.8-0.7,3.7-1,5.6-0.7L221,8.7c1.5,0,2.9-0.3,4.3-0.9
	c1.4-0.6,3-0.7,4.5-0.4c0.7,0.3-0.7,1.1,0.7,1c0.7-0.5,0.4-1.5,2.2-1.3L232.6,8l1.2-0.9c-0.7-0.7-2.6-0.4-1.3-1.2
	c1.6,0.8,1.3-0.9,3.3,0c-0.4,0.1-1,0.8-1.3,1.2c1.6,0.3,3.2,0.2,4.8-0.1c1.6-0.4,3.3-0.5,4.9-0.2c2-0.8,4.6-1.2,5.9-1.9
	c0.1,0.9-0.2,1.8-0.8,2.4c1.8,0,2.4-2.1,3.7-0.9c0.7-1.3,4.7-1.2,5-3L260,2.6z"/>
<path class="st0" d="M58.1,7.7c-0.8-0.1-1.6,0-2.3,0.2C56,8.1,58.1,8.5,58.1,7.7z M208.2,9.9c-0.1,0-0.3,0.1-0.4,0.1
	C208,10,208.1,10,208.2,9.9L208.2,9.9z M216.3,9.5c-0.1-0.1-0.2-0.2-0.4-0.3C215.9,9.5,216,9.7,216.3,9.5L216.3,9.5z M178.5,10.3
	c0.7-0.4,1-0.7,1-1C179.1,9.4,178.8,9.6,178.5,10.3L178.5,10.3z M163,9.2c-0.1,0.1-0.2,0.1-0.3,0.2C163,9.3,163,9.2,163,9.2z
	 M130.2,8.6c0.8-0.3,1.6-0.4,2.4-0.5C131.9,8.3,130.7,7.8,130.2,8.6z M226.1,8l-0.7,0.6l0.8-0.4L226.1,8z M218.6,8.6
	c-0.3-0.1-1.7,0.3-1.3,0.6C217.7,8.9,218.2,8.7,218.6,8.6z M189.6,8l-0.3,0.6l0.7-0.5L189.6,8z"/>
</svg>
